<svg width="40" height="40" viewBox="0 0 40 40" fill="none" xmlns="http://www.w3.org/2000/svg">
<mask id="mask0_1_627" style="mask-type:luminance" maskUnits="userSpaceOnUse" x="0" y="0" width="40" height="40">
<path d="M39.8609 0.579346H0.836548V39.6037H39.8609V0.579346Z" fill="white"/>
</mask>
<g mask="url(#mask0_1_627)">
<path d="M33.4992 26.2135C34.6015 18.9812 29.5039 12.2069 22.1131 11.0827C14.7223 9.95854 7.83732 14.9101 6.73495 22.1422C5.63258 29.3744 10.7303 36.1487 18.1211 37.2729C25.5118 38.3972 32.3969 33.4457 33.4992 26.2135Z" fill="#D5C8FB" stroke="#1D1D1B" stroke-width="0.8" stroke-linecap="round" stroke-linejoin="round"/>
<path d="M33.4799 22.1917C33.4799 26.1342 27.6292 29.6365 20.2376 29.6365C12.7741 29.6365 6.76538 26.1342 6.76538 22.0732" stroke="#1D1D1B" stroke-width="0.8" stroke-linecap="round" stroke-linejoin="round"/>
<path d="M18.4757 37.324C14.5781 36.73 11.9958 30.4298 13.0986 23.1946C14.2122 15.8891 18.5709 10.5353 22.5855 11.1472" stroke="#1D1D1B" stroke-width="0.8" stroke-linecap="round" stroke-linejoin="round"/>
<path d="M32.3809 5.53742C32.3809 8.36469 30.8917 17.1761 29.5427 20.5489C29.4882 20.6851 29.3648 20.7692 29.2894 20.7269L27.2548 19.5854C27.2548 19.5854 22.4562 15.4317 22.4562 11.6977C22.4562 7.96371 24.5919 4.20818 27.2548 2.67075C28.4304 1.99201 29.8079 1.98437 30.5547 2.26891C30.8731 2.39227 32.7485 3.35453 32.7485 3.35453C33.3084 3.94069 32.3809 4.33656 32.3809 5.53742Z" fill="#1D1D1B"/>
<path d="M32.3809 5.53742C32.3809 8.36469 30.8917 17.1761 29.5427 20.5489C29.4882 20.6851 29.3648 20.7692 29.2894 20.7269L27.2548 19.5854C27.2548 19.5854 22.4562 15.4317 22.4562 11.6977C22.4562 7.96371 24.5919 4.20818 27.2548 2.67075C28.4304 1.99201 29.8079 1.98437 30.5547 2.26891C30.8731 2.39227 32.7485 3.35453 32.7485 3.35453C33.3084 3.94069 32.3809 4.33656 32.3809 5.53742Z" stroke="#1D1D1B" stroke-width="0.8" stroke-linecap="round" stroke-linejoin="round"/>
<path d="M34.2569 6.5133C34.2569 10.2671 29.8677 19.8663 29.4649 20.7394C29.4484 20.775 29.4216 20.7909 29.4045 20.7753C28.9867 20.3944 24.4641 16.1889 24.4641 12.6275C24.4641 9.5526 26.7724 5.26698 29.4353 3.72956C32.0983 2.19214 34.2569 3.43847 34.2569 6.5133Z" fill="#EFE9FE"/>
<path d="M34.2569 6.51331C34.2569 10.2671 29.8677 19.8663 29.4649 20.7394C29.4484 20.775 29.4216 20.7909 29.4045 20.7753C28.9867 20.3944 24.4641 16.1889 24.4641 12.6275C24.4641 9.5526 26.7724 5.26698 29.4353 3.72956C32.0983 2.19214 34.2569 3.43847 34.2569 6.51331Z" stroke="#1D1D1B" stroke-width="0.8" stroke-linecap="round"/>
<path d="M29.6577 12.0252C30.9003 11.3077 31.9077 9.56285 31.9077 8.12793C31.9077 6.69301 30.9003 6.11139 29.6577 6.82885C28.415 7.54631 27.4076 9.29116 27.4076 10.7261C27.4076 12.161 28.415 12.7426 29.6577 12.0252Z" fill="white" stroke="#1D1D1B" stroke-width="0.8" stroke-linecap="round" stroke-linejoin="round"/>
</g>
</svg>
