<svg width="40" height="40" viewBox="0 0 40 40" fill="none" xmlns="http://www.w3.org/2000/svg">
<mask id="mask0_1_500" style="mask-type:luminance" maskUnits="userSpaceOnUse" x="0" y="0" width="40" height="40">
<path d="M39.8609 0.579346H0.836548V39.6037H39.8609V0.579346Z" fill="white"/>
</mask>
<g mask="url(#mask0_1_500)">
<path d="M32.0862 5.21575L33.7659 6.22359C33.8248 6.25886 33.8607 6.32237 33.8607 6.39091V8.07956C33.8607 8.14997 33.8228 8.21492 33.7615 8.2495L10.6461 21.289C10.5838 21.3241 10.5073 21.3223 10.4466 21.2844L7.85498 19.6611C7.79801 19.6255 7.76343 19.5629 7.76343 19.4957V18.2088C7.76343 18.1645 7.77851 18.1215 7.80619 18.0869L19.0148 4.07615C19.0558 4.02488 19.1199 3.99768 19.1853 4.00377L32.0451 5.20226C32.0597 5.20362 32.0737 5.20822 32.0862 5.21575Z" fill="#1D1D1B"/>
<path d="M32.0862 5.21575L33.7659 6.22359C33.8248 6.25886 33.8607 6.32237 33.8607 6.39091V8.07956C33.8607 8.14997 33.8228 8.21492 33.7615 8.2495L10.6461 21.289C10.5838 21.3241 10.5073 21.3224 10.4466 21.2844L7.85498 19.6611C7.79801 19.6255 7.76343 19.5629 7.76343 19.4957V18.2088C7.76343 18.1645 7.77851 18.1215 7.80619 18.0869L19.0148 4.07615C19.0558 4.02488 19.1199 3.99768 19.1853 4.00377L32.0451 5.20226C32.0597 5.20362 32.0738 5.20822 32.0862 5.21575Z" stroke="#1D1D1B" stroke-width="0.8" stroke-linejoin="round"/>
<path d="M8.5554 32.7235C8.22877 32.5349 8.22877 32.2291 8.5554 32.0406L29.3069 20.0597C29.4002 20.0058 29.5515 20.0058 29.6449 20.0597L33.3997 22.2276C33.7263 22.4162 33.7263 22.7219 33.3997 22.9105L12.6482 34.8913C12.5548 34.9452 12.4036 34.9452 12.3102 34.8913L8.5554 32.7235Z" fill="#D5C8FB"/>
<path d="M8.5554 32.7235C8.22877 32.5349 8.22877 32.2291 8.5554 32.0406L29.3069 20.0597C29.4002 20.0058 29.5515 20.0058 29.6449 20.0597L33.3997 22.2276C33.7263 22.4162 33.7263 22.7219 33.3997 22.9105L12.6482 34.8913C12.5548 34.9452 12.4036 34.9452 12.3102 34.8913L8.5554 32.7235Z" stroke="#1D1D1B" stroke-width="0.8" stroke-linejoin="round"/>
<path fill-rule="evenodd" clip-rule="evenodd" d="M30.8563 22.7573C30.8602 22.7552 30.8642 22.7529 30.868 22.7507C30.868 22.7507 30.8677 22.7182 30.8673 22.6637C30.8687 22.6364 30.8685 22.6091 30.8668 22.5818C30.8651 22.3318 30.8629 21.87 30.868 21.6548C30.8756 21.3401 30.6716 21.0242 30.2559 20.7842C29.4393 20.3128 28.1155 20.3128 27.2991 20.7842C26.8833 21.0242 26.6792 21.3401 26.6869 21.6548C26.692 21.87 26.6899 22.3318 26.6881 22.5818C26.6864 22.6091 26.6862 22.6364 26.6875 22.6637C26.6872 22.7182 26.6869 22.7507 26.6869 22.7507C26.6908 22.7529 26.6947 22.7552 26.6987 22.7573C26.7477 23.0218 26.9479 23.2787 27.2991 23.4814C28.1155 23.9528 29.4393 23.9528 30.2559 23.4814C30.6071 23.2787 30.8072 23.0218 30.8563 22.7573Z" fill="#D5C8FB"/>
<path fill-rule="evenodd" clip-rule="evenodd" d="M30.868 22.7479C30.876 23.0629 30.672 23.3792 30.2559 23.6194C29.4394 24.0909 28.1156 24.0909 27.2991 23.6194C26.8829 23.3792 26.6789 23.0629 26.6869 22.7479C26.6874 22.6975 26.6939 21.9477 26.6869 21.6548C26.6793 21.3401 26.8834 21.0242 27.2991 20.7842C28.1156 20.3128 29.4394 20.3128 30.2559 20.7842C30.6717 21.0242 30.8757 21.3401 30.868 21.6548C30.861 21.9477 30.8677 22.6975 30.868 22.7479Z" fill="#EFE9FE"/>
<mask id="mask1_1_500" style="mask-type:luminance" maskUnits="userSpaceOnUse" x="25" y="19" width="8" height="7">
<path d="M32.5403 19.4551H25.7111V25.3087H32.5403V19.4551Z" fill="white"/>
<path fill-rule="evenodd" clip-rule="evenodd" d="M30.868 22.7479C30.876 23.0629 30.672 23.3792 30.2559 23.6194C29.4394 24.0909 28.1156 24.0909 27.2991 23.6194C26.8829 23.3792 26.6789 23.0629 26.6869 22.7479C26.6874 22.6975 26.6939 21.9477 26.6869 21.6548C26.6793 21.3401 26.8834 21.0242 27.2991 20.7842C28.1156 20.3128 29.4394 20.3128 30.2559 20.7842C30.6717 21.0242 30.8757 21.3401 30.868 21.6548C30.861 21.9477 30.8677 22.6975 30.868 22.7479Z" fill="black"/>
</mask>
<g mask="url(#mask1_1_500)">
<path d="M30.868 22.7479H30.0876V22.7579L30.0878 22.7678L30.868 22.7479ZM26.6869 22.7479L27.4672 22.7678L27.4674 22.7549L26.6869 22.7479ZM30.868 22.7479H31.6486L31.6485 22.7409L30.868 22.7479ZM30.0878 22.7678C30.0872 22.7423 30.0976 22.7409 30.0778 22.7696C30.0551 22.8026 29.9958 22.8683 29.8657 22.9434L30.6462 24.2953C31.2071 23.9714 31.6662 23.4305 31.6483 22.7281L30.0878 22.7678ZM29.8657 22.9434C29.6039 23.0945 29.2118 23.1925 28.7775 23.1925C28.3431 23.1925 27.951 23.0945 27.6893 22.9434L26.9088 24.2953C27.4637 24.6156 28.1417 24.7535 28.7775 24.7535C29.4132 24.7535 30.0914 24.6156 30.6462 24.2953L29.8657 22.9434ZM27.6893 22.9434C27.5591 22.8683 27.4998 22.8026 27.4771 22.7696C27.4574 22.7409 27.4678 22.7423 27.4672 22.7678L25.9067 22.728C25.8887 23.4305 26.3478 23.9714 26.9088 24.2953L27.6893 22.9434ZM27.4674 22.7549C27.4678 22.7113 27.4746 21.9452 27.4671 21.6359L25.9066 21.6735C25.9132 21.9502 25.907 22.6836 25.9064 22.7409L27.4674 22.7549ZM27.4671 21.6359C27.4678 21.6614 27.4574 21.6627 27.4772 21.6339C27.4999 21.6008 27.5593 21.5352 27.6893 21.4601L26.9088 20.1083C26.3484 20.4318 25.8897 20.9719 25.9066 21.6735L27.4671 21.6359ZM27.6893 21.4601C27.951 21.3091 28.3431 21.2111 28.7775 21.2111C29.2118 21.2111 29.6039 21.3091 29.8657 21.4601L30.6462 20.1083C30.0914 19.788 29.4132 19.6501 28.7775 19.6501C28.1417 19.6501 27.4637 19.788 26.9088 20.1083L27.6893 21.4601ZM29.8657 21.4601C29.9958 21.5352 30.055 21.6008 30.0777 21.6339C30.0976 21.6627 30.0873 21.6614 30.0878 21.6359L31.6483 21.6735C31.6653 20.9719 31.2065 20.4318 30.6462 20.1083L29.8657 21.4601ZM30.0878 21.6359C30.0803 21.9452 30.0873 22.7113 30.0877 22.7549L31.6485 22.7409C31.648 22.6836 31.6417 21.9502 31.6483 21.6735L30.0878 21.6359Z" fill="#1D1D1B"/>
</g>
<path d="M27.5691 11.1643H29.9863V20.8328C29.9863 20.8328 29.9863 21.2356 28.7777 21.2356C27.5691 21.2356 27.5691 20.8328 27.5691 20.8328V11.1643Z" fill="white"/>
<path d="M27.5691 10.7742H27.1788V11.1644V20.8329H27.5691C27.1788 20.8329 27.1788 20.8341 27.1788 20.8341V20.8352V20.8376L27.1789 20.8425L27.1793 20.8529C27.1797 20.8601 27.1802 20.8679 27.1811 20.8762C27.1827 20.8929 27.1855 20.9115 27.1899 20.932C27.1986 20.973 27.2139 21.0201 27.2389 21.0704C27.2904 21.1734 27.376 21.274 27.5037 21.359C27.7487 21.5224 28.1423 21.626 28.7777 21.626C29.413 21.626 29.8066 21.5224 30.0516 21.359C30.1793 21.2739 30.2649 21.1734 30.3164 21.0704C30.3415 21.0201 30.3566 20.973 30.3655 20.9319C30.3698 20.9115 30.3726 20.8928 30.3742 20.8762C30.375 20.8679 30.3756 20.8601 30.3759 20.8529L30.3763 20.8425L30.3764 20.8376V20.8351L30.3765 20.834C30.3765 20.834 30.3765 20.8329 29.9862 20.8329H30.3765V11.1644V10.7742H29.9862H27.5691Z" stroke="#1D1D1B" stroke-width="0.8"/>
<path fill-rule="evenodd" clip-rule="evenodd" d="M30.868 11.4674C30.876 11.7823 30.672 12.0986 30.2559 12.3389C29.4394 12.8103 28.1156 12.8103 27.2991 12.3389C26.8829 12.0986 26.6789 11.7823 26.6869 11.4674C26.6874 11.417 26.6939 10.6672 26.6869 10.3742C26.6793 10.0596 26.8834 9.74372 27.2991 9.50371C28.1156 9.03229 29.4394 9.03229 30.2559 9.50371C30.6717 9.74372 30.8757 10.0596 30.868 10.3742C30.861 10.6672 30.8677 11.417 30.868 11.4674Z" fill="#EFE9FE"/>
<mask id="mask2_1_500" style="mask-type:luminance" maskUnits="userSpaceOnUse" x="25" y="8" width="8" height="7">
<path d="M32.5403 8.17456H25.7111V14.0282H32.5403V8.17456Z" fill="white"/>
<path fill-rule="evenodd" clip-rule="evenodd" d="M30.868 11.4674C30.876 11.7823 30.672 12.0986 30.2559 12.3389C29.4394 12.8103 28.1156 12.8103 27.2991 12.3389C26.8829 12.0986 26.6789 11.7823 26.6869 11.4674C26.6874 11.417 26.6939 10.6672 26.6869 10.3742C26.6793 10.0596 26.8834 9.74372 27.2991 9.50371C28.1156 9.03229 29.4394 9.03229 30.2559 9.50371C30.6717 9.74372 30.8757 10.0596 30.868 10.3742C30.861 10.6672 30.8677 11.417 30.868 11.4674Z" fill="black"/>
</mask>
<g mask="url(#mask2_1_500)">
<path d="M30.868 11.4674H30.0876V11.4773L30.0878 11.4873L30.868 11.4674ZM26.6869 11.4674L27.4672 11.4873L27.4674 11.4744L26.6869 11.4674ZM30.868 11.4674H31.6486L31.6485 11.4604L30.868 11.4674ZM30.0878 11.4873C30.0872 11.4618 30.0976 11.4604 30.0778 11.489C30.0551 11.5221 29.9958 11.5878 29.8657 11.6629L30.6462 13.0148C31.2071 12.6909 31.6662 12.15 31.6483 11.4476L30.0878 11.4873ZM29.8657 11.6629C29.6039 11.814 29.2118 11.912 28.7775 11.912C28.3431 11.912 27.951 11.814 27.6893 11.6629L26.9088 13.0148C27.4637 13.3351 28.1417 13.4729 28.7775 13.4729C29.4132 13.4729 30.0914 13.3351 30.6462 13.0148L29.8657 11.6629ZM27.6893 11.6629C27.5591 11.5878 27.4998 11.5221 27.4771 11.489C27.4574 11.4604 27.4678 11.4618 27.4672 11.4873L25.9067 11.4475C25.8887 12.15 26.3478 12.6909 26.9088 13.0148L27.6893 11.6629ZM27.4674 11.4744C27.4678 11.4308 27.4746 10.6646 27.4671 10.3554L25.9066 10.3929C25.9132 10.6697 25.907 11.4031 25.9064 11.4604L27.4674 11.4744ZM27.4671 10.3554C27.4678 10.3808 27.4574 10.3822 27.4772 10.3533C27.4999 10.3203 27.5593 10.2547 27.6893 10.1796L26.9088 8.82776C26.3484 9.15129 25.8897 9.69135 25.9066 10.3929L27.4671 10.3554ZM27.6893 10.1796C27.951 10.0285 28.3431 9.93059 28.7775 9.93059C29.2118 9.93059 29.6039 10.0285 29.8657 10.1796L30.6462 8.82776C30.0914 8.50742 29.4132 8.36963 28.7775 8.36963C28.1417 8.36963 27.4637 8.50742 26.9088 8.82776L27.6893 10.1796ZM29.8657 10.1796C29.9958 10.2547 30.055 10.3203 30.0777 10.3533C30.0976 10.3822 30.0873 10.3808 30.0878 10.3554L31.6483 10.3929C31.6653 9.69135 31.2065 9.15129 30.6462 8.82776L29.8657 10.1796ZM30.0878 10.3554C30.0803 10.6646 30.0873 11.4308 30.0877 11.4744L31.6485 11.4604C31.648 11.4031 31.6417 10.6697 31.6483 10.3929L30.0878 10.3554Z" fill="#1D1D1B"/>
</g>
<path fill-rule="evenodd" clip-rule="evenodd" d="M23.6824 26.9419C23.6864 26.9396 23.6903 26.9374 23.6942 26.9351C23.6942 26.9351 23.6939 26.9026 23.6934 26.8483C23.6949 26.821 23.6947 26.7936 23.6928 26.7663C23.6912 26.5164 23.689 26.0546 23.6942 25.8392C23.7017 25.5247 23.4977 25.2088 23.082 24.9688C22.2655 24.4974 20.9416 24.4974 20.1251 24.9688C19.7094 25.2088 19.5053 25.5247 19.5129 25.8392C19.5181 26.0546 19.5159 26.5164 19.5142 26.7663C19.5124 26.7936 19.5122 26.821 19.5136 26.8483C19.5132 26.9026 19.5129 26.9351 19.5129 26.9351C19.5168 26.9374 19.5207 26.9396 19.5247 26.9419C19.5739 27.2064 19.774 27.4632 20.1251 27.666C20.9416 28.1374 22.2655 28.1374 23.082 27.666C23.4331 27.4632 23.6332 27.2064 23.6824 26.9419Z" fill="#D5C8FB"/>
<path fill-rule="evenodd" clip-rule="evenodd" d="M19.5129 26.9325C19.5134 26.8821 19.5199 26.1322 19.5129 25.8392C19.5053 25.5247 19.7094 25.2088 20.1251 24.9688C20.9416 24.4974 22.2655 24.4974 23.082 24.9688C23.4977 25.2088 23.7017 25.5247 23.6942 25.8392C23.6871 26.1322 23.6937 26.8821 23.6942 26.9325C23.7022 27.2473 23.4981 27.5637 23.082 27.8039C22.2655 28.2753 20.9416 28.2753 20.1251 27.8039C19.7089 27.5637 19.5049 27.2473 19.5129 26.9325Z" fill="#EFE9FE"/>
<mask id="mask3_1_500" style="mask-type:luminance" maskUnits="userSpaceOnUse" x="18" y="23" width="8" height="7">
<path d="M25.3664 23.6396H18.5371V29.4933H25.3664V23.6396Z" fill="white"/>
<path fill-rule="evenodd" clip-rule="evenodd" d="M19.5129 26.9325C19.5134 26.8821 19.5199 26.1322 19.5129 25.8392C19.5053 25.5247 19.7094 25.2088 20.1251 24.9688C20.9416 24.4974 22.2655 24.4974 23.082 24.9688C23.4977 25.2088 23.7017 25.5247 23.6942 25.8392C23.6871 26.1322 23.6937 26.8821 23.6942 26.9325C23.7022 27.2473 23.4981 27.5637 23.082 27.8039C22.2655 28.2753 20.9416 28.2753 20.1251 27.8039C19.7089 27.5637 19.5049 27.2473 19.5129 26.9325Z" fill="black"/>
</mask>
<g mask="url(#mask3_1_500)">
<path d="M19.5129 26.9325L20.2933 26.9524L20.2934 26.9395L19.5129 26.9325ZM23.6942 26.9325L22.9136 26.9395L22.9139 26.9524L23.6942 26.9325ZM20.2934 26.9395C20.2938 26.8959 20.3006 26.1297 20.2932 25.8204L18.7326 25.858C18.7394 26.1347 18.733 26.8682 18.7325 26.9254L20.2934 26.9395ZM20.2932 25.8204C20.2938 25.8458 20.2835 25.8472 20.3033 25.8184C20.3261 25.7854 20.3853 25.7197 20.5154 25.6447L19.7349 24.2929C19.1745 24.6164 18.7158 25.1564 18.7326 25.858L20.2932 25.8204ZM20.5154 25.6447C20.777 25.4935 21.1691 25.3957 21.6036 25.3957C22.0379 25.3957 22.4301 25.4935 22.6918 25.6447L23.4722 24.2929C22.9174 23.9725 22.2394 23.8347 21.6036 23.8347C20.9678 23.8347 20.2897 23.9725 19.7349 24.2929L20.5154 25.6447ZM22.6918 25.6447C22.8218 25.7197 22.881 25.7854 22.9038 25.8184C22.9237 25.8472 22.9133 25.8458 22.9139 25.8204L24.4744 25.858C24.4914 25.1564 24.0326 24.6164 23.4722 24.2929L22.6918 25.6447ZM22.9139 25.8204C22.9065 26.1297 22.9132 26.8959 22.9136 26.9395L24.4746 26.9254C24.4741 26.8682 24.4678 26.1347 24.4744 25.858L22.9139 25.8204ZM22.9139 26.9524C22.9132 26.9269 22.9237 26.9253 22.9038 26.9541C22.8811 26.9872 22.8219 27.0529 22.6918 27.128L23.4722 28.4799C24.0332 28.156 24.4923 27.6151 24.4744 26.9126L22.9139 26.9524ZM22.6918 27.128C22.4301 27.2791 22.0379 27.377 21.6036 27.377C21.1691 27.377 20.777 27.2791 20.5154 27.128L19.7349 28.4799C20.2897 28.8002 20.9678 28.9379 21.6036 28.9379C22.2394 28.9379 22.9174 28.8002 23.4722 28.4799L22.6918 27.128ZM20.5154 27.128C20.3851 27.0529 20.3259 26.9872 20.3033 26.9541C20.2835 26.9253 20.2939 26.9269 20.2933 26.9524L18.7327 26.9126C18.7148 27.6151 19.1739 28.156 19.7349 28.4799L20.5154 27.128Z" fill="#1D1D1B"/>
</g>
<path d="M20.3949 15.3499H22.812V25.0183C22.812 25.0183 22.812 25.4213 21.6035 25.4213C20.3949 25.4213 20.3949 25.0183 20.3949 25.0183V15.3499Z" fill="white"/>
<path d="M20.3949 14.9595H20.0046V15.3497V25.0182H20.3949C20.0046 25.0182 20.0046 25.0194 20.0046 25.0194V25.0205V25.0229L20.0047 25.0279L20.0051 25.0383C20.0054 25.0455 20.006 25.0533 20.0069 25.0616C20.0085 25.0782 20.0113 25.0969 20.0157 25.1173C20.0244 25.1584 20.0396 25.2055 20.0647 25.2558C20.1162 25.3588 20.2018 25.4593 20.3295 25.5444C20.5745 25.7077 20.9682 25.8114 21.6035 25.8114C22.2388 25.8114 22.6324 25.7077 22.8774 25.5444C23.005 25.4593 23.0907 25.3587 23.1422 25.2557C23.1673 25.2054 23.1824 25.1583 23.1912 25.1173C23.1956 25.0968 23.1983 25.0782 23.2001 25.0615C23.2008 25.0532 23.2014 25.0454 23.2017 25.0382L23.2021 25.0278L23.2022 25.0229V25.0205V25.0194C23.2022 25.0194 23.2022 25.0182 22.812 25.0182H23.2022V15.3497V14.9595H22.812H20.3949Z" stroke="#1D1D1B" stroke-width="0.8"/>
<path fill-rule="evenodd" clip-rule="evenodd" d="M19.5129 15.6531C19.5134 15.6025 19.5199 14.8528 19.5129 14.5598C19.5053 14.2453 19.7094 13.9294 20.1251 13.6893C20.9416 13.2178 22.2655 13.2178 23.082 13.6893C23.4977 13.9294 23.7017 14.2453 23.6942 14.5598C23.6871 14.8528 23.6937 15.6026 23.6942 15.6531C23.7022 15.9679 23.4981 16.2842 23.082 16.5245C22.2655 16.9959 20.9416 16.9959 20.1251 16.5245C19.7089 16.2842 19.5049 15.9679 19.5129 15.6531Z" fill="#EFE9FE"/>
<mask id="mask4_1_500" style="mask-type:luminance" maskUnits="userSpaceOnUse" x="18" y="12" width="8" height="7">
<path d="M25.3664 12.3601H18.5371V18.2138H25.3664V12.3601Z" fill="white"/>
<path fill-rule="evenodd" clip-rule="evenodd" d="M19.5129 15.6531C19.5134 15.6025 19.5199 14.8528 19.5129 14.5598C19.5053 14.2453 19.7094 13.9294 20.1251 13.6893C20.9416 13.2178 22.2655 13.2178 23.082 13.6893C23.4977 13.9294 23.7017 14.2453 23.6942 14.5598C23.6871 14.8528 23.6937 15.6026 23.6942 15.6531C23.7022 15.9679 23.4981 16.2842 23.082 16.5245C22.2655 16.9959 20.9416 16.9959 20.1251 16.5245C19.7089 16.2842 19.5049 15.9679 19.5129 15.6531Z" fill="black"/>
</mask>
<g mask="url(#mask4_1_500)">
<path d="M19.5129 15.653L20.2933 15.6729L20.2934 15.6601L19.5129 15.653ZM23.6942 15.653L22.9136 15.6601L22.9139 15.6729L23.6942 15.653ZM20.2934 15.6601C20.2938 15.6163 20.3006 14.8502 20.2932 14.5409L18.7326 14.5786C18.7394 14.8553 18.733 15.5886 18.7325 15.646L20.2934 15.6601ZM20.2932 14.5409C20.2938 14.5664 20.2835 14.5678 20.3033 14.539C20.3261 14.5058 20.3853 14.4402 20.5154 14.3652L19.7349 13.0133C19.1745 13.3369 18.7158 13.8769 18.7326 14.5786L20.2932 14.5409ZM20.5154 14.3652C20.777 14.2141 21.1691 14.1162 21.6036 14.1162C22.0379 14.1162 22.4301 14.2141 22.6918 14.3652L23.4722 13.0133C22.9174 12.693 22.2394 12.5552 21.6036 12.5552C20.9678 12.5552 20.2897 12.693 19.7349 13.0133L20.5154 14.3652ZM22.6918 14.3652C22.8218 14.4402 22.881 14.5058 22.9038 14.539C22.9237 14.5678 22.9133 14.5664 22.9139 14.5409L24.4744 14.5786C24.4914 13.8769 24.0326 13.3369 23.4722 13.0133L22.6918 14.3652ZM22.9139 14.5409C22.9065 14.8502 22.9132 15.6164 22.9136 15.6601L24.4746 15.646C24.4741 15.5887 24.4678 14.8553 24.4744 14.5786L22.9139 14.5409ZM22.9139 15.6729C22.9132 15.6474 22.9237 15.6459 22.9038 15.6747C22.8811 15.7078 22.8219 15.7733 22.6918 15.8485L23.4722 17.2003C24.0332 16.8765 24.4923 16.3356 24.4744 15.6331L22.9139 15.6729ZM22.6918 15.8485C22.4301 15.9997 22.0379 16.0975 21.6036 16.0975C21.1691 16.0975 20.777 15.9997 20.5154 15.8485L19.7349 17.2003C20.2897 17.5207 20.9678 17.6585 21.6036 17.6585C22.2394 17.6585 22.9174 17.5207 23.4722 17.2003L22.6918 15.8485ZM20.5154 15.8485C20.3851 15.7733 20.3259 15.7078 20.3033 15.6747C20.2835 15.6459 20.2939 15.6474 20.2933 15.6729L18.7327 15.6331C18.7148 16.3356 19.1739 16.8765 19.7349 17.2003L20.5154 15.8485Z" fill="#1D1D1B"/>
</g>
<path fill-rule="evenodd" clip-rule="evenodd" d="M15.9105 31.3655C15.9145 31.3633 15.9184 31.361 15.9223 31.3588C15.9223 31.3588 15.922 31.3263 15.9216 31.272C15.923 31.2446 15.9228 31.2172 15.921 31.1899C15.9193 30.9401 15.9171 30.4782 15.9223 30.2629C15.9299 29.9484 15.7258 29.6325 15.3101 29.3925C14.4936 28.9209 13.1698 28.9209 12.3532 29.3925C11.9375 29.6325 11.7335 29.9484 11.741 30.2629C11.7463 30.4782 11.7441 30.9401 11.7424 31.1899C11.7406 31.2172 11.7404 31.2446 11.7418 31.272C11.7413 31.3263 11.741 31.3588 11.741 31.3588C11.7449 31.361 11.7488 31.3633 11.7528 31.3655C11.802 31.63 12.0021 31.8869 12.3532 32.0896C13.1698 32.561 14.4936 32.561 15.3101 32.0896C15.6612 31.8869 15.8614 31.63 15.9105 31.3655Z" fill="#D5C8FB"/>
<path fill-rule="evenodd" clip-rule="evenodd" d="M15.922 31.3562C15.9301 31.671 15.726 31.9873 15.3099 32.2276C14.4933 32.699 13.1695 32.699 12.353 32.2276C11.9368 31.9873 11.7328 31.671 11.7408 31.3562C11.7413 31.3056 11.7479 30.5559 11.7408 30.2629C11.7332 29.9484 11.9373 29.6325 12.353 29.3925C13.1695 28.9209 14.4933 28.9209 15.3099 29.3925C15.7256 29.6325 15.9296 29.9484 15.9221 30.2629C15.915 30.5559 15.9216 31.3057 15.922 31.3562Z" fill="#EFE9FE"/>
<mask id="mask5_1_500" style="mask-type:luminance" maskUnits="userSpaceOnUse" x="10" y="28" width="8" height="6">
<path d="M17.5943 28.0632H10.765V33.9169H17.5943V28.0632Z" fill="white"/>
<path fill-rule="evenodd" clip-rule="evenodd" d="M15.922 31.3562C15.9301 31.671 15.726 31.9873 15.3099 32.2276C14.4933 32.699 13.1695 32.699 12.353 32.2276C11.9368 31.9873 11.7328 31.671 11.7408 31.3562C11.7413 31.3056 11.7479 30.5559 11.7408 30.2629C11.7332 29.9484 11.9373 29.6325 12.353 29.3925C13.1695 28.9209 14.4933 28.9209 15.3099 29.3925C15.7256 29.6325 15.9296 29.9484 15.9221 30.2629C15.915 30.5559 15.9216 31.3057 15.922 31.3562Z" fill="black"/>
</mask>
<g mask="url(#mask5_1_500)">
<path d="M15.922 31.3562H15.1415V31.3661L15.1418 31.3761L15.922 31.3562ZM11.7408 31.3562L12.5212 31.3761L12.5213 31.3632L11.7408 31.3562ZM15.922 31.3562H16.7026L16.7025 31.3491L15.922 31.3562ZM15.1418 31.3761C15.1411 31.3505 15.1516 31.349 15.1318 31.3778C15.109 31.4109 15.0498 31.4764 14.9197 31.5517L15.7001 32.9035C16.2611 32.5797 16.7201 32.0388 16.7023 31.3363L15.1418 31.3761ZM14.9197 31.5517C14.6579 31.7028 14.2658 31.8006 13.8315 31.8006C13.397 31.8006 13.0049 31.7028 12.7433 31.5517L11.9628 32.9035C12.5176 33.2239 13.1957 33.3616 13.8315 33.3616C14.4673 33.3616 15.1453 33.2239 15.7001 32.9035L14.9197 31.5517ZM12.7433 31.5517C12.613 31.4764 12.5538 31.4109 12.5311 31.3778C12.5114 31.349 12.5218 31.3505 12.5212 31.3761L10.9606 31.3363C10.9427 32.0387 11.4018 32.5797 11.9628 32.9035L12.7433 31.5517ZM12.5213 31.3632C12.5217 31.3195 12.5285 30.5533 12.5211 30.2441L10.9605 30.2817C10.9673 30.5584 10.9609 31.2918 10.9603 31.3491L12.5213 31.3632ZM12.5211 30.2441C12.5217 30.2695 12.5114 30.2709 12.5312 30.2421C12.5539 30.2089 12.6132 30.1434 12.7433 30.0684L11.9628 28.7164C11.4024 29.0401 10.9437 29.5801 10.9605 30.2817L12.5211 30.2441ZM12.7433 30.0684C13.0049 29.9172 13.397 29.8193 13.8315 29.8193C14.2658 29.8193 14.6579 29.9172 14.9197 30.0684L15.7001 28.7164C15.1453 28.3962 14.4673 28.2583 13.8315 28.2583C13.1957 28.2583 12.5176 28.3962 11.9628 28.7164L12.7433 30.0684ZM14.9197 30.0684C15.0497 30.1434 15.1089 30.2089 15.1317 30.2421C15.1516 30.2709 15.1412 30.2695 15.1418 30.2441L16.7023 30.2817C16.7193 29.5801 16.2605 29.0401 15.7001 28.7164L14.9197 30.0684ZM15.1418 30.2441C15.1344 30.5533 15.1412 31.3196 15.1416 31.3632L16.7025 31.3491C16.702 31.2919 16.6957 30.5584 16.7023 30.2817L15.1418 30.2441Z" fill="#1D1D1B"/>
</g>
<path d="M12.6229 19.7734H15.04V29.4419C15.04 29.4419 15.04 29.8449 13.8315 29.8449C12.6229 29.8449 12.6229 29.4419 12.6229 29.4419V19.7734Z" fill="white"/>
<path d="M12.6229 19.3831H12.2327V19.7733V29.4418H12.6229C12.2327 29.4418 12.2327 29.443 12.2327 29.443V29.4441V29.4465L12.2328 29.4513L12.2332 29.4618C12.2334 29.4691 12.234 29.4768 12.2349 29.4852C12.2366 29.5018 12.2393 29.5205 12.2437 29.5409C12.2525 29.5819 12.2676 29.6291 12.2928 29.6793C12.3443 29.7824 12.4298 29.8829 12.5574 29.9679C12.8024 30.1313 13.1962 30.235 13.8315 30.235C14.4668 30.235 14.8605 30.1313 15.1054 29.9679C15.2331 29.8828 15.3186 29.7823 15.3702 29.6793C15.3953 29.629 15.4104 29.5819 15.4192 29.5408C15.4236 29.5204 15.4263 29.5018 15.428 29.4851C15.4289 29.4768 15.4294 29.469 15.4297 29.4618L15.4301 29.4513L15.4302 29.4465V29.4441V29.443C15.4302 29.443 15.4302 29.4418 15.04 29.4418H15.4302V19.7733V19.3831H15.04H12.6229Z" stroke="#1D1D1B" stroke-width="0.8"/>
<path fill-rule="evenodd" clip-rule="evenodd" d="M15.922 20.0766C15.9301 20.3915 15.726 20.7078 15.3099 20.9481C14.4933 21.4195 13.1695 21.4195 12.353 20.9481C11.9368 20.7078 11.7328 20.3915 11.7408 20.0765C11.7413 20.0261 11.7479 19.2764 11.7408 18.9834C11.7332 18.6688 11.9373 18.3528 12.353 18.1128C13.1695 17.6414 14.4933 17.6414 15.3099 18.1128C15.7256 18.3528 15.9296 18.6688 15.9221 18.9834C15.915 19.2764 15.9216 20.0262 15.922 20.0766Z" fill="#EFE9FE"/>
<mask id="mask6_1_500" style="mask-type:luminance" maskUnits="userSpaceOnUse" x="10" y="16" width="8" height="7">
<path d="M17.5943 16.7837H10.765V22.6374H17.5943V16.7837Z" fill="white"/>
<path fill-rule="evenodd" clip-rule="evenodd" d="M15.922 20.0766C15.9301 20.3915 15.726 20.7078 15.3099 20.9481C14.4933 21.4195 13.1695 21.4195 12.353 20.9481C11.9368 20.7078 11.7328 20.3915 11.7408 20.0765C11.7413 20.0261 11.7479 19.2764 11.7408 18.9834C11.7332 18.6688 11.9373 18.3528 12.353 18.1128C13.1695 17.6414 14.4933 17.6414 15.3099 18.1128C15.7256 18.3528 15.9296 18.6688 15.9221 18.9834C15.915 19.2764 15.9216 20.0262 15.922 20.0766Z" fill="black"/>
</mask>
<g mask="url(#mask6_1_500)">
<path d="M15.922 20.0766H15.1415V20.0865L15.1418 20.0964L15.922 20.0766ZM11.7408 20.0765L12.5212 20.0964L12.5213 20.0835L11.7408 20.0765ZM15.922 20.0766L16.7026 20.0765L16.7025 20.0695L15.922 20.0766ZM15.1418 20.0964C15.1411 20.071 15.1516 20.0695 15.1318 20.0983C15.109 20.1313 15.0498 20.1969 14.9197 20.2721L15.7001 21.6239C16.2611 21.3 16.7201 20.7592 16.7023 20.0567L15.1418 20.0964ZM14.9197 20.2721C14.6579 20.4231 14.2658 20.5211 13.8315 20.5211C13.397 20.5211 13.0049 20.4231 12.7433 20.2721L11.9628 21.6239C12.5176 21.9442 13.1957 22.0821 13.8315 22.0821C14.4673 22.0821 15.1453 21.9442 15.7001 21.6239L14.9197 20.2721ZM12.7433 20.2721C12.613 20.1969 12.5538 20.1312 12.5311 20.0983C12.5114 20.0695 12.5218 20.071 12.5212 20.0964L10.9606 20.0566C10.9427 20.7592 11.4018 21.3 11.9628 21.6239L12.7433 20.2721ZM12.5213 20.0835C12.5217 20.0399 12.5285 19.2738 12.5211 18.9645L10.9605 19.0021C10.9673 19.2789 10.9609 20.0122 10.9603 20.0695L12.5213 20.0835ZM12.5211 18.9645C12.5217 18.99 12.5114 18.9913 12.5312 18.9625C12.5539 18.9294 12.6132 18.8638 12.7433 18.7887L11.9628 17.4369C11.4024 17.7604 10.9437 18.3005 10.9605 19.0021L12.5211 18.9645ZM12.7433 18.7887C13.0049 18.6377 13.397 18.5397 13.8315 18.5397C14.2658 18.5397 14.6579 18.6377 14.9197 18.7887L15.7001 17.4369C15.1453 17.1166 14.4673 16.9788 13.8315 16.9788C13.1957 16.9788 12.5176 17.1166 11.9628 17.4369L12.7433 18.7887ZM14.9197 18.7887C15.0497 18.8638 15.1089 18.9294 15.1317 18.9625C15.1516 18.9913 15.1412 18.99 15.1418 18.9645L16.7023 19.0021C16.7193 18.3005 16.2605 17.7604 15.7001 17.4369L14.9197 18.7887ZM15.1418 18.9645C15.1344 19.2738 15.1412 20.0399 15.1416 20.0835L16.7025 20.0695C16.702 20.0122 16.6957 19.2789 16.7023 19.0021L15.1418 18.9645Z" fill="#1D1D1B"/>
</g>
<path d="M11.1428 19.6949V21.1616C11.1428 21.2693 11.2184 21.313 11.3118 21.2592L33.7724 8.2915C33.8657 8.23762 33.9414 8.10658 33.9414 7.99882V6.53213C33.9414 6.46318 33.9098 6.41754 33.8585 6.41209L22.6282 5.21906C22.5751 5.21342 22.5091 5.25151 22.456 5.31845L11.2257 19.4792C11.1743 19.5439 11.1428 19.626 11.1428 19.6949Z" fill="#D5C8FB"/>
<path d="M11.1428 19.6949V21.1616C11.1428 21.2693 11.2184 21.313 11.3118 21.2592L33.7724 8.2915C33.8657 8.23762 33.9414 8.10658 33.9414 7.99882V6.53213C33.9414 6.46318 33.9098 6.41754 33.8585 6.41209L22.6282 5.21906C22.5751 5.21342 22.5091 5.25151 22.456 5.31845L11.2257 19.4792C11.1743 19.5439 11.1428 19.626 11.1428 19.6949Z" stroke="#1D1D1B" stroke-width="0.8" stroke-linejoin="round"/>
<path d="M33.6183 22.7528L12.6134 34.7835C12.5689 34.8091 12.5261 34.8132 12.4946 34.7949L8.15356 32.2868V35.6227C8.15356 35.6732 8.1705 35.7119 8.2008 35.7308L12.4936 38.4019C12.5257 38.4218 12.5699 38.4179 12.6161 38.391L33.7024 26.1208C33.7955 26.0666 33.8708 25.936 33.8708 25.8285V22.8997C33.8708 22.7385 33.7579 22.6729 33.6183 22.7528Z" fill="#D5C8FB"/>
<path d="M33.6183 22.7528L12.6134 34.7835C12.5689 34.8091 12.5261 34.8132 12.4946 34.7949L8.15356 32.2868V35.6227C8.15356 35.6732 8.1705 35.7119 8.2008 35.7308L12.4936 38.4019C12.5257 38.4218 12.5699 38.4179 12.6161 38.391L33.7024 26.1208C33.7955 26.0666 33.8708 25.936 33.8708 25.8285V22.8997C33.8708 22.7385 33.7579 22.6729 33.6183 22.7528Z" stroke="#1D1D1B" stroke-width="0.8" stroke-linejoin="round"/>
</g>
</svg>
