<svg width="40" height="40" viewBox="0 0 40 40" fill="none" xmlns="http://www.w3.org/2000/svg">
<mask id="mask0_1_480" style="mask-type:luminance" maskUnits="userSpaceOnUse" x="0" y="0" width="40" height="40">
<path d="M39.8609 0.579346H0.836487V39.6037H39.8609V0.579346Z" fill="white"/>
</mask>
<g mask="url(#mask0_1_480)">
<path d="M10.0877 37.0122L10.0876 9.98912C10.0876 9.8499 10.1617 9.72128 10.2821 9.65148L21.2393 3.30026C21.2541 3.29165 21.271 3.28711 21.2882 3.28711H21.6298C21.6968 3.28711 21.7568 3.31708 21.791 3.37457C23.1998 5.74169 25.4745 14.8519 26.3349 18.0943C26.4149 18.3959 26.3469 18.7134 26.1518 18.9569L11.2643 37.532C11.2075 37.6029 11.1094 37.6252 11.0277 37.586L10.1984 37.1881C10.1307 37.1558 10.0877 37.0874 10.0877 37.0122Z" fill="#1D1D1B"/>
<path d="M10.0877 37.0122L10.0876 9.98912C10.0876 9.8499 10.1617 9.72128 10.2821 9.65148L21.2393 3.30026C21.2541 3.29165 21.271 3.28711 21.2882 3.28711H21.6298C21.6968 3.28711 21.7568 3.31708 21.791 3.37457C23.1998 5.74169 25.4745 14.8519 26.3349 18.0943C26.4149 18.3958 26.3469 18.7134 26.1518 18.9569L11.2643 37.532C11.2075 37.6029 11.1094 37.6252 11.0277 37.586L10.1984 37.1881C10.1307 37.1558 10.0877 37.0874 10.0877 37.0122Z" stroke="#1D1D1B"/>
<path d="M11.1661 9.8713C11.1661 9.76349 11.2418 9.63247 11.3351 9.57859L21.7569 3.56161C21.8017 3.53573 21.8447 3.53147 21.8763 3.54977L28.5615 7.40941C28.5931 7.42771 28.6109 7.46828 28.6109 7.52002C28.6109 15.1486 28.6109 18.6423 28.6109 27.3835C28.6109 27.4913 28.5352 27.6252 28.4419 27.679L11.3351 37.5556C11.2418 37.6095 11.1661 37.5658 11.1661 37.458V9.8713Z" fill="#D5C8FB" stroke="#1D1D1B"/>
<path d="M28.3211 7.27167L22.1139 3.68798C22.0075 3.62652 21.8254 3.81866 21.8254 3.9925V11.1599C21.8254 11.2676 21.901 11.3113 21.9944 11.2575L28.2015 7.67375C28.3521 7.58683 28.4275 7.33313 28.3211 7.27167Z" fill="#EFE9FE" stroke="#1D1D1B"/>
<path d="M20.9736 11.3558C20.9736 11.6252 21.1921 11.8437 21.4614 11.8437C21.7309 11.8437 21.9492 11.6252 21.9492 11.3558H20.9736ZM20.9736 4.08179V11.3558H21.9492V4.08179H20.9736Z" fill="#1D1D1B"/>
<path d="M25.7144 13.9811L14.5236 20.4421L14.5236 30.4541L25.7144 23.9931L25.7144 13.9811Z" fill="white" stroke="#1D1D1B" stroke-linejoin="round"/>
<path d="M23.4705 17.1648C23.5117 17.1671 23.5287 17.2181 23.5045 17.2786C22.921 18.8137 22.4003 20.1115 21.9354 21.2084C22.0105 21.436 22.0759 21.6685 22.1316 21.8888C22.2308 22.3029 22.2937 22.683 22.2937 22.9736C22.2937 23.1213 22.2816 23.2448 22.2332 23.3634C22.2138 23.4046 22.1921 23.4458 22.1582 23.4821C22.1339 23.5087 22.1073 23.533 22.0831 23.5451C21.9983 23.591 21.9354 23.5765 21.8651 23.5475C21.795 23.516 21.7199 23.4627 21.64 23.3901C21.5068 23.269 21.3543 23.102 21.1872 22.901C20.4511 24.499 19.8845 25.4943 19.4366 26.0996C19.1581 26.4749 18.9232 26.7026 18.7174 26.8236C18.6375 26.8696 18.5649 26.8987 18.497 26.9107C18.301 26.9495 18.1387 26.8745 18.0055 26.7219C17.8699 26.5694 17.7634 26.3393 17.6762 26.0585C17.5067 25.4943 17.4244 24.7194 17.4219 23.9204C17.4196 23.3853 17.4534 22.8404 17.5261 22.3417C17.5963 21.8404 17.7052 21.3852 17.853 21.0244C17.9523 20.7823 18.0709 20.5765 18.2235 20.4336C18.2719 20.39 18.3203 20.3537 18.3688 20.3246C18.5091 20.2424 18.6496 20.2254 18.7925 20.2471C18.933 20.2713 19.0782 20.3344 19.2259 20.4239C19.5116 20.6007 19.8094 20.8912 20.1073 21.2182C20.1485 20.8331 20.1993 20.4942 20.2622 20.2157C20.3155 19.9857 20.3761 19.7968 20.4608 19.6442C20.5092 19.5571 20.5697 19.4796 20.6375 19.4287L20.6715 19.4045C20.7514 19.3609 20.8264 19.3586 20.8967 19.3779C20.9645 19.4021 21.0323 19.4481 21.0976 19.511C21.2308 19.6394 21.364 19.8427 21.4898 20.0947C21.6254 20.3586 21.7563 20.6757 21.8725 21.0051C22.3156 19.9517 22.8095 18.7169 23.3592 17.2689C23.3737 17.2277 23.4028 17.1938 23.4342 17.1769L23.4705 17.1648ZM20.2937 24.4168C20.5334 23.9616 20.7973 23.4191 21.088 22.7848C20.8168 22.453 20.5238 22.0729 20.2211 21.7146C20.1896 22.1262 20.1678 22.5765 20.1532 23.0438C20.1509 23.0995 20.1145 23.16 20.0661 23.1891C20.0176 23.2157 19.9789 23.1915 19.9813 23.1358C20.0008 22.5668 20.0274 22.0268 20.071 21.5426C19.945 21.3973 19.8191 21.2593 19.6908 21.1334C19.3712 20.8113 19.054 20.5643 18.7779 20.4893C18.6206 20.4457 18.4777 20.4602 18.3639 20.5256C18.3324 20.545 18.301 20.5667 18.2694 20.5958C18.175 20.683 18.0806 20.8355 17.9934 21.0462C17.9062 21.2569 17.8312 21.5208 17.7706 21.8162C17.6495 22.407 17.5866 23.1237 17.589 23.826C17.5915 24.4144 17.6374 24.9882 17.7294 25.4676C17.8239 25.947 17.9644 26.3297 18.1436 26.5354C18.2646 26.671 18.4002 26.7292 18.5455 26.7001C18.5964 26.688 18.6521 26.6662 18.7126 26.6323C18.8772 26.5379 19.0807 26.3466 19.3372 25.9979C19.6036 25.642 19.9184 25.1335 20.2937 24.4168ZM20.2501 21.3852C20.5843 21.7726 20.9088 22.194 21.1969 22.5499C21.3712 22.1649 21.5553 21.7435 21.749 21.2883C21.6086 20.8646 21.439 20.4578 21.2671 20.1503C21.1218 19.8839 20.9692 19.6903 20.8385 19.62C20.7683 19.5788 20.7053 19.5813 20.6715 19.6006L20.657 19.6104C20.6375 19.6249 20.6109 19.6515 20.5818 19.7072C20.5504 19.7605 20.5189 19.838 20.4874 19.9324C20.4269 20.1236 20.3736 20.3876 20.3276 20.6999C20.2985 20.9082 20.2719 21.1383 20.2501 21.3852ZM22.1218 23.0729C22.1218 22.7315 22.0177 22.194 21.8604 21.6491C21.8458 21.5983 21.8289 21.545 21.8143 21.4942C21.6328 21.9179 21.4609 22.3077 21.2962 22.6709C21.456 22.8647 21.6037 23.0317 21.7296 23.1528C21.8458 23.2618 21.945 23.332 22.0177 23.3489C22.0516 23.3586 22.0759 23.3538 22.0831 23.3489L22.088 23.3368C22.0928 23.3271 22.0976 23.3077 22.1025 23.2835C22.1146 23.2351 22.1218 23.16 22.1218 23.0729Z" fill="#1D1D1B" stroke="#1D1D1B" stroke-width="0.2"/>
</g>
</svg>
