<svg width="40" height="40" viewBox="0 0 40 40" fill="none" xmlns="http://www.w3.org/2000/svg">
<mask id="mask0_1_567" style="mask-type:luminance" maskUnits="userSpaceOnUse" x="0" y="0" width="40" height="40">
<path d="M39.8609 0.579346H0.836487V39.6037H39.8609V0.579346Z" fill="white"/>
</mask>
<g mask="url(#mask0_1_567)">
<path d="M27.4075 4.48156L4.47752 17.7202C3.54427 18.259 2.78772 19.5694 2.78772 20.647L2.78772 31.6234C2.78772 32.701 3.54427 33.1378 4.47753 32.599L27.4075 19.3604C28.3408 18.8216 29.0973 17.5112 29.0973 16.4336L29.0973 5.45717C29.0973 4.37954 28.3408 3.94274 27.4075 4.48156Z" fill="#1D1D1B" stroke="#1D1D1B" stroke-width="0.8" stroke-linejoin="round"/>
<path d="M28.2917 7.10338L5.36168 20.342C4.42843 20.8808 3.67188 22.1912 3.67188 23.2688L3.67188 32.4547C3.67188 33.5323 4.42843 33.9691 5.36168 33.4303L28.2917 20.1917C29.2249 19.6529 29.9815 18.3425 29.9815 17.2648L29.9815 8.07899C29.9815 7.00136 29.2249 6.56457 28.2917 7.10338Z" fill="#D5C8FB" stroke="#1D1D1B" stroke-width="0.8" stroke-linejoin="round"/>
<path d="M3.67188 21.4138C3.67188 20.3362 4.42843 19.0258 5.36168 18.487L28.2916 5.24837C29.2249 4.70955 29.9815 5.14635 29.9815 6.22398V10.8205L3.67188 26.0104V21.4138Z" fill="#EFE9FE" stroke="#1D1D1B" stroke-width="0.8" stroke-linejoin="round"/>
<path d="M6.1676 29.5856L8.1891 28.4185" stroke="#1D1D1B" stroke-width="0.8" stroke-linejoin="round"/>
<path d="M9.04938 27.9259L11.0709 26.7588" stroke="#1D1D1B" stroke-width="0.8" stroke-linejoin="round"/>
<path d="M11.9289 26.2604L13.9504 25.0933" stroke="#1D1D1B" stroke-width="0.8" stroke-linejoin="round"/>
<path d="M14.8099 24.598L16.8314 23.4309" stroke="#1D1D1B" stroke-width="0.8" stroke-linejoin="round"/>
<path d="M17.6906 22.9325L19.7121 21.7654" stroke="#1D1D1B" stroke-width="0.8" stroke-linejoin="round"/>
<path d="M20.5704 21.2719L22.592 20.1047" stroke="#1D1D1B" stroke-width="0.8" stroke-linejoin="round"/>
<path d="M33.8357 36.4551L36.2472 34.9379L25.1099 16.5952L24.5613 17.3926C24.4442 17.5627 24.3962 17.771 24.4272 17.9752L26.6721 32.7925C26.7188 33.1006 27.0804 33.2437 27.3253 33.0512L30.0372 30.9191L33.2705 36.3199C33.3876 36.5155 33.6428 36.5766 33.8357 36.4551Z" fill="#1D1D1B"/>
<path fill-rule="evenodd" clip-rule="evenodd" d="M25.4341 16.7473L27.9751 31.8445L30.6446 29.7144L34.2827 35.8316L38.0379 33.7332L34.3976 27.6121L37.4989 26.4678L25.4341 16.7473Z" fill="white"/>
<path d="M27.9751 31.8444L27.5856 31.902C27.6086 32.0385 27.7046 32.1538 27.8371 32.2038C27.9695 32.2539 28.1184 32.2312 28.2273 32.1444L27.9751 31.8444ZM25.4341 16.7472L25.6828 16.451C25.5555 16.3485 25.3775 16.3326 25.2358 16.4111C25.094 16.4898 25.0179 16.6464 25.0446 16.8048L25.4341 16.7472ZM30.6446 29.7143L30.9853 29.524C30.9267 29.4256 30.8271 29.3566 30.713 29.3354C30.5988 29.3144 30.4816 29.3432 30.3925 29.4144L30.6446 29.7143ZM34.2827 35.8315L33.942 36.0219C34.0523 36.2071 34.294 36.2721 34.4822 36.1669L34.2827 35.8315ZM38.0379 33.7331L38.2374 34.0685C38.3278 34.018 38.3934 33.9342 38.4199 33.8356C38.4463 33.737 38.4315 33.6316 38.3786 33.5426L38.0379 33.7331ZM34.3975 27.612L34.2537 27.251C34.1461 27.2906 34.0624 27.3746 34.0246 27.4807C33.9867 27.5867 33.9985 27.7043 34.0569 27.8024L34.3975 27.612ZM37.4989 26.4677L37.6427 26.8287C37.7736 26.7804 37.8674 26.6674 37.889 26.5321C37.9106 26.3968 37.8568 26.2594 37.7476 26.1715L37.4989 26.4677ZM28.3647 31.7868L25.8236 16.6897L25.0446 16.8048L27.5856 31.902L28.3647 31.7868ZM30.3925 29.4144L27.7229 31.5444L28.2273 32.1444L30.8968 30.0144L30.3925 29.4144ZM34.6234 35.6412L30.9853 29.524L30.304 29.9047L33.942 36.0219L34.6234 35.6412ZM37.8385 33.3977L34.0833 35.4961L34.4822 36.1669L38.2374 34.0685L37.8385 33.3977ZM34.0569 27.8024L37.6973 33.9234L38.3786 33.5426L34.7382 27.4217L34.0569 27.8024ZM37.3551 26.1066L34.2537 27.251L34.5413 27.9731L37.6427 26.8287L37.3551 26.1066ZM25.1854 17.0434L37.2502 26.7639L37.7476 26.1715L25.6828 16.451L25.1854 17.0434Z" fill="#1D1D1B"/>
</g>
</svg>
