<svg width="40" height="40" viewBox="0 0 40 40" fill="none" xmlns="http://www.w3.org/2000/svg">
<mask id="mask0_1_415" style="mask-type:luminance" maskUnits="userSpaceOnUse" x="0" y="0" width="40" height="40">
<path d="M39.8609 0.579346H0.836487V39.6037H39.8609V0.579346Z" fill="white"/>
</mask>
<g mask="url(#mask0_1_415)">
<path d="M30.5925 2.74023C34.5027 2.74023 37.9932 4.41359 38.8683 6.66476L38.8852 15.7011C38.8852 18.532 35.1762 20.8276 30.5926 20.8276C26.0128 20.8276 22.3 18.532 22.3 15.7011L22.2999 6.92419C23.0157 4.54336 26.5334 2.74023 30.5925 2.74023Z" fill="#D5C8FB" stroke="#1D1D1B" stroke-width="0.8" stroke-miterlimit="10"/>
<path d="M30.5927 21.2273C30.8083 21.2273 30.983 21.0526 30.983 20.837C30.983 20.6215 30.8083 20.4468 30.5927 20.4468V21.2273ZM21.9099 15.7107C21.9099 17.3113 22.9582 18.6995 24.5238 19.6674C26.0955 20.639 28.2422 21.2273 30.5927 21.2273V20.4468C28.3635 20.4468 26.3639 19.8874 24.9342 19.0035C23.4984 18.1159 22.6904 16.9409 22.6904 15.7107H21.9099Z" fill="#1D1D1B"/>
<path d="M30.5927 18.0518C30.8083 18.0518 30.983 17.8771 30.983 17.6616C30.983 17.4461 30.8083 17.2714 30.5927 17.2714V18.0518ZM21.9099 12.5352C21.9099 14.1357 22.9582 15.5239 24.5238 16.4918C26.0955 17.4634 28.2422 18.0518 30.5927 18.0518V17.2714C28.3635 17.2714 26.3639 16.7118 24.9342 15.828C23.4984 14.9403 22.6904 13.7654 22.6904 12.5352H21.9099Z" fill="#1D1D1B"/>
<path d="M30.5927 14.8765C30.8083 14.8765 30.983 14.7018 30.983 14.4863C30.983 14.2707 30.8083 14.096 30.5927 14.096V14.8765ZM21.9099 9.35986C21.9099 10.9605 22.9582 12.3487 24.5238 13.3165C26.0955 14.2882 28.2422 14.8765 30.5927 14.8765V14.096C28.3635 14.096 26.3639 13.5365 24.9342 12.6527C23.4984 11.7651 22.6904 10.5901 22.6904 9.35986H21.9099Z" fill="#1D1D1B"/>
<path d="M30.5925 11.8076C35.1761 11.8076 38.8851 9.5121 38.8851 6.6813C38.8851 3.85051 35.1723 1.55493 30.5925 1.55493C26.0127 1.55493 22.2999 3.85051 22.2999 6.6813C22.2999 9.5121 26.0127 11.8076 30.5925 11.8076Z" fill="#EFE9FE" stroke="#1D1D1B" stroke-width="0.8" stroke-miterlimit="10"/>
<path d="M31.843 9.17434C30.8883 9.25755 29.9263 9.18397 28.9952 8.95642C28.9285 8.93114 28.8567 8.92173 28.7857 8.92893C28.7148 8.93614 28.6465 8.9598 28.5861 8.99798L27.2813 9.75041L26.4217 9.23147L27.6851 8.4997L26.8463 8.01192L25.5777 8.74358L24.7389 8.25582L26.0541 7.49819C26.1011 7.47971 26.1398 7.44467 26.1629 7.39962C26.1697 7.3784 26.1699 7.35559 26.1635 7.33425C26.157 7.3129 26.1442 7.29406 26.1266 7.28027C25.815 6.88481 25.6616 6.38707 25.6968 5.88437C25.7629 5.36134 26.0103 4.87817 26.3959 4.5195C26.8745 4.05985 27.4445 3.70624 28.0684 3.48163C28.8062 3.19432 29.5829 3.01941 30.3726 2.96269L30.735 2.92114H30.7712L30.3001 3.8137C29.7904 3.86937 29.2906 3.9934 28.8139 4.18225C28.4088 4.3397 28.0379 4.57396 27.7214 4.87234C27.4625 5.10823 27.2818 5.41787 27.2036 5.75971C27.1436 6.08028 27.2005 6.41183 27.3641 6.69382L29.7874 5.29271L30.621 5.77529L29.5854 6.38772L28.0787 7.25949C28.0269 7.28544 27.9803 7.36847 28.0114 7.38923L28.6793 7.77324C28.7134 7.78085 28.7488 7.78085 28.7829 7.77324C28.817 7.78103 28.8524 7.78103 28.8864 7.77324L31.4754 6.26318L32.3142 6.75095L29.9117 8.14166C30.4395 8.23623 30.9767 8.26581 31.5117 8.22984C32.0403 8.20126 32.5627 8.10186 33.065 7.93414C33.4961 7.7974 33.8994 7.58478 34.256 7.30625C34.546 7.08818 34.7672 6.7908 34.8928 6.44992L36.4462 6.16968C36.4462 6.16968 35.7213 8.74346 31.843 9.17434Z" fill="#1D1D1B"/>
<path d="M11.0803 10.5449C14.9905 10.5449 18.4811 12.2183 19.3561 14.4694L19.3731 23.5058C19.3731 26.3366 15.664 28.6322 11.0805 28.6322C6.50068 28.6322 2.78785 26.3366 2.78785 23.5058L2.78772 14.7288C3.50348 12.348 7.02127 10.5449 11.0803 10.5449Z" fill="#D5C8FB" stroke="#1D1D1B" stroke-width="0.8" stroke-miterlimit="10"/>
<path d="M11.0806 29.0322C11.2961 29.0322 11.4708 28.8576 11.4708 28.642C11.4708 28.4265 11.2961 28.2517 11.0806 28.2517V29.0322ZM2.39771 23.5156C2.39771 25.1162 3.44604 26.5044 5.01163 27.4723C6.5833 28.4439 8.73 29.0322 11.0806 29.0322V28.2517C8.85133 28.2517 6.85172 27.6923 5.42204 26.8084C3.98627 25.9208 3.17819 24.7459 3.17819 23.5156H2.39771Z" fill="#1D1D1B"/>
<path d="M11.0806 25.8568C11.2961 25.8568 11.4708 25.682 11.4708 25.4665C11.4708 25.251 11.2961 25.0763 11.0806 25.0763V25.8568ZM2.39771 20.3401C2.39771 21.9407 3.44604 23.3289 5.01163 24.2968C6.5833 25.2684 8.73 25.8568 11.0806 25.8568V25.0763C8.85133 25.0763 6.85172 24.5168 5.42204 23.633C3.98627 22.7453 3.17819 21.5703 3.17819 20.3401H2.39771Z" fill="#1D1D1B"/>
<path d="M11.0806 22.6814C11.2961 22.6814 11.4708 22.5066 11.4708 22.2911C11.4708 22.0756 11.2961 21.9009 11.0806 21.9009V22.6814ZM2.39771 17.1648C2.39771 18.7654 3.44604 20.1536 5.01163 21.1214C6.5833 22.0931 8.73 22.6814 11.0806 22.6814V21.9009C8.85133 21.9009 6.85172 21.3414 5.42204 20.4576C3.98627 19.57 3.17819 18.3949 3.17819 17.1648H2.39771Z" fill="#1D1D1B"/>
<path d="M11.0803 19.6125C15.6639 19.6125 19.373 17.317 19.373 14.4863C19.373 11.6554 15.6601 9.35986 11.0803 9.35986C6.50055 9.35986 2.78772 11.6554 2.78772 14.4863C2.78772 17.317 6.50055 19.6125 11.0803 19.6125Z" fill="#EFE9FE" stroke="#1D1D1B" stroke-width="0.8" stroke-miterlimit="10"/>
<path d="M12.3308 16.9793C11.3761 17.0626 10.4141 16.9889 9.483 16.7614C9.41627 16.7361 9.34458 16.7267 9.27359 16.7339C9.20261 16.7411 9.13431 16.7648 9.07398 16.803L7.76914 17.5553L6.90958 17.0364L8.17297 16.3047L7.33414 15.8169L6.06557 16.5485L5.22675 16.0608L6.54197 15.3031C6.589 15.2847 6.62764 15.2497 6.65068 15.2046C6.65756 15.1833 6.6578 15.1605 6.65131 15.1392C6.64483 15.1179 6.63197 15.0991 6.61446 15.0853C6.30279 14.6898 6.1495 14.192 6.18466 13.6893C6.25069 13.1663 6.49811 12.6831 6.88366 12.3245C7.36237 11.8648 7.93225 11.5112 8.55619 11.2866C9.29409 10.9993 10.0707 10.8244 10.8604 10.7676L11.2228 10.7261H11.259L10.7879 11.6187C10.2782 11.6744 9.77843 11.7984 9.30179 11.9872C8.89668 12.1447 8.52572 12.379 8.20924 12.6773C7.95031 12.9132 7.76961 13.2229 7.69145 13.5647C7.63143 13.8853 7.68836 14.2168 7.85194 14.4988L10.2752 13.0977L11.1089 13.5802L10.0733 14.1927L8.56649 15.0645C8.51472 15.0904 8.46811 15.1735 8.49918 15.1942L9.16716 15.5782C9.20125 15.5858 9.23665 15.5858 9.27075 15.5782C9.30483 15.586 9.3402 15.586 9.37429 15.5782L11.9632 14.0681L12.802 14.5559L10.3995 15.9467C10.9273 16.0412 11.4646 16.0708 11.9995 16.0349C12.5281 16.0063 13.0505 15.9069 13.5529 15.7391C13.9839 15.6024 14.3872 15.3898 14.7438 15.1112C15.0338 14.8931 15.255 14.5957 15.3807 14.2549L16.934 13.9747C16.934 13.9747 16.2092 16.5484 12.3308 16.9793Z" fill="#1D1D1B"/>
<path d="M25.7144 20.301C29.6246 20.301 33.1152 21.9744 33.9902 24.2255L34.0072 33.2619C34.0072 36.0927 30.2981 38.3883 25.7146 38.3883C21.1348 38.3883 17.4219 36.0927 17.4219 33.2619L17.4218 24.4849C18.1376 22.1041 21.6554 20.301 25.7144 20.301Z" fill="#D5C8FB" stroke="#1D1D1B" stroke-width="0.8" stroke-miterlimit="10"/>
<path d="M25.7147 38.7883C25.9302 38.7883 26.1049 38.6137 26.1049 38.3981C26.1049 38.1826 25.9302 38.0078 25.7147 38.0078V38.7883ZM17.0319 33.2717C17.0319 34.8723 18.0802 36.2605 19.6457 37.2284C21.2174 38.2 23.3642 38.7883 25.7147 38.7883V38.0078C23.4854 38.0078 21.4858 37.4484 20.0562 36.5645C18.6203 35.6769 17.8123 34.502 17.8123 33.2717H17.0319Z" fill="#1D1D1B"/>
<path d="M25.7147 35.6129C25.9302 35.6129 26.1049 35.4381 26.1049 35.2226C26.1049 35.0071 25.9302 34.8324 25.7147 34.8324V35.6129ZM17.0319 30.0962C17.0319 31.6968 18.0802 33.085 19.6457 34.0529C21.2174 35.0245 23.3642 35.6129 25.7147 35.6129V34.8324C23.4854 34.8324 21.4858 34.2729 20.0562 33.3891C18.6203 32.5014 17.8123 31.3264 17.8123 30.0962H17.0319Z" fill="#1D1D1B"/>
<path d="M25.7147 32.4375C25.9302 32.4375 26.1049 32.2628 26.1049 32.0472C26.1049 31.8317 25.9302 31.657 25.7147 31.657V32.4375ZM17.0319 26.9209C17.0319 28.5215 18.0802 29.9097 19.6457 30.8775C21.2174 31.8492 23.3642 32.4375 25.7147 32.4375V31.657C23.4854 31.657 21.4858 31.0975 20.0562 30.2137C18.6203 29.3261 17.8123 28.151 17.8123 26.9209H17.0319Z" fill="#1D1D1B"/>
<path d="M25.7144 29.3686C30.298 29.3686 34.0071 27.073 34.0071 24.2423C34.0071 21.4115 30.2942 19.116 25.7144 19.116C21.1347 19.116 17.4218 21.4115 17.4218 24.2423C17.4218 27.073 21.1347 29.3686 25.7144 29.3686Z" fill="#EFE9FE" stroke="#1D1D1B" stroke-width="0.8" stroke-miterlimit="10"/>
<path d="M26.9649 26.7354C26.0102 26.8187 25.0483 26.745 24.1171 26.5175C24.0504 26.4922 23.9787 26.4828 23.9077 26.49C23.8367 26.4972 23.7684 26.5209 23.7081 26.5591L22.4033 27.3114L21.5437 26.7925L22.8071 26.0608L21.9683 25.573L20.6997 26.3046L19.8608 25.8169L21.1761 25.0593C21.2231 25.0408 21.2617 25.0058 21.2848 24.9607C21.2917 24.9394 21.2919 24.9166 21.2854 24.8953C21.279 24.874 21.2661 24.8552 21.2485 24.8414C20.9369 24.4459 20.7836 23.9481 20.8188 23.4454C20.8848 22.9224 21.1323 22.4393 21.5178 22.0806C21.9964 21.6209 22.5664 21.2673 23.1903 21.0427C23.9282 20.7554 24.7048 20.5805 25.4945 20.5237L25.8569 20.4822H25.8931L25.422 21.3748C24.9124 21.4305 24.4125 21.5545 23.9359 21.7433C23.5308 21.9008 23.1599 22.1351 22.8434 22.4334C22.5844 22.6693 22.4038 22.979 22.3255 23.3208C22.2655 23.6414 22.3225 23.9729 22.486 24.2549L24.9093 22.8538L25.743 23.3363L24.7074 23.9488L23.2006 24.8206C23.1488 24.8465 23.1022 24.9296 23.1333 24.9503L23.8012 25.3343C23.8354 25.3419 23.8708 25.3419 23.9048 25.3343C23.939 25.3421 23.9743 25.3421 24.0084 25.3343L26.5973 23.8242L27.4362 24.312L25.0336 25.7028C25.5614 25.7973 26.0987 25.8269 26.6336 25.791C27.1622 25.7624 27.6846 25.663 28.187 25.4953C28.618 25.3585 29.0213 25.1459 29.3779 24.8673C29.668 24.6492 29.8891 24.3518 30.0148 24.011L31.5682 23.7308C31.5682 23.7308 30.8433 26.3045 26.9649 26.7354Z" fill="#1D1D1B"/>
</g>
</svg>
