<svg width="40" height="40" viewBox="0 0 40 40" fill="none" xmlns="http://www.w3.org/2000/svg">
<mask id="mask0_1_607" style="mask-type:luminance" maskUnits="userSpaceOnUse" x="0" y="0" width="40" height="40">
<path d="M39.8609 0.579346H0.836487V39.6037H39.8609V0.579346Z" fill="white"/>
</mask>
<g mask="url(#mask0_1_607)">
<path d="M4.2067 23.3421L4.20349 21.9341L35.3906 15.1235C35.6948 15.057 35.9825 15.2888 35.9825 15.6001V16.4935C35.9825 16.8635 35.8774 17.2258 35.6792 17.5382L22.537 38.2692C22.1484 38.8821 21.2505 38.8714 20.8767 38.2493L15.2357 28.8621L4.78704 24.2318C4.43494 24.0758 4.20758 23.7272 4.2067 23.3421Z" fill="#1D1D1B"/>
<path d="M15.5424 26.6662L4.84292 22.2684C4.62335 22.1781 4.64903 21.8592 4.88021 21.8053L34.6399 14.8588C35.2288 14.7213 35.6862 15.3699 35.359 15.8785L22.5564 35.7784C22.161 36.3928 21.2556 36.3707 20.8907 35.7378L15.7796 26.8737C15.7256 26.7803 15.6422 26.7073 15.5424 26.6662Z" fill="#D5C8FB"/>
<path d="M15.5424 26.6662L4.84292 22.2684C4.62335 22.1781 4.64903 21.8592 4.88021 21.8053L34.6399 14.8588C35.2288 14.7213 35.6862 15.3699 35.359 15.8785L22.5564 35.7784C22.161 36.3928 21.2556 36.3707 20.8907 35.7378L15.7796 26.8737C15.7256 26.7803 15.6422 26.7073 15.5424 26.6662Z" stroke="#1D1D1B" stroke-width="0.8"/>
<path d="M15.254 26.7303L25.1569 21.0537" stroke="#1D1D1B" stroke-width="0.8"/>
<path d="M22.5364 14.9529C25.0763 10.2739 25.9974 5.88139 23.2767 4.40449C23.1392 4.32991 22.2249 3.89811 22.08 3.84404C19.3565 2.82747 14.9183 5.13873 12.5067 9.58146C10.2411 13.7551 10.398 18.2406 12.5145 20.3844C12.7482 20.6211 13.0123 20.7823 13.0123 20.7823C14.0397 21.5232 14.8285 21.6738 15.095 21.6722C17.7822 22.2 20.2796 19.1105 22.5364 14.9529Z" fill="#1D1D1B" stroke="#1D1D1B" stroke-width="0.8" stroke-linecap="round" stroke-linejoin="round"/>
<path d="M19.0307 21.095C22.8108 18.9125 25.8753 13.6047 25.8753 9.23975C25.8753 4.87477 22.8108 3.10551 19.0307 5.288C15.2505 7.47049 12.186 12.7783 12.186 17.1432C12.186 21.5082 15.2505 23.2775 19.0307 21.095Z" fill="#EFE9FE" stroke="#1D1D1B" stroke-width="0.8"/>
<path d="M14.3993 17.3606L15.6095 16.7855C15.7846 17.7264 16.2026 18.3503 16.8638 18.657C17.5292 18.9616 18.4042 18.8563 19.4885 18.3411C19.9068 18.1422 20.3192 17.8896 20.7256 17.5832C21.1317 17.2815 21.5148 16.934 21.8748 16.541L21.2679 15.6601C20.7618 16.236 20.2062 16.6609 19.6011 16.9347C18.9007 17.2722 18.3393 17.3599 17.917 17.198C17.4994 17.0295 17.2169 16.6607 17.0694 16.0917L20.3736 14.5215L20.4688 13.3343L16.9469 15.0079C16.945 14.8276 16.9519 14.6384 16.9678 14.4406C16.9833 14.2474 17.0067 14.0573 17.0381 13.8701L20.56 12.1966L20.6552 11.0094L17.3447 12.5824C17.5942 11.8249 17.9587 11.1464 18.4379 10.5471C18.9174 9.94301 19.5135 9.47401 20.226 9.13995C20.516 9.00672 20.7941 8.9176 21.0606 8.87257C21.3312 8.82552 21.5771 8.83101 21.7984 8.88905L22.6077 7.32165C22.2889 7.25105 21.9357 7.25355 21.5477 7.32913C21.164 7.40269 20.7609 7.53988 20.3382 7.7407C19.2454 8.26001 18.319 9.0084 17.559 9.98584C16.7993 10.9586 16.2455 12.0534 15.8974 13.2701L14.6809 13.8483L14.5856 15.0355L15.6166 14.5456C15.589 14.7355 15.5656 14.9256 15.5462 15.1161C15.5303 15.3139 15.5234 15.5031 15.5253 15.6834L14.4944 16.1733L14.3993 17.3606Z" fill="#1D1D1B"/>
</g>
</svg>
