<svg width="8" height="6" viewBox="0 0 8 6" fill="none" xmlns="http://www.w3.org/2000/svg">
<path d="M7.81674 0.16838C7.76382 0.115026 7.70087 0.0726778 7.6315 0.0437783C7.56213 0.0148788 7.48773 0 7.41258 0C7.33744 0 7.26303 0.0148788 7.19367 0.0437783C7.1243 0.0726778 7.06134 0.115026 7.00842 0.16838L2.7676 4.4149L0.985878 2.62749C0.930934 2.57442 0.866074 2.53268 0.795002 2.50467C0.723929 2.47667 0.648036 2.46293 0.571655 2.46425C0.495274 2.46557 0.419902 2.48193 0.349841 2.51238C0.27978 2.54283 0.216402 2.58678 0.163327 2.64172C0.110252 2.69667 0.0685192 2.76153 0.0405104 2.8326C0.0125016 2.90367 -0.00123442 2.97956 8.70471e-05 3.05594C0.00140852 3.13233 0.0177615 3.2077 0.0482121 3.27776C0.0786626 3.34782 0.122615 3.4112 0.177558 3.46427L2.36344 5.65015C2.41635 5.7035 2.47931 5.74585 2.54868 5.77475C2.61805 5.80365 2.69245 5.81853 2.7676 5.81853C2.84274 5.81853 2.91714 5.80365 2.98651 5.77475C3.05588 5.74585 3.11884 5.7035 3.17175 5.65015L7.81674 1.00516C7.87452 0.951856 7.92064 0.887161 7.95218 0.815153C7.98372 0.743144 8 0.665383 8 0.586771C8 0.508158 7.98372 0.430397 7.95218 0.358388C7.92064 0.28638 7.87452 0.221685 7.81674 0.16838Z" fill="white"/>
</svg>
