<!DOCTYPE svg PUBLIC "-//W3C//DTD SVG 1.1//EN" "http://www.w3.org/Graphics/SVG/1.1/DTD/svg11.dtd"><svg aria-hidden="true" xmlns="http://www.w3.org/2000/svg" xmlns:xlink="http://www.w3.org/1999/xlink"><symbol viewBox="0 0 24 24" fill="none" id="arrow-up" xmlns="http://www.w3.org/2000/svg">
<path d="M12 19V5" stroke="currentColor" stroke-width="2" stroke-linecap="round" stroke-linejoin="round"/>
<path d="M19 12L12 5L5 12" stroke="currentColor" stroke-width="2" stroke-linecap="round" stroke-linejoin="round"/>
</symbol><symbol viewBox="0 0 48 48" fill="none" id="arrow-up-right" xmlns="http://www.w3.org/2000/svg">
<path d="M14 34L34 14" stroke="currentColor" stroke-width="3.5" stroke-linecap="round" stroke-linejoin="round"/>
<path d="M14 14H34V34" stroke="currentColor" stroke-width="3.5" stroke-linecap="round" stroke-linejoin="round"/>
</symbol><symbol viewBox="0 0 21 21" fill="none" id="arrow_downn" xmlns="http://www.w3.org/2000/svg">
<g opacity="0.6">
<path d="M15.9163 7.79169L10.4997 13.2084L5.08301 7.79169" stroke="currentColor" stroke-width="1.5" stroke-linecap="round" stroke-linejoin="round"/>
</g>
</symbol><symbol viewBox="0 0 24 24" fill="none" id="brand" xmlns="http://www.w3.org/2000/svg">
<g clip-path="url(#adclip0_1513_4988)">
<path d="M6.51562 6.28125C5.50758 6.28125 4.6875 5.46117 4.6875 4.45312C4.6875 3.44508 5.50758 2.625 6.51562 2.625C7.52367 2.625 8.34375 3.44508 8.34375 4.45312C8.34375 5.46117 7.52367 6.28125 6.51562 6.28125ZM6.51562 3.65625C6.07622 3.65625 5.71875 4.01372 5.71875 4.45312C5.71875 4.89253 6.07622 5.25 6.51562 5.25C6.95503 5.25 7.3125 4.89253 7.3125 4.45312C7.3125 4.01372 6.95503 3.65625 6.51562 3.65625Z" fill="currentColor"/>
<path d="M3.91296 21.9375C2.90492 21.9375 2.08484 21.1174 2.08484 20.1094C2.08484 19.1013 2.90492 18.2812 3.91296 18.2812C4.92101 18.2812 5.74109 19.1013 5.74109 20.1094C5.74109 21.1174 4.92101 21.9375 3.91296 21.9375ZM3.91296 19.3125C3.47356 19.3125 3.11609 19.67 3.11609 20.1094C3.11609 20.5488 3.47356 20.9062 3.91296 20.9062C4.35237 20.9062 4.70984 20.5488 4.70984 20.1094C4.70984 19.67 4.35237 19.3125 3.91296 19.3125Z" fill="currentColor"/>
<path d="M17.4717 9.86719C16.4636 9.86719 15.6436 9.04711 15.6436 8.03906C15.6436 7.03102 16.4636 6.21094 17.4717 6.21094C18.4797 6.21094 19.2998 7.03102 19.2998 8.03906C19.2998 9.04711 18.4797 9.86719 17.4717 9.86719ZM17.4717 7.24219C17.0323 7.24219 16.6748 7.59966 16.6748 8.03906C16.6748 8.47847 17.0323 8.83594 17.4717 8.83594C17.9111 8.83594 18.2686 8.47847 18.2686 8.03906C18.2686 7.59966 17.9111 7.24219 17.4717 7.24219Z" fill="currentColor"/>
<path d="M23.4844 3.5625H18.7031V0.515625C18.7031 0.230859 18.4723 0 18.1875 0H2.57812C2.29336 0 2.0625 0.230859 2.0625 0.515625V14.1094H0.515625C0.230859 14.1094 0 14.3402 0 14.625V23.4844C0 23.7691 0.230859 24 0.515625 24H14.0625C14.3473 24 14.5781 23.7691 14.5781 23.4844V21.375H18.1875C18.4723 21.375 18.7031 21.1441 18.7031 20.8594V12.5156H23.4844C23.7691 12.5156 24 12.2848 24 12V4.07812C24 3.79336 23.7691 3.5625 23.4844 3.5625ZM13.4608 15.1406C13.246 15.7671 12.6515 16.2188 11.9531 16.2188H2.625C1.92666 16.2188 1.33219 15.7671 1.11731 15.1406H13.4608ZM1.03125 22.9688V16.7088C1.47352 17.0479 2.02598 17.25 2.625 17.25H11.9531C12.5521 17.25 13.1046 17.0479 13.5469 16.7088V22.9688H1.03125ZM17.6719 20.3438H14.5781V14.625C14.5781 14.3402 14.3473 14.1094 14.0625 14.1094H3.09375V1.03125H17.6719V3.5625H11.459C11.1742 3.5625 10.9433 3.79336 10.9433 4.07812V12C10.9433 12.2848 11.1742 12.5156 11.459 12.5156H17.6719V20.3438ZM22.9688 11.4844H11.9746V4.59375H22.9688V11.4844Z" fill="currentColor" fill-opacity="0.9"/>
<path fill-rule="evenodd" clip-rule="evenodd" d="M18.8531 3.4126H23.4844C23.852 3.4126 24.15 3.71061 24.15 4.07822V12.0001C24.15 12.3677 23.852 12.6657 23.4844 12.6657H18.8531V20.8595C18.8531 21.2271 18.5551 21.5251 18.1875 21.5251H14.7281V23.4845C14.7281 23.8521 14.4301 24.1501 14.0625 24.1501H0.515601C0.147992 24.1501 -0.150024 23.8521 -0.150024 23.4845V14.6251C-0.150024 14.2575 0.147992 13.9595 0.515601 13.9595H1.91248V0.515723C1.91248 0.148114 2.21049 -0.149902 2.5781 -0.149902H18.1875C18.5551 -0.149902 18.8531 0.148114 18.8531 0.515723V3.4126ZM13.4608 15.1407H1.11729C1.13486 15.1919 1.15496 15.242 1.17746 15.2907C1.43007 15.838 1.98373 16.2188 2.62498 16.2188H11.9531C12.5944 16.2188 13.1481 15.838 13.4006 15.2907C13.4231 15.242 13.4432 15.1919 13.4608 15.1407ZM13.2336 15.2907H1.34453C1.58572 15.7529 2.06936 16.0688 2.62498 16.0688H11.9531C12.5088 16.0688 12.9924 15.7529 13.2336 15.2907ZM1.18123 16.9936V22.8188H13.3969V16.9936C12.9761 17.2512 12.4817 17.4001 11.9531 17.4001H2.62498C2.09641 17.4001 1.60201 17.2512 1.18123 16.9936ZM1.03123 22.9688H13.5469V16.7089C13.4982 16.7463 13.4481 16.7819 13.3969 16.8158C12.9824 17.09 12.4862 17.2501 11.9531 17.2501H2.62498C2.09191 17.2501 1.59571 17.09 1.18123 16.8158C1.12995 16.7819 1.07992 16.7463 1.03123 16.7089V22.9688ZM14.7281 20.1938H17.5219V12.6657H11.4589C11.0913 12.6657 10.7933 12.3677 10.7933 12.0001V4.07822C10.7933 3.71061 11.0913 3.4126 11.4589 3.4126H17.5219V1.18135H3.24373V13.9595H14.0625C14.4301 13.9595 14.7281 14.2575 14.7281 14.6251V20.1938ZM12.1246 11.3345H22.8187V4.74385H12.1246V11.3345ZM23.4844 3.5626C23.7691 3.5626 24 3.79346 24 4.07822V12.0001C24 12.2849 23.7691 12.5157 23.4844 12.5157H18.7031V20.8595C18.7031 21.1442 18.4722 21.3751 18.1875 21.3751H14.5781V23.4845C14.5781 23.7692 14.3472 24.0001 14.0625 24.0001H0.515601C0.230835 24.0001 -2.44081e-05 23.7692 -2.44081e-05 23.4845V14.6251C-2.44081e-05 14.3403 0.230835 14.1095 0.515601 14.1095H2.06248V0.515723C2.06248 0.230957 2.29333 9.76622e-05 2.5781 9.76622e-05H18.1875C18.4722 9.76622e-05 18.7031 0.230957 18.7031 0.515723V3.5626H23.4844ZM17.6719 20.3438V12.5157H11.4589C11.1742 12.5157 10.9433 12.2849 10.9433 12.0001V4.07822C10.9433 3.79346 11.1742 3.5626 11.4589 3.5626H17.6719V1.03135H3.09373V14.1095H14.0625C14.3472 14.1095 14.5781 14.3403 14.5781 14.6251V20.3438H17.6719ZM22.9687 11.4845V4.59385H11.9746V11.4845H22.9687Z" fill="currentColor" fill-opacity="0.9"/>
</g>
<defs>
<clipPath id="adclip0_1513_4988">
<rect width="24" height="24" fill="currentColor"/>
</clipPath>
</defs>
</symbol><symbol viewBox="0 0 24 25" fill="none" id="check" xmlns="http://www.w3.org/2000/svg">
<path d="M4 12.5L10 18.5L20 6.5" stroke="currentColor" stroke-width="3" stroke-linecap="round" stroke-linejoin="round"/>
</symbol><symbol viewBox="0 0 23 23" fill="none" id="cross" xmlns="http://www.w3.org/2000/svg">
<path d="M2.98148 22.4524L22.4524 2.98148C23.1825 2.25132 23.1825 1.27778 22.4524 0.547619C21.7222 -0.18254 20.7487 -0.182538 20.0185 0.54762L0.547619 20.0185C-0.18254 20.7487 -0.18254 21.7222 0.547619 22.4524C1.27778 23.1825 2.25132 23.1825 2.98148 22.4524Z" fill="currentColor"/>
<path d="M0.547667 2.98148L20.0186 22.4524C20.7487 23.1825 21.7223 23.1825 22.4524 22.4524C23.1826 21.7222 23.1826 20.7487 22.4524 20.0185L2.98153 0.547619C2.25137 -0.18254 1.27783 -0.18254 0.547667 0.547619C-0.182492 1.27778 -0.182492 2.25132 0.547667 2.98148Z" fill="currentColor"/>
</symbol><symbol fill="currentColor" viewBox="0 0 32 32" id="css" xmlns="http://www.w3.org/2000/svg">
<title>css3</title>
<path d="M24.235 6.519l-16.47-0.004 0.266 3.277 12.653 0.002-0.319 3.394h-8.298l0.3 3.215h7.725l-0.457 4.403-3.636 1.005-3.694-1.012-0.235-2.637h-3.262l0.362 4.817 6.829 2.128 6.714-1.912 1.521-16.675zM2.879 1.004h26.242l-2.387 26.946-10.763 3.045-10.703-3.047z"/>
</symbol><symbol viewBox="0 0 7 13" fill="none" id="facebook" xmlns="http://www.w3.org/2000/svg">
<path fill-rule="evenodd" clip-rule="evenodd" d="M6.10837 2.24446C5.78831 2.14321 5.42023 2.0757 5.08417 2.0757C4.66809 2.0757 3.77191 2.36259 3.77191 2.91948V4.25266H5.90033V6.49712H3.77191V12.6905H1.6275V6.49712H0.571289V4.25266H1.6275V3.12199C1.6275 1.41755 2.36364 0 4.13999 0C4.7481 0 5.83632 0.0337513 6.42843 0.253134L6.10837 2.24446Z" fill="currentColor"/>
</symbol><symbol viewBox="0 0 24 24" fill="none" id="figma" xmlns="http://www.w3.org/2000/svg">
  <path d="M8.5 2C6.84315 2 5.5 3.34315 5.5 5C5.5 6.65685 6.84315 8 8.5 8H15.5C17.1569 8 18.5 6.65685 18.5 5C18.5 3.34315 17.1569 2 15.5 2H8.5Z" fill="currentColor"/>
  <path d="M15.5 9C13.8431 9 12.5 10.3431 12.5 12C12.5 13.6569 13.8431 15 15.5 15C17.1569 15 18.5 13.6569 18.5 12C18.5 10.3431 17.1569 9 15.5 9Z" fill="currentColor"/>
  <path d="M5.5 12C5.5 10.3431 6.84315 9 8.5 9H11.5V15H8.5C6.84315 15 5.5 13.6569 5.5 12Z" fill="currentColor"/>
  <path d="M8.5 16C6.84315 16 5.5 17.3431 5.5 19C5.5 20.6569 6.84315 22 8.5 22C10.1569 22 11.5 20.6569 11.5 19V16H8.5Z" fill="currentColor"/>
</symbol><symbol viewBox="0 0 256 256" preserveAspectRatio="xMinYMin meet" id="git" xmlns="http://www.w3.org/2000/svg"><path d="M251.172 116.594L139.4 4.828c-6.433-6.437-16.873-6.437-23.314 0l-23.21 23.21 29.443 29.443c6.842-2.312 14.688-.761 20.142 4.693 5.48 5.489 7.02 13.402 4.652 20.266l28.375 28.376c6.865-2.365 14.786-.835 20.269 4.657 7.663 7.66 7.663 20.075 0 27.74-7.665 7.666-20.08 7.666-27.749 0-5.764-5.77-7.188-14.235-4.27-21.336l-26.462-26.462-.003 69.637a19.82 19.82 0 0 1 5.188 3.71c7.663 7.66 7.663 20.076 0 27.747-7.665 7.662-20.086 7.662-27.74 0-7.663-7.671-7.663-20.086 0-27.746a19.654 19.654 0 0 1 6.421-4.281V94.196a19.378 19.378 0 0 1-6.421-4.281c-5.806-5.798-7.202-14.317-4.227-21.446L81.47 39.442l-76.64 76.635c-6.44 6.443-6.44 16.884 0 23.322l111.774 111.768c6.435 6.438 16.873 6.438 23.316 0l111.251-111.249c6.438-6.44 6.438-16.887 0-23.324" fill="currentColor"/></symbol><symbol viewBox="0 0 20 20" id="github" xmlns="http://www.w3.org/2000/svg">
    
    <title>github [#142]</title>
    <desc>Created with Sketch.</desc>
    <defs>

</defs>
    <g id="alPage-1" stroke="none" stroke-width="1" fill="none" fill-rule="evenodd">
        <g id="alDribbble-Light-Preview" transform="translate(-140.000000, -7559.000000)" fill="currentColor">
            <g id="alicons" transform="translate(56.000000, 160.000000)">
                <path d="M94,7399 C99.523,7399 104,7403.59 104,7409.253 C104,7413.782 101.138,7417.624 97.167,7418.981 C96.66,7419.082 96.48,7418.762 96.48,7418.489 C96.48,7418.151 96.492,7417.047 96.492,7415.675 C96.492,7414.719 96.172,7414.095 95.813,7413.777 C98.04,7413.523 100.38,7412.656 100.38,7408.718 C100.38,7407.598 99.992,7406.684 99.35,7405.966 C99.454,7405.707 99.797,7404.664 99.252,7403.252 C99.252,7403.252 98.414,7402.977 96.505,7404.303 C95.706,7404.076 94.85,7403.962 94,7403.958 C93.15,7403.962 92.295,7404.076 91.497,7404.303 C89.586,7402.977 88.746,7403.252 88.746,7403.252 C88.203,7404.664 88.546,7405.707 88.649,7405.966 C88.01,7406.684 87.619,7407.598 87.619,7408.718 C87.619,7412.646 89.954,7413.526 92.175,7413.785 C91.889,7414.041 91.63,7414.493 91.54,7415.156 C90.97,7415.418 89.522,7415.871 88.63,7414.304 C88.63,7414.304 88.101,7413.319 87.097,7413.247 C87.097,7413.247 86.122,7413.234 87.029,7413.87 C87.029,7413.87 87.684,7414.185 88.139,7415.37 C88.139,7415.37 88.726,7417.2 91.508,7416.58 C91.513,7417.437 91.522,7418.245 91.522,7418.489 C91.522,7418.76 91.338,7419.077 90.839,7418.982 C86.865,7417.627 84,7413.783 84,7409.253 C84,7403.59 88.478,7399 94,7399" id="algithub-[#142]">

</path>
            </g>
        </g>
    </g>
</symbol><symbol viewBox="0 0 24 24" fill="none" id="github-fill" xmlns="http://www.w3.org/2000/svg">
<path d="M12.001 2C6.47598 2 2.00098 6.475 2.00098 12C1.99977 14.0992 2.65958 16.1454 3.88679 17.8484C5.114 19.5515 6.84631 20.8249 8.83798 21.488C9.33798 21.575 9.52598 21.275 9.52598 21.012C9.52598 20.775 9.51298 19.988 9.51298 19.15C7.00098 19.613 6.35098 18.538 6.15098 17.975C6.03798 17.687 5.55098 16.8 5.12598 16.562C4.77598 16.375 4.27598 15.912 5.11298 15.9C5.90098 15.887 6.46298 16.625 6.65098 16.925C7.55098 18.437 8.98798 18.012 9.56298 17.75C9.65098 17.1 9.91298 16.663 10.201 16.413C7.97598 16.163 5.65098 15.3 5.65098 11.475C5.65098 10.387 6.03798 9.488 6.67598 8.788C6.57598 8.538 6.22598 7.513 6.77598 6.138C6.77598 6.138 7.61298 5.875 9.52598 7.162C10.3401 6.9364 11.1812 6.82302 12.026 6.825C12.876 6.825 13.726 6.937 14.526 7.162C16.439 5.862 17.276 6.138 17.276 6.138C17.826 7.513 17.476 8.538 17.376 8.788C18.013 9.488 18.401 10.375 18.401 11.475C18.401 15.313 16.064 16.163 13.839 16.413C14.201 16.725 14.514 17.325 14.514 18.263C14.514 19.6 14.501 20.675 14.501 21.013C14.501 21.275 14.689 21.587 15.189 21.487C17.1738 20.8166 18.8985 19.5408 20.1203 17.8389C21.3421 16.1371 21.9995 14.095 22 12C22 6.475 17.525 2 12 2H12.001Z" fill="currentColor" fill-opacity="0.9"/>
</symbol><symbol viewBox="0 0 17 17" id="html" xmlns="http://www.w3.org/2000/svg">
	<path d="M15.54 0.5l-1.28 14.379-5.78 1.621-5.74-1.621-1.28-14.379h14.080zM12.92 3.439h-8.84l0.47 5.34h6.121l-0.222 2.279-1.969 0.532-1.96-0.531-0.13-1.399h-1.749l0.22 2.779 3.62 1h0.039v-0.010l3.591-0.99 0.5-5.44h-6.441l-0.15-1.81h6.74l0.16-1.75z" fill="currentColor"/>
</symbol><symbol viewBox="0 0 24 24" fill="none" id="insta" xmlns="http://www.w3.org/2000/svg">
<g clip-path="url(#anclip0_14_178)">
<path d="M12 2.16094C15.2063 2.16094 15.5859 2.175 16.8469 2.23125C18.0188 2.28281 18.6516 2.47969 19.0734 2.64375C19.6313 2.85938 20.0344 3.12188 20.4516 3.53906C20.8734 3.96094 21.1313 4.35938 21.3469 4.91719C21.5109 5.33906 21.7078 5.97656 21.7594 7.14375C21.8156 8.40937 21.8297 8.78906 21.8297 11.9906C21.8297 15.1969 21.8156 15.5766 21.7594 16.8375C21.7078 18.0094 21.5109 18.6422 21.3469 19.0641C21.1313 19.6219 20.8687 20.025 20.4516 20.4422C20.0297 20.8641 19.6313 21.1219 19.0734 21.3375C18.6516 21.5016 18.0141 21.6984 16.8469 21.75C15.5813 21.8062 15.2016 21.8203 12 21.8203C8.79375 21.8203 8.41406 21.8062 7.15313 21.75C5.98125 21.6984 5.34844 21.5016 4.92656 21.3375C4.36875 21.1219 3.96563 20.8594 3.54844 20.4422C3.12656 20.0203 2.86875 19.6219 2.65313 19.0641C2.48906 18.6422 2.29219 18.0047 2.24063 16.8375C2.18438 15.5719 2.17031 15.1922 2.17031 11.9906C2.17031 8.78438 2.18438 8.40469 2.24063 7.14375C2.29219 5.97187 2.48906 5.33906 2.65313 4.91719C2.86875 4.35938 3.13125 3.95625 3.54844 3.53906C3.97031 3.11719 4.36875 2.85938 4.92656 2.64375C5.34844 2.47969 5.98594 2.28281 7.15313 2.23125C8.41406 2.175 8.79375 2.16094 12 2.16094ZM12 0C8.74219 0 8.33438 0.0140625 7.05469 0.0703125C5.77969 0.126563 4.90313 0.332812 4.14375 0.628125C3.35156 0.9375 2.68125 1.34531 2.01563 2.01562C1.34531 2.68125 0.9375 3.35156 0.628125 4.13906C0.332812 4.90313 0.126563 5.775 0.0703125 7.05C0.0140625 8.33437 0 8.74219 0 12C0 15.2578 0.0140625 15.6656 0.0703125 16.9453C0.126563 18.2203 0.332812 19.0969 0.628125 19.8563C0.9375 20.6484 1.34531 21.3188 2.01563 21.9844C2.68125 22.65 3.35156 23.0625 4.13906 23.3672C4.90313 23.6625 5.775 23.8687 7.05 23.925C8.32969 23.9812 8.7375 23.9953 11.9953 23.9953C15.2531 23.9953 15.6609 23.9812 16.9406 23.925C18.2156 23.8687 19.0922 23.6625 19.8516 23.3672C20.6391 23.0625 21.3094 22.65 21.975 21.9844C22.6406 21.3188 23.0531 20.6484 23.3578 19.8609C23.6531 19.0969 23.8594 18.225 23.9156 16.95C23.9719 15.6703 23.9859 15.2625 23.9859 12.0047C23.9859 8.74688 23.9719 8.33906 23.9156 7.05938C23.8594 5.78438 23.6531 4.90781 23.3578 4.14844C23.0625 3.35156 22.6547 2.68125 21.9844 2.01562C21.3188 1.35 20.6484 0.9375 19.8609 0.632812C19.0969 0.3375 18.225 0.13125 16.95 0.075C15.6656 0.0140625 15.2578 0 12 0Z" fill="currentColor"/>
<path d="M12 5.83594C8.59688 5.83594 5.83594 8.59688 5.83594 12C5.83594 15.4031 8.59688 18.1641 12 18.1641C15.4031 18.1641 18.1641 15.4031 18.1641 12C18.1641 8.59688 15.4031 5.83594 12 5.83594ZM12 15.9984C9.79219 15.9984 8.00157 14.2078 8.00157 12C8.00157 9.79219 9.79219 8.00156 12 8.00156C14.2078 8.00156 15.9984 9.79219 15.9984 12C15.9984 14.2078 14.2078 15.9984 12 15.9984Z" fill="currentColor"/>
<path d="M19.8469 5.59238C19.8469 6.38926 19.2 7.03145 18.4078 7.03145C17.6109 7.03145 16.9688 6.38457 16.9688 5.59238C16.9688 4.79551 17.6156 4.15332 18.4078 4.15332C19.2 4.15332 19.8469 4.8002 19.8469 5.59238Z" fill="currentColor"/>
</g>
<defs>
<clipPath id="anclip0_14_178">
<rect width="24" height="24" fill="currentColor"/>
</clipPath>
</defs>
</symbol><symbol viewBox="0 0 24 24" fill="none" id="interaction" xmlns="http://www.w3.org/2000/svg">
<path d="M21.0776 0.993896H11.327C10.2601 0.993896 9.39209 1.8619 9.39209 2.92874V10.4249L10.3379 9.63522V4.56203H22.0666V21.0708C22.0666 21.6161 21.6229 22.0598 21.0776 22.0598H11.327C10.7816 22.0598 10.3379 21.6161 10.3379 21.0708V21.0149H9.39209V21.0708C9.39209 22.1377 10.26 23.0056 11.327 23.0056H21.0776C22.1445 23.0056 23.0125 22.1377 23.0125 21.0708V2.92874C23.0125 1.86186 22.1445 0.993896 21.0776 0.993896ZM10.3379 3.61622V2.92874C10.3379 2.38339 10.7816 1.93971 11.327 1.93971H21.0776C21.623 1.93971 22.0666 2.38339 22.0666 2.92874V3.61622H10.3379Z" fill="currentColor" fill-opacity="0.9"/>
<path fill-rule="evenodd" clip-rule="evenodd" d="M9.25446 10.7192V2.92886C9.25446 1.78604 10.1841 0.856445 11.3269 0.856445H21.0776C22.2204 0.856445 23.15 1.786 23.15 2.92886V21.0709C23.15 22.2138 22.2204 23.1433 21.0776 23.1433H11.3269C10.184 23.1433 9.25446 22.2138 9.25446 21.0709V20.8774H10.4754V21.0709C10.4754 21.5403 10.8575 21.9224 11.3269 21.9224H21.0775C21.5469 21.9224 21.929 21.5403 21.929 21.0709V4.69974H10.4754V9.69971L9.25446 10.7192ZM9.39203 2.92886C9.39203 1.86202 10.26 0.994023 11.3269 0.994023H21.0776C22.1444 0.994023 23.0124 1.86198 23.0124 2.92886V21.0709C23.0124 22.1378 22.1444 23.0058 21.0776 23.0058H11.3269C10.2873 23.0058 9.43666 22.1817 9.39373 21.1526C9.3926 21.1255 9.39203 21.0983 9.39203 21.0709V21.015H10.3378V21.0709C10.3378 21.6163 10.7815 22.0599 11.3269 22.0599H21.0775C21.6229 22.0599 22.0665 21.6163 22.0665 21.0709V4.56216H10.3378V9.63535L9.39203 10.4251V2.92886ZM10.4754 2.92886V3.47877H21.929V2.92886C21.929 2.4595 21.5469 2.07742 21.0776 2.07742H11.3269C10.8575 2.07742 10.4754 2.4595 10.4754 2.92886ZM10.3378 3.61634H22.0666V2.92886C22.0666 2.38351 21.6229 1.93984 21.0776 1.93984H11.3269C10.7815 1.93984 10.3378 2.38351 10.3378 2.92886V3.61634Z" fill="currentColor" fill-opacity="0.9"/>
<path d="M17.3008 20.3836C17.562 20.3836 17.7737 20.1718 17.7737 19.9107C17.7737 19.6495 17.562 19.4377 17.3008 19.4377H15.1231C14.8619 19.4377 14.6501 19.6495 14.6501 19.9107C14.6501 20.1718 14.8619 20.3836 15.1231 20.3836H17.3008Z" fill="currentColor" fill-opacity="0.9"/>
<path d="M19.5284 20.1733C19.7036 20.451 20.1391 20.4503 20.3147 20.1733C20.5485 19.8289 20.2363 19.3621 19.8289 19.4472C19.5055 19.5043 19.3396 19.9043 19.5284 20.1733Z" fill="currentColor" fill-opacity="0.9"/>
<path d="M14.6022 8.76622C14.5955 8.28063 14.3974 7.829 14.0442 7.49461C13.3496 6.8368 12.225 6.86092 11.5375 7.54844L5.83441 13.2515L5.83458 11.2586C5.83415 10.2753 5.0339 9.47498 4.05042 9.47455C3.57412 9.47455 3.1261 9.66028 2.78888 9.99755C2.45182 10.3346 2.26623 10.7825 2.26623 11.2587V11.4851C2.26623 12.8458 1.97375 14.2091 1.39702 15.537C1.01796 16.4097 0.907562 17.3676 1.07777 18.3071C1.2521 19.2694 1.71099 20.1448 2.4047 20.8385L3.16806 21.6018C4.10257 22.5363 5.33011 23.0035 6.55766 23.0035C7.7852 23.0035 9.01274 22.5362 9.94725 21.6018L13.4026 18.1464C14.0901 17.4589 14.1142 16.3344 13.4564 15.6397C13.122 15.2865 12.6704 15.0884 12.1847 15.0817C12.1523 15.0812 12.12 15.0817 12.0878 15.0829C12.107 14.6026 11.9335 14.1158 11.5676 13.7499C11.3574 13.5398 11.1041 13.3885 10.8276 13.3044L14.0797 10.0522C14.4233 9.70873 14.6088 9.25198 14.6022 8.76622ZM13.411 9.38345L9.04451 13.7499L7.48688 15.3075C7.30218 15.4922 7.30218 15.7917 7.48688 15.9764C7.57922 16.0687 7.70024 16.1149 7.82127 16.1149C7.94233 16.1149 8.06331 16.0687 8.15566 15.9764C8.15566 15.9764 9.71144 14.4206 9.71329 14.4187C10.0349 14.0971 10.5781 14.098 10.8987 14.4187C11.2256 14.7455 11.2256 15.2773 10.8987 15.6041L9.34111 17.1618C9.15642 17.3465 9.15642 17.6459 9.34111 17.8306C9.43345 17.923 9.55448 17.9691 9.6755 17.9691C9.79652 17.9691 9.91754 17.923 10.0099 17.8306C10.0099 17.8306 11.5648 16.2757 11.5675 16.273C11.8908 15.9497 12.4571 15.9601 12.7696 16.29C13.0785 16.6162 13.0624 17.149 12.7337 17.4777L9.27838 20.933C7.77815 22.4332 5.33708 22.4332 3.83684 20.933L3.07348 20.1697C1.94792 19.0442 1.63042 17.3736 2.26451 15.9138C2.89322 14.4662 3.212 12.9762 3.212 11.4851C3.212 11.4851 3.212 11.2591 3.212 11.2587C3.212 10.8016 3.59347 10.4204 4.05017 10.4204C4.51237 10.4206 4.88855 10.7968 4.88872 11.2587L4.88842 14.3933C4.88842 14.5846 5.00364 14.757 5.18033 14.8303C5.35698 14.9035 5.56042 14.863 5.69572 14.7278L12.2062 8.21726C12.5348 7.88863 13.0677 7.87251 13.3938 8.18145C13.7327 8.50221 13.7407 9.05379 13.411 9.38345Z" fill="currentColor"/>
</symbol><symbol fill="currentColor" viewBox="0 0 512 512" enable-background="new 0 0 512 512" xml:space="preserve" id="js" xmlns="http://www.w3.org/2000/svg">

<g id="ap5151e0c8492e5103c096af88a51e75c7">

<path display="inline" fill-rule="evenodd" clip-rule="evenodd" d="M1.008,0.5C0.438,0.583,0.48,1.27,0.521,1.958   c0,169.668,0,339.31,0,508.974c169.364,1.135,340.808,0.162,510.979,0.486c0-170.309,0-340.61,0-510.918   C341.342,0.5,171.167,0.5,1.008,0.5z M259.893,452.167c-11.822,11.919-30.478,18.938-53.429,18.938   c-37.643,0-58.543-18.34-71.884-43.711c12.842-8.2,25.966-16.122,39.344-23.795c5.456,15.262,23.886,32.42,44.683,21.857   c13.183-6.699,11.661-27.01,11.661-49.054c0-45.773,0-98.578,0-139.872c-0.042-0.688-0.083-1.375,0.482-1.458   c15.707,0,31.413,0,47.116,0c0,36.788,0,78.402,0,117.529C277.866,395.199,280.91,430.988,259.893,452.167z M470.696,409.917   c-2.674,39.884-35.243,61.063-79.17,61.188c-43.062,0.124-70.624-19.013-87.433-48.567c12.085-8.317,25.778-15.017,38.375-22.822   c10.08,15.761,27.537,30.91,53.429,28.652c16.131-1.406,34.856-14.555,24.285-34.482c-5.127-9.66-17.516-14.567-28.656-19.425   c-35.352-15.424-76.828-29.571-72.861-84.992c1.327-18.514,9.852-31.525,20.889-40.796c11.311-9.5,26.46-15.867,46.629-16.511   c36.629-1.173,56.723,15.12,70.429,37.884c-11.664,8.891-24.514,16.608-37.401,24.281c-4.229-12.995-24.644-25.658-41.772-17.969   c-7.789,3.493-14.788,13.761-10.684,26.224c3.66,11.115,18.589,17.199,30.599,22.344   C433.706,340.486,474.331,355.693,470.696,409.917z">

</path>

</g>

</symbol><symbol viewBox="0 0 24 24" fill="none" id="linkidin" xmlns="http://www.w3.org/2000/svg">
<path d="M6.94043 5.00002C6.94017 5.53046 6.7292 6.03906 6.35394 6.41394C5.97868 6.78883 5.46986 6.99929 4.93943 6.99902C4.409 6.99876 3.90039 6.78779 3.52551 6.41253C3.15062 6.03727 2.94016 5.52846 2.94043 4.99802C2.9407 4.46759 3.15166 3.95899 3.52692 3.5841C3.90218 3.20922 4.411 2.99876 4.94143 2.99902C5.47186 2.99929 5.98047 3.21026 6.35535 3.58552C6.73024 3.96078 6.9407 4.46959 6.94043 5.00002ZM7.00043 8.48002H3.00043V21H7.00043V8.48002ZM13.3204 8.48002H9.34043V21H13.2804V14.43C13.2804 10.77 18.0504 10.43 18.0504 14.43V21H22.0004V13.07C22.0004 6.90002 14.9404 7.13002 13.2804 10.16L13.3204 8.48002Z" fill="currentColor" fill-opacity="0.9"/>
</symbol><symbol viewBox="0 0 21 18" fill="none" id="mesage" xmlns="http://www.w3.org/2000/svg">
<path d="M4 6L9.4 10.05C9.75556 10.3167 10.2444 10.3167 10.6 10.05L16 6" stroke="currentColor" stroke-linecap="round"/>
<rect x="0.5" y="0.5" width="20" height="17" rx="4.5" stroke="currentColor"/>
</symbol><symbol viewBox="0 0 512 512" id="moon" xmlns="http://www.w3.org/2000/svg"><path d="M283.211 512c78.962 0 151.079-35.925 198.857-94.792 7.068-8.708-.639-21.43-11.562-19.35-124.203 23.654-238.262-71.576-238.262-196.954 0-72.222 38.662-138.635 101.498-174.394 9.686-5.512 7.25-20.197-3.756-22.23A258.156 258.156 0 0 0 283.211 0c-141.309 0-256 114.511-256 256 0 141.309 114.511 256 256 256z"/></symbol><symbol viewBox="0 0 24 24" fill="none" id="movile" xmlns="http://www.w3.org/2000/svg">
<path fill-rule="evenodd" clip-rule="evenodd" d="M4.875 3.75C4.875 2.09314 6.21814 0.75 7.875 0.75H16.125C17.7819 0.75 19.125 2.09314 19.125 3.75V20.25C19.125 21.9069 17.7819 23.25 16.125 23.25H7.875C6.21814 23.25 4.875 21.9069 4.875 20.25V3.75ZM7.875 2.25C7.04659 2.25 6.375 2.92157 6.375 3.75V20.25C6.375 21.0784 7.04659 21.75 7.875 21.75H16.125C16.9534 21.75 17.625 21.0784 17.625 20.25V3.75C17.625 2.92157 16.9534 2.25 16.125 2.25H7.875Z" fill="currentColor" fill-opacity="0.9"/>
<path d="M12.75 4.5C12.75 4.91422 12.4142 5.25 12 5.25C11.5858 5.25 11.25 4.91422 11.25 4.5C11.25 4.08578 11.5858 3.75 12 3.75C12.4142 3.75 12.75 4.08578 12.75 4.5Z" fill="currentColor"/>
<path d="M13.5 19.875C13.9142 19.875 14.25 19.5392 14.25 19.125C14.25 18.7108 13.9142 18.375 13.5 18.375H10.5C10.0858 18.375 9.75 18.7108 9.75 19.125C9.75 19.5392 10.0858 19.875 10.5 19.875H13.5Z" fill="currentColor"/>
</symbol><symbol viewBox="0 0 48 48" fill="none" id="rewievs" xmlns="http://www.w3.org/2000/svg">
<path d="M21.75 13.5L21.75 30C21.7475 32.3862 20.7985 34.6739 19.1112 36.3612C17.4239 38.0485 15.1362 38.9975 12.75 39C12.3522 39 11.9706 38.842 11.6893 38.5607C11.408 38.2794 11.25 37.8978 11.25 37.5C11.25 37.1022 11.408 36.7206 11.6893 36.4393C11.9706 36.158 12.3522 36 12.75 36C14.3413 36 15.8674 35.3679 16.9926 34.2426C18.1179 33.1174 18.75 31.5913 18.75 30V28.5H7.5C6.70435 28.5 5.94129 28.1839 5.37868 27.6213C4.81607 27.0587 4.5 26.2956 4.5 25.5L4.5 13.5C4.5 12.7044 4.81607 11.9413 5.37868 11.3787C5.94129 10.8161 6.70435 10.5 7.5 10.5L18.75 10.5C19.5456 10.5 20.3087 10.8161 20.8713 11.3787C21.4339 11.9413 21.75 12.7044 21.75 13.5ZM40.5 10.5H29.25C28.4544 10.5 27.6913 10.8161 27.1287 11.3787C26.5661 11.9413 26.25 12.7044 26.25 13.5L26.25 25.5C26.25 26.2956 26.5661 27.0587 27.1287 27.6213C27.6913 28.1839 28.4544 28.5 29.25 28.5H40.5V30C40.5 31.5913 39.8679 33.1174 38.7426 34.2426C37.6174 35.3679 36.0913 36 34.5 36C34.1022 36 33.7206 36.158 33.4393 36.4393C33.158 36.7206 33 37.1022 33 37.5C33 37.8978 33.158 38.2794 33.4393 38.5607C33.7206 38.842 34.1022 39 34.5 39C36.8862 38.9975 39.1739 38.0485 40.8612 36.3612C42.5485 34.6739 43.4975 32.3862 43.5 30V13.5C43.5 12.7044 43.1839 11.9413 42.6213 11.3787C42.0587 10.8161 41.2957 10.5 40.5 10.5Z" fill="currentColor" fill-opacity="0.9"/>
</symbol><symbol viewBox="0 0 512 384" id="sass" xmlns="http://www.w3.org/2000/svg"><path fill="currentColor" d="M440.6 220.6c-17.9.101-33.4 4.4-46.4 10.801-4.8-9.5-9.6-17.801-10.399-24-.9-7.2-2-11.601-.9-20.2C384 178.6 389 166.4 389 165.4c-.101-.9-1.101-5.3-11.4-5.4s-19.2 2-20.2 4.7-3 8.9-4.3 15.3c-1.8 9.4-20.6 42.7-31.3 60.2-3.5-6.8-6.5-12.8-7.101-17.601-.899-7.199-2-11.6-.899-20.199 1.1-8.601 6.1-20.8 6.1-21.8-.1-.9-1.1-5.3-11.399-5.4-10.301-.1-19.2 2-20.2 4.7s-2.1 9.1-4.3 15.3C281.9 201.4 256.9 257 250.4 271.5c-3.3 7.4-6.199 13.3-8.3 17.3-2.1 4-.1.3-.3.7-1.8 3.4-2.8 5.3-2.8 5.3v.101c-1.4 2.5-2.9 4.899-3.601 4.899-.5 0-1.5-6.7.2-15.899 3.7-19.301 12.7-49.4 12.601-50.5 0-.5 1.699-5.801-5.801-8.5-7.3-2.7-9.899 1.8-10.5 1.8-.6 0-1.1 1.6-1.1 1.6s8.1-33.899-15.5-33.899c-14.8 0-35.2 16.1-45.3 30.8-6.4 3.5-20 10.899-34.4 18.8-5.5 3-11.2 6.2-16.6 9.1L117.9 251.9c-28.6-30.5-81.5-52.1-79.3-93.1.8-14.9 6-54.2 101.601-101.8 78.3-39 141-28.3 151.899-4.5 15.5 34-33.5 97.2-114.899 106.3-31 3.5-47.301-8.5-51.4-13-4.3-4.7-4.9-4.9-6.5-4-2.6 1.4-1 5.6 0 8.1 2.4 6.3 12.4 17.5 29.4 23.1 14.899 4.9 51.3 7.6 95.3-9.4 49.3-19.1 87.8-72.1 76.5-116.4-11.5-45.1-86.3-59.9-157-34.8C121.4 27.4 75.8 50.8 43 81.5 4 117.9-2.2 149.7.4 162.9c9.101 47.1 74 77.8 100 100.5-1.3.699-2.5 1.399-3.6 2-13 6.399-62.5 32.3-74.9 59.699-14 31 2.2 53.301 13 56.301 33.4 9.3 67.6-7.4 86.1-34.9 18.399-27.5 16.2-63.2 7.7-79.5l-.301-.6 10.2-6c6.601-3.9 13.101-7.5 18.8-10.601-3.199 8.7-5.5 19-6.699 34-1.4 17.601 5.8 40.4 15.3 49.4 4.2 3.899 9.2 4 12.3 4 11 0 16-9.101 21.5-20 6.8-13.3 12.8-28.7 12.8-28.7s-7.5 41.7 13 41.7c7.5 0 15-9.7 18.4-14.7v.1s.2-.3.6-1a36.13 36.13 0 0 0 1.2-1.899v-.2c3-5.2 9.7-17.1 19.7-36.8 12.899-25.4 25.3-57.2 25.3-57.2s1.2 7.8 4.9 20.6c2.199 7.601 6.999 15.9 10.699 24-3 4.2-4.8 6.601-4.8 6.601l.1.1c-2.399 3.2-5.1 6.601-7.899 10-10.2 12.2-22.4 26.101-24 30.101-1.9 4.699-1.5 8.199 2.2 11 2.7 2 7.5 2.399 12.6 2 9.2-.601 15.6-2.9 18.8-4.301 5-1.8 10.7-4.5 16.2-8.5 10-7.399 16.1-17.899 15.5-31.899-.3-7.7-2.8-15.3-5.9-22.5.9-1.3 1.801-2.601 2.7-4 15.8-23.101 28-48.5 28-48.5s1.2 7.8 4.9 20.6c1.899 6.5 5.7 13.601 9.1 20.601-14.8 12.1-24.1 26.1-27.3 35.3-5.9 17-1.3 24.7 7.4 26.5 3.899.8 9.5-1 13.699-2.8 5.2-1.7 11.5-4.601 17.301-8.9 10-7.4 19.6-17.7 19.1-31.6-.3-6.4-2-12.7-4.3-18.7 12.6-5.2 28.899-8.2 49.6-5.7 44.5 5.2 53.3 33 51.601 44.6-1.7 11.601-11 18-14.101 20-3.1 1.9-4.1 2.601-3.8 4 .4 2.101 1.8 2 4.5 1.601 3.7-.601 23.4-9.5 24.2-30.899 1.2-27.504-24.9-57.504-71.2-57.205zM97.4 336.3c-14.7 16.1-35.4 22.2-44.2 17-9.5-5.5-5.801-29.2 12.3-46.3 11-10.4 25.3-20 34.7-25.9 2.1-1.3 5.3-3.199 9.1-5.5.6-.399 1-.6 1-.6.7-.4 1.5-.9 2.3-1.4 6.7 24.4.3 45.8-15.2 62.7zm107.5-73.1c-5.1 12.5-15.9 44.6-22.4 42.8-5.601-1.5-9-25.8-1.101-49.8 4-12.101 12.5-26.5 17.5-32.101 8.101-9 16.9-12 19.101-8.3 2.6 4.801-9.9 39.601-13.1 47.401zm88.7 42.4c-2.2 1.101-4.2 1.9-5.1 1.301-.7-.4.899-1.9.899-1.9s11.1-11.9 15.5-17.4c2.5-3.199 5.5-6.899 8.7-11.1v1.2C313.6 292.1 299.8 301.7 293.6 305.6zm68.399-15.6c-1.6-1.2-1.399-4.9 4-16.5 2.101-4.6 6.9-12.3 15.2-19.6 1 3 1.601 5.899 1.5 8.6-.099 18-12.899 24.7-20.7 27.5z"/></symbol><symbol viewBox="0 0 54 54" fill="none" id="star" xmlns="http://www.w3.org/2000/svg">
<path d="M27.5625 0C27.5625 23.1273 9.1875 28.5455 0 27.8182C16.875 31.0909 25.3125 34.3636 27 54C27 40.3636 34.875 30.5455 54 27.8182C46.125 28.3636 29.8125 24 27.5625 0Z" fill="currentColor"/>
</symbol><symbol fill="currentColor" id="sun" viewBox="0 0 246 246" xml:space="preserve" xmlns="http://www.w3.org/2000/svg">
	<path d="M189.024,122.5c0,36.188-29.336,65.524-65.524,65.524c-36.188,0-65.524-29.336-65.524-65.524  c0-36.188,29.336-65.524,65.524-65.524C159.688,56.976,189.024,86.312,189.024,122.5z M122.667,43c4.143,0,7.5-3.357,7.5-7.5v-28  c0-4.143-3.357-7.5-7.5-7.5s-7.5,3.357-7.5,7.5v28C115.167,39.643,118.524,43,122.667,43z M184.444,68.438  c1.919,0,3.839-0.732,5.304-2.197l14.849-14.85c2.929-2.929,2.929-7.678-0.001-10.606c-2.928-2.928-7.677-2.929-10.606,0.001  l-14.849,14.85c-2.929,2.929-2.929,7.678,0.001,10.606C180.605,67.705,182.525,68.438,184.444,68.438z M190.366,178.14  c-2.93-2.928-7.678-2.928-10.607,0c-2.929,2.93-2.929,7.678,0,10.607l14.85,14.85c1.465,1.464,3.385,2.196,5.304,2.196  s3.839-0.732,5.304-2.196c2.929-2.93,2.929-7.678,0-10.607L190.366,178.14z M57.253,178.759l-14.85,14.85  c-2.929,2.93-2.929,7.678,0,10.607c1.465,1.464,3.385,2.196,5.304,2.196s3.839-0.732,5.304-2.196l14.85-14.85  c2.929-2.93,2.929-7.678,0-10.607C64.931,175.831,60.183,175.831,57.253,178.759z M56.634,66.859  c1.465,1.465,3.384,2.197,5.304,2.197c1.919,0,3.839-0.732,5.303-2.196c2.93-2.929,2.93-7.678,0.001-10.606l-14.849-14.85  c-2.93-2.93-7.679-2.929-10.606-0.001c-2.93,2.929-2.93,7.678-0.001,10.606L56.634,66.859z M238.5,114.5h-7h-21  c-4.143,0-7.5,3.357-7.5,7.5s3.357,7.5,7.5,7.5h21h7c4.143,0,7.5-3.357,7.5-7.5S242.643,114.5,238.5,114.5z M123.667,202  c-4.143,0-7.5,3.357-7.5,7.5v21v8c0,4.143,3.357,7.5,7.5,7.5s7.5-3.357,7.5-7.5v-8v-21C131.167,205.357,127.81,202,123.667,202z   M44,123c0-4.143-3.357-7.5-7.5-7.5h-21h-8c-4.143,0-7.5,3.357-7.5,7.5s3.357,7.5,7.5,7.5h8h21C40.643,130.5,44,127.143,44,123z"/>
	<g>
	</g>
	<g>
	</g>
	<g>
	</g>
	<g>
	</g>
	<g>
	</g>
	<g>
	</g>
	<g>
	</g>
	<g>
	</g>
	<g>
	</g>
	<g>
	</g>
	<g>
	</g>
	<g>
	</g>
	<g>
	</g>
	<g>
	</g>
	<g>
	</g>
</symbol><symbol viewBox="0 0 24 24" fill="none" id="telegram" xmlns="http://www.w3.org/2000/svg">
<path fill-rule="evenodd" clip-rule="evenodd" d="M23.1117 4.49449C23.4296 2.94472 21.9074 1.65683 20.4317 2.227L2.3425 9.21601C0.694517 9.85273 0.621087 12.1572 2.22518 12.8975L6.1645 14.7157L8.03849 21.2746C8.13583 21.6153 8.40618 21.8791 8.74917 21.968C9.09216 22.0568 9.45658 21.9576 9.70712 21.707L12.5938 18.8203L16.6375 21.8531C17.8113 22.7334 19.5019 22.0922 19.7967 20.6549L23.1117 4.49449ZM3.0633 11.0816L21.1525 4.0926L17.8375 20.2531L13.1 16.6999C12.7019 16.4013 12.1448 16.4409 11.7929 16.7928L10.5565 18.0292L10.928 15.9861L18.2071 8.70703C18.5614 8.35278 18.5988 7.79106 18.2947 7.39293C17.9906 6.99479 17.4389 6.88312 17.0039 7.13168L6.95124 12.876L3.0633 11.0816ZM8.17695 14.4791L8.78333 16.6015L9.01614 15.321C9.05253 15.1209 9.14908 14.9366 9.29291 14.7928L11.5128 12.573L8.17695 14.4791Z" fill="currentColor"/>
</symbol><symbol viewBox="0 0 24 24" fill="none" id="uiux" xmlns="http://www.w3.org/2000/svg">
<g clip-path="url(#azclip0_1513_4913)">
<path d="M23.25 24H6.75C6.55109 24 6.36032 23.921 6.21967 23.7803C6.07902 23.6397 6 23.4489 6 23.25V10.5C6 10.3011 6.07902 10.1103 6.21967 9.96967C6.36032 9.82902 6.55109 9.75 6.75 9.75H23.25C23.4489 9.75 23.6397 9.82902 23.7803 9.96967C23.921 10.1103 24 10.3011 24 10.5V23.25C24 23.4489 23.921 23.6397 23.7803 23.7803C23.6397 23.921 23.4489 24 23.25 24ZM7.5 22.5H22.5V11.25H7.5V22.5Z" fill="currentColor" fill-opacity="0.9"/>
<path d="M6.75 18H3C2.20435 18 1.44129 17.6839 0.87868 17.1213C0.316071 16.5587 0 15.7956 0 15V3C0 2.20435 0.316071 1.44129 0.87868 0.87868C1.44129 0.316071 2.20435 0 3 0L10.5 0C11.2956 0 12.0587 0.316071 12.6213 0.87868C13.1839 1.44129 13.5 2.20435 13.5 3V7.5C13.5 7.69891 13.421 7.88968 13.2803 8.03033C13.1397 8.17098 12.9489 8.25 12.75 8.25C12.5511 8.25 12.3603 8.17098 12.2197 8.03033C12.079 7.88968 12 7.69891 12 7.5V3C12 2.60218 11.842 2.22064 11.5607 1.93934C11.2794 1.65804 10.8978 1.5 10.5 1.5H3C2.60218 1.5 2.22064 1.65804 1.93934 1.93934C1.65804 2.22064 1.5 2.60218 1.5 3V15C1.5 15.3978 1.65804 15.7794 1.93934 16.0607C2.22064 16.342 2.60218 16.5 3 16.5H6.75C6.94891 16.5 7.13968 16.579 7.28033 16.7197C7.42098 16.8603 7.5 17.0511 7.5 17.25C7.5 17.4489 7.42098 17.6397 7.28033 17.7803C7.13968 17.921 6.94891 18 6.75 18Z" fill="currentColor" fill-opacity="0.9"/>
<path d="M5.25 8.25C4.65326 8.25 4.08097 8.01295 3.65901 7.59099C3.23705 7.16903 3 6.59674 3 6V3.75C3 3.55109 3.07902 3.36032 3.21967 3.21967C3.36032 3.07902 3.55109 3 3.75 3C3.94891 3 4.13968 3.07902 4.28033 3.21967C4.42098 3.36032 4.5 3.55109 4.5 3.75V6C4.5 6.19891 4.57902 6.38968 4.71967 6.53033C4.86032 6.67098 5.05109 6.75 5.25 6.75C5.44891 6.75 5.63968 6.67098 5.78033 6.53033C5.92098 6.38968 6 6.19891 6 6V3.75C6 3.55109 6.07902 3.36032 6.21967 3.21967C6.36032 3.07902 6.55109 3 6.75 3C6.94891 3 7.13968 3.07902 7.28033 3.21967C7.42098 3.36032 7.5 3.55109 7.5 3.75V6C7.5 6.59674 7.26295 7.16903 6.84099 7.59099C6.41903 8.01295 5.84674 8.25 5.25 8.25Z" fill="currentColor" fill-opacity="0.9"/>
<path d="M11.25 18C10.6533 18 10.081 17.7629 9.65901 17.341C9.23705 16.919 9 16.3467 9 15.75V13.5C9 13.3011 9.07902 13.1103 9.21967 12.9697C9.36032 12.829 9.55109 12.75 9.75 12.75C9.94891 12.75 10.1397 12.829 10.2803 12.9697C10.421 13.1103 10.5 13.3011 10.5 13.5V15.75C10.5 15.9489 10.579 16.1397 10.7197 16.2803C10.8603 16.421 11.0511 16.5 11.25 16.5C11.4489 16.5 11.6397 16.421 11.7803 16.2803C11.921 16.1397 12 15.9489 12 15.75V13.5C12 13.3011 12.079 13.1103 12.2197 12.9697C12.3603 12.829 12.5511 12.75 12.75 12.75C12.9489 12.75 13.1397 12.829 13.2803 12.9697C13.421 13.1103 13.5 13.3011 13.5 13.5V15.75C13.5 16.3467 13.2629 16.919 12.841 17.341C12.419 17.7629 11.8467 18 11.25 18Z" fill="currentColor"/>
<path d="M9.75 8.25C9.55109 8.25 9.36032 8.17098 9.21967 8.03033C9.07902 7.88968 9 7.69891 9 7.5V3.75C9 3.55109 9.07902 3.36032 9.21967 3.21967C9.36032 3.07902 9.55109 3 9.75 3C9.94891 3 10.1397 3.07902 10.2803 3.21967C10.421 3.36032 10.5 3.55109 10.5 3.75V7.5C10.5 7.69891 10.421 7.88968 10.2803 8.03033C10.1397 8.17098 9.94891 8.25 9.75 8.25Z" fill="currentColor" fill-opacity="0.9"/>
<path d="M18 18C17.8873 17.9995 17.7762 17.9736 17.6749 17.9242C17.5737 17.8749 17.4848 17.8034 17.415 17.715L14.415 13.965C14.3109 13.8085 14.2694 13.6187 14.2987 13.4331C14.3279 13.2475 14.4258 13.0796 14.5729 12.9627C14.72 12.8458 14.9056 12.7883 15.093 12.8017C15.2804 12.8151 15.456 12.8983 15.585 13.035L18.585 16.785C18.6721 16.8953 18.7265 17.0279 18.742 17.1677C18.7574 17.3074 18.7333 17.4487 18.6723 17.5754C18.6113 17.702 18.5159 17.809 18.397 17.8841C18.2781 17.9592 18.1406 17.9993 18 18Z" fill="currentColor"/>
<path d="M15 18C14.8594 17.9994 14.7218 17.9592 14.6029 17.8841C14.484 17.809 14.3887 17.7021 14.3277 17.5754C14.2667 17.4487 14.2425 17.3074 14.258 17.1677C14.2734 17.0279 14.3278 16.8953 14.415 16.785L17.415 13.035C17.4725 12.9485 17.5473 12.8749 17.6347 12.8189C17.7221 12.7628 17.8203 12.7255 17.9228 12.7093C18.0254 12.6932 18.1303 12.6985 18.2307 12.725C18.3311 12.7514 18.425 12.7985 18.5063 12.8631C18.5876 12.9277 18.6545 13.0085 18.703 13.1004C18.7514 13.1922 18.7803 13.2932 18.7877 13.3968C18.7951 13.5003 18.7809 13.6043 18.746 13.7022C18.7111 13.8 18.6563 13.8895 18.585 13.965L15.585 17.715C15.5151 17.8034 15.4263 17.8749 15.325 17.9243C15.2237 17.9736 15.1126 17.9995 15 18Z" fill="currentColor"/>
<path d="M11.25 21H9.75C9.55109 21 9.36032 20.921 9.21967 20.7803C9.07902 20.6397 9 20.4489 9 20.25C9 20.0511 9.07902 19.8603 9.21967 19.7197C9.36032 19.579 9.55109 19.5 9.75 19.5H11.25C11.4489 19.5 11.6397 19.579 11.7803 19.7197C11.921 19.8603 12 20.0511 12 20.25C12 20.4489 11.921 20.6397 11.7803 20.7803C11.6397 20.921 11.4489 21 11.25 21Z" fill="currentColor" fill-opacity="0.9"/>
<path d="M20.25 21H14.25C14.0511 21 13.8603 20.921 13.7197 20.7803C13.579 20.6397 13.5 20.4489 13.5 20.25C13.5 20.0511 13.579 19.8603 13.7197 19.7197C13.8603 19.579 14.0511 19.5 14.25 19.5H20.25C20.4489 19.5 20.6397 19.579 20.7803 19.7197C20.921 19.8603 21 20.0511 21 20.25C21 20.4489 20.921 20.6397 20.7803 20.7803C20.6397 20.921 20.4489 21 20.25 21Z" fill="currentColor" fill-opacity="0.9"/>
</g>
<defs>
<clipPath id="azclip0_1513_4913">
<rect width="24" height="24" fill="currentColor"/>
</clipPath>
</defs>
</symbol><symbol viewBox="0 0 24 24" fill="none" id="websitedesign" xmlns="http://www.w3.org/2000/svg">
<g clip-path="url(#baclip0_1513_4939)">
<path d="M5.06177 4.21875C5.37243 4.21875 5.62427 3.96691 5.62427 3.65625C5.62427 3.34559 5.37243 3.09375 5.06177 3.09375C4.75111 3.09375 4.49927 3.34559 4.49927 3.65625C4.49927 3.96691 4.75111 4.21875 5.06177 4.21875Z" fill="currentColor" fill-opacity="0.9"/>
<path d="M7.11975 4.21875C7.43041 4.21875 7.68225 3.96691 7.68225 3.65625C7.68225 3.34559 7.43041 3.09375 7.11975 3.09375C6.80909 3.09375 6.55725 3.34559 6.55725 3.65625C6.55725 3.96691 6.80909 4.21875 7.11975 4.21875Z" fill="currentColor" fill-opacity="0.9"/>
<path d="M8.99774 4.21875C9.3084 4.21875 9.56024 3.96691 9.56024 3.65625C9.56024 3.34559 9.3084 3.09375 8.99774 3.09375C8.68708 3.09375 8.43524 3.34559 8.43524 3.65625C8.43524 3.96691 8.68708 4.21875 8.99774 4.21875Z" fill="currentColor" fill-opacity="0.9"/>
<path d="M15.891 14.5388C16.2017 14.5388 16.4535 14.287 16.4535 13.9763C16.4535 13.6657 16.2017 13.4138 15.891 13.4138C15.5803 13.4138 15.3285 13.6657 15.3285 13.9763C15.3285 14.287 15.5803 14.5388 15.891 14.5388Z" fill="currentColor"/>
<path d="M1.49927 9.0675C1.18877 9.0675 0.936768 8.8155 0.936768 8.505V4.5C0.936768 2.53275 2.53202 0.9375 4.49927 0.9375H13.6883C13.9988 0.9375 14.2508 1.1895 14.2508 1.5C14.2508 1.8105 13.9988 2.0625 13.6883 2.0625H4.49927C3.15302 2.0625 2.06177 3.15375 2.06177 4.5V8.505C2.06177 8.8155 1.80977 9.0675 1.49927 9.0675Z" fill="currentColor" fill-opacity="0.9"/>
<path d="M19.4993 23.0625H4.49927C2.53202 23.0625 0.936768 21.4672 0.936768 19.5V12.5625C0.936768 12.252 1.18877 12 1.49927 12C1.80977 12 2.06177 12.252 2.06177 12.5625V19.5C2.06177 20.8462 3.15302 21.9375 4.49927 21.9375H19.4993C20.8455 21.9375 21.9368 20.8462 21.9368 19.5V13.986C21.9368 13.6755 22.1888 13.4235 22.4993 13.4235C22.8098 13.4235 23.0618 13.6755 23.0618 13.986V19.5C23.0618 21.4672 21.4665 23.0625 19.4993 23.0625Z" fill="currentColor" fill-opacity="0.9"/>
<path d="M12.1808 6.56323H1.49927V5.43823H12.1808C12.4913 5.43823 12.7433 5.69023 12.7433 6.00073C12.7433 6.31123 12.4913 6.56323 12.1808 6.56323Z" fill="currentColor" fill-opacity="0.9"/>
<path d="M20.9993 11.8125H16.4993C15.3615 11.8125 14.4368 10.8878 14.4368 9.75V6C14.4368 4.86225 15.3615 3.9375 16.4993 3.9375H20.9993C22.137 3.9375 23.0618 4.86225 23.0618 6V9.75C23.0618 10.8878 22.137 11.8125 20.9993 11.8125ZM16.4993 5.0625C15.9825 5.0625 15.5618 5.48325 15.5618 6V9.75C15.5618 10.2667 15.9825 10.6875 16.4993 10.6875H20.9993C21.516 10.6875 21.9368 10.2667 21.9368 9.75V6C21.9368 5.48325 21.516 5.0625 20.9993 5.0625H16.4993Z" fill="currentColor"/>
<path d="M19.3118 5.0625H17.2493C16.1115 5.0625 15.1868 4.13775 15.1868 3C15.1868 1.86225 16.1115 0.9375 17.2493 0.9375C18.387 0.9375 19.3118 1.86225 19.3118 3V5.0625ZM17.2493 2.0625C16.7325 2.0625 16.3118 2.48325 16.3118 3C16.3118 3.51675 16.7325 3.9375 17.2493 3.9375H18.1868V3C18.1868 2.48325 17.766 2.0625 17.2493 2.0625Z" fill="currentColor"/>
<path d="M20.2493 5.0625H18.1868V3C18.1868 1.86225 19.1115 0.9375 20.2493 0.9375C21.387 0.9375 22.3118 1.86225 22.3118 3C22.3118 4.13775 21.387 5.0625 20.2493 5.0625ZM19.3118 3.9375H20.2493C20.766 3.9375 21.1868 3.51675 21.1868 3C21.1868 2.48325 20.766 2.0625 20.2493 2.0625C19.7325 2.0625 19.3118 2.48325 19.3118 3V3.9375Z" fill="currentColor"/>
<path d="M18.1868 4.5H19.3118V11.25H18.1868V4.5Z" fill="currentColor"/>
<path d="M6.02325 20.8628C4.8855 20.8628 3.96075 19.938 3.96075 18.8003C3.96075 17.6625 4.8855 16.7378 6.02325 16.7378C7.161 16.7378 8.08575 17.6625 8.08575 18.8003C8.08575 19.938 7.161 20.8628 6.02325 20.8628ZM6.02325 17.8628C5.5065 17.8628 5.08575 18.2835 5.08575 18.8003C5.08575 19.317 5.5065 19.7378 6.02325 19.7378C6.54 19.7378 6.96075 19.317 6.96075 18.8003C6.96075 18.2835 6.54 17.8628 6.02325 17.8628Z" fill="currentColor" fill-opacity="0.9"/>
<path d="M11.3647 20.8628C10.227 20.8628 9.30225 19.938 9.30225 18.8003C9.30225 17.6625 10.227 16.7378 11.3647 16.7378C12.5025 16.7378 13.4272 17.6625 13.4272 18.8003C13.4272 19.938 12.5025 20.8628 11.3647 20.8628ZM11.3647 17.8628C10.848 17.8628 10.4272 18.2835 10.4272 18.8003C10.4272 19.317 10.848 19.7378 11.3647 19.7378C11.8815 19.7378 12.3022 19.317 12.3022 18.8003C12.3022 18.2835 11.8815 17.8628 11.3647 17.8628Z" fill="currentColor" fill-opacity="0.9"/>
<path d="M19.2615 15.6833H15.8873C15.5766 15.6833 15.3248 15.9352 15.3248 16.2458C15.3248 16.5565 15.5766 16.8083 15.8873 16.8083H19.2615C19.5722 16.8083 19.824 16.5565 19.824 16.2458C19.824 15.9352 19.5722 15.6833 19.2615 15.6833Z" fill="currentColor" fill-opacity="0.9"/>
<path d="M19.2615 17.9529H15.8873C15.5766 17.9529 15.3248 18.2047 15.3248 18.5154C15.3248 18.826 15.5766 19.0779 15.8873 19.0779H19.2615C19.5722 19.0779 19.824 18.826 19.824 18.5154C19.824 18.2047 19.5722 17.9529 19.2615 17.9529Z" fill="currentColor" fill-opacity="0.9"/>
<path d="M11.9175 17.8628H4.98902C4.32002 17.8628 3.75827 17.3603 3.68477 16.6958L3.06452 11.1218H1.49927C1.18877 11.1218 0.936768 10.8698 0.936768 10.5593C0.936768 10.2488 1.18877 9.99683 1.49927 9.99683H3.71402C3.91652 9.99683 4.08677 10.1491 4.10927 10.3501L4.23602 11.4893H12.453C12.834 11.4893 13.1955 11.6543 13.4445 11.9416C13.6943 12.2296 13.806 12.6106 13.7528 12.9878L13.2165 16.7363C13.1243 17.3828 12.57 17.8628 11.9175 17.8628ZM4.36127 12.6143L4.80227 16.5713C4.81277 16.6666 4.89302 16.7378 4.98827 16.7378H11.9175C12.0105 16.7378 12.09 16.6688 12.1028 16.5773L12.639 12.8288C12.6495 12.7546 12.6158 12.7036 12.5948 12.6796C12.5738 12.6556 12.528 12.6151 12.453 12.6151H4.36202L4.36127 12.6143Z" fill="currentColor" fill-opacity="0.9"/>
</g>
<defs>
<clipPath id="baclip0_1513_4939">
<rect width="24" height="24" fill="currentColor"/>
</clipPath>
</defs>
</symbol><symbol viewBox="0 0 24 24" fill="none" id="webwlow" xmlns="http://www.w3.org/2000/svg">
<path d="M10.499 17.7501C10.3663 17.75 10.236 17.7147 10.1215 17.6479C10.0069 17.581 9.91206 17.4849 9.84672 17.3695C9.78139 17.254 9.74787 17.1232 9.74957 16.9906C9.75128 16.8579 9.78816 16.7281 9.85644 16.6143L12.8564 11.6143C12.9071 11.5298 12.9739 11.4561 13.053 11.3974C13.1322 11.3387 13.2221 11.2962 13.3177 11.2722C13.4133 11.2483 13.5126 11.2434 13.6101 11.2579C13.7076 11.2723 13.8012 11.3059 13.8857 11.3565C13.9702 11.4072 14.0439 11.474 14.1026 11.5531C14.1613 11.6323 14.2039 11.7222 14.2278 11.8178C14.2517 11.9133 14.2566 12.0127 14.2422 12.1102C14.2277 12.2076 14.1942 12.3013 14.1435 12.3858L11.1435 17.3858C11.0767 17.497 10.9823 17.5891 10.8693 17.6529C10.7563 17.7168 10.6288 17.7502 10.499 17.7501Z" fill="currentColor"/>
<path d="M8 17.75C7.82438 17.7504 7.65425 17.6888 7.51953 17.5762L4.51953 15.0762C4.43516 15.0057 4.36729 14.9176 4.32071 14.8181C4.27414 14.7185 4.25 14.6099 4.25 14.5C4.25 14.3901 4.27414 14.2815 4.32071 14.182C4.36729 14.0824 4.43516 13.9943 4.51953 13.9239L7.51953 11.4239C7.67243 11.2972 7.86929 11.2364 8.06697 11.2546C8.26465 11.2729 8.44704 11.3687 8.57418 11.5212C8.70132 11.6737 8.76285 11.8703 8.74528 12.0681C8.72772 12.2658 8.63249 12.4485 8.48047 12.5762L6.17188 14.5L8.48047 16.4239C8.5989 16.5225 8.68404 16.6553 8.72431 16.8041C8.76457 16.953 8.758 17.1106 8.70548 17.2555C8.65297 17.4004 8.55707 17.5257 8.43083 17.6142C8.3046 17.7027 8.15416 17.7501 8 17.75Z" fill="currentColor"/>
<path d="M16 17.7499C15.8459 17.75 15.6954 17.7026 15.5692 17.6141C15.4429 17.5256 15.347 17.4003 15.2945 17.2554C15.242 17.1105 15.2355 16.9529 15.2757 16.8041C15.316 16.6552 15.4011 16.5225 15.5195 16.4238L17.8281 14.4999L15.5195 12.5761C15.4435 12.5131 15.3806 12.4358 15.3345 12.3484C15.2885 12.2611 15.2601 12.1656 15.251 12.0672C15.2419 11.9689 15.2523 11.8698 15.2816 11.7755C15.311 11.6812 15.3586 11.5936 15.4218 11.5178C15.4851 11.442 15.5627 11.3794 15.6502 11.3336C15.7376 11.2878 15.8333 11.2597 15.9316 11.251C16.03 11.2423 16.1291 11.253 16.2233 11.2827C16.3175 11.3123 16.4049 11.3603 16.4805 11.4238L19.4805 13.9238C19.5649 13.9942 19.6327 14.0823 19.6793 14.1819C19.7259 14.2814 19.75 14.39 19.75 14.4999C19.75 14.6098 19.7259 14.7184 19.6793 14.818C19.6327 14.9175 19.5649 15.0057 19.4805 15.0761L16.4805 17.5761C16.3458 17.6888 16.1756 17.7503 16 17.7499Z" fill="currentColor"/>
<path d="M21 21.75H3C2.53604 21.7494 2.09125 21.5649 1.76319 21.2368C1.43512 20.9087 1.25056 20.464 1.25 20V4C1.25056 3.53604 1.43512 3.09125 1.76319 2.76319C2.09125 2.43512 2.53604 2.25056 3 2.25H21C21.464 2.25056 21.9087 2.43512 22.2368 2.76319C22.5649 3.09125 22.7494 3.53604 22.75 4V20C22.7494 20.464 22.5649 20.9087 22.2368 21.2368C21.9087 21.5649 21.464 21.7494 21 21.75ZM3 3.75C2.93373 3.75013 2.87022 3.77651 2.82336 3.82336C2.77651 3.87022 2.75013 3.93373 2.75 4V20C2.75013 20.0663 2.77651 20.1298 2.82336 20.1766C2.87022 20.2235 2.93373 20.2499 3 20.25H21C21.0663 20.2499 21.1298 20.2235 21.1766 20.1766C21.2235 20.1298 21.2499 20.0663 21.25 20V4C21.2499 3.93373 21.2235 3.87022 21.1766 3.82336C21.1298 3.77651 21.0663 3.75013 21 3.75H3Z" fill="currentColor" fill-opacity="0.9"/>
<path d="M22 8.75H2C1.80109 8.75 1.61032 8.67098 1.46967 8.53033C1.32902 8.38968 1.25 8.19891 1.25 8C1.25 7.80109 1.32902 7.61032 1.46967 7.46967C1.61032 7.32902 1.80109 7.25 2 7.25H22C22.1989 7.25 22.3897 7.32902 22.5303 7.46967C22.671 7.61032 22.75 7.80109 22.75 8C22.75 8.19891 22.671 8.38968 22.5303 8.53033C22.3897 8.67098 22.1989 8.75 22 8.75Z" fill="currentColor" fill-opacity="0.9"/>
<path d="M5 6.5C5.55228 6.5 6 6.05228 6 5.5C6 4.94772 5.55228 4.5 5 4.5C4.44772 4.5 4 4.94772 4 5.5C4 6.05228 4.44772 6.5 5 6.5Z" fill="currentColor" fill-opacity="0.9"/>
<path d="M8 6.5C8.55228 6.5 9 6.05228 9 5.5C9 4.94772 8.55228 4.5 8 4.5C7.44772 4.5 7 4.94772 7 5.5C7 6.05228 7.44772 6.5 8 6.5Z" fill="currentColor" fill-opacity="0.9"/>
<path d="M11 6.5C11.5523 6.5 12 6.05228 12 5.5C12 4.94772 11.5523 4.5 11 4.5C10.4477 4.5 10 4.94772 10 5.5C10 6.05228 10.4477 6.5 11 6.5Z" fill="currentColor" fill-opacity="0.9"/>
</symbol></svg>