<svg width="24" height="24" viewBox="0 0 24 24" fill="none" xmlns="http://www.w3.org/2000/svg">
<g opacity="0.8" clip-path="url(#clip0_201_20221)">
<path d="M11.9704 0.570312C14.3275 0.570312 16.6846 0.570312 19.0417 0.570312C19.9845 0.570312 20.8472 0.745916 21.3493 1.67815C21.5373 2.00073 21.6407 2.3656 21.6498 2.73885C21.6498 3.17137 21.6498 3.60272 21.6498 4.03525C21.6498 4.85081 21.6498 4.85081 22.4571 4.92506C23.6204 5.03113 24.377 6.45717 23.8042 7.4778C23.7605 7.56611 23.6903 7.63852 23.6033 7.68485C23.5164 7.73118 23.4171 7.74911 23.3194 7.7361C23.2218 7.7231 23.1306 7.67982 23.0588 7.61235C22.987 7.54488 22.9382 7.45661 22.9191 7.35994C22.8844 7.14693 22.8725 6.93081 22.8838 6.71527C22.9097 6.17668 22.6481 5.97868 22.1319 5.994C21.7783 6.00343 21.6263 6.1425 21.6498 6.49135C21.6604 6.6481 21.6498 6.80602 21.6498 6.96277C21.6498 10.9093 21.6498 14.8559 21.6498 18.8025C21.6498 19.8691 21.4236 20.1826 20.3794 20.4654C20.0635 20.5503 19.9692 20.7117 19.9751 21.0028C19.9751 21.3564 19.9869 21.71 19.9669 22.0635C19.9589 22.3807 19.8383 22.6847 19.6267 22.9212C19.4151 23.1576 19.1263 23.3111 18.8119 23.354C18.2876 23.4398 17.7538 23.4498 17.2267 23.3835C16.364 23.2763 15.9539 22.8143 15.9303 21.928C15.9209 21.5945 15.9209 21.2598 15.9303 20.9262C15.9303 20.6304 15.7948 20.4961 15.5025 20.4961C13.1454 20.4961 10.7883 20.4961 8.43121 20.4961C8.10593 20.4961 7.96922 20.6434 7.97747 20.9675C7.98572 21.2916 7.98572 21.6357 7.97747 21.9693C7.94447 22.819 7.53552 23.2786 6.70228 23.3835C6.17553 23.4523 5.6416 23.4444 5.11713 23.3599C4.80252 23.3214 4.51168 23.1728 4.29601 22.9406C4.08035 22.7083 3.95374 22.4072 3.93858 22.0906C3.92909 21.973 3.92909 21.8547 3.93858 21.7371C3.99397 21.0429 4.00694 20.4654 3.05113 20.3016C2.40057 20.1837 2.25443 19.5332 2.25679 18.8873C2.26739 14.9404 2.25679 10.9911 2.25679 7.04763C2.25679 6.89088 2.24618 6.73295 2.25679 6.57621C2.28625 6.19907 2.17665 5.97868 1.7394 5.99518C1.33634 6.00932 1.03817 6.09771 1.03227 6.57385C1.0345 6.82854 1.0219 7.08314 0.99456 7.33637C0.983337 7.44793 0.930564 7.5512 0.846723 7.62565C0.762882 7.7001 0.654106 7.7403 0.541997 7.73826C0.482436 7.74526 0.422074 7.74017 0.364529 7.72328C0.306985 7.70639 0.253442 7.67806 0.20711 7.63998C0.160778 7.60191 0.122612 7.55487 0.0948979 7.50168C0.0671841 7.4485 0.0504937 7.39027 0.0458272 7.33048C-0.0991345 6.19082 0.0104707 4.94156 1.72055 4.93095C2.14011 4.93095 2.26622 4.74238 2.25207 4.35346C2.2344 3.82311 2.23793 3.29276 2.25207 2.76359C2.28389 1.58504 3.02992 0.773023 4.19786 0.631597C4.51079 0.594739 4.82561 0.576243 5.1407 0.576205C7.41609 0.572277 9.69265 0.570312 11.9704 0.570312ZM11.9539 4.84491C9.26327 4.84491 6.57146 4.84491 3.88083 4.84491C3.50369 4.84491 3.23852 4.87674 3.24441 5.36701C3.26327 7.05705 3.2562 8.74592 3.24441 10.4348C3.24441 10.766 3.37995 10.938 3.69933 11.0111C6.13658 11.5674 8.5856 12.0023 11.0912 12.0753C14.1366 12.1625 17.1183 11.73 20.0729 11.0394C20.4972 10.9404 20.6622 10.7589 20.6551 10.324C20.6375 8.73295 20.6245 7.14191 20.661 5.55087C20.674 4.96159 20.4536 4.83077 19.9079 4.83549C17.2574 4.85906 14.6056 4.84609 11.9539 4.84609V4.84491ZM11.9539 19.42C14.6434 19.42 17.334 19.42 20.0234 19.42C20.5243 19.42 20.654 19.1843 20.661 18.7282C20.6681 18.2721 20.4913 18.0942 20.0376 18.1119C19.4878 18.138 18.937 18.1341 18.3876 18.1001C17.9174 18.0673 17.4781 17.8542 17.1611 17.5054C16.8442 17.1565 16.6741 16.6988 16.6864 16.2276C16.6988 15.7565 16.8925 15.3082 17.2272 14.9764C17.5619 14.6446 18.0118 14.4548 18.4831 14.4466C19.0523 14.4301 19.6215 14.4348 20.1908 14.4466C20.5137 14.4466 20.6551 14.3063 20.6504 13.9846C20.6434 13.5132 20.6257 13.0417 20.6575 12.5703C20.6917 12.0659 20.5573 11.9127 20.0293 12.0659C17.5426 12.7907 14.9816 13.0347 12.4065 13.0665C9.49191 13.103 6.6021 12.8485 3.78419 12.0459C3.4153 11.941 3.22673 11.9858 3.24795 12.4265C3.27152 12.9368 3.26327 13.4483 3.24795 13.9586C3.2397 14.3122 3.39409 14.4548 3.74176 14.4477C4.27211 14.436 4.80246 14.4383 5.3328 14.4477C6.35814 14.469 7.19727 15.2727 7.21848 16.2486C7.24323 17.2008 6.40175 18.0694 5.38937 18.113C4.86021 18.1366 4.32868 18.1331 3.79951 18.113C3.3988 18.1024 3.23616 18.2627 3.2397 18.6693C3.2397 19.2998 3.33045 19.413 3.99397 19.4142C6.64728 19.4228 9.29941 19.4271 11.9504 19.4271L11.9539 19.42ZM11.9622 3.85022H14.2603C16.1825 3.85022 18.1059 3.85022 20.0281 3.85022C20.2698 3.85022 20.5467 3.91504 20.6422 3.5544C20.9262 2.45599 20.3157 1.6204 19.1808 1.61922C14.3534 1.61451 9.52648 1.61451 4.69992 1.61922C3.67458 1.61922 3.27623 2.02229 3.25148 3.03348C3.23145 3.8184 3.25148 3.84433 4.07647 3.84433L11.9622 3.85022ZM4.51135 17.07C4.78596 17.07 5.05938 17.07 5.33634 17.07C5.82662 17.07 6.10711 16.8261 6.14836 16.3334C6.18607 15.8679 5.89144 15.5084 5.38702 15.4707C4.9592 15.4354 4.52668 15.4542 4.09061 15.4542C3.24441 15.4542 3.24441 15.4542 3.24795 16.2875C3.24795 17.0547 3.26563 17.07 4.03993 17.0747L4.51135 17.07ZM19.2986 17.0641C20.7471 17.0712 20.7471 17.0712 20.6457 15.9021C20.6457 15.8632 20.6457 15.8243 20.6398 15.7842C20.6431 15.7398 20.6366 15.6953 20.621 15.6537C20.6053 15.612 20.5807 15.5743 20.549 15.5431C20.5172 15.512 20.4791 15.4881 20.4372 15.4731C20.3953 15.4582 20.3506 15.4525 20.3063 15.4566C19.6805 15.4566 19.05 15.4248 18.43 15.4837C17.9963 15.5238 17.7312 15.8302 17.7524 16.2969C17.7759 16.7836 18.0364 17.0523 18.5349 17.0618C18.7895 17.07 19.0441 17.0629 19.2986 17.0629V17.0641ZM6.96745 21.3977C6.96745 20.4949 6.96745 20.4949 6.12479 20.4925C4.99927 20.4925 4.99927 20.4925 4.99574 21.2998C4.99574 22.3511 5.0087 22.37 5.95861 22.3711C6.93445 22.3735 6.9651 22.3429 6.96745 21.3977ZM17.902 20.4878C16.9309 20.4878 16.9309 20.4878 16.9309 21.3234C16.9309 22.344 16.9521 22.3676 17.928 22.3664C18.8814 22.3664 18.9038 22.3429 18.9026 21.3647C18.9026 20.4878 18.9026 20.4878 17.902 20.4878Z" fill="#FA8B02" stroke="#FA8B02" stroke-width="0.5"/>
<path d="M11.9193 18.039C11.1332 18.039 10.3483 18.0532 9.56218 18.039C8.68769 18.019 8.18092 17.5063 8.14792 16.6413C8.13967 16.4256 8.14203 16.2087 8.14792 15.9931C8.16677 15.0974 8.65469 14.5116 9.53743 14.4892C11.1458 14.4476 12.7564 14.4476 14.3695 14.4892C15.2522 14.5116 15.7413 15.0962 15.759 15.9931C15.759 16.2288 15.7684 16.4645 15.759 16.7002C15.7154 17.4969 15.2098 17.9966 14.4037 18.0414C14.3648 18.0414 14.3247 18.0414 14.2858 18.0414L11.9193 18.039ZM12.0088 15.5452C11.2652 15.5452 10.5215 15.5582 9.77785 15.5452C9.27343 15.5334 9.13908 15.7939 9.14615 16.2417C9.15322 16.6672 9.17326 17.0396 9.74485 17.0373C11.2133 17.031 12.6814 17.031 14.1491 17.0373C14.7183 17.0373 14.7454 16.6731 14.7513 16.2453C14.7513 15.7998 14.6335 15.5323 14.1232 15.5452C13.4196 15.5582 12.7136 15.5452 12.0088 15.5452Z" fill="#FA8B02" stroke="#FA8B02" stroke-width="0.5"/>
</g>
<defs>
<clipPath id="clip0_201_20221">
<rect width="24" height="24" fill="white"/>
</clipPath>
</defs>
</svg>
