<svg width="25" height="24" viewBox="0 0 25 24" fill="none" xmlns="http://www.w3.org/2000/svg">
<path d="M4.89437 9.94011C4.56587 9.90257 4.36956 9.89866 4.18263 9.85486C3.97739 9.80731 3.7961 9.68751 3.67189 9.51734C3.54767 9.34718 3.48882 9.13801 3.50609 8.92804C3.51858 8.71757 3.60793 8.51902 3.75715 8.37008C3.90638 8.22114 4.1051 8.13218 4.31559 8.1201C4.73794 8.10524 5.17593 8.0192 5.567 8.29373C5.75393 8.42513 5.74298 8.21552 5.77348 8.1287C5.92521 7.69618 6.05583 7.25975 6.20756 6.82958C6.48053 6.05293 6.97796 5.6955 7.79216 5.6955C10.9332 5.6955 14.0745 5.6955 17.216 5.6955C18.0122 5.6955 18.5105 6.0498 18.7803 6.80377C18.9367 7.24568 19.0838 7.69149 19.2222 8.13965C19.2785 8.3211 19.3301 8.35786 19.5131 8.25149C19.9472 8.00043 20.4275 8.06926 20.8834 8.1592C21.2604 8.23741 21.5037 8.62848 21.4935 9.01954C21.4902 9.21011 21.4245 9.39436 21.3066 9.54408C21.1887 9.6938 21.0249 9.80077 20.8404 9.8486C20.6449 9.89709 20.4384 9.90335 20.1146 9.94402C20.4994 10.3085 20.8185 10.612 21.1361 10.9107C21.2567 11.0202 21.3517 11.1549 21.4144 11.3052C21.4771 11.4555 21.506 11.6177 21.499 11.7805C21.4896 13.0063 21.4896 14.2317 21.499 15.4565C21.499 15.8217 21.3981 16.133 21.0876 16.3332C20.9139 16.4451 20.8834 16.5835 20.8959 16.7618C20.9882 18.0367 20.6245 18.366 19.3372 18.2956C18.8953 18.2721 18.451 18.2956 18.0075 18.2909C17.3615 18.2846 17.015 17.9452 16.9963 17.3085C16.9728 16.4944 16.9728 16.4944 16.168 16.4944H8.50311C8.0049 16.4944 8.00568 16.4944 8.00333 17.0106C8.00333 17.1537 8.00881 17.2984 7.99707 17.4407C7.95484 17.9241 7.61931 18.2721 7.13673 18.2846C6.4203 18.3034 5.70231 18.3026 4.98588 18.2846C4.48766 18.2729 4.14431 17.91 4.11224 17.4094C4.10325 17.2792 4.10325 17.1486 4.11224 17.0184C4.13414 16.6985 4.11224 16.424 3.79078 16.2159C3.56162 16.0736 3.50061 15.7959 3.50061 15.5198C3.50531 14.2549 3.50531 12.9904 3.50061 11.7265C3.49559 11.583 3.52141 11.4402 3.57633 11.3075C3.63124 11.1749 3.71398 11.0556 3.81894 10.9577C4.14743 10.644 4.47906 10.3327 4.89437 9.94011ZM12.4576 15.8843C15.0892 15.8843 17.7208 15.8843 20.3524 15.8843C20.8389 15.8843 20.8881 15.8335 20.8897 15.3446C20.8897 14.7056 20.8983 14.0674 20.8897 13.4292C20.8811 12.791 21.0805 12.0824 20.8177 11.5372C20.5549 10.9921 19.9488 10.5885 19.4936 10.1231C19.485 10.1137 19.4748 10.1051 19.467 10.095C19.3442 9.93855 19.1846 9.89475 18.9875 9.89553C14.6598 9.89918 10.3343 9.89918 6.01125 9.89553C5.92131 9.89059 5.83139 9.90564 5.74795 9.93958C5.66451 9.97353 5.58963 10.0255 5.52867 10.0918C5.13761 10.4946 4.74655 10.8935 4.34062 11.2799C4.25961 11.3537 4.19609 11.4447 4.15468 11.5462C4.11328 11.6476 4.09504 11.7571 4.10129 11.8665C4.10989 13.0131 4.10129 14.1597 4.10598 15.3079C4.10598 15.8507 4.14352 15.889 4.68006 15.8898C7.27204 15.8898 9.86454 15.8892 12.4576 15.8882V15.8843ZM6.02846 9.25105C6.055 9.26459 6.08275 9.27558 6.11136 9.2839C10.3171 9.28755 14.5224 9.29277 18.7271 9.29955C19.0094 9.29955 18.9375 9.16267 18.8835 9.01016C18.675 8.38028 18.4651 7.75093 18.2539 7.1221C18.042 6.47762 17.7956 6.2993 17.1097 6.29852C15.3368 6.29852 13.5661 6.29852 11.7974 6.29852C10.4678 6.29852 9.1382 6.30399 7.81327 6.29852C7.41752 6.29852 7.04366 6.39159 6.89662 6.76779C6.5736 7.57964 6.31628 8.422 6.02846 9.25105ZM6.03784 16.4944C5.83058 16.4944 5.62253 16.4897 5.41214 16.4944C4.58934 16.5163 4.70822 16.3199 4.69023 17.2475C4.68554 17.5604 4.82476 17.6965 5.13761 17.6902C5.60689 17.6816 6.07225 17.6902 6.53997 17.6902C7.42534 17.6902 7.45349 17.6535 7.40031 16.7673C7.39171 16.5671 7.33305 16.4889 7.12891 16.4889C6.76522 16.5022 6.40153 16.4951 6.03784 16.4944ZM18.95 16.4944C18.7427 16.4944 18.5347 16.4897 18.3243 16.4944C17.4999 16.5155 17.6071 16.3207 17.5907 17.2405C17.5852 17.5807 17.7471 17.7004 18.0685 17.6918C18.5378 17.6785 19.0032 17.6918 19.4701 17.6918C20.3133 17.6918 20.2984 17.6918 20.3062 16.8541C20.3062 16.5468 20.1983 16.4748 19.9206 16.492C19.6007 16.51 19.2746 16.4944 18.95 16.4944ZM4.73012 9.29329C4.83805 9.29329 4.91627 9.29955 4.99292 9.29329C5.11962 9.28078 5.29638 9.35508 5.29873 9.11731C5.29873 8.91865 5.25571 8.75362 5.03124 8.71139C4.94266 8.69404 4.85204 8.68956 4.76219 8.69809C4.51582 8.72625 4.13648 8.58468 4.13648 8.99608C4.13648 9.40748 4.51738 9.25809 4.73012 9.29329ZM20.1764 9.29329C20.325 9.29329 20.4415 9.29876 20.5573 9.29329C20.7489 9.28156 20.8787 9.19161 20.8756 8.98044C20.8756 8.78647 20.7364 8.71217 20.5675 8.702C20.3875 8.69105 20.207 8.69105 20.027 8.702C19.8127 8.71295 19.7001 8.83653 19.6985 9.05239C19.6946 9.50055 20.0489 9.19396 20.1764 9.29329Z" fill="#333333" stroke="#333333" stroke-width="0.2"/>
<path d="M12.4954 11.6968C13.5247 11.6968 14.5532 11.6968 15.5817 11.6968C15.9188 11.6968 16.2121 11.7609 16.3411 12.1144C16.4702 12.468 16.2715 12.7096 16.0283 12.963C15.3924 13.6318 14.6549 13.8844 13.7234 13.8163C12.6479 13.7381 11.5623 13.7882 10.4822 13.8031C10.3138 13.8126 10.1452 13.7867 9.98731 13.7272C9.82944 13.6677 9.68578 13.5757 9.56557 13.4573C9.35987 13.2587 9.12836 13.0874 8.90623 12.9099C8.65047 12.7002 8.52768 12.4406 8.64813 12.1176C8.76388 11.8047 9.01416 11.7023 9.32936 11.7023C10.3873 11.7007 11.4427 11.6989 12.4954 11.6968ZM9.26288 12.3287C9.74154 12.9685 10.1639 13.1891 10.8584 13.1891C11.9245 13.1891 12.9952 13.1281 14.055 13.2094C14.8371 13.2696 15.2602 12.8246 15.7851 12.3248L9.26288 12.3287Z" fill="#333333" stroke="#333333" stroke-width="0.2"/>
<path d="M6.44978 13.7937C6.08609 13.7937 5.72162 13.8039 5.3548 13.7937C4.92463 13.7796 4.69859 13.5653 4.69234 13.1406C4.67982 11.8939 4.58205 11.7179 6.05168 11.6663C7.02386 11.6334 7.53772 12.2216 8.14074 12.7464C8.33002 12.9107 8.33393 13.1703 8.23851 13.4018C8.19486 13.5196 8.11538 13.6206 8.01127 13.6908C7.90716 13.7609 7.78366 13.7966 7.65817 13.7929C7.25537 13.8007 6.85258 13.7929 6.44978 13.7929V13.7937ZM7.67068 13.1907C7.14196 12.4954 6.5366 12.1543 5.71927 12.2983C5.58631 12.3217 5.38608 12.2302 5.33525 12.3921C5.26852 12.6304 5.26987 12.8827 5.33916 13.1203C5.34854 13.1563 5.44865 13.1868 5.50653 13.1875C6.20419 13.1922 6.90263 13.1907 7.67068 13.1907Z" fill="#333333" stroke="#333333" stroke-width="0.2"/>
<path d="M18.5007 13.7944H17.4057C17.0874 13.7944 16.841 13.6685 16.7386 13.3596C16.6361 13.0506 16.7386 12.8003 16.9889 12.5986C17.2704 12.3639 17.5512 12.1363 17.8273 11.9001C17.9855 11.7622 18.1901 11.6893 18.3998 11.696C18.8034 11.696 19.2062 11.6905 19.609 11.696C20.0783 11.7061 20.2871 11.9236 20.2996 12.3999C20.3059 12.6205 20.3051 12.8418 20.2996 13.0624C20.2887 13.5629 20.0806 13.778 19.5887 13.789C19.2289 13.8015 18.8644 13.7952 18.5007 13.7944ZM17.3393 13.193H19.182C19.7029 13.193 19.706 13.193 19.6911 12.6549C19.6872 12.5141 19.7545 12.3342 19.5073 12.3006C18.6423 12.1872 17.8985 12.3655 17.3393 13.193Z" fill="#333333" stroke="#333333" stroke-width="0.2"/>
<path d="M12.4836 14.69C13.3309 14.69 14.178 14.69 15.0247 14.69C15.2445 14.69 15.4752 14.6963 15.4799 14.9856C15.4846 15.275 15.2516 15.2915 15.0333 15.2915C13.3393 15.2915 11.6446 15.2915 9.94951 15.2915C9.72738 15.2915 9.50213 15.2649 9.51308 14.9786C9.52246 14.7182 9.72973 14.6931 9.9409 14.6939C10.7903 14.69 11.635 14.69 12.4836 14.69Z" fill="#333333" stroke="#333333" stroke-width="0.2"/>
<path d="M6.3558 14.69C6.67961 14.69 7.00341 14.69 7.32799 14.69C7.54073 14.69 7.69324 14.7784 7.69012 15.0029C7.69012 15.207 7.53369 15.2891 7.34285 15.2899C6.68169 15.293 6.02053 15.293 5.35937 15.2899C5.16931 15.2899 5.0168 15.2046 5.01758 14.9982C5.01758 14.7737 5.17401 14.6908 5.38362 14.6923C5.70742 14.69 6.03122 14.69 6.3558 14.69Z" fill="#333333" stroke="#333333" stroke-width="0.2"/>
<path d="M18.6617 14.69C18.9855 14.69 19.3093 14.69 19.6339 14.69C19.8318 14.69 19.9695 14.7799 19.9781 14.9786C19.9867 15.1773 19.8451 15.2836 19.6519 15.2852C18.9777 15.2899 18.3035 15.2899 17.6293 15.2852C17.4361 15.2852 17.2938 15.1804 17.3032 14.9778C17.3126 14.7753 17.4518 14.69 17.6504 14.6908C17.9875 14.69 18.3246 14.69 18.6617 14.69Z" fill="#333333" stroke="#333333" stroke-width="0.2"/>
</svg>
