<svg width="24" height="25" viewBox="0 0 24 25" fill="none" xmlns="http://www.w3.org/2000/svg">
<g opacity="0.8" clip-path="url(#clip0_201_2004)">
<mask id="path-1-outside-1_201_2004" maskUnits="userSpaceOnUse" x="-1.00977" y="-0.5" width="26" height="26" fill="black">
<rect fill="white" x="-1.00977" y="-0.5" width="26" height="26"/>
<path d="M10.4727 15.9344C10.1859 17.1722 9.59729 17.991 8.56769 18.4391C6.85563 19.1846 4.90747 18.2474 4.37919 16.4063C4.27893 16.0583 4.1474 15.9226 3.79917 15.9635C3.61963 15.9738 3.43965 15.9738 3.26011 15.9635C2.21433 15.9635 1.51679 16.5345 1.36154 17.5568C1.19228 18.674 1.0629 19.7976 0.893637 20.9158C0.835418 21.2994 0.948621 21.4092 1.33567 21.4114C2.71134 21.4114 2.71566 21.4308 2.7135 20.0497C2.7135 19.7136 2.66175 19.3882 3.18679 19.4583C3.41643 19.4895 3.49298 19.5552 3.4919 19.7814C3.48436 21.2358 3.48004 22.6901 3.4919 24.1434C3.4919 24.458 3.34528 24.4849 3.09731 24.4881C2.84934 24.4914 2.69841 24.4343 2.70919 24.1337C2.72752 23.5951 2.70919 23.0564 2.71781 22.5178C2.7232 22.2625 2.63049 22.1881 2.37713 22.172C1.14484 22.0955 1.14592 22.0879 1.14592 23.2988C1.14592 23.5498 1.13729 23.8008 1.14592 24.0529C1.15454 24.305 1.13406 24.4957 0.783668 24.4935C0.452686 24.4935 0.340562 24.3858 0.359968 24.0572C0.383686 23.6457 0.367515 23.232 0.359968 22.8194C0.359968 22.5242 0.426811 22.2215 0.0947506 22.0114C-0.0626547 21.9102 -0.00228006 21.6796 0.0225167 21.503C0.212266 20.1337 0.396624 18.7645 0.59931 17.3985C0.809543 15.9829 2.0731 15.0564 3.27304 15.1782C3.86062 15.2374 4.45897 15.1782 5.05086 15.1932C5.32794 15.2008 5.41634 15.1157 5.42497 14.8291C5.43898 14.2765 5.39263 13.8369 4.84278 13.4674C4.12476 12.9837 3.73232 12.2102 3.57168 11.3484C3.52209 11.0887 3.43692 10.9552 3.14044 10.9293C2.88717 10.9149 2.64435 10.8235 2.44452 10.6674C2.2447 10.5112 2.09742 10.2978 2.02243 10.0556C1.83591 9.51697 1.93186 9.01387 2.35449 8.62173C2.43495 8.55314 2.49457 8.46339 2.52658 8.36266C2.55859 8.26193 2.56172 8.15426 2.53561 8.05184C2.46338 7.57245 2.41486 7.0909 2.34586 6.6115C1.9944 4.18758 3.9156 2.6255 5.65676 2.79249C6.63785 2.88513 7.63296 2.71815 8.61404 2.88729C9.33531 3.01225 10.0005 3.19647 10.0824 4.10463C10.1018 4.32009 10.3121 4.34056 10.4943 4.37503C11.5314 4.57218 12.0036 5.14315 12.0036 6.20644C12.0036 6.6018 12.0036 6.99609 12.0036 7.39146C12.0036 7.89779 11.995 8.3341 12.45 8.77794C13.1799 9.49111 12.6786 10.7322 11.6479 10.9175C11.3007 10.9789 11.194 11.1092 11.1185 11.4378C10.9161 12.3417 10.3896 13.1403 9.63826 13.6829C9.36549 13.8854 9.15957 14.8108 9.31482 15.0909C9.3376 15.1292 9.37171 15.1595 9.41245 15.1777C9.45319 15.1958 9.49856 15.2009 9.5423 15.1922C10.0027 15.1738 10.504 15.343 10.8145 14.7806C10.9428 14.5501 11.2457 14.4305 11.5207 14.4499C11.8721 14.4736 11.9379 14.2786 11.9778 14.0082C12.0856 13.2455 12.2311 12.486 12.3163 11.72C12.3681 11.26 12.5459 10.9821 12.9955 10.8043C13.858 10.4618 14.7043 10.0502 15.5593 9.67856C15.9571 9.50404 16.0002 9.31336 15.6466 9.03218C14.9994 8.53239 14.557 7.81376 14.4025 7.01118C14.3572 6.77417 14.258 6.70522 14.0197 6.67291C13.265 6.56518 12.7788 6.03515 12.768 5.35753C12.7573 4.67991 13.2413 4.10894 13.9798 4.00768C14.2569 3.96997 14.3194 3.87301 14.355 3.61877C14.6181 1.74535 16.0186 0.5 17.8244 0.5C19.6303 0.5 21.0253 1.75613 21.2744 3.62416C21.311 3.89779 21.3984 3.96027 21.6582 3.9969C22.3956 4.10463 22.8776 4.67237 22.8614 5.35537C22.8569 5.6826 22.7314 5.99659 22.5091 6.23687C22.2867 6.47715 21.9832 6.62671 21.6571 6.65675C21.3725 6.69122 21.2571 6.78171 21.2065 7.05535C21.0609 7.84824 20.6254 8.47091 20.0259 8.99448C19.6249 9.3446 19.6454 9.4728 20.1456 9.70011C21.0081 10.0933 21.8781 10.4887 22.7546 10.8571C22.8979 10.9054 23.0238 10.9946 23.1168 11.1137C23.2097 11.2329 23.2656 11.3766 23.2775 11.5272C23.4996 13.0354 23.7411 14.5436 23.974 16.0518C24.0128 16.3039 24.0505 16.5571 23.7756 16.7198C23.5773 16.8383 23.6463 17.043 23.6452 17.2089C23.6398 18.2678 23.6452 19.3268 23.6452 20.3858C23.6452 21.6312 23.1482 22.3799 21.9989 22.8227C21.766 22.9121 21.6938 23.0219 21.7046 23.2536C21.7175 23.5218 21.6895 23.7922 21.7121 24.0605C21.738 24.3837 21.6356 24.5032 21.296 24.5022C20.9563 24.5011 20.9251 24.3363 20.9283 24.0712C20.9369 23.1922 20.9186 22.312 20.938 21.4329C20.9456 21.1033 20.8421 21.002 20.5068 21.002C18.6747 21.0157 16.8419 21.0157 15.0084 21.002C14.6418 21.002 14.5771 21.1162 14.6655 21.4394C14.7356 21.7023 14.7604 21.9781 14.4672 22.1558C14.2914 22.2635 14.3421 22.4402 14.341 22.5943C14.3345 23.0974 14.3238 23.6005 14.341 24.1025C14.3529 24.416 14.2224 24.4968 13.9292 24.5C13.6057 24.5 13.5281 24.3729 13.5378 24.0809C13.554 23.5789 13.526 23.0758 13.5464 22.5727C13.5605 22.2614 13.4386 22.186 13.1432 22.1795C12.0047 22.1547 12.0047 22.144 12.0047 23.2794C12.0047 23.5304 11.995 23.7825 12.0047 24.0335C12.0187 24.3104 12.0047 24.5054 11.6252 24.5054C11.2457 24.5054 11.2306 24.3319 11.2317 24.0443C11.2414 22.6621 11.2457 21.2789 11.2317 19.8967C11.2317 19.5735 11.318 19.4658 11.6533 19.4658C12.008 19.4658 12.0263 19.6457 12.0058 19.9032C11.9993 19.9749 11.9993 20.047 12.0058 20.1186C12.0532 20.5377 11.7977 21.1572 12.1201 21.3317C12.5125 21.5471 13.0969 21.3985 13.5982 21.4103C13.8332 21.4168 13.858 21.2746 13.8311 21.0871C13.6478 19.8267 13.4774 18.5641 13.2715 17.3069C13.2036 16.8954 13.0343 16.6282 12.4694 16.723C11.7514 16.8426 10.9708 16.8867 10.4727 15.9344ZM13.9453 16.6885C13.9453 15.636 13.9453 14.6955 13.9453 13.755C13.9453 13.4868 13.885 13.2369 14.3313 13.239C14.7776 13.2412 14.7086 13.5051 14.7086 13.7647C14.7086 15.7567 14.7205 17.7507 14.7 19.7405C14.7 20.1391 14.796 20.2587 15.2057 20.2533C16.9307 20.2296 18.6556 20.2264 20.3806 20.2533C20.841 20.2608 20.9456 20.1176 20.9402 19.6791C20.9175 17.6699 20.9402 15.6597 20.9251 13.6462C20.9251 13.3489 21.0103 13.2412 21.3208 13.2412C21.6312 13.2412 21.724 13.3489 21.711 13.6495C21.6916 14.0966 21.711 14.5458 21.711 14.995C21.711 15.9861 21.711 15.9646 22.7137 15.9646C23.0802 15.9646 23.174 15.8569 23.1158 15.4992C22.9203 14.3142 22.7406 13.1259 22.5768 11.9344C22.539 11.6619 22.3978 11.5304 22.1671 11.4302C21.4415 11.1168 20.7192 10.7989 20.0022 10.4682C19.7866 10.368 19.6852 10.3788 19.5472 10.6115C18.675 12.0917 16.9598 12.0982 16.1102 10.6266C15.983 10.4047 15.8946 10.3529 15.6617 10.4607C14.9297 10.8011 14.189 11.1254 13.4494 11.4496C13.2575 11.5347 13.126 11.6382 13.0947 11.8719C12.9955 12.6002 12.8791 13.3263 12.7562 14.0502C12.7131 14.3023 12.7217 14.4704 12.9966 14.6104C13.194 14.704 13.3543 14.861 13.452 15.0562C13.5497 15.2515 13.5792 15.4738 13.5357 15.6877C13.4634 16.0928 13.6521 16.3363 13.9453 16.6885ZM11.2403 8.00013C11.2403 7.36345 11.2403 6.79141 11.2403 6.21936C11.2339 5.51697 11.0075 5.2498 10.3142 5.14853C9.81938 5.07635 9.42371 4.82534 9.35902 4.34271C9.29434 3.86009 9.0054 3.73189 8.61081 3.6694C7.57582 3.49704 6.5322 3.59507 5.49397 3.58322C4.27462 3.56814 3.31401 4.37827 3.12642 5.57299C2.99058 6.45314 3.24933 7.29666 3.34204 8.22744C3.83367 7.69849 4.46437 7.73943 5.0045 7.54228C5.33872 7.41947 5.61256 7.45825 5.8767 7.73404C6.20014 8.07339 6.63138 8.2059 7.09605 8.22206C7.40283 8.23851 7.70904 8.18058 7.98857 8.05321C8.2681 7.92584 8.51265 7.73281 8.70137 7.49057C9.04853 7.05966 9.39891 7.01549 9.86358 7.29989C10.2754 7.5509 10.7228 7.74051 11.2403 8.00013ZM10.4641 9.92957C10.4641 9.45664 10.4641 9.11621 10.4641 8.77471C10.4706 8.23606 9.95522 8.30393 9.6803 8.09386C9.50888 7.96243 9.35687 7.9732 9.15957 8.13264C7.7936 9.25411 7.02059 9.30259 5.45731 8.40304C4.96892 8.12187 4.2509 8.50216 4.24982 9.04296C4.24982 9.56329 4.24012 10.0836 4.24982 10.604C4.26608 11.2731 4.49587 11.9195 4.90567 12.449C5.31547 12.9784 5.88384 13.3632 6.52788 13.5471C7.82163 13.9102 9.1876 13.3758 9.95522 12.2285C10.4576 11.4809 10.4932 10.6492 10.4641 9.92957ZM20.5186 5.18193C20.5186 4.78764 20.5251 4.39335 20.5186 3.9969C20.5122 3.70065 20.5715 3.26111 20.303 3.18354C20.0346 3.10598 19.7284 3.399 19.5483 3.68556C19.5005 3.76091 19.4475 3.8329 19.3898 3.90102C19.2367 4.08416 19.0492 4.26407 18.8184 4.27915C17.7921 4.35026 16.673 4.7327 15.9765 3.53151C15.921 3.46122 15.8521 3.40263 15.7738 3.35914C15.3016 3.02841 15.1647 3.07474 15.1421 3.65432C15.1065 4.56679 15.1032 5.48573 15.127 6.39604C15.1244 7.11033 15.4059 7.79639 15.9095 8.30329C16.4132 8.81019 17.0977 9.09641 17.8126 9.09898C18.5274 9.10155 19.214 8.82026 19.7213 8.317C20.2285 7.81374 20.515 7.12972 20.5176 6.41543C20.5326 6.00714 20.5186 5.59453 20.5186 5.18193ZM6.18828 14.2592V15.2094C6.18828 15.915 6.17318 15.9333 5.47672 15.9635C5.23199 15.9743 5.04547 15.9732 5.14466 16.3169C5.39047 17.1981 6.35107 17.8994 7.36019 17.8973C8.36931 17.8951 9.34177 17.1873 9.56387 16.3093C9.62101 16.082 9.58866 15.9915 9.33315 15.9624C8.52779 15.873 8.52887 15.8633 8.52887 15.0327C8.52887 14.8894 8.52133 14.7462 8.52887 14.6018C8.54073 14.368 8.44909 14.2625 8.20544 14.3271C7.56827 14.5048 6.93002 14.4402 6.18828 14.2592ZM17.8169 3.56922C18.1867 3.53582 18.6287 3.71034 18.8874 3.28266C19.07 2.9726 19.3415 2.72451 19.6669 2.57056C19.9656 2.42836 19.9548 2.28723 19.7348 2.05777C18.8206 1.10329 17.1474 1.01172 16.1102 1.87678C15.6003 2.30016 15.6035 2.31848 16.1415 2.67291C16.2892 2.76986 16.4649 2.87005 16.5458 3.01441C16.8261 3.5509 17.2735 3.65217 17.8169 3.56922ZM21.7035 19.4238C21.7035 20.1779 21.7035 20.932 21.7035 21.6861C21.7035 21.8046 21.6927 21.9813 21.7606 22.0308C21.8932 22.1289 22.0258 21.9834 22.139 21.9102C22.3627 21.7724 22.5465 21.5787 22.6722 21.3482C22.7979 21.1177 22.8613 20.8584 22.856 20.5959C22.8635 19.4486 22.8441 18.3012 22.8657 17.155C22.8754 16.625 22.5132 16.7726 22.2393 16.7607C21.9655 16.7489 21.6647 16.6831 21.6895 17.1658C21.7326 17.9166 21.7035 18.6708 21.7035 19.4238ZM17.7985 10.9498C18.3947 10.9379 18.9187 10.4639 18.9769 9.92203C19.0017 9.6958 18.9715 9.59022 18.6934 9.66887C18.2269 9.80416 17.7355 9.83033 17.2573 9.74535C17.0654 9.71088 16.8002 9.5105 16.6827 9.70442C16.5555 9.91988 16.7086 10.186 16.8466 10.4014C16.9462 10.5655 17.0857 10.7018 17.2521 10.7977C17.4185 10.8936 17.6065 10.9459 17.7985 10.9498ZM12.0155 15.9603H12.284C12.5481 15.9603 12.7637 15.873 12.7529 15.5724C12.7422 15.2719 12.5287 15.1911 12.2646 15.1932C12.0489 15.1932 11.8333 15.1835 11.6177 15.2029C11.5678 15.2028 11.5184 15.213 11.4727 15.2327C11.4269 15.2525 11.3857 15.2815 11.3516 15.3179C11.3175 15.3543 11.2913 15.3973 11.2746 15.4442C11.2578 15.4912 11.251 15.541 11.2544 15.5908C11.2544 15.8288 11.4107 15.9409 11.6371 15.9549C11.7643 15.9646 11.8904 15.9581 12.0155 15.9581V15.9603ZM14.3766 5.32198C14.1922 5.17762 14.5588 4.78333 14.1114 4.76286C13.7879 4.75209 13.5723 4.98694 13.5723 5.31336C13.5648 5.66779 13.7879 5.91341 14.1329 5.90156C14.5211 5.88648 14.244 5.52882 14.3766 5.31982V5.32198ZM21.5623 4.75316C21.4199 4.74562 21.3121 4.75316 21.3078 4.86628C21.2949 5.17008 21.297 5.47388 21.3078 5.77875C21.3078 5.8951 21.4059 5.9188 21.4997 5.9091C21.8232 5.87571 22.0388 5.70011 22.056 5.36507C22.0744 4.99987 21.8609 4.80918 21.5623 4.75316ZM3.53071 9.57191C3.3442 9.43832 3.71507 9.03326 3.24717 9.03865C2.91295 9.03865 2.72428 9.26703 2.73183 9.60207C2.73938 9.93711 2.93883 10.1526 3.27089 10.1407C3.68057 10.1256 3.39379 9.77552 3.53071 9.57191ZM11.2199 9.55036C11.3514 9.73027 11.0463 10.0955 11.4484 10.1353C11.7719 10.1677 11.9789 9.9328 11.9875 9.60961C11.9961 9.28643 11.8107 9.05804 11.4829 9.0408C11.07 9.01818 11.3201 9.37153 11.2199 9.54929V9.55036Z"/>
</mask>
<path d="M10.4727 15.9344C10.1859 17.1722 9.59729 17.991 8.56769 18.4391C6.85563 19.1846 4.90747 18.2474 4.37919 16.4063C4.27893 16.0583 4.1474 15.9226 3.79917 15.9635C3.61963 15.9738 3.43965 15.9738 3.26011 15.9635C2.21433 15.9635 1.51679 16.5345 1.36154 17.5568C1.19228 18.674 1.0629 19.7976 0.893637 20.9158C0.835418 21.2994 0.948621 21.4092 1.33567 21.4114C2.71134 21.4114 2.71566 21.4308 2.7135 20.0497C2.7135 19.7136 2.66175 19.3882 3.18679 19.4583C3.41643 19.4895 3.49298 19.5552 3.4919 19.7814C3.48436 21.2358 3.48004 22.6901 3.4919 24.1434C3.4919 24.458 3.34528 24.4849 3.09731 24.4881C2.84934 24.4914 2.69841 24.4343 2.70919 24.1337C2.72752 23.5951 2.70919 23.0564 2.71781 22.5178C2.7232 22.2625 2.63049 22.1881 2.37713 22.172C1.14484 22.0955 1.14592 22.0879 1.14592 23.2988C1.14592 23.5498 1.13729 23.8008 1.14592 24.0529C1.15454 24.305 1.13406 24.4957 0.783668 24.4935C0.452686 24.4935 0.340562 24.3858 0.359968 24.0572C0.383686 23.6457 0.367515 23.232 0.359968 22.8194C0.359968 22.5242 0.426811 22.2215 0.0947506 22.0114C-0.0626547 21.9102 -0.00228006 21.6796 0.0225167 21.503C0.212266 20.1337 0.396624 18.7645 0.59931 17.3985C0.809543 15.9829 2.0731 15.0564 3.27304 15.1782C3.86062 15.2374 4.45897 15.1782 5.05086 15.1932C5.32794 15.2008 5.41634 15.1157 5.42497 14.8291C5.43898 14.2765 5.39263 13.8369 4.84278 13.4674C4.12476 12.9837 3.73232 12.2102 3.57168 11.3484C3.52209 11.0887 3.43692 10.9552 3.14044 10.9293C2.88717 10.9149 2.64435 10.8235 2.44452 10.6674C2.2447 10.5112 2.09742 10.2978 2.02243 10.0556C1.83591 9.51697 1.93186 9.01387 2.35449 8.62173C2.43495 8.55314 2.49457 8.46339 2.52658 8.36266C2.55859 8.26193 2.56172 8.15426 2.53561 8.05184C2.46338 7.57245 2.41486 7.0909 2.34586 6.6115C1.9944 4.18758 3.9156 2.6255 5.65676 2.79249C6.63785 2.88513 7.63296 2.71815 8.61404 2.88729C9.33531 3.01225 10.0005 3.19647 10.0824 4.10463C10.1018 4.32009 10.3121 4.34056 10.4943 4.37503C11.5314 4.57218 12.0036 5.14315 12.0036 6.20644C12.0036 6.6018 12.0036 6.99609 12.0036 7.39146C12.0036 7.89779 11.995 8.3341 12.45 8.77794C13.1799 9.49111 12.6786 10.7322 11.6479 10.9175C11.3007 10.9789 11.194 11.1092 11.1185 11.4378C10.9161 12.3417 10.3896 13.1403 9.63826 13.6829C9.36549 13.8854 9.15957 14.8108 9.31482 15.0909C9.3376 15.1292 9.37171 15.1595 9.41245 15.1777C9.45319 15.1958 9.49856 15.2009 9.5423 15.1922C10.0027 15.1738 10.504 15.343 10.8145 14.7806C10.9428 14.5501 11.2457 14.4305 11.5207 14.4499C11.8721 14.4736 11.9379 14.2786 11.9778 14.0082C12.0856 13.2455 12.2311 12.486 12.3163 11.72C12.3681 11.26 12.5459 10.9821 12.9955 10.8043C13.858 10.4618 14.7043 10.0502 15.5593 9.67856C15.9571 9.50404 16.0002 9.31336 15.6466 9.03218C14.9994 8.53239 14.557 7.81376 14.4025 7.01118C14.3572 6.77417 14.258 6.70522 14.0197 6.67291C13.265 6.56518 12.7788 6.03515 12.768 5.35753C12.7573 4.67991 13.2413 4.10894 13.9798 4.00768C14.2569 3.96997 14.3194 3.87301 14.355 3.61877C14.6181 1.74535 16.0186 0.5 17.8244 0.5C19.6303 0.5 21.0253 1.75613 21.2744 3.62416C21.311 3.89779 21.3984 3.96027 21.6582 3.9969C22.3956 4.10463 22.8776 4.67237 22.8614 5.35537C22.8569 5.6826 22.7314 5.99659 22.5091 6.23687C22.2867 6.47715 21.9832 6.62671 21.6571 6.65675C21.3725 6.69122 21.2571 6.78171 21.2065 7.05535C21.0609 7.84824 20.6254 8.47091 20.0259 8.99448C19.6249 9.3446 19.6454 9.4728 20.1456 9.70011C21.0081 10.0933 21.8781 10.4887 22.7546 10.8571C22.8979 10.9054 23.0238 10.9946 23.1168 11.1137C23.2097 11.2329 23.2656 11.3766 23.2775 11.5272C23.4996 13.0354 23.7411 14.5436 23.974 16.0518C24.0128 16.3039 24.0505 16.5571 23.7756 16.7198C23.5773 16.8383 23.6463 17.043 23.6452 17.2089C23.6398 18.2678 23.6452 19.3268 23.6452 20.3858C23.6452 21.6312 23.1482 22.3799 21.9989 22.8227C21.766 22.9121 21.6938 23.0219 21.7046 23.2536C21.7175 23.5218 21.6895 23.7922 21.7121 24.0605C21.738 24.3837 21.6356 24.5032 21.296 24.5022C20.9563 24.5011 20.9251 24.3363 20.9283 24.0712C20.9369 23.1922 20.9186 22.312 20.938 21.4329C20.9456 21.1033 20.8421 21.002 20.5068 21.002C18.6747 21.0157 16.8419 21.0157 15.0084 21.002C14.6418 21.002 14.5771 21.1162 14.6655 21.4394C14.7356 21.7023 14.7604 21.9781 14.4672 22.1558C14.2914 22.2635 14.3421 22.4402 14.341 22.5943C14.3345 23.0974 14.3238 23.6005 14.341 24.1025C14.3529 24.416 14.2224 24.4968 13.9292 24.5C13.6057 24.5 13.5281 24.3729 13.5378 24.0809C13.554 23.5789 13.526 23.0758 13.5464 22.5727C13.5605 22.2614 13.4386 22.186 13.1432 22.1795C12.0047 22.1547 12.0047 22.144 12.0047 23.2794C12.0047 23.5304 11.995 23.7825 12.0047 24.0335C12.0187 24.3104 12.0047 24.5054 11.6252 24.5054C11.2457 24.5054 11.2306 24.3319 11.2317 24.0443C11.2414 22.6621 11.2457 21.2789 11.2317 19.8967C11.2317 19.5735 11.318 19.4658 11.6533 19.4658C12.008 19.4658 12.0263 19.6457 12.0058 19.9032C11.9993 19.9749 11.9993 20.047 12.0058 20.1186C12.0532 20.5377 11.7977 21.1572 12.1201 21.3317C12.5125 21.5471 13.0969 21.3985 13.5982 21.4103C13.8332 21.4168 13.858 21.2746 13.8311 21.0871C13.6478 19.8267 13.4774 18.5641 13.2715 17.3069C13.2036 16.8954 13.0343 16.6282 12.4694 16.723C11.7514 16.8426 10.9708 16.8867 10.4727 15.9344ZM13.9453 16.6885C13.9453 15.636 13.9453 14.6955 13.9453 13.755C13.9453 13.4868 13.885 13.2369 14.3313 13.239C14.7776 13.2412 14.7086 13.5051 14.7086 13.7647C14.7086 15.7567 14.7205 17.7507 14.7 19.7405C14.7 20.1391 14.796 20.2587 15.2057 20.2533C16.9307 20.2296 18.6556 20.2264 20.3806 20.2533C20.841 20.2608 20.9456 20.1176 20.9402 19.6791C20.9175 17.6699 20.9402 15.6597 20.9251 13.6462C20.9251 13.3489 21.0103 13.2412 21.3208 13.2412C21.6312 13.2412 21.724 13.3489 21.711 13.6495C21.6916 14.0966 21.711 14.5458 21.711 14.995C21.711 15.9861 21.711 15.9646 22.7137 15.9646C23.0802 15.9646 23.174 15.8569 23.1158 15.4992C22.9203 14.3142 22.7406 13.1259 22.5768 11.9344C22.539 11.6619 22.3978 11.5304 22.1671 11.4302C21.4415 11.1168 20.7192 10.7989 20.0022 10.4682C19.7866 10.368 19.6852 10.3788 19.5472 10.6115C18.675 12.0917 16.9598 12.0982 16.1102 10.6266C15.983 10.4047 15.8946 10.3529 15.6617 10.4607C14.9297 10.8011 14.189 11.1254 13.4494 11.4496C13.2575 11.5347 13.126 11.6382 13.0947 11.8719C12.9955 12.6002 12.8791 13.3263 12.7562 14.0502C12.7131 14.3023 12.7217 14.4704 12.9966 14.6104C13.194 14.704 13.3543 14.861 13.452 15.0562C13.5497 15.2515 13.5792 15.4738 13.5357 15.6877C13.4634 16.0928 13.6521 16.3363 13.9453 16.6885ZM11.2403 8.00013C11.2403 7.36345 11.2403 6.79141 11.2403 6.21936C11.2339 5.51697 11.0075 5.2498 10.3142 5.14853C9.81938 5.07635 9.42371 4.82534 9.35902 4.34271C9.29434 3.86009 9.0054 3.73189 8.61081 3.6694C7.57582 3.49704 6.5322 3.59507 5.49397 3.58322C4.27462 3.56814 3.31401 4.37827 3.12642 5.57299C2.99058 6.45314 3.24933 7.29666 3.34204 8.22744C3.83367 7.69849 4.46437 7.73943 5.0045 7.54228C5.33872 7.41947 5.61256 7.45825 5.8767 7.73404C6.20014 8.07339 6.63138 8.2059 7.09605 8.22206C7.40283 8.23851 7.70904 8.18058 7.98857 8.05321C8.2681 7.92584 8.51265 7.73281 8.70137 7.49057C9.04853 7.05966 9.39891 7.01549 9.86358 7.29989C10.2754 7.5509 10.7228 7.74051 11.2403 8.00013ZM10.4641 9.92957C10.4641 9.45664 10.4641 9.11621 10.4641 8.77471C10.4706 8.23606 9.95522 8.30393 9.6803 8.09386C9.50888 7.96243 9.35687 7.9732 9.15957 8.13264C7.7936 9.25411 7.02059 9.30259 5.45731 8.40304C4.96892 8.12187 4.2509 8.50216 4.24982 9.04296C4.24982 9.56329 4.24012 10.0836 4.24982 10.604C4.26608 11.2731 4.49587 11.9195 4.90567 12.449C5.31547 12.9784 5.88384 13.3632 6.52788 13.5471C7.82163 13.9102 9.1876 13.3758 9.95522 12.2285C10.4576 11.4809 10.4932 10.6492 10.4641 9.92957ZM20.5186 5.18193C20.5186 4.78764 20.5251 4.39335 20.5186 3.9969C20.5122 3.70065 20.5715 3.26111 20.303 3.18354C20.0346 3.10598 19.7284 3.399 19.5483 3.68556C19.5005 3.76091 19.4475 3.8329 19.3898 3.90102C19.2367 4.08416 19.0492 4.26407 18.8184 4.27915C17.7921 4.35026 16.673 4.7327 15.9765 3.53151C15.921 3.46122 15.8521 3.40263 15.7738 3.35914C15.3016 3.02841 15.1647 3.07474 15.1421 3.65432C15.1065 4.56679 15.1032 5.48573 15.127 6.39604C15.1244 7.11033 15.4059 7.79639 15.9095 8.30329C16.4132 8.81019 17.0977 9.09641 17.8126 9.09898C18.5274 9.10155 19.214 8.82026 19.7213 8.317C20.2285 7.81374 20.515 7.12972 20.5176 6.41543C20.5326 6.00714 20.5186 5.59453 20.5186 5.18193ZM6.18828 14.2592V15.2094C6.18828 15.915 6.17318 15.9333 5.47672 15.9635C5.23199 15.9743 5.04547 15.9732 5.14466 16.3169C5.39047 17.1981 6.35107 17.8994 7.36019 17.8973C8.36931 17.8951 9.34177 17.1873 9.56387 16.3093C9.62101 16.082 9.58866 15.9915 9.33315 15.9624C8.52779 15.873 8.52887 15.8633 8.52887 15.0327C8.52887 14.8894 8.52133 14.7462 8.52887 14.6018C8.54073 14.368 8.44909 14.2625 8.20544 14.3271C7.56827 14.5048 6.93002 14.4402 6.18828 14.2592ZM17.8169 3.56922C18.1867 3.53582 18.6287 3.71034 18.8874 3.28266C19.07 2.9726 19.3415 2.72451 19.6669 2.57056C19.9656 2.42836 19.9548 2.28723 19.7348 2.05777C18.8206 1.10329 17.1474 1.01172 16.1102 1.87678C15.6003 2.30016 15.6035 2.31848 16.1415 2.67291C16.2892 2.76986 16.4649 2.87005 16.5458 3.01441C16.8261 3.5509 17.2735 3.65217 17.8169 3.56922ZM21.7035 19.4238C21.7035 20.1779 21.7035 20.932 21.7035 21.6861C21.7035 21.8046 21.6927 21.9813 21.7606 22.0308C21.8932 22.1289 22.0258 21.9834 22.139 21.9102C22.3627 21.7724 22.5465 21.5787 22.6722 21.3482C22.7979 21.1177 22.8613 20.8584 22.856 20.5959C22.8635 19.4486 22.8441 18.3012 22.8657 17.155C22.8754 16.625 22.5132 16.7726 22.2393 16.7607C21.9655 16.7489 21.6647 16.6831 21.6895 17.1658C21.7326 17.9166 21.7035 18.6708 21.7035 19.4238ZM17.7985 10.9498C18.3947 10.9379 18.9187 10.4639 18.9769 9.92203C19.0017 9.6958 18.9715 9.59022 18.6934 9.66887C18.2269 9.80416 17.7355 9.83033 17.2573 9.74535C17.0654 9.71088 16.8002 9.5105 16.6827 9.70442C16.5555 9.91988 16.7086 10.186 16.8466 10.4014C16.9462 10.5655 17.0857 10.7018 17.2521 10.7977C17.4185 10.8936 17.6065 10.9459 17.7985 10.9498ZM12.0155 15.9603H12.284C12.5481 15.9603 12.7637 15.873 12.7529 15.5724C12.7422 15.2719 12.5287 15.1911 12.2646 15.1932C12.0489 15.1932 11.8333 15.1835 11.6177 15.2029C11.5678 15.2028 11.5184 15.213 11.4727 15.2327C11.4269 15.2525 11.3857 15.2815 11.3516 15.3179C11.3175 15.3543 11.2913 15.3973 11.2746 15.4442C11.2578 15.4912 11.251 15.541 11.2544 15.5908C11.2544 15.8288 11.4107 15.9409 11.6371 15.9549C11.7643 15.9646 11.8904 15.9581 12.0155 15.9581V15.9603ZM14.3766 5.32198C14.1922 5.17762 14.5588 4.78333 14.1114 4.76286C13.7879 4.75209 13.5723 4.98694 13.5723 5.31336C13.5648 5.66779 13.7879 5.91341 14.1329 5.90156C14.5211 5.88648 14.244 5.52882 14.3766 5.31982V5.32198ZM21.5623 4.75316C21.4199 4.74562 21.3121 4.75316 21.3078 4.86628C21.2949 5.17008 21.297 5.47388 21.3078 5.77875C21.3078 5.8951 21.4059 5.9188 21.4997 5.9091C21.8232 5.87571 22.0388 5.70011 22.056 5.36507C22.0744 4.99987 21.8609 4.80918 21.5623 4.75316ZM3.53071 9.57191C3.3442 9.43832 3.71507 9.03326 3.24717 9.03865C2.91295 9.03865 2.72428 9.26703 2.73183 9.60207C2.73938 9.93711 2.93883 10.1526 3.27089 10.1407C3.68057 10.1256 3.39379 9.77552 3.53071 9.57191ZM11.2199 9.55036C11.3514 9.73027 11.0463 10.0955 11.4484 10.1353C11.7719 10.1677 11.9789 9.9328 11.9875 9.60961C11.9961 9.28643 11.8107 9.05804 11.4829 9.0408C11.07 9.01818 11.3201 9.37153 11.2199 9.54929V9.55036Z" fill="#FA8B02"/>
<path d="M10.4727 15.9344C10.1859 17.1722 9.59729 17.991 8.56769 18.4391C6.85563 19.1846 4.90747 18.2474 4.37919 16.4063C4.27893 16.0583 4.1474 15.9226 3.79917 15.9635C3.61963 15.9738 3.43965 15.9738 3.26011 15.9635C2.21433 15.9635 1.51679 16.5345 1.36154 17.5568C1.19228 18.674 1.0629 19.7976 0.893637 20.9158C0.835418 21.2994 0.948621 21.4092 1.33567 21.4114C2.71134 21.4114 2.71566 21.4308 2.7135 20.0497C2.7135 19.7136 2.66175 19.3882 3.18679 19.4583C3.41643 19.4895 3.49298 19.5552 3.4919 19.7814C3.48436 21.2358 3.48004 22.6901 3.4919 24.1434C3.4919 24.458 3.34528 24.4849 3.09731 24.4881C2.84934 24.4914 2.69841 24.4343 2.70919 24.1337C2.72752 23.5951 2.70919 23.0564 2.71781 22.5178C2.7232 22.2625 2.63049 22.1881 2.37713 22.172C1.14484 22.0955 1.14592 22.0879 1.14592 23.2988C1.14592 23.5498 1.13729 23.8008 1.14592 24.0529C1.15454 24.305 1.13406 24.4957 0.783668 24.4935C0.452686 24.4935 0.340562 24.3858 0.359968 24.0572C0.383686 23.6457 0.367515 23.232 0.359968 22.8194C0.359968 22.5242 0.426811 22.2215 0.0947506 22.0114C-0.0626547 21.9102 -0.00228006 21.6796 0.0225167 21.503C0.212266 20.1337 0.396624 18.7645 0.59931 17.3985C0.809543 15.9829 2.0731 15.0564 3.27304 15.1782C3.86062 15.2374 4.45897 15.1782 5.05086 15.1932C5.32794 15.2008 5.41634 15.1157 5.42497 14.8291C5.43898 14.2765 5.39263 13.8369 4.84278 13.4674C4.12476 12.9837 3.73232 12.2102 3.57168 11.3484C3.52209 11.0887 3.43692 10.9552 3.14044 10.9293C2.88717 10.9149 2.64435 10.8235 2.44452 10.6674C2.2447 10.5112 2.09742 10.2978 2.02243 10.0556C1.83591 9.51697 1.93186 9.01387 2.35449 8.62173C2.43495 8.55314 2.49457 8.46339 2.52658 8.36266C2.55859 8.26193 2.56172 8.15426 2.53561 8.05184C2.46338 7.57245 2.41486 7.0909 2.34586 6.6115C1.9944 4.18758 3.9156 2.6255 5.65676 2.79249C6.63785 2.88513 7.63296 2.71815 8.61404 2.88729C9.33531 3.01225 10.0005 3.19647 10.0824 4.10463C10.1018 4.32009 10.3121 4.34056 10.4943 4.37503C11.5314 4.57218 12.0036 5.14315 12.0036 6.20644C12.0036 6.6018 12.0036 6.99609 12.0036 7.39146C12.0036 7.89779 11.995 8.3341 12.45 8.77794C13.1799 9.49111 12.6786 10.7322 11.6479 10.9175C11.3007 10.9789 11.194 11.1092 11.1185 11.4378C10.9161 12.3417 10.3896 13.1403 9.63826 13.6829C9.36549 13.8854 9.15957 14.8108 9.31482 15.0909C9.3376 15.1292 9.37171 15.1595 9.41245 15.1777C9.45319 15.1958 9.49856 15.2009 9.5423 15.1922C10.0027 15.1738 10.504 15.343 10.8145 14.7806C10.9428 14.5501 11.2457 14.4305 11.5207 14.4499C11.8721 14.4736 11.9379 14.2786 11.9778 14.0082C12.0856 13.2455 12.2311 12.486 12.3163 11.72C12.3681 11.26 12.5459 10.9821 12.9955 10.8043C13.858 10.4618 14.7043 10.0502 15.5593 9.67856C15.9571 9.50404 16.0002 9.31336 15.6466 9.03218C14.9994 8.53239 14.557 7.81376 14.4025 7.01118C14.3572 6.77417 14.258 6.70522 14.0197 6.67291C13.265 6.56518 12.7788 6.03515 12.768 5.35753C12.7573 4.67991 13.2413 4.10894 13.9798 4.00768C14.2569 3.96997 14.3194 3.87301 14.355 3.61877C14.6181 1.74535 16.0186 0.5 17.8244 0.5C19.6303 0.5 21.0253 1.75613 21.2744 3.62416C21.311 3.89779 21.3984 3.96027 21.6582 3.9969C22.3956 4.10463 22.8776 4.67237 22.8614 5.35537C22.8569 5.6826 22.7314 5.99659 22.5091 6.23687C22.2867 6.47715 21.9832 6.62671 21.6571 6.65675C21.3725 6.69122 21.2571 6.78171 21.2065 7.05535C21.0609 7.84824 20.6254 8.47091 20.0259 8.99448C19.6249 9.3446 19.6454 9.4728 20.1456 9.70011C21.0081 10.0933 21.8781 10.4887 22.7546 10.8571C22.8979 10.9054 23.0238 10.9946 23.1168 11.1137C23.2097 11.2329 23.2656 11.3766 23.2775 11.5272C23.4996 13.0354 23.7411 14.5436 23.974 16.0518C24.0128 16.3039 24.0505 16.5571 23.7756 16.7198C23.5773 16.8383 23.6463 17.043 23.6452 17.2089C23.6398 18.2678 23.6452 19.3268 23.6452 20.3858C23.6452 21.6312 23.1482 22.3799 21.9989 22.8227C21.766 22.9121 21.6938 23.0219 21.7046 23.2536C21.7175 23.5218 21.6895 23.7922 21.7121 24.0605C21.738 24.3837 21.6356 24.5032 21.296 24.5022C20.9563 24.5011 20.9251 24.3363 20.9283 24.0712C20.9369 23.1922 20.9186 22.312 20.938 21.4329C20.9456 21.1033 20.8421 21.002 20.5068 21.002C18.6747 21.0157 16.8419 21.0157 15.0084 21.002C14.6418 21.002 14.5771 21.1162 14.6655 21.4394C14.7356 21.7023 14.7604 21.9781 14.4672 22.1558C14.2914 22.2635 14.3421 22.4402 14.341 22.5943C14.3345 23.0974 14.3238 23.6005 14.341 24.1025C14.3529 24.416 14.2224 24.4968 13.9292 24.5C13.6057 24.5 13.5281 24.3729 13.5378 24.0809C13.554 23.5789 13.526 23.0758 13.5464 22.5727C13.5605 22.2614 13.4386 22.186 13.1432 22.1795C12.0047 22.1547 12.0047 22.144 12.0047 23.2794C12.0047 23.5304 11.995 23.7825 12.0047 24.0335C12.0187 24.3104 12.0047 24.5054 11.6252 24.5054C11.2457 24.5054 11.2306 24.3319 11.2317 24.0443C11.2414 22.6621 11.2457 21.2789 11.2317 19.8967C11.2317 19.5735 11.318 19.4658 11.6533 19.4658C12.008 19.4658 12.0263 19.6457 12.0058 19.9032C11.9993 19.9749 11.9993 20.047 12.0058 20.1186C12.0532 20.5377 11.7977 21.1572 12.1201 21.3317C12.5125 21.5471 13.0969 21.3985 13.5982 21.4103C13.8332 21.4168 13.858 21.2746 13.8311 21.0871C13.6478 19.8267 13.4774 18.5641 13.2715 17.3069C13.2036 16.8954 13.0343 16.6282 12.4694 16.723C11.7514 16.8426 10.9708 16.8867 10.4727 15.9344ZM13.9453 16.6885C13.9453 15.636 13.9453 14.6955 13.9453 13.755C13.9453 13.4868 13.885 13.2369 14.3313 13.239C14.7776 13.2412 14.7086 13.5051 14.7086 13.7647C14.7086 15.7567 14.7205 17.7507 14.7 19.7405C14.7 20.1391 14.796 20.2587 15.2057 20.2533C16.9307 20.2296 18.6556 20.2264 20.3806 20.2533C20.841 20.2608 20.9456 20.1176 20.9402 19.6791C20.9175 17.6699 20.9402 15.6597 20.9251 13.6462C20.9251 13.3489 21.0103 13.2412 21.3208 13.2412C21.6312 13.2412 21.724 13.3489 21.711 13.6495C21.6916 14.0966 21.711 14.5458 21.711 14.995C21.711 15.9861 21.711 15.9646 22.7137 15.9646C23.0802 15.9646 23.174 15.8569 23.1158 15.4992C22.9203 14.3142 22.7406 13.1259 22.5768 11.9344C22.539 11.6619 22.3978 11.5304 22.1671 11.4302C21.4415 11.1168 20.7192 10.7989 20.0022 10.4682C19.7866 10.368 19.6852 10.3788 19.5472 10.6115C18.675 12.0917 16.9598 12.0982 16.1102 10.6266C15.983 10.4047 15.8946 10.3529 15.6617 10.4607C14.9297 10.8011 14.189 11.1254 13.4494 11.4496C13.2575 11.5347 13.126 11.6382 13.0947 11.8719C12.9955 12.6002 12.8791 13.3263 12.7562 14.0502C12.7131 14.3023 12.7217 14.4704 12.9966 14.6104C13.194 14.704 13.3543 14.861 13.452 15.0562C13.5497 15.2515 13.5792 15.4738 13.5357 15.6877C13.4634 16.0928 13.6521 16.3363 13.9453 16.6885ZM11.2403 8.00013C11.2403 7.36345 11.2403 6.79141 11.2403 6.21936C11.2339 5.51697 11.0075 5.2498 10.3142 5.14853C9.81938 5.07635 9.42371 4.82534 9.35902 4.34271C9.29434 3.86009 9.0054 3.73189 8.61081 3.6694C7.57582 3.49704 6.5322 3.59507 5.49397 3.58322C4.27462 3.56814 3.31401 4.37827 3.12642 5.57299C2.99058 6.45314 3.24933 7.29666 3.34204 8.22744C3.83367 7.69849 4.46437 7.73943 5.0045 7.54228C5.33872 7.41947 5.61256 7.45825 5.8767 7.73404C6.20014 8.07339 6.63138 8.2059 7.09605 8.22206C7.40283 8.23851 7.70904 8.18058 7.98857 8.05321C8.2681 7.92584 8.51265 7.73281 8.70137 7.49057C9.04853 7.05966 9.39891 7.01549 9.86358 7.29989C10.2754 7.5509 10.7228 7.74051 11.2403 8.00013ZM10.4641 9.92957C10.4641 9.45664 10.4641 9.11621 10.4641 8.77471C10.4706 8.23606 9.95522 8.30393 9.6803 8.09386C9.50888 7.96243 9.35687 7.9732 9.15957 8.13264C7.7936 9.25411 7.02059 9.30259 5.45731 8.40304C4.96892 8.12187 4.2509 8.50216 4.24982 9.04296C4.24982 9.56329 4.24012 10.0836 4.24982 10.604C4.26608 11.2731 4.49587 11.9195 4.90567 12.449C5.31547 12.9784 5.88384 13.3632 6.52788 13.5471C7.82163 13.9102 9.1876 13.3758 9.95522 12.2285C10.4576 11.4809 10.4932 10.6492 10.4641 9.92957ZM20.5186 5.18193C20.5186 4.78764 20.5251 4.39335 20.5186 3.9969C20.5122 3.70065 20.5715 3.26111 20.303 3.18354C20.0346 3.10598 19.7284 3.399 19.5483 3.68556C19.5005 3.76091 19.4475 3.8329 19.3898 3.90102C19.2367 4.08416 19.0492 4.26407 18.8184 4.27915C17.7921 4.35026 16.673 4.7327 15.9765 3.53151C15.921 3.46122 15.8521 3.40263 15.7738 3.35914C15.3016 3.02841 15.1647 3.07474 15.1421 3.65432C15.1065 4.56679 15.1032 5.48573 15.127 6.39604C15.1244 7.11033 15.4059 7.79639 15.9095 8.30329C16.4132 8.81019 17.0977 9.09641 17.8126 9.09898C18.5274 9.10155 19.214 8.82026 19.7213 8.317C20.2285 7.81374 20.515 7.12972 20.5176 6.41543C20.5326 6.00714 20.5186 5.59453 20.5186 5.18193ZM6.18828 14.2592V15.2094C6.18828 15.915 6.17318 15.9333 5.47672 15.9635C5.23199 15.9743 5.04547 15.9732 5.14466 16.3169C5.39047 17.1981 6.35107 17.8994 7.36019 17.8973C8.36931 17.8951 9.34177 17.1873 9.56387 16.3093C9.62101 16.082 9.58866 15.9915 9.33315 15.9624C8.52779 15.873 8.52887 15.8633 8.52887 15.0327C8.52887 14.8894 8.52133 14.7462 8.52887 14.6018C8.54073 14.368 8.44909 14.2625 8.20544 14.3271C7.56827 14.5048 6.93002 14.4402 6.18828 14.2592ZM17.8169 3.56922C18.1867 3.53582 18.6287 3.71034 18.8874 3.28266C19.07 2.9726 19.3415 2.72451 19.6669 2.57056C19.9656 2.42836 19.9548 2.28723 19.7348 2.05777C18.8206 1.10329 17.1474 1.01172 16.1102 1.87678C15.6003 2.30016 15.6035 2.31848 16.1415 2.67291C16.2892 2.76986 16.4649 2.87005 16.5458 3.01441C16.8261 3.5509 17.2735 3.65217 17.8169 3.56922ZM21.7035 19.4238C21.7035 20.1779 21.7035 20.932 21.7035 21.6861C21.7035 21.8046 21.6927 21.9813 21.7606 22.0308C21.8932 22.1289 22.0258 21.9834 22.139 21.9102C22.3627 21.7724 22.5465 21.5787 22.6722 21.3482C22.7979 21.1177 22.8613 20.8584 22.856 20.5959C22.8635 19.4486 22.8441 18.3012 22.8657 17.155C22.8754 16.625 22.5132 16.7726 22.2393 16.7607C21.9655 16.7489 21.6647 16.6831 21.6895 17.1658C21.7326 17.9166 21.7035 18.6708 21.7035 19.4238ZM17.7985 10.9498C18.3947 10.9379 18.9187 10.4639 18.9769 9.92203C19.0017 9.6958 18.9715 9.59022 18.6934 9.66887C18.2269 9.80416 17.7355 9.83033 17.2573 9.74535C17.0654 9.71088 16.8002 9.5105 16.6827 9.70442C16.5555 9.91988 16.7086 10.186 16.8466 10.4014C16.9462 10.5655 17.0857 10.7018 17.2521 10.7977C17.4185 10.8936 17.6065 10.9459 17.7985 10.9498ZM12.0155 15.9603H12.284C12.5481 15.9603 12.7637 15.873 12.7529 15.5724C12.7422 15.2719 12.5287 15.1911 12.2646 15.1932C12.0489 15.1932 11.8333 15.1835 11.6177 15.2029C11.5678 15.2028 11.5184 15.213 11.4727 15.2327C11.4269 15.2525 11.3857 15.2815 11.3516 15.3179C11.3175 15.3543 11.2913 15.3973 11.2746 15.4442C11.2578 15.4912 11.251 15.541 11.2544 15.5908C11.2544 15.8288 11.4107 15.9409 11.6371 15.9549C11.7643 15.9646 11.8904 15.9581 12.0155 15.9581V15.9603ZM14.3766 5.32198C14.1922 5.17762 14.5588 4.78333 14.1114 4.76286C13.7879 4.75209 13.5723 4.98694 13.5723 5.31336C13.5648 5.66779 13.7879 5.91341 14.1329 5.90156C14.5211 5.88648 14.244 5.52882 14.3766 5.31982V5.32198ZM21.5623 4.75316C21.4199 4.74562 21.3121 4.75316 21.3078 4.86628C21.2949 5.17008 21.297 5.47388 21.3078 5.77875C21.3078 5.8951 21.4059 5.9188 21.4997 5.9091C21.8232 5.87571 22.0388 5.70011 22.056 5.36507C22.0744 4.99987 21.8609 4.80918 21.5623 4.75316ZM3.53071 9.57191C3.3442 9.43832 3.71507 9.03326 3.24717 9.03865C2.91295 9.03865 2.72428 9.26703 2.73183 9.60207C2.73938 9.93711 2.93883 10.1526 3.27089 10.1407C3.68057 10.1256 3.39379 9.77552 3.53071 9.57191ZM11.2199 9.55036C11.3514 9.73027 11.0463 10.0955 11.4484 10.1353C11.7719 10.1677 11.9789 9.9328 11.9875 9.60961C11.9961 9.28643 11.8107 9.05804 11.4829 9.0408C11.07 9.01818 11.3201 9.37153 11.2199 9.54929V9.55036Z" stroke="#FA8B02" stroke-width="0.4" mask="url(#path-1-outside-1_201_2004)"/>
<path d="M18.3126 24.1501L18.3126 24.1504C18.3174 24.3234 18.2714 24.4504 18.1566 24.5225C18.0564 24.5854 17.9231 24.5904 17.806 24.5914C17.6817 24.5925 17.5495 24.5793 17.4518 24.5057C17.3451 24.4253 17.3058 24.2954 17.3171 24.1286C17.3271 23.9529 17.3241 23.7789 17.3211 23.6005C17.3196 23.5124 17.318 23.4232 17.318 23.3322C17.318 23.2527 17.3189 23.1743 17.3197 23.0966C17.3214 22.9438 17.323 22.7935 17.3181 22.6414C17.3149 22.5727 17.3129 22.5036 17.3189 22.4399C17.325 22.3757 17.3396 22.31 17.3745 22.2514C17.4496 22.1251 17.5914 22.0713 17.7936 22.0656L18.3126 24.1501ZM18.3126 24.1501C18.2975 23.6538 18.3018 23.1559 18.3126 22.6568L18.3126 24.1501ZM18.3075 22.4407C18.3149 22.5086 18.3142 22.583 18.3126 22.6568L18.3075 22.4407ZM18.3075 22.4407C18.3001 22.3726 18.2838 22.3031 18.2461 22.242M18.3075 22.4407L18.2461 22.242M18.2461 22.242C18.1643 22.1094 18.0117 22.0593 17.7936 22.0656L18.2461 22.242Z" fill="#FA8B02" stroke="#FA8B02" stroke-width="0.2"/>
</g>
<defs>
<clipPath id="clip0_201_2004">
<rect width="24" height="24" fill="white" transform="translate(0 0.5)"/>
</clipPath>
</defs>
</svg>
