<svg width="24" height="24" viewBox="0 0 24 24" fill="none" xmlns="http://www.w3.org/2000/svg">
<path d="M2.85742 7.42855H21.1431M5.14314 2.85712H18.8574C19.4636 2.85712 20.045 3.09793 20.4737 3.52659C20.9023 3.95524 21.1431 4.53662 21.1431 5.14283V18.8571C21.1431 19.4633 20.9023 20.0447 20.4737 20.4734C20.045 20.902 19.4636 21.1428 18.8574 21.1428H5.14314C4.53693 21.1428 3.95555 20.902 3.52689 20.4734C3.09824 20.0447 2.85742 19.4633 2.85742 18.8571V5.14283C2.85742 4.53662 3.09824 3.95524 3.52689 3.52659C3.95555 3.09793 4.53693 2.85712 5.14314 2.85712V2.85712Z" stroke="#333333" stroke-linecap="round" stroke-linejoin="round"/>
<path d="M12.0003 13.1428C12.6315 13.1428 13.1431 12.6312 13.1431 12C13.1431 11.3688 12.6315 10.8571 12.0003 10.8571C11.3691 10.8571 10.8574 11.3688 10.8574 12C10.8574 12.6312 11.3691 13.1428 12.0003 13.1428Z" fill="#333333"/>
<path d="M7.42899 13.1428C8.06017 13.1428 8.57185 12.6312 8.57185 12C8.57185 11.3688 8.06017 10.8571 7.42899 10.8571C6.79781 10.8571 6.28613 11.3688 6.28613 12C6.28613 12.6312 6.79781 13.1428 7.42899 13.1428Z" fill="#333333"/>
<path d="M16.5716 13.1428C17.2028 13.1428 17.7144 12.6312 17.7144 12C17.7144 11.3688 17.2028 10.8571 16.5716 10.8571C15.9404 10.8571 15.4287 11.3688 15.4287 12C15.4287 12.6312 15.9404 13.1428 16.5716 13.1428Z" fill="#333333"/>
<path d="M12.0003 17.7142C12.6315 17.7142 13.1431 17.2026 13.1431 16.5714C13.1431 15.9402 12.6315 15.4285 12.0003 15.4285C11.3691 15.4285 10.8574 15.9402 10.8574 16.5714C10.8574 17.2026 11.3691 17.7142 12.0003 17.7142Z" fill="#333333"/>
<path d="M7.42899 17.7142C8.06017 17.7142 8.57185 17.2026 8.57185 16.5714C8.57185 15.9402 8.06017 15.4285 7.42899 15.4285C6.79781 15.4285 6.28613 15.9402 6.28613 16.5714C6.28613 17.2026 6.79781 17.7142 7.42899 17.7142Z" fill="#333333"/>
<path d="M16.5716 17.7142C17.2028 17.7142 17.7144 17.2026 17.7144 16.5714C17.7144 15.9402 17.2028 15.4285 16.5716 15.4285C15.9404 15.4285 15.4287 15.9402 15.4287 16.5714C15.4287 17.2026 15.9404 17.7142 16.5716 17.7142Z" fill="#333333"/>
</svg>
