<svg width="22" height="24" viewBox="0 0 22 24" fill="none" xmlns="http://www.w3.org/2000/svg">
<path d="M10.9784 23.9971H1.93269C1.78984 24.0025 1.64681 24.0003 1.50421 23.9905C1.28884 23.9734 1.08786 23.8757 0.94149 23.7168C0.795124 23.5579 0.714175 23.3495 0.714848 23.1335C0.716069 22.9167 0.800393 22.7087 0.950442 22.5523C1.10049 22.3959 1.30483 22.303 1.52135 22.2927C1.98089 22.267 2.44151 22.267 2.90105 22.2927C3.2267 22.3118 3.29811 22.187 3.28859 21.888C3.24289 20.4084 3.32763 18.9449 3.83134 17.5309C4.53214 15.5627 5.7357 14.0411 7.67529 13.1737C8.19042 12.9442 8.48655 12.55 8.48179 11.993C8.47703 11.436 8.17042 11.056 7.65815 10.8218C5.21581 9.69918 4.00178 7.66437 3.47998 5.12871C3.28288 4.17653 3.26193 3.20721 3.30002 2.24074C3.31525 1.84368 3.24003 1.64658 2.79346 1.71324C2.5297 1.75227 2.25548 1.7199 1.98506 1.7199C1.13571 1.71609 0.710087 1.43044 0.718657 0.849608C0.727226 0.268777 1.13952 0.00216674 1.95649 0.00216674H20.0413C20.1841 0.00216674 20.3269 -0.00545071 20.4688 0.00787983C20.6855 0.0197526 20.8899 0.112717 21.0412 0.268305C21.1926 0.423893 21.2799 0.630721 21.2858 0.847703C21.2882 0.95953 21.2685 1.07073 21.2278 1.17494C21.1872 1.27914 21.1264 1.3743 21.0489 1.45497C20.9714 1.53564 20.8788 1.60023 20.7763 1.64503C20.6738 1.68984 20.5635 1.71399 20.4517 1.71609C20.0077 1.74231 19.5626 1.74231 19.1186 1.71609C18.7711 1.69229 18.6968 1.82369 18.7073 2.14648C18.753 3.60903 18.6654 5.05634 18.1712 6.457C17.4694 8.4442 16.2601 9.98007 14.2987 10.8475C13.8007 11.0684 13.5188 11.4588 13.5141 11.9901C13.5141 12.5462 13.8045 12.9366 14.3187 13.1727C16.7943 14.3153 18.0236 16.3673 18.533 18.9487C18.7234 19.8894 18.7377 20.8387 18.7044 21.79C18.6911 22.1708 18.773 22.346 19.1881 22.2918C19.4572 22.2724 19.7272 22.2702 19.9965 22.2851C20.8601 22.2851 21.2734 22.5574 21.281 23.1316C21.2886 23.7058 20.8678 23.9971 20.0203 23.9971H10.9784ZM11.007 1.71609C9.15022 1.71609 7.29347 1.72657 5.43766 1.70752C5.07679 1.70752 4.98062 1.80274 4.9949 2.15695C5.02251 2.88537 4.97871 3.61665 5.09012 4.34125C5.431 6.55984 6.35652 8.36041 8.52749 9.34116C9.64059 9.84391 10.2043 10.7989 10.2005 12.0073C10.2005 13.2556 9.58441 14.1973 8.43323 14.7105C7.14683 15.2818 6.27177 16.234 5.6938 17.4861C5.02727 18.9382 4.96729 20.4855 4.99966 22.0471C4.99966 22.287 5.13678 22.2851 5.30626 22.2851C9.09912 22.2851 12.8913 22.2851 16.6829 22.2851C16.9362 22.2851 17.0076 22.2061 17.0029 21.9595C16.9895 21.1825 17.0295 20.4036 16.9076 19.6323C16.5629 17.4337 15.645 15.6389 13.495 14.6658C12.3791 14.1601 11.8059 13.2213 11.8001 12.0158C11.7944 10.7913 12.3714 9.83915 13.5064 9.32687C14.8005 8.74414 15.7079 7.80338 16.2963 6.53508C16.9467 5.13061 17.0248 3.63474 17.0076 2.11982C17.0029 1.77322 16.8953 1.70562 16.5744 1.70847C14.7157 1.72752 12.8628 1.71609 11.007 1.71609Z" fill="#FA8B02"/>
<path d="M10.9943 21.4262C9.63075 21.4262 8.26723 21.4262 6.90466 21.4262C6.15149 21.4262 5.83822 21.0939 5.85726 20.3407C5.93439 17.7774 8.05966 15.6007 10.6458 15.436C13.3052 15.2665 15.679 17.1499 16.0646 19.7399C16.0789 19.8351 16.0999 19.9303 16.1122 20.0255C16.2475 21.0643 15.9285 21.4319 14.8906 21.4319L10.9943 21.4262Z" fill="#FA8B02"/>
<path d="M11.054 5.14392C11.8624 5.14392 12.6727 5.14392 13.4782 5.14392C14.1752 5.14868 14.4914 5.50861 14.418 6.19799C14.3539 6.8349 14.0605 7.4268 13.5925 7.86349C13.1244 8.30018 12.5136 8.5519 11.8738 8.57177C11.2892 8.59082 10.7017 8.59177 10.1161 8.57177C9.48517 8.55014 8.88297 8.30276 8.41902 7.87464C7.95508 7.44652 7.66021 6.86609 7.58806 6.23893C7.49855 5.52479 7.81467 5.15154 8.53548 5.14392C9.3753 5.14392 10.2151 5.14392 11.054 5.14392Z" fill="#FA8B02"/>
</svg>
