<svg width="24" height="24" viewBox="0 0 24 24" fill="none" xmlns="http://www.w3.org/2000/svg">
<g opacity="0.8" clip-path="url(#clip0_201_13386)">
<path d="M0.568306 14.9052L0.568325 14.9054C0.892174 14.8698 1.19085 14.7139 1.40516 14.4685C1.61948 14.2231 1.7338 13.9062 1.72548 13.5805L1.72525 13.5716L1.72541 13.5716C1.72861 13.2533 1.61423 12.9449 1.40418 12.7057C1.19414 12.4665 0.903199 12.3132 0.587118 12.2751L0.582356 12.2746L0.582363 12.2745C0.321529 12.2381 0.0970109 12.1538 -0.0503798 11.9666C-0.193969 11.7842 -0.224186 11.5536 -0.221785 11.3256C-0.209431 10.0721 -0.202721 8.81993 -0.225128 7.56962C-0.230229 7.29573 -0.173466 7.05453 -0.00201336 6.87504C0.163756 6.7015 0.396791 6.62897 0.640037 6.59309L0.640235 6.59306C6.76806 5.69423 12.8948 4.7864 19.0203 3.86959L0.568306 14.9052ZM0.568306 14.9052L0.559138 14.9066M0.568306 14.9052L0.559138 14.9066M0.559138 14.9066C0.308445 14.9436 0.0852811 15.025 -0.0653037 15.2071M0.559138 14.9066L-0.0653037 15.2071M21.4451 3.48571L21.4456 3.48561C21.6993 3.43863 21.9681 3.42676 22.1844 3.56399C22.4129 3.70891 22.5051 3.96689 22.5343 4.26173C22.5674 4.59432 22.6191 4.92611 22.6721 5.26594L22.6738 5.2772C22.727 5.61847 22.7813 5.96789 22.8152 6.3206C22.8335 6.5072 22.8679 6.56748 22.8902 6.58991C22.9056 6.60531 22.9553 6.64226 23.1425 6.63878C23.3457 6.6349 23.5202 6.63439 23.66 6.65259C23.8004 6.67088 23.9482 6.71272 24.061 6.82897C24.1722 6.94363 24.2112 7.09172 24.2292 7.2297C24.2472 7.36826 24.2487 7.54181 24.249 7.74232V7.74266C24.249 8.13713 24.2481 8.53099 24.2472 8.92453C24.2455 9.71035 24.2437 10.4949 24.249 11.2803L24.249 11.282C24.249 11.4992 24.2314 11.74 24.0995 11.9335C23.9566 12.1431 23.7226 12.2407 23.4293 12.2752L23.4273 12.2755C23.111 12.3101 22.8187 12.4606 22.6067 12.6979C22.3948 12.9352 22.2781 13.2426 22.2793 13.5608L22.2794 13.5693L22.2792 13.5693C22.2693 13.8951 22.3817 14.2128 22.5943 14.4599C22.8068 14.707 23.1041 14.8656 23.4277 14.9046L23.4355 14.9055L23.4355 14.9056C23.7012 14.9461 23.9219 15.0401 24.0617 15.2362C24.1945 15.4225 24.2182 15.6534 24.2153 15.8752V15.8753C24.1984 17.11 24.1917 18.3429 24.2152 19.575L24.2152 19.5751C24.2207 19.8645 24.1733 20.1345 23.9805 20.321C23.7909 20.5043 23.5205 20.5478 23.2384 20.5466H23.2383C20.3168 20.5335 17.3913 20.5347 14.4647 20.5358C13.6283 20.5361 12.7917 20.5365 11.9552 20.5365H0.831573C0.641327 20.5365 0.475367 20.5333 0.340432 20.5124C0.204101 20.4913 0.0629367 20.4472 -0.0465442 20.3361C-0.155498 20.2254 -0.198213 20.0837 -0.218657 19.9471C-0.238978 19.8114 -0.242022 19.6441 -0.242022 19.4517C-0.242022 19.1176 -0.241153 18.784 -0.240285 18.4507C-0.238033 17.5861 -0.235787 16.7235 -0.248734 15.86L21.4451 3.48571ZM21.4451 3.48571C20.8019 3.60631 20.1552 3.70173 19.5055 3.7976M21.4451 3.48571L19.5055 3.7976M17.3451 8.39547C17.3462 8.65839 17.4046 8.9157 17.7226 8.89997C18.0406 8.88424 18.0687 8.62806 18.0776 8.36514M17.3451 8.39547L22.8003 7.84095C21.8576 7.8547 20.9138 7.85219 19.9717 7.84968C19.6022 7.8487 19.233 7.84772 18.8642 7.84772C18.6699 7.84772 18.5451 7.8481 18.4555 7.85815C18.4067 7.86363 18.3833 7.87073 18.3739 7.87439C18.3698 7.88379 18.3614 7.90769 18.3537 7.95867C18.3401 8.04939 18.3347 8.17683 18.3275 8.37415C18.3275 8.37419 18.3275 8.37424 18.3275 8.37428L18.0776 8.36514M17.3451 8.39547C17.3451 8.35802 17.3438 8.32057 17.3426 8.28311M17.3451 8.39547L17.3426 8.28311M18.0776 8.36514C18.1057 7.59772 18.1113 7.59772 18.8642 7.59772C19.2344 7.59772 19.6045 7.5987 19.9745 7.59969C20.9158 7.60219 21.8563 7.60469 22.7967 7.59098L18.0776 8.36514ZM18.4913 19.3275L18.4916 19.3275C19.9354 19.3106 21.3789 19.314 22.8216 19.3275C22.8927 19.3274 22.9414 19.3225 22.9748 19.3149C22.9909 19.3113 23.0011 19.3075 23.007 19.3048C23.01 19.3035 23.0118 19.3024 23.0129 19.3017L23.0142 19.3008L23.0143 19.3008L23.0143 19.3007L23.0143 19.3007L23.0143 19.3007L23.0144 19.3006L23.015 19.2997C23.0161 19.298 23.019 19.2928 23.0224 19.2819C23.0297 19.2584 23.0369 19.2154 23.0355 19.1418C23.0175 18.1848 23.0209 17.2263 23.0355 16.2711C23.0353 16.1514 23.0147 16.1123 23.0023 16.0957C22.9875 16.0759 22.9498 16.0416 22.8253 15.9973L22.8247 15.9971C22.2789 15.8012 21.8485 15.4923 21.554 15.0779C21.2596 14.6636 21.1129 14.1601 21.1074 13.5945L21.1074 13.5944C21.0974 12.4997 21.7384 11.5832 22.8284 11.1844C22.9586 11.1362 23.0042 11.0946 23.0243 11.0659C23.0434 11.0387 23.0644 10.9874 23.0625 10.861C23.0479 9.94165 23.0422 9.02135 23.0625 8.10007L23.0626 8.09912C23.0672 7.91831 23.0333 7.88087 23.0294 7.87709C23.0242 7.8719 22.9837 7.83833 22.8004 7.84095L18.4913 19.3275ZM18.4913 19.3275C18.3765 19.329 18.3388 19.3114 18.3306 19.3061L18.4913 19.3275ZM17.6754 18.2955C18.1203 18.2881 18.0924 18.6324 18.0679 18.9336C18.0627 18.9984 18.0576 19.0611 18.0574 19.1179C18.0563 19.4393 18.1372 19.582 18.4945 19.5775L17.3253 18.9397C17.2959 18.6492 17.2606 18.3011 17.6754 18.2955ZM17.6754 18.2955L17.672 18.0455C17.6719 18.0455 17.6717 18.0455 17.6716 18.0455C17.6715 18.0455 17.6714 18.0455 17.6712 18.0455L17.6754 18.2955ZM1.00849 8.05357L1.0085 8.05368C1.02652 9.01039 1.02428 9.96884 1.00854 10.9244C1.00879 11.0413 1.03118 11.0798 1.04454 11.0967C1.06246 11.1192 1.10424 11.1529 1.22666 11.197C2.31959 11.5826 2.95437 12.4941 2.95685 13.605C2.95935 14.7212 2.33009 15.598 1.21873 15.9992C1.09299 16.0446 1.05669 16.0791 1.04324 16.0976C1.03185 16.1134 1.01174 16.1522 1.01411 16.2749L1.01413 16.2757C1.01565 16.3695 1.01726 16.4634 1.01888 16.5575C1.03269 17.3613 1.04667 18.1749 1.00599 18.9887L1.00849 8.05357ZM1.00849 8.05357C1.00606 7.92751 1.02599 7.89082 1.03011 7.88483C1.03431 7.8819 1.07122 7.85899 1.21664 7.85896M1.00849 8.05357L1.21664 7.85896M16.9279 6.66232C17.3303 6.66228 17.7336 6.6613 18.1373 6.66032C19.2406 6.65765 20.3469 6.65496 21.4475 6.67134C21.5415 6.67258 21.5994 6.66486 21.6334 6.65528C21.642 6.65285 21.648 6.65062 21.652 6.64889C21.6531 6.64414 21.6542 6.63683 21.6549 6.62622C21.6572 6.58994 21.653 6.53319 21.6359 6.44675C21.6358 6.44666 21.6358 6.44656 21.6358 6.44647L16.9279 6.66232ZM16.9279 6.66232C17.0056 6.61298 17.0683 6.54545 17.1128 6.46097C17.1877 6.31894 17.1954 6.15798 17.1891 6.0284C17.1891 6.02837 17.1891 6.02833 17.1891 6.02829L16.9279 6.66232ZM-0.0653037 15.2071C-0.214731 15.3878 -0.252441 15.6194 -0.248736 15.8599L-0.0653037 15.2071ZM19.5055 3.7976C19.344 3.82143 19.1823 3.84529 19.0204 3.86957L19.5055 3.7976ZM1.21664 7.85896C6.43933 7.8657 11.6624 7.8657 16.8858 7.85896H1.21664ZM17.3426 8.28311C17.3401 8.20821 17.3376 8.1333 17.3451 8.05839L17.3426 8.28311ZM17.0885 19.1077C17.0917 19.1974 17.0821 19.2469 17.0733 19.2718C17.0664 19.2915 17.0613 19.2934 17.0605 19.2939C17.0552 19.2976 17.0367 19.3078 16.9885 19.3156C16.9399 19.3234 16.8771 19.3264 16.7922 19.3264H16.7771H16.762H16.7468H16.7317H16.7165H16.7014H16.6863H16.6711H16.656H16.6408H16.6257H16.6105H16.5954H16.5803H16.5651H16.55H16.5348H16.5197H16.5045H16.4894H16.4743H16.4591H16.444H16.4288H16.4137H16.3985H16.3834H16.3683H16.3531H16.338H16.3228H16.3077H16.2926H16.2774H16.2623H16.2471H16.232H16.2168H16.2017H16.1866H16.1714H16.1563H16.1411H16.126H16.1108H16.0957H16.0806H16.0654H16.0503H16.0351H16.02H16.0049H15.9897H15.9746H15.9594H15.9443H15.9291H15.914H15.8989H15.8837H15.8686H15.8534H15.8383H15.8231H15.808H15.7929H15.7777H15.7626H15.7474H15.7323H15.7171H15.702H15.6869H15.6717H15.6566H15.6414H15.6263H15.6112H15.596H15.5809H15.5657H15.5506H15.5354H15.5203H15.5052H15.49H15.4749H15.4597H15.4446H15.4294H15.4143H15.3992H15.384H15.3689H15.3537H15.3386H15.3235H15.3083H15.2932H15.278H15.2629H15.2477H15.2326H15.2175H15.2023H15.1872H15.172H15.1569H15.1417H15.1266H15.1115H15.0963H15.0812H15.066H15.0509H15.0358H15.0206H15.0055H14.9903H14.9752H14.96H14.9449H14.9298H14.9146H14.8995H14.8843H14.8692H14.854H14.8389H14.8238H14.8086H14.7935H14.7783H14.7632H14.748H14.7329H14.7178H14.7026H14.6875H14.6723H14.6572H14.6421H14.6269H14.6118H14.5966H14.5815H14.5663H14.5512H14.5361H14.5209H14.5058H14.4906H14.4755H14.4603H14.4452H14.4301H14.4149H14.3998H14.3846H14.3695H14.3544H14.3392H14.3241H14.3089H14.2938H14.2786H14.2635H14.2484H14.2332H14.2181H14.2029H14.1878H14.1726H14.1575H14.1424H14.1272H14.1121H14.0969H14.0818H14.0666H14.0515H14.0364H14.0212H14.0061H13.9909H13.9758H13.9607H13.9455H13.9304H13.9152H13.9001H13.8849H13.8698H13.8547H13.8395H13.8244H13.8092H13.7941H13.7789H13.7638H13.7487H13.7335H13.7184H13.7032H13.6881H13.673H13.6578H13.6427H13.6275H13.6124H13.5972H13.5821H13.567H13.5518H13.5367H13.5215H13.5064H13.4912H13.4761H13.461H13.4458H13.4307H13.4155H13.4004H13.3853H13.3701H13.355H13.3398H13.3247H13.3095H13.2944H13.2793H13.2641H13.249H13.2338H13.2187H13.2035H13.1884H13.1733H13.1581H13.143H13.1278H13.1127H13.0975H13.0824H13.0673H13.0521H13.037H13.0218H13.0067H12.9916H12.9764H12.9613H12.9461H12.931H12.9158H12.9007H12.8856H12.8704H12.8553H12.8401H12.825H12.8098H12.7947H12.7796H12.7644H12.7493H12.7341H12.719H12.7039H12.6887H12.6736H12.6584H12.6433H12.6281H12.613H12.5979H12.5827H12.5676H12.5524H12.5373H12.5221H12.507H12.4919H12.4767H12.4616H12.4464H12.4313H12.4161H12.401H12.3859H12.3707H12.3556H12.3404H12.3253H12.3102H12.295H12.2799H12.2647H12.2496H12.2344H12.2193H12.2042H12.189H12.1739H12.1587H12.1436H12.1284H12.1133H12.0982H12.083H12.0679H12.0527H12.0376H12.0225H12.0073H11.9922H11.977H11.9619H11.9467H11.9316H11.9165H11.9013H11.8862H11.871H11.8559H11.8407H11.8256H11.8105H11.7953H11.7802H11.765H11.7499H11.7348H11.7196H11.7045H11.6893H11.6742H11.659H11.6439H11.6288H11.6136H11.5985H11.5833H11.5682H11.553H11.5379H11.5228H11.5076H11.4925H11.4773H11.4622H11.447H11.4319H11.4168H11.4016H11.3865H11.3713H11.3562H11.3411H11.3259H11.3108H11.2956H11.2805H11.2653H11.2502H11.2351H11.2199H11.2048H11.1896H11.1745H11.1593H11.1442H11.1291H11.1139H11.0988H11.0836H11.0685H11.0534H11.0382H11.0231H11.0079H10.9928H10.9776H10.9625H10.9474H10.9322H10.9171H10.9019H10.8868H10.8716H10.8565H10.8414H10.8262H10.8111H10.7959H10.7808H10.7656H10.7505H10.7354H10.7202H10.7051H10.6899H10.6748H10.6597H10.6445H10.6294H10.6142H10.5991H10.5839H10.5688H10.5537H10.5385H10.5234H10.5082H10.4931H10.4779H10.4628H10.4477H10.4325H10.4174H10.4022H10.3871H10.372H10.3568H10.3417H10.3265H10.3114H10.2962H10.2811H10.266H10.2508H10.2357H10.2205H10.2054H10.1902H10.1751H10.16H10.1448H10.1297H10.1145H10.0994H10.0843H10.0691H10.054H10.0388H10.0237H10.0085H9.9934H9.97826H9.96311H9.94797H9.93283H9.91769H9.90254H9.8874H9.87226H9.85712H9.84198H9.82683H9.81169H9.79655H9.78141H9.76626H9.75112H9.73598H9.72084H9.7057H9.69055H9.67541H9.66027H9.64513H9.62998H9.61484H9.5997H9.58456H9.56942H9.55427H9.53913H9.52399H9.50885H9.4937H9.47856H9.46342H9.44828H9.43314H9.41799H9.40285H9.38771H9.37257H9.35742H9.34228H9.32714H9.312H9.29686H9.28171H9.26657H9.25143H9.23629H9.22114H9.206H9.19086H9.17572H9.16058H9.14543H9.13029H9.11515H9.10001H9.08486H9.06972H9.05458H9.03944C8.437 19.3264 7.83437 19.3258 7.23157 19.3252C5.28812 19.3234 3.34293 19.3216 1.39678 19.3387C1.15636 19.3404 1.07935 19.3107 1.05245 19.2882C1.04266 19.28 0.993876 19.234 1.00598 18.9889L17.0885 19.1077ZM18.3287 19.3047C18.3288 19.3047 18.3293 19.305 18.33 19.3057C18.329 19.305 18.3286 19.3047 18.3287 19.3047ZM8.54668 6.66233C8.76366 6.63005 8.98069 6.59767 9.19778 6.56519C9.72061 6.4871 10.2438 6.40944 10.7671 6.33176C12.3883 6.09111 14.0111 5.85023 15.631 5.59526C15.724 5.58066 15.7919 5.57669 15.8409 5.58026C15.8893 5.58379 15.905 5.5937 15.9067 5.59481C15.9069 5.59497 15.9071 5.59511 15.9073 5.59532C15.9077 5.59564 15.9081 5.59612 15.9088 5.59709C15.9103 5.59906 15.9143 5.60524 15.9188 5.61881C15.9287 5.64816 15.9379 5.70247 15.9345 5.79549L15.9342 5.80535L15.9346 5.8152C15.9402 5.94473 15.9603 6.07321 15.9946 6.19822C16.02 6.32973 16.0712 6.48088 16.1825 6.5958C16.2067 6.62085 16.2327 6.64303 16.2602 6.66233H8.54668ZM21.3666 4.77321C21.372 4.77978 21.3943 4.81385 21.4079 4.9291L21.1406 4.53143L21.1814 4.77807C21.1815 4.77806 21.1815 4.77805 21.1816 4.77803C21.3175 4.75557 21.3599 4.77038 21.3666 4.77321ZM21.6589 6.64532C21.6589 6.64534 21.6586 6.64554 21.658 6.64589L21.6589 6.64532Z" fill="#FA8B02" stroke="#FA8B02" stroke-width="0.5"/>
<path d="M13.9434 14.7123L13.9434 14.7146C13.9434 14.8502 13.9154 14.9771 13.8451 15.0838C13.7733 15.1928 13.6737 15.2563 13.5754 15.2922C13.4814 15.3266 13.3841 15.3375 13.303 15.3417C13.2431 15.3448 13.1786 15.3446 13.1243 15.3444C13.1067 15.3443 13.0902 15.3443 13.0753 15.3443L13.0747 15.3444C12.1547 15.3458 11.2326 15.3453 10.31 15.3448C9.8487 15.3446 9.38726 15.3444 8.92596 15.3444H8.91806H8.91016H8.90226H8.89436H8.88646H8.87856H8.87066H8.86276H8.85486H8.84696H8.83906H8.83116H8.82326H8.81536H8.80746H8.79956H8.79166H8.78376H8.77586H8.76796H8.76006H8.75215H8.74425H8.73635H8.72845H8.72055H8.71265H8.70475H8.69685H8.68895H8.68105H8.67315H8.66525H8.65735H8.64945H8.64155H8.63365H8.62575H8.61785H8.60995H8.60205H8.59415H8.58625H8.57835H8.57045H8.56255H8.55465H8.54675H8.53885H8.53095H8.52305H8.51515H8.50725H8.49935H8.49145H8.48355H8.47565H8.46774H8.45984H8.45194H8.44404H8.43614H8.42824H8.42034H8.41244H8.40454H8.39664H8.38874H8.38084H8.37294H8.36504H8.35714H8.34924H8.34134H8.33344H8.32554H8.31764H8.30974H8.30184H8.29394H8.28604H8.27814H8.27024H8.26234H8.25444H8.24654H8.23864H8.23074H8.22284H8.21494H8.20704H8.19914H8.19123H8.18333H8.17543H8.16753H8.15963H8.15173H8.14383H8.13593H8.12803H8.12013H8.11223H8.10433H8.09643H8.08853H8.08063H8.07273H8.06483H8.05693H8.04903H8.04113H8.03323H8.02533H8.01743H8.00953H8.00163H7.99373H7.98583H7.97793H7.97003H7.96213H7.95423H7.94633H7.93843H7.93053H7.92263H7.91473H7.90682H7.89892H7.89102H7.88312H7.87522H7.86732H7.85942H7.85152H7.84362H7.83572H7.82782H7.81992H7.81202H7.80412H7.79622H7.78832H7.78042H7.77252H7.76462H7.75672H7.74882H7.74092H7.73302H7.72512H7.71722H7.70932H7.70142H7.69352H7.68562H7.67772H7.66982H7.66192H7.65402H7.64612H7.63822H7.63031H7.62241H7.61451H7.60661H7.59871H7.59081H7.58291H7.57501H7.56711H7.55921H7.55131H7.54341H7.53551H7.52761H7.51971H7.51181H7.50391H7.49601H7.48811H7.48021H7.47231H7.46441H7.45651H7.44861H7.44071H7.43281H7.42491H7.41701H7.40911H7.40121H7.39331H7.38541H7.37751H7.36961H7.36171H7.35381H7.3459H7.338H7.3301H7.3222H7.3143H7.3064H7.2985H7.2906H7.2827H7.2748H7.2669H7.259H7.2511H7.2432H7.2353H7.2274H7.2195H7.2116H7.2037H7.1958H7.1879H7.18H7.1721H7.1642H7.1563H7.1484H7.1405H7.1326H7.1247H7.1168H7.1089H7.101H7.0931H7.0852H7.0773H7.06939H7.06149H7.05359H7.04569H7.03779H7.02989H7.02199H7.01409H7.00619H6.99829H6.99039H6.98249H6.97459H6.96669H6.95879H6.95089H6.94299H6.93509H6.92719H6.91929H6.91139H6.90349H6.89559H6.88769H6.87979H6.87189H6.86399H6.85609H6.84819H6.84029H6.83239H6.82449H6.81659H6.80869H6.80079H6.79289H6.78498H6.77708H6.76918H6.76128H6.75338H6.74548H6.73758H6.72968H6.72178H6.71388H6.70598H6.69808H6.69018H6.68228H6.67438H6.66648H6.65858H6.65068H6.64278H6.63488H6.62698H6.61908H6.61118H6.60328H6.59538H6.58748H6.57958H6.57168H6.56378H6.55588H6.54798H6.54008H6.53218H6.52428H6.51638H6.50847H6.50057H6.49267H6.48477H6.47687H6.46897H6.46107H6.45317H6.44527H6.43737H6.42947H6.42157H6.41367H6.40577H6.39787H6.38997H6.38207H6.37417H6.36627H6.35837H6.35047H6.34257H6.33467H6.32677H6.31887H6.31097H6.30307H6.29517H6.28727H6.27937H6.27147H6.26357H6.25567H6.24777H6.23987H6.23197H6.22406H6.21616H6.20826H6.20036H6.19246H6.18456H6.17666H6.16876H6.16086H6.15296H6.14506H6.13716H6.12926H6.12136H6.11346H6.10556H6.09766H6.08976H6.08186H6.07396H6.06606H6.05816H6.05026H6.04236H6.03446H6.02656H6.01866H6.01076H6.00286H5.99496H5.98706H5.97916H5.97126H5.96336H5.95546H5.94755H5.93965H5.93175H5.92385H5.91595H5.90805H5.90015H5.89225H5.88435H5.87645H5.86855H5.86065H5.85275H5.84485H5.83695H5.82905H5.82115H5.81325H5.80535H5.79745H5.78955H5.78165H5.77375H5.76585H5.75795H5.75005H5.74215H5.73425H5.72635H5.71845H5.71055H5.70265H5.69475H5.68685H5.67895H5.67105H5.66314H5.65524H5.64734H5.63944H5.63154H5.62364H5.61574H5.60784H5.59994H5.59204H5.58414H5.57624H5.56834H5.56044H5.55254H5.54464H5.53674H5.52884H5.52094H5.51304H5.50514H5.49724H5.48934H5.48144H5.47354H5.46564H5.45774H5.44984H5.44194H5.43404H5.42614H5.41824H5.41034H5.40244H5.39454H5.38663H5.37873H5.37083H5.36293H5.35503H5.34713H5.33923H5.33133H5.32343H5.31553H5.30763H5.29973H5.29183H5.28393H5.27603H5.26813H5.26023H5.25233H5.24443H5.23653H5.22863H5.22073H5.21283H5.20493H5.19703H5.18913H5.18123H5.17333H5.16543H5.15753H5.14963H5.14173H5.13383H5.12593H5.11803H5.11013H5.10222H5.09432H5.08642H5.07852H5.07062H5.06272H5.05482H5.04692H5.03902H5.03112H5.02322H5.01532H5.00742H4.99952H4.99162H4.98372H4.97582H4.96792H4.96002H4.95212H4.94422H4.93632H4.92842H4.92052H4.91262H4.90472H4.89682H4.88892H4.88102C4.86974 15.3444 4.85777 15.3444 4.84525 15.3444C4.78728 15.3447 4.71753 15.3449 4.65074 15.3408C4.56883 15.3358 4.47119 15.3235 4.37722 15.2875C4.27921 15.2499 4.18021 15.1844 4.11032 15.0738C4.04181 14.9654 4.0165 14.8376 4.01986 14.7017L13.9434 14.7123ZM13.9434 14.7123C13.9422 14.5849 13.9136 14.4653 13.8453 14.3642C13.7762 14.2619 13.6817 14.2011 13.5891 14.1657C13.4378 14.1079 13.257 14.1088 13.1411 14.1094C13.1302 14.1095 13.1199 14.1095 13.1102 14.1095H13.0941H13.078H13.0619H13.0458H13.0297H13.0136H12.9974H12.9813H12.9652H12.9491H12.933H12.9169H12.9008H12.8847H12.8685H12.8524H12.8363H12.8202H12.8041H12.788H12.7719H12.7558H12.7397H12.7235H12.7074H12.6913H12.6752H12.6591H12.643H12.6269H12.6108H12.5946H12.5785H12.5624H12.5463H12.5302H12.5141H12.498H12.4819H12.4657H12.4496H12.4335H12.4174H12.4013H12.3852H12.3691H12.353H12.3368H12.3207H12.3046H12.2885H12.2724H12.2563H12.2402H12.2241H12.2079H12.1918H12.1757H12.1596H12.1435H12.1274H12.1113H12.0952H12.0791H12.0629H12.0468H12.0307H12.0146H11.9985H11.9824H11.9663H11.9502H11.934H11.9179H11.9018H11.8857H11.8696H11.8535H11.8374H11.8213H11.8051H11.789H11.7729H11.7568H11.7407H11.7246H11.7085H11.6924H11.6762H11.6601H11.644H11.6279H11.6118H11.5957H11.5796H11.5635H11.5473H11.5312H11.5151H11.499H11.4829H11.4668H11.4507H11.4346H11.4185H11.4023H11.3862H11.3701H11.354H11.3379H11.3218H11.3057H11.2896H11.2734H11.2573H11.2412H11.2251H11.209H11.1929H11.1768H11.1607H11.1445H11.1284H11.1123H11.0962H11.0801H11.064H11.0479H11.0318H11.0156H10.9995H10.9834H10.9673H10.9512H10.9351H10.919H10.9029H10.8867H10.8706H10.8545H10.8384H10.8223H10.8062H10.7901H10.774H10.7579H10.7417H10.7256H10.7095H10.6934H10.6773H10.6612H10.6451H10.629H10.6128H10.5967H10.5806H10.5645H10.5484H10.5323H10.5162H10.5001H10.4839H10.4678H10.4517H10.4356H10.4195H10.4034H10.3873H10.3712H10.355H10.3389H10.3228H10.3067H10.2906H10.2745H10.2584H10.2423H10.2262H10.21H10.1939H10.1778H10.1617H10.1456H10.1295H10.1134H10.0973H10.0811H10.065H10.0489H10.0328H10.0167H10.0006H9.98447H9.96836H9.95224H9.93613H9.92002H9.90391H9.88779H9.87168H9.85557H9.83946H9.82335H9.80723H9.79112H9.77501H9.7589H9.74278H9.72667H9.71056H9.69445H9.67834H9.66222H9.64611H9.63H9.61389H9.59777H9.58166H9.56555H9.54944H9.53333H9.51721H9.5011H9.48499H9.46888H9.45277H9.43665H9.42054H9.40443H9.38832H9.3722H9.35609H9.33998H9.32387H9.30776H9.29164H9.27553H9.25942H9.24331H9.22719H9.21108H9.19497H9.17886H9.16275H9.14663H9.13052H9.11441H9.0983H9.08219H9.06607H9.04996H9.03385H9.01774H9.00162H8.98551H8.9694H8.95329H8.93718H8.92106H8.90495H8.88884H8.87273H8.85661H8.8405H8.82439H8.80828H8.79217H8.77605H8.75994H8.74383H8.72772H8.7116H8.69549H8.67938H8.66327H8.64716H8.63104H8.61493H8.59882H8.58271H8.5666H8.55048H8.53437H8.51826H8.50215H8.48603H8.46992H8.45381H8.4377H8.42159H8.40547H8.38936H8.37325H8.35714H8.34102H8.32491H8.3088H8.29269H8.27658H8.26046H8.24435H8.22824H8.21213H8.19601H8.1799H8.16379H8.14768H8.13157H8.11545H8.09934H8.08323H8.06712H8.05101H8.03489H8.01878H8.00267H7.98656H7.97044H7.95433H7.93822H7.92211H7.906H7.88988H7.87377H7.85766H7.84155H7.82543H7.80932H7.79321H7.7771H7.76099H7.74487H7.72876H7.71265H7.69654H7.68042H7.66431H7.6482H7.63209H7.61598H7.59986H7.58375H7.56764H7.55153H7.53542H7.5193H7.50319H7.48708H7.47097H7.45485H7.43874H7.42263H7.40652H7.39041H7.37429H7.35818H7.34207H7.32596H7.30984H7.29373H7.27762H7.26151H7.2454H7.22928H7.21317H7.19706H7.18095H7.16483H7.14872H7.13261H7.1165H7.10039H7.08427H7.06816H7.05205H7.03594H7.01983H7.00371H6.9876H6.97149H6.95538H6.93926H6.92315H6.90704H6.89093H6.87482H6.8587H6.84259H6.82648H6.81037H6.79425H6.77814H6.76203H6.74592H6.72981H6.71369H6.69758H6.68147H6.66536H6.64925H6.63313H6.61702H6.60091H6.5848H6.56868H6.55257H6.53646H6.52035H6.50424H6.48812H6.47201H6.4559H6.43979H6.42367H6.40756H6.39145H6.37534H6.35923H6.34311H6.327H6.31089H6.29478H6.27866H6.26255H6.24644H6.23033H6.21422H6.1981H6.18199H6.16588H6.14977H6.13366H6.11754H6.10143H6.08532H6.06921H6.05309H6.03698H6.02087H6.00476H5.98865H5.97253H5.95642H5.94031H5.9242H5.90808H5.89197H5.87586H5.85975H5.84364H5.82752H5.81141H5.7953H5.77919H5.76307H5.74696H5.73085H5.71474H5.69863H5.68251H5.6664H5.65029H5.63418H5.61807H5.60195H5.58584H5.56973H5.55362H5.5375H5.52139H5.50528H5.48917H5.47306H5.45694H5.44083H5.42472H5.40861H5.39249H5.37638H5.36027H5.34416H5.32805H5.31193H5.29582H5.27971H5.2636H5.24749H5.23137H5.21526H5.19915H5.18304H5.16692H5.15081H5.1347H5.11859H5.10248H5.08636H5.07025H5.05414H5.03803H5.02191H5.0058H4.98969H4.97358H4.95747H4.94135H4.92524H4.90913H4.89302H4.8769H4.86079C4.84967 14.1095 4.83763 14.1094 4.82478 14.1093M13.9434 14.7123L4.82478 14.1093M4.82478 14.1093C4.71047 14.1085 4.53301 14.1073 4.38425 14.1614M4.82478 14.1093L4.38425 14.1614M4.38425 14.1614C4.29159 14.195 4.19586 14.2538 4.1246 14.3546M4.38425 14.1614L4.1246 14.3546M4.1246 14.3546C4.05395 14.4546 4.023 14.5739 4.01986 14.7016L4.1246 14.3546Z" fill="#FA8B02" stroke="#FA8B02" stroke-width="0.5"/>
<path d="M4.74482 17.5824L4.74481 17.5825H4.75292H4.75325H4.75357H4.7539H4.75423H4.75456H4.75489H4.75522H4.75555H4.75588H4.75621H4.75654H4.75687H4.7572H4.75752H4.75785H4.75818H4.75851H4.75884H4.75917H4.7595H4.75983H4.76016H4.76049H4.76082H4.76115H4.76147H4.7618H4.76213H4.76246H4.76279H4.76312H4.76345H4.76378H4.76411H4.76444H4.76477H4.7651H4.76542H4.76575H4.76608H4.76641H4.76674H4.76707H4.7674H4.76773H4.76806H4.76839H4.76872H4.76905H4.76938H4.7697H4.77003H4.77036H4.77069H4.77102H4.77135H4.77168H4.77201H4.77234H4.77267H4.773H4.77333H4.77365H4.77398H4.77431H4.77464H4.77497H4.7753H4.77563H4.77596H4.77629H4.77662H4.77695H4.77728H4.7776H4.77793H4.77826H4.77859H4.77892H4.77925H4.77958H4.77991H4.78024H4.78057H4.7809H4.78123H4.78155H4.78188H4.78221H4.78254H4.78287H4.7832H4.78353H4.78386H4.78419H4.78452H4.78485H4.78518H4.7855H4.78583H4.78616H4.78649H4.78682H4.78715H4.78748H4.78781H4.78814H4.78847H4.7888H4.78913H4.78945H4.78978H4.79011H4.79044H4.79077H4.7911H4.79143H4.79176H4.79209H4.79242H4.79275H4.79308H4.79341H4.79373H4.79406H4.79439H4.79472H4.79505H4.79538H4.79571H4.79604H4.79637H4.7967H4.79703H4.79736H4.79768H4.79801H4.79834H4.79867H4.799H4.79933H4.79966H4.79999H4.80032H4.80065H4.80098H4.80131H4.80163H4.80196H4.80229H4.80262H4.80295H4.80328H4.80361H4.80394H4.80427H4.8046H4.80493H4.80526H4.80558H4.80591H4.80624H4.80657H4.8069H4.80723H4.80756H4.80789H4.80822H4.80855H4.80888H4.80921H4.80953H4.80986H4.81019H4.81052H4.81085H4.81118H4.81151H4.81184H4.81217H4.8125H4.81283H4.81316H4.81348H4.81381H4.81414H4.81447H4.8148H4.81513H4.81546H4.81579H4.81612H4.81645H4.81678H4.81711H4.81744H4.81776H4.81809H4.81842H4.81875H4.81908H4.81941H4.81974H4.82007H4.8204H4.82073H4.82106H4.82139H4.82171H4.82204H4.82237H4.8227H4.82303H4.82336H4.82369H4.82402H4.82435H4.82468H4.82501H4.82534H4.82566H4.82599H4.82632H4.82665H4.82698H4.82731H4.82764H4.82797H4.8283H4.82863H4.82896H4.82929H4.82961H4.82994H4.83027H4.8306H4.83093H4.83126H4.83159H4.83192H4.83225H4.83258H4.83291H4.83324H4.83356H4.83389H4.83422H4.83455H4.83488H4.83521H4.83554H4.83587H4.8362H4.83653H4.83686H4.83719H4.83751H4.83784H4.83817H4.8385H4.83883H4.83916H4.83949H4.83982H4.84015H4.84048H4.84081H4.84114H4.84147H4.84179H4.84212H4.84245H4.84278H4.84311H4.84344H4.84377H4.8441H4.84443H4.84476H4.84509H4.84542H4.84574H4.84607H4.8464H4.84673H4.84706H4.84739H4.84772H4.84805H4.84838H4.84871H4.84904H4.84937H4.84969H4.85002H4.85035H4.85068H4.85101H4.85134H4.85167H4.852H4.85233H4.85266H4.85299H4.85332H4.85364H4.85397H4.8543H4.85463H4.85496H4.85529H4.85562H4.85595H4.85628H4.85661H4.85694H4.85727H4.85759H4.85792H4.85825H4.85858H4.85891H4.85924H4.85957H4.8599H4.86023H4.86056H4.86089H4.86122H4.86154H4.86187H4.8622H4.86253H4.86286H4.86319H4.86352H4.86385H4.86418H4.86451H4.86484H4.86517H4.8655H4.86582H4.86615H4.86648H4.86681H4.86714H4.86747H4.8678H4.86813H4.86846H4.86879H4.86912H4.86945H4.86977H4.8701H4.87043H4.87076H4.87109H4.87142H4.87175H4.87208H4.87241H4.87274H4.87307H4.8734H4.87372H4.87405H4.87438H4.87471H4.87504H4.87537H4.8757H4.87603H4.87636H4.87669H4.87702H4.87735H4.87767H4.878H4.87833H4.87866H4.87899H4.87932H4.87965H4.87998H4.88031H4.88064H4.88097H4.8813H4.88162H4.88195H4.88228H4.88261H4.88294H4.88327H4.8836H4.88393H4.88426H4.88459H4.88492H4.88525H4.88557H4.8859H4.88623H4.88656H4.88689H4.88722H4.88755H4.88788H4.88821H4.88854H4.88887H4.8892H4.88953H4.88985H4.89018H4.89051H4.89084H4.89117H4.8915H4.89183H4.89216H4.89249H4.89282H4.89315H4.89348H4.8938H4.89413H4.89446H4.89479H4.89512H4.89545H4.89578H4.89611H4.89644H4.89677H4.8971H4.89743H4.89775H4.89808H4.89841H4.89874H4.89907H4.8994H4.89973H4.90006H4.90039H4.90072H4.90105H4.90138H4.9017H4.90203H4.90236H4.90269H4.90302H4.90335H4.90368H4.90401H4.90434H4.90467H4.905H4.90533H4.90565H4.90598H4.90631H4.90664H4.90697H4.9073H4.90763H4.90796H4.90829H4.90862H4.90895H4.90928H4.90961H4.90993H4.91026H4.91059H4.91092H4.91125H4.91158H4.91191H4.91224H4.91257H4.9129H4.91323H4.91356H4.91388H4.91421H4.91454H4.91487H4.9152H4.91553H4.91586H4.91619H4.91652H4.91685H4.91718H4.91751H4.91783H4.91816H4.91849H4.91882H4.91915H4.91948H4.91981H4.92014H4.92047H4.9208H4.92113H4.92146H4.93736H4.95326H4.96916H4.98506H5.00096H5.01686H5.03277H5.04867H5.06457H5.08047H5.09637H5.11227H5.12818H5.14408H5.15998H5.17588H5.19178H5.20768H5.22358H5.23949H5.25539H5.27129H5.28719H5.30309H5.31899H5.33489H5.3508H5.3667H5.3826H5.3985H5.4144H5.4303H5.44621H5.46211H5.47801H5.49391H5.50981H5.52571H5.54161H5.55752H5.57342H5.58932H5.60522H5.62112H5.63702H5.65292H5.66883H5.68473H5.70063H5.71653H5.73243H5.74833H5.76424H5.78014H5.79604H5.81194H5.82784H5.84374H5.85964H5.87555H5.89145H5.90735H5.92325H5.93915H5.95505H5.97096H5.98686H6.00276H6.01866H6.03456H6.05046H6.06636H6.08227H6.09817H6.11407H6.12997H6.14587H6.16177H6.17767H6.19358H6.20948H6.22538H6.24128H6.25718H6.27308H6.28899H6.30489H6.32079H6.33669H6.35259H6.36849H6.38439H6.4003H6.4162H6.4321H6.448H6.4639H6.4798H6.4957H6.51161H6.52751H6.54341H6.55931H6.57521H6.59111H6.60702H6.62292H6.63882H6.65472H6.67062H6.68652H6.70242H6.71833H6.73423H6.75013H6.76603H6.78193H6.79783H6.81374H6.82964H6.84554H6.86144H6.87734H6.89324H6.90914H6.92505H6.94095H6.95685H6.97275H6.98865H7.00455H7.02045H7.03636H7.05226H7.06816H7.08406H7.09996H7.11586H7.13177H7.14767H7.16357H7.17947H7.19537H7.21127H7.22717H7.24308H7.25898H7.27488H7.29078H7.30668H7.32258H7.33849H7.35439H7.37029H7.38619H7.40209H7.41799H7.43389H7.4498H7.4657H7.4816H7.4975H7.5134H7.5293H7.5452H7.56111H7.57701H7.59291H7.60881H7.62471H7.64061H7.65652H7.67242H7.68832H7.70422H7.72012H7.73602H7.75192H7.76783H7.78373H7.79963H7.81553H7.83143H7.84733H7.86323H7.87914H7.89504H7.91094H7.92684H7.94274H7.95864H7.97455H7.99045H8.00635H8.02225H8.03815H8.05405H8.06995H8.08586H8.10176H8.11766H8.13356H8.14946H8.16536H8.18126H8.19717H8.21307H8.22897H8.24487H8.26077H8.27667H8.29258H8.30848H8.32438H8.34028H8.35618H8.37208H8.38798H8.40389H8.41979H8.43569H8.45159H8.46749H8.48339H8.4993H8.5152H8.5311H8.547H8.5629H8.5788H8.5947H8.61061H8.62651H8.64241H8.65831H8.67421H8.69011H8.70601H8.72192H8.73782H8.75372H8.76962H8.78552H8.80142H8.81733H8.83323H8.84913H8.86503H8.88093H8.89683H8.91273H8.92864H8.94454H8.96044H8.97634H8.99224H9.00814H9.02404H9.03995H9.05585H9.07175H9.08765H9.10355H9.11945H9.13536H9.15126H9.16716H9.18306H9.19896H9.21486H9.23076H9.24667H9.26257H9.27847H9.29437H9.31027H9.32617H9.34208H9.35798H9.37388H9.38978H9.40568H9.42158H9.43748H9.45339H9.46929H9.48519H9.50109H9.51699H9.53289H9.54879H9.5647H9.5806H9.5965H9.6124H9.6283H9.6442H9.66011H9.67601H9.69191H9.70781H9.72371H9.73961H9.75551H9.77142H9.78732H9.80322H9.81912H9.83502H9.85092H9.86683H9.88273H9.89863H9.91453H9.93043H9.94633H9.96223H9.97814H9.99404H10.0099H10.0258H10.0417H10.0576H10.0735H10.0894H10.1053H10.1212H10.1372H10.1531H10.169H10.1849H10.2008H10.2167H10.2326H10.2485H10.2644H10.2803H10.2962H10.3121H10.328H10.3439H10.3598H10.3757H10.3916H10.4075H10.4234H10.4393H10.4552H10.4711H10.487H10.5029H10.5188H10.5347H10.5506H10.5665H10.5824H10.5983H10.6142H10.6301H10.646H10.6619H10.6778H10.6937H10.7096H10.7255H10.7414H10.7573H10.7732H10.7891H10.805H10.8209H10.8368H10.8527H10.8686H10.8845H10.9004H10.9163H10.9322H10.9481H10.964H10.9799H10.9958H11.0117H11.0276H11.0435H11.0594H11.0753H11.0912H11.1071H11.123H11.1389H11.1548H11.1707H11.1867H11.2026H11.2185H11.2344H11.2503H11.2662H11.2821H11.298H11.3139H11.3298H11.3457H11.3616H11.3775H11.3934H11.4093H11.4252H11.4411H11.457H11.4729H11.4888H11.5047H11.5206H11.5365H11.5524H11.5683H11.5842H11.6001H11.616H11.6319H11.6478H11.6637H11.6796H11.6955H11.7114H11.7273H11.7432H11.7591H11.775H11.7909H11.8068H11.8227H11.8386H11.8545H11.8704H11.8863H11.9022H11.9181H11.934H11.9499H11.9658H11.9817H11.9976H12.0135H12.0294H12.0453H12.0612H12.0771H12.093H12.1089H12.1248H12.1407H12.1566H12.1725H12.1884H12.2043H12.2202H12.2361H12.2521H12.268H12.2839H12.2998H12.3157H12.3316H12.3475H12.3634H12.3793H12.3952H12.4111H12.427H12.4429H12.4588H12.4747H12.4906H12.5065H12.5224H12.5383H12.5542H12.5701H12.586H12.6019H12.6178H12.6337H12.6496H12.6655H12.6814H12.6973H12.7132H12.7291H12.745H12.7609H12.7768H12.7927H12.8086H12.8245H12.8404H12.8563H12.8722H12.8881H12.904H12.9199H12.9358H12.9517H12.9676H12.9835H12.9994H13.0153H13.0312H13.0471H13.063C13.0809 17.5825 13.1032 17.5829 13.1279 17.5832C13.1772 17.5839 13.2357 17.5848 13.2852 17.5834C13.3657 17.5812 13.4632 17.5735 13.5582 17.5433C13.657 17.5118 13.7609 17.4534 13.8384 17.3469C13.9149 17.2418 13.9478 17.1144 13.9512 16.9769C13.9545 16.8403 13.9286 16.7113 13.8573 16.6026C13.7846 16.4918 13.6824 16.4291 13.5838 16.3944C13.4893 16.3612 13.3913 16.3513 13.3101 16.3478C13.2519 16.3452 13.1887 16.3458 13.1356 16.3463C13.1166 16.3464 13.099 16.3466 13.0833 16.3466H13.0754H13.0675H13.0596H13.0517H13.0438H13.0359H13.028H13.0201H13.0122H13.0043H12.9964H12.9884H12.9805H12.9726H12.9647H12.9568H12.9489H12.941H12.9331H12.9252H12.9173H12.9094H12.9015H12.8936H12.8857H12.8778H12.8699H12.862H12.8541H12.8462H12.8383H12.8304H12.8225H12.8146H12.8067H12.7988H12.7909H12.783H12.7751H12.7672H12.7593H12.7514H12.7435H12.7356H12.7277H12.7198H12.7119H12.704H12.6961H12.6882H12.6803H12.6724H12.6645H12.6566H12.6487H12.6408H12.6329H12.625H12.6171H12.6092H12.6013H12.5934H12.5855H12.5776H12.5697H12.5618H12.5539H12.546H12.5381H12.5302H12.5223H12.5144H12.5065H12.4986H12.4907H12.4828H12.4749H12.467H12.4591H12.4512H12.4433H12.4354H12.4275H12.4196H12.4117H12.4038H12.3959H12.388H12.3801H12.3722H12.3643H12.3564H12.3485H12.3406H12.3327H12.3248H12.3169H12.309H12.3011H12.2932H12.2853H12.2774H12.2695H12.2616H12.2537H12.2458H12.2379H12.23H12.2221H12.2142H12.2063H12.1984H12.1905H12.1826H12.1747H12.1668H12.1589H12.151H12.1431H12.1352H12.1273H12.1194H12.1115H12.1036H12.0957H12.0878H12.0799H12.072H12.0641H12.0562H12.0483H12.0404H12.0325H12.0246H12.0167H12.0088H12.0009H11.993H11.9851H11.9772H11.9693H11.9614H11.9535H11.9456H11.9377H11.9298H11.9219H11.914H11.9061H11.8982H11.8903H11.8824H11.8745H11.8666H11.8587H11.8508H11.8429H11.835H11.8271H11.8192H11.8113H11.8034H11.7955H11.7876H11.7797H11.7718H11.7639H11.756H11.7481H11.7402H11.7323H11.7244H11.7165H11.7086H11.7007H11.6928H11.6849H11.677H11.6691H11.6612H11.6533H11.6454H11.6375H11.6296H11.6217H11.6138H11.6059H11.598H11.5901H11.5822H11.5743H11.5664H11.5585H11.5506H11.5427H11.5348H11.5269H11.519H11.5111H11.5032H11.4953H11.4874H11.4795H11.4716H11.4637H11.4558H11.4479H11.44H11.4321H11.4242H11.4163H11.4084H11.4005H11.3926H11.3847H11.3768H11.3689H11.361H11.3531H11.3452H11.3373H11.3294H11.3215H11.3136H11.3057H11.2978H11.2899H11.282H11.2741H11.2662H11.2583H11.2504H11.2425H11.2346H11.2267H11.2188H11.2109H11.203H11.1951H11.1872H11.1793H11.1714H11.1635H11.1556H11.1477H11.1398H11.1319H11.124H11.1161H11.1082H11.1003H11.0924H11.0845H11.0766H11.0687H11.0608H11.0529H11.045H11.0371H11.0292H11.0213H11.0134H11.0055H10.9976H10.9897H10.9818H10.9739H10.966H10.9581H10.9502H10.9423H10.9344H10.9265H10.9186H10.9107H10.9028H10.8949H10.887H10.8791H10.8712H10.8633H10.8554H10.8475H10.8396H10.8317H10.8238H10.8159H10.808H10.8001H10.7922H10.7843H10.7764H10.7685H10.7606H10.7527H10.7448H10.7369H10.729H10.7211H10.7132H10.7053H10.6974H10.6895H10.6816H10.6737H10.6658H10.6579H10.65H10.6421H10.6342H10.6263H10.6184H10.6105H10.6026H10.5947H10.5868H10.5789H10.571H10.5631H10.5552H10.5473H10.5394H10.5315H10.5236H10.5157H10.5078H10.4999H10.492H10.4841H10.4762H10.4683H10.4604H10.4525H10.4446H10.4367H10.4288H10.4209H10.413H10.4051H10.3972H10.3893H10.3814H10.3735H10.3656H10.3577H10.3498H10.3419H10.334H10.3261H10.3182H10.3103H10.3024H10.2945H10.2866H10.2787H10.2708H10.2629H10.255H10.2471H10.2392H10.2313H10.2234H10.2155H10.2076H10.1997H10.1918H10.1839H10.176H10.168H10.1601H10.1522H10.1443H10.1364H10.1285H10.1206H10.1127H10.1048H10.0969H10.089H10.0811H10.0732H10.0653H10.0574H10.0495H10.0416H10.0337H10.0258H10.0179H10.01H10.0021H9.99424H9.98634H9.97844H9.97054H9.96264H9.95474H9.94684H9.93894H9.93104H9.92314H9.91524H9.90734H9.89944H9.89154H9.88364H9.87574H9.86784H9.85994H9.85204H9.84414H9.83624H9.82834H9.82044H9.81254H9.80464H9.79674H9.78884H9.78094H9.77304H9.76514H9.75724H9.74933H9.74143H9.73353H9.72563H9.71773H9.70983H9.70193H9.69403H9.68613H9.67823H9.67033H9.66243H9.65453H9.64663H9.63873H9.63083H9.62293H9.61503H9.60713H9.59923H9.59133H9.58343H9.57553H9.56763H9.55973H9.55183H9.54393H9.53603H9.52813H9.52023H9.51233H9.50443H9.49653H9.48863H9.48073H9.47283H9.46492H9.45702H9.44912H9.44122H9.43332H9.42542H9.41752H9.40962H9.40172H9.39382H9.38592H9.37802H9.37012H9.36222H9.35432H9.34642H9.33852H9.33062H9.32272H9.31482H9.30692H9.29902H9.29112H9.28322H9.27532H9.26742H9.25952H9.25162H9.24372H9.23582H9.22792H9.22002H9.21212H9.20422H9.19632H9.18842H9.18051H9.17261H9.16471H9.15681H9.14891H9.14101H9.13311H9.12521H9.11731H9.10941H9.10151H9.09361H9.08571H9.07781H9.06991H9.06201H9.05411H9.04621H9.03831H4.77314C4.635 16.3466 4.44776 16.3581 4.29224 16.4484C4.20827 16.4972 4.13375 16.5686 4.08365 16.6676C4.03457 16.7646 4.0164 16.8731 4.01989 16.9863L4.01989 16.9864C4.02691 17.212 4.12999 17.3803 4.29901 17.4776C4.44455 17.5614 4.61585 17.5782 4.74482 17.5824Z" fill="#FA8B02" stroke="#FA8B02" stroke-width="0.5"/>
<path d="M4.02525 12.4494L4.02525 12.4494C4.01967 12.5874 4.04345 12.7181 4.11373 12.8286C4.18563 12.9417 4.28835 13.0057 4.38763 13.0408C4.48255 13.0744 4.58086 13.0841 4.66153 13.0874C4.71783 13.0897 4.77979 13.0891 4.83136 13.0885C4.85111 13.0883 4.86935 13.0881 4.88515 13.0881H4.89301H4.90086H4.90872H4.91657H4.92443H4.93228H4.94014H4.94799H4.95585H4.9637H4.97156H4.97942H4.98727H4.99513H5.00299H5.01084H5.0187H5.02656H5.03442H5.04227H5.05013H5.05799H5.06585H5.07371H5.08156H5.08942H5.09728H5.10514H5.113H5.12086H5.12872H5.13658H5.14444H5.1523H5.16016H5.16802H5.17588H5.18374H5.1916H5.19946H5.20732H5.21518H5.22305H5.23091H5.23877H5.24663H5.25449H5.26236H5.27022H5.27808H5.28594H5.29381H5.30167H5.30953H5.3174H5.32526H5.33312H5.34099H5.34885H5.35672H5.36458H5.37245H5.38031H5.38818H5.39604H5.40391H5.41177H5.41964H5.4275H5.43537H5.44323H5.4511H5.45897H5.46683H5.4747H5.48257H5.49043H5.4983H5.50617H5.51404H5.5219H5.52977H5.53764H5.54551H5.55337H5.56124H5.56911H5.57698H5.58485H5.59272H5.60059H5.60846H5.61633H5.62419H5.63206H5.63993H5.6478H5.65567H5.66354H5.67141H5.67929H5.68716H5.69503H5.7029H5.71077H5.71864H5.72651H5.73438H5.74225H5.75013H5.758H5.76587H5.77374H5.78162H5.78949H5.79736H5.80523H5.81311H5.82098H5.82885H5.83673H5.8446H5.85247H5.86035H5.86822H5.87609H5.88397H5.89184H5.89972H5.90759H5.91547H5.92334H5.93122H5.93909H5.94697H5.95484H5.96272H5.97059H5.97847H5.98634H5.99422H6.0021H6.00997H6.01785H6.02573H6.0336H6.04148H6.04936H6.05723H6.06511H6.07299H6.08087H6.08874H6.09662H6.1045H6.11238H6.12025H6.12813H6.13601H6.14389H6.15177H6.15965H6.16753H6.1754H6.18328H6.19116H6.19904H6.20692H6.2148H6.22268H6.23056H6.23844H6.24632H6.2542H6.26208H6.26996H6.27784H6.28572H6.2936H6.30148H6.30936H6.31725H6.32513H6.33301H6.34089H6.34877H6.35665H6.36453H6.37242H6.3803H6.38818H6.39606H6.40395H6.41183H6.41971H6.42759H6.43548H6.44336H6.45124H6.45912H6.46701H6.47489H6.48277H6.49066H6.49854H6.50643H6.51431H6.52219H6.53008H6.53796H6.54585H6.55373H6.56161H6.5695H6.57738H6.58527H6.59315H6.60104H6.60892H6.61681H6.62469H6.63258H6.64047H6.64835H6.65624H6.66412H6.67201H6.67989H6.68778H6.69567H6.70355H6.71144H6.71933H6.72721H6.7351H6.74299H6.75087H6.75876H6.76665H6.77454H6.78242H6.79031H6.7982H6.80609H6.81397H6.82186H6.82975H6.83764H6.84552H6.85341H6.8613H6.86919H6.87708H6.88497H6.89285H6.90074H6.90863H6.91652H6.92441H6.9323H6.94019H6.94808H6.95597H6.96386H6.97175H6.97964H6.98753H6.99542H7.0033H7.01119H7.01908H7.02698H7.03487H7.04276H7.05065H7.05854H7.06643H7.07432H7.08221H7.0901H7.09799H7.10588H7.11377H7.12166H7.12955H7.13745H7.14534H7.15323H7.16112H7.16901H7.1769H7.18479H7.19269H7.20058H7.20847H7.21636H7.22425H7.23215H7.24004H7.24793H7.25582H7.26372H7.27161H7.2795H7.28739H7.29529H7.30318H7.31107H7.31897H7.32686H7.33475H7.34265H7.35054H7.35843H7.36633H7.37422H7.38211H7.39001H7.3979H7.40579H7.41369H7.42158H7.42948H7.43737H7.44526H7.45316H7.46105H7.46895H7.47684H7.48473H7.49263H7.50052H7.50842H7.51631H7.52421H7.5321H7.54H7.54789H7.55579H7.56368H7.57158H7.57947H7.58737H7.59526H7.60316H7.61105H7.61895H7.62684H7.63474H7.64264H7.65053H7.65843H7.66632H7.67422H7.68212H7.69001H7.69791H7.7058H7.7137H7.7216H7.72949H7.73739H7.74528H7.75318H7.76108H7.76897H7.77687H7.78477H7.79266H7.80056H7.80846H7.81635H7.82425H7.83215H7.84004H7.84794H7.85584H7.86374H7.87163H7.87953H7.88743H7.89532H7.90322H7.91112H7.91902H7.92691H7.93481H7.94271H7.95061H7.9585H7.9664H7.9743H7.9822H7.9901H7.99799H8.00589H8.01379H8.02169H8.02959H8.03748H8.04538H8.05328H8.06118H8.06908H8.07697H8.08487H8.09277H8.10067H8.10857H8.11647H8.12436H8.13226H8.14016H8.14806H8.15596H8.16386H8.17176H8.17965H8.18755H8.19545H8.20335H8.21125H8.21915H8.22705H8.23495H8.24285H8.25074H8.25864H8.26654H8.27444H8.28234H8.29024H8.29814H8.30604H8.31394H8.32184H8.32974H8.33764H8.34553H8.35343H8.36133H8.36923H8.37713H8.38503H8.39293H8.40083H8.40873H8.41663H8.42453H8.43243H8.44033H8.44823H8.45613H8.46403H8.47193H8.47983H8.48773H8.49563H8.50353H8.51143H8.51933H8.52723H8.53513H8.54303H8.55093H8.55883H8.56672H8.57463H8.58252H8.59042H8.59832H8.60622H8.61412H8.62202H8.62992H8.63783H8.64572H8.65363H8.66153H8.66943H8.67733H8.68523H8.69313H8.70103H8.70893H8.71683H8.72473H8.73263H8.74053H8.74843H8.75633H8.76423H8.77213H8.78003H8.78793H8.79583H8.80373H8.81163H8.81953H8.82743H8.83533H8.84323H8.85113H8.85903H8.86693H8.87483H8.88273H8.89063H8.89853H8.90643H8.91433H8.92223C10.3242 13.0881 11.7251 13.0904 13.1272 13.0938L13.1289 13.0938C13.1355 13.0937 13.1423 13.0937 13.1494 13.0937C13.267 13.0935 13.4537 13.093 13.6097 13.0289C13.7016 12.9911 13.7945 12.9276 13.8605 12.8232C13.9258 12.72 13.9506 12.5996 13.9474 12.4724C13.9443 12.3462 13.9146 12.2282 13.8469 12.1285C13.7784 12.0275 13.6854 11.9665 13.5932 11.9306C13.4406 11.8712 13.2592 11.8719 13.1421 11.8723C13.1324 11.8724 13.1231 11.8724 13.1144 11.8724H4.87167C4.85934 11.8724 4.84573 11.8723 4.83105 11.8721C4.71957 11.8711 4.5463 11.8695 4.4008 11.9191C4.30868 11.9505 4.21162 12.0063 4.13785 12.1048C4.06423 12.203 4.03042 12.3216 4.02525 12.4494ZM4.27504 12.4595L4.27504 12.4595L4.27504 12.4595Z" fill="#FA8B02" stroke="#FA8B02" stroke-width="0.5"/>
<path d="M4.27426 10.2078L4.0249 10.19C4.01641 10.3084 4.03186 10.4235 4.08475 10.5257C4.13902 10.6305 4.22159 10.7003 4.30939 10.7444C4.46719 10.8235 4.65819 10.8253 4.77763 10.8253H4.78551H4.79338H4.80125H4.80913H4.817H4.82488H4.83275H4.84062H4.8485H4.85637H4.86425H4.87212H4.87999H4.88787H4.89574H4.90362H4.91149H4.91936H4.92724H4.93511H4.94299H4.95086H4.95873H4.96661H4.97448H4.98236H4.99023H4.9981H5.00598H5.01385H5.02172H5.0296H5.03747H5.04535H5.05322H5.06109H5.06897H5.07684H5.08472H5.09259H5.10046H5.10834H5.11621H5.12409H5.13196H5.13983H5.14771H5.15558H5.16346H5.17133H5.1792H5.18708H5.19495H5.20283H5.2107H5.21857H5.22645H5.23432H5.2422H5.25007H5.25794H5.26582H5.27369H5.28157H5.28944H5.29731H5.30519H5.31306H5.32093H5.32881H5.33668H5.34456H5.35243H5.3603H5.36818H5.37605H5.38393H5.3918H5.39967H5.40755H5.41542H5.4233H5.43117H5.43904H5.44692H5.45479H5.46267H5.47054H5.47841H5.48629H5.49416H5.50204H5.50991H5.51778H5.52566H5.53353H5.54141H5.54928H5.55715H5.56503H5.5729H5.58078H5.58865H5.59652H5.6044H5.61227H5.62014H5.62802H5.63589H5.64377H5.65164H5.65951H5.66739H5.67526H5.68314H5.69101H5.69888H5.70676H5.71463H5.72251H5.73038H5.73825H5.74613H5.754H5.76188H5.76975H5.77762H5.7855H5.79337H5.80125H5.80912H5.81699H5.82487H5.83274H5.84062H5.84849H5.85636H5.86424H5.87211H5.87998H5.88786H5.89573H5.90361H5.91148H5.91935H5.92723H5.9351H5.94298H5.95085H5.95872H5.9666H5.97447H5.98235H5.99022H5.99809H6.00597H6.01384H6.02172H6.02959H6.03746H6.04534H6.05321H6.06109H6.06896H6.07683H6.08471H6.09258H6.10046H6.10833H6.1162H6.12408H6.13195H6.13983H6.1477H6.15557H6.16345H6.17132H6.17919H6.18707H6.19494H6.20282H6.21069H6.21856H6.22644H6.23431H6.24219H6.25006H6.25793H6.26581H6.27368H6.28156H6.28943H6.2973H6.30518H6.31305H6.32093H6.3288H6.33667H6.34455H6.35242H6.3603H6.36817H6.37604H6.38392H6.39179H6.39967H6.40754H6.41541H6.42329H6.43116H6.43904H6.44691H6.45478H6.46266H6.47053H6.4784H6.48628H6.49415H6.50203H6.5099H6.51777H6.52565H6.53352H6.5414H6.54927H6.55714H6.56502H6.57289H6.58077H6.58864H6.59651H6.60439H6.61226H6.62014H6.62801H6.63588H6.64376H6.65163H6.65951H6.66738H6.67525H6.68313H6.691H6.69888H6.70675H6.71462H6.7225H6.73037H6.73825H6.74612H6.75399H6.76187H6.76974H6.77761H6.78549H6.79336H6.80124H6.80911H6.81698H6.82486H6.83273H6.84061H6.84848H6.85635H6.86423H6.8721H6.87998H6.88785H6.89572H6.9036H6.91147H6.91935H6.92722H6.93509H6.94297H6.95084H6.95872H6.96659H6.97446H6.98234H6.99021H6.99809H7.00596H7.01383H7.02171H7.02958H7.03745H7.04533H7.0532H7.06108H7.06895H7.07682H7.0847H7.09257H7.10045H7.10832H7.11619H7.12407H7.13194H7.13982H7.14769H7.15556H7.16344H7.17131H7.17919H7.18706H7.19493H7.20281H7.21068H7.21856H7.22643H7.2343H7.24218H7.25005H7.25793H7.2658H7.27367H7.28155H7.28942H7.2973H7.30517H7.31304H7.32092H7.32879H7.33666H7.34454H7.35241H7.36029H7.36816H7.37603H7.38391H7.39178H7.39966H7.40753H7.4154H7.42328H7.43115H7.43903H7.4469H7.45477H7.46265H7.47052H7.4784H7.48627H7.49414H7.50202H7.50989H7.51777H7.52564H7.53351H7.54139H7.54926H7.55714H7.56501H7.57288H7.58076H7.58863H7.5965H7.60438H7.61225H7.62013H7.628H7.63587H7.64375H7.65162H7.6595H7.66737H7.67524H7.68312H7.69099H7.69887H7.70674H7.71461H7.72249H7.73036H7.73824H7.74611H7.75398H7.76186H7.76973H7.77761H7.78548H7.79335H7.80123H7.8091H7.81698H7.82485H7.83272H7.8406H7.84847H7.85635H7.86422H7.87209H7.87997H7.88784H7.89571H7.90359H7.91146H7.91934H7.92721H7.93508H7.94296H7.95083H7.95871H7.96658H7.97445H7.98233H7.9902H7.99808H8.00595H8.01382H8.0217H8.02957H8.03745H8.04532H8.05319H8.06107H8.06894H8.07682H8.08469H8.09256H8.10044H8.10831H8.11619H8.12406H8.13193H8.13981H8.14768H8.15556H8.16343H8.1713H8.17918H8.18705H8.19492H8.2028H8.21067H8.21855H8.22642H8.23429H8.24217H8.25004H8.25792H8.26579H8.27366H8.28154H8.28941H8.29729H8.30516H8.31303H8.32091H8.32878H8.33666H8.34453H8.3524H8.36028H8.36815H8.37603H8.3839H8.39177H8.39965H8.40752H8.4154H8.42327H8.43114H8.43902H8.44689H8.45476H8.46264H8.47051H8.47839H8.48626H8.49413H8.50201H8.50988H8.51776H8.52563H8.5335H8.54138H8.54925H8.55713H8.565H8.57287H8.58075H8.58862H8.5965H8.60437H8.61224H8.62012H8.62799H8.63587H8.64374H8.65161H8.65949H8.66736H8.67524H8.68311H8.69098H8.69886H8.70673H8.71461H8.72248H8.73035H8.73823H8.7461H8.75397H8.76185H8.76972H8.7776H8.78547H8.79334H8.80122H8.80909C8.93285 10.8253 9.12005 10.8216 9.27705 10.7428C9.36327 10.6996 9.44418 10.6324 9.50015 10.5327C9.55505 10.4349 9.57599 10.3237 9.57365 10.2073C9.57129 10.0903 9.54541 9.97973 9.48561 9.88419C9.42479 9.78702 9.34064 9.72422 9.25371 9.68515C9.09792 9.61513 8.91335 9.61514 8.79637 9.61514L8.79336 9.61514L6.83269 9.61514L6.83199 9.61514L4.8193 9.62075C4.69307 9.61808 4.51177 9.61925 4.35509 9.6893C4.26953 9.72755 4.18688 9.78789 4.12478 9.87973C4.06325 9.97073 4.03245 10.077 4.02482 10.1912L4.27426 10.2078ZM4.27426 10.2078C4.29561 9.88874 4.55965 9.86514 4.81696 9.87076L6.83269 9.86514H8.79336C9.0473 9.86514 9.31696 9.8775 9.3237 10.2123C9.33044 10.5472 9.06527 10.5753 8.80909 10.5753H4.77763C4.5237 10.5753 4.24954 10.5528 4.27426 10.2078Z" fill="#FA8B02" stroke="#FA8B02" stroke-width="0.5"/>
<path d="M18.3149 12.6112L18.3149 12.6112C18.3108 12.7637 18.2768 12.9376 18.1677 13.0767C18.0483 13.2288 17.8694 13.3011 17.6616 13.2937L17.6597 13.2936L17.6597 13.2936C17.4589 13.2848 17.2976 13.1972 17.1971 13.0457C17.1066 12.909 17.0836 12.7473 17.0835 12.612M18.3149 12.6112L17.3335 12.6112M18.3149 12.6112L18.3149 12.6085C18.3187 12.37 18.3174 12.1283 18.3162 11.8897C18.3156 11.7719 18.315 11.6548 18.315 11.5393C18.315 11.3044 18.3159 11.07 18.3169 10.8336C18.3174 10.7132 18.3179 10.5922 18.3183 10.4704L18.3185 10.4704L18.3182 10.4624C18.3141 10.3227 18.2852 10.163 18.1918 10.0297C18.09 9.88415 17.9324 9.8 17.7392 9.78864L17.7392 9.78859L17.7342 9.78839C17.525 9.78025 17.3431 9.85102 17.223 10.0061C17.1137 10.1473 17.0836 10.3234 17.0835 10.4756M18.3149 12.6112L17.3335 10.4764M17.0835 12.612C17.0835 12.6118 17.0835 12.6115 17.0835 12.6112H17.3335M17.0835 12.612C17.0835 12.6123 17.0835 12.6126 17.0835 12.6128L17.3335 12.6112M17.0835 12.612C17.079 11.9014 17.079 11.1892 17.0835 10.4756M17.3335 12.6112C17.329 11.9011 17.329 11.1895 17.3335 10.4764M17.0835 10.4756C17.0835 10.4758 17.0835 10.4761 17.0835 10.4764H17.3335M17.0835 10.4756C17.0835 10.4753 17.0835 10.4751 17.0835 10.4748L17.3335 10.4764" fill="#FA8B02" stroke="#FA8B02" stroke-width="0.5"/>
<path d="M17.3342 14.6124L17.0842 14.61C17.0775 15.321 17.0775 16.0323 17.0842 16.744L17.0842 16.744L17.0843 16.7479C17.0876 16.879 17.1113 17.0403 17.2022 17.1761C17.304 17.3281 17.4671 17.4143 17.6704 17.4196L17.6704 17.4197H17.6769C17.8856 17.4197 18.0627 17.3427 18.1789 17.1885C18.2852 17.0472 18.3154 16.8738 18.3157 16.7223C18.3194 16.4836 18.3181 16.2427 18.3169 16.0053C18.3163 15.888 18.3157 15.7716 18.3157 15.6568L18.3202 14.6506H18.3202V14.6495C18.3202 14.5114 18.3034 14.339 18.2167 14.192C18.1182 14.025 17.9508 13.9254 17.7322 13.9133C17.514 13.9013 17.3323 13.9829 17.2168 14.1425C17.113 14.2859 17.0842 14.4626 17.0842 14.6124H17.3342ZM17.3342 14.6124C17.3275 15.3217 17.3275 16.0315 17.3342 16.7416L18.0702 14.6495C18.0702 14.4011 18.0039 14.1787 17.7185 14.1629C17.4331 14.1472 17.3342 14.3652 17.3342 14.6124Z" fill="#FA8B02" stroke="#FA8B02" stroke-width="0.5"/>
</g>
<defs>
<clipPath id="clip0_201_13386">
<rect width="24" height="24" fill="white"/>
</clipPath>
</defs>
</svg>
