<svg width="24" height="24" viewBox="0 0 24 24" fill="none" xmlns="http://www.w3.org/2000/svg">
<g clip-path="url(#clip0_201_13369)">
<path d="M7.18362 12.8598C7.46652 12.2086 7.40701 11.9091 6.91116 11.454C6.29463 10.9074 5.85156 10.1924 5.63657 9.39707C5.57306 9.09621 5.39675 8.83108 5.14385 8.6561C4.22105 7.99861 4.0154 6.86002 4.60833 5.88424C4.70333 5.72665 4.76492 5.5962 4.71272 5.40521C4.22731 3.67698 5.2044 1.66696 7.29323 0.8425C8.49934 0.375086 9.79813 0.196383 11.0857 0.320689C11.855 0.387481 12.4918 0.691175 12.7935 1.48433C12.9346 1.82308 13.1819 2.1069 13.4981 2.29313C14.7445 3.1082 14.9742 3.79073 14.5243 5.21527C14.4731 5.37704 14.4136 5.5054 14.5483 5.69117C15.279 6.6993 15.065 8.01323 14.043 8.74689C13.8733 8.86402 13.7517 9.03862 13.7007 9.23844C13.4435 10.1671 12.9129 10.9969 12.1776 11.62C11.8644 11.8903 11.8415 12.8233 12.1202 13.1155C12.2611 13.2626 12.3561 13.1332 12.4146 13.0529C12.996 12.2587 13.803 12.3651 14.5942 12.5311C16.7864 13.0049 18.3418 14.2447 19.0109 16.429C19.6853 18.6321 19.7417 20.9166 19.7594 23.1958C19.7594 23.6655 19.4744 23.7176 19.1018 23.7176C15.6054 23.7121 12.1087 23.7121 8.61167 23.7176C5.98523 23.7176 3.35844 23.7176 0.731311 23.7176C0.0444291 23.7176 -0.00672176 23.6676 0.000585497 22.9662C0.0183317 21.0136 0.122721 19.0704 0.541323 17.1574C1.14783 14.3814 3.25545 12.5655 5.96957 12.4361C6.49987 12.411 6.49987 12.411 7.18362 12.8598ZM10.0481 22.9516C11.736 22.9516 13.423 22.9381 15.1099 22.961C15.5275 22.961 15.6433 22.8452 15.6319 22.4392C15.6047 21.3267 15.6225 20.2132 15.6235 19.0996C15.6235 18.8909 15.6078 18.6749 15.8323 18.5507C16.1267 18.3889 16.3824 18.6018 16.3855 19.0453C16.3949 20.21 16.3981 21.3758 16.3855 22.5404C16.3855 22.8535 16.4711 22.9725 16.7979 22.9579C17.4054 22.9349 18.0151 22.9454 18.6237 22.9579C18.8523 22.9579 18.9859 22.9067 18.9775 22.6448C18.9086 20.5419 18.8784 18.4317 18.179 16.4123C17.6445 14.8667 16.5087 13.9389 14.9888 13.4275C14.6892 13.3232 14.5222 13.3837 14.3625 13.6686C13.7278 14.7675 13.0701 15.854 12.4094 16.9372C12.2635 17.1697 12.1881 17.4393 12.1922 17.7137C12.2027 19.0182 12.1995 20.3227 12.1922 21.6262C12.1922 22.2409 12.1066 22.3265 11.5043 22.3286C10.3741 22.3286 9.24322 22.3286 8.11164 22.3286C7.44668 22.3286 7.38614 22.2712 7.38092 21.6231C7.38092 20.3708 7.37152 19.1184 7.38092 17.8661C7.39312 17.5198 7.30151 17.1778 7.11786 16.884C6.47795 15.8487 5.84117 14.8103 5.24511 13.7531C5.03633 13.3847 4.82755 13.3743 4.49037 13.5069C2.84833 14.1654 1.77416 15.3238 1.36182 17.0677C0.931739 18.8721 0.834657 20.7099 0.764716 22.554C0.752189 22.8911 0.888939 22.9641 1.19167 22.9558C1.86916 22.9391 2.54873 22.9349 3.22622 22.9558C3.56235 22.9673 3.67718 22.8681 3.67092 22.5196C3.65108 21.3893 3.66465 20.2591 3.66257 19.1278C3.66257 18.8345 3.68136 18.5173 4.04985 18.5068C4.41834 18.4964 4.44653 18.8199 4.44757 19.1121C4.44757 20.2079 4.46636 21.3037 4.43922 22.3985C4.42878 22.8222 4.54361 22.9662 4.98622 22.96C6.67316 22.9318 8.36113 22.9516 10.0481 22.9516ZM9.74116 11.765C9.7944 11.765 9.91654 11.7577 10.0366 11.7379C11.7371 11.4645 12.5806 10.3134 13.0305 8.78029C13.1192 8.47659 13.2393 8.27935 13.5399 8.12385C14.3562 7.70014 14.4293 6.55842 13.6954 6.05435C13.5253 5.93746 13.4512 5.76631 13.3666 5.59724C13.0608 4.9916 12.6699 4.43282 12.2058 3.93788C12.091 3.81578 11.9605 3.59244 11.7381 3.80639C11.2579 4.27184 10.6598 4.30732 10.0387 4.29897C9.01357 4.2875 7.98533 4.27602 6.97275 4.45969C6.31823 4.57658 5.79524 4.88549 5.70233 5.6369C5.66757 5.80747 5.58034 5.96291 5.45284 6.08148C4.80145 6.79532 4.95908 7.71579 5.82238 8.1562C6.13033 8.31274 6.22741 8.52564 6.29109 8.83664C6.63975 10.5482 8.05527 11.765 9.74116 11.765ZM5.39125 4.43047C6.22637 3.66967 7.13351 3.59557 8.03961 3.56218C8.78495 3.53087 9.53238 3.53713 10.2788 3.53296C10.6556 3.53296 10.9991 3.45886 11.2757 3.17291C11.7392 2.69388 11.877 2.68554 12.401 3.07898C12.8812 3.44007 13.2225 3.92118 13.5649 4.40334C13.6464 4.51709 13.6693 4.70181 13.8593 4.71642C14.0942 3.96397 14.0086 3.59557 13.3457 3.14369C12.7549 2.74189 12.259 2.29105 11.9887 1.61582C11.8738 1.32778 11.6076 1.19837 11.3321 1.15872C9.59502 0.931208 7.93314 1.1201 6.49569 2.22739C5.84535 2.72937 5.45598 3.41607 5.39125 4.43047ZM13.6746 13.2919C13.353 13.1604 13.2319 13.3764 13.0879 13.5006C12.2402 14.2478 11.3971 14.9999 10.5585 15.7569C9.785 16.4613 9.79127 16.4613 9.01565 15.7308C8.22125 14.9773 7.42058 14.2301 6.62618 13.4776C6.42784 13.2898 6.23368 13.127 5.92468 13.2929C5.9413 13.3585 5.96402 13.4225 5.99254 13.4839C6.60635 14.5129 7.22955 15.5377 7.83501 16.572C7.9655 16.7943 8.13878 16.8193 8.35696 16.8172C9.05219 16.8172 9.75682 16.7452 10.4447 16.8329C11.3185 16.9456 11.8018 16.6022 12.1849 15.8446C12.6202 14.9669 13.1683 14.1476 13.6746 13.2919ZM8.14192 19.5818C8.14192 20.1203 8.1534 20.6577 8.14192 21.1952C8.13461 21.4634 8.22647 21.5667 8.49788 21.5636C9.333 21.5521 10.1681 21.549 10.997 21.5636C11.3227 21.5699 11.4145 21.4394 11.4145 21.1326C11.4013 20.089 11.4013 19.0478 11.4145 18.009C11.4145 17.6897 11.3101 17.5853 10.997 17.5916C10.1817 17.6072 9.36536 17.6104 8.55008 17.5916C8.21812 17.5843 8.13774 17.7179 8.14922 18.0216C8.16279 18.5402 8.14818 19.062 8.14818 19.5818H8.14192ZM11.4918 13.6623C11.3274 13.3354 11.2214 12.9822 11.1786 12.6187C11.1535 12.2994 11.0325 12.3056 10.7819 12.3808C10.1643 12.57 9.50863 12.5987 8.87682 12.4643C8.17636 12.3276 8.17532 12.3255 7.9989 13.0257C7.93522 13.2793 7.75881 13.5204 8.0584 13.7771C8.57096 14.2165 9.05532 14.6924 9.54073 15.1631C9.70671 15.3238 9.83407 15.3624 10.0209 15.1881C10.4531 14.7874 10.902 14.4044 11.3415 14.0109C11.4396 13.9337 11.5544 13.8627 11.498 13.6623H11.4918Z" fill="#FA8B02" stroke="#FA8B02" stroke-width="0.5"/>
<path d="M17.1747 6.67737V1.46552C17.1747 1.41334 17.1747 1.36116 17.1747 1.30898C17.1852 1.03973 17.2624 0.81013 17.585 0.82161C17.8721 0.832046 17.9879 1.05016 17.9451 1.29333C17.8491 1.85166 18.1643 2.12822 18.5631 2.42983C20.2563 3.70514 21.9276 5.00966 23.6041 6.30793C23.8045 6.46239 24.0864 6.60119 23.9747 6.92367C23.863 7.24615 23.5696 7.1971 23.3087 7.1971H19.1915C17.9577 7.1971 17.9577 7.19709 17.9577 8.45779C17.9577 9.60438 17.9577 10.7524 17.9577 11.9017C17.9577 12.1846 17.9764 12.5175 17.5902 12.5279C17.1622 12.5436 17.1726 12.1908 17.1726 11.8903C17.1726 10.153 17.1733 8.41535 17.1747 6.67737ZM22.3149 6.29332C20.9505 5.24344 19.6007 4.19773 18.2374 3.15619C17.9712 2.94747 17.9618 3.15619 17.9618 3.34822C17.9618 4.21756 17.9775 5.08794 17.9535 5.95727C17.9441 6.33506 18.0913 6.42795 18.441 6.42273C19.5893 6.40707 20.7375 6.42273 21.8858 6.41438C22.0142 6.41334 22.1614 6.46239 22.3149 6.29332Z" fill="#FA8B02" stroke="#FA8B02" stroke-width="0.5"/>
<path d="M9.80111 18.0476C10.0276 18.0476 10.2542 18.0371 10.4796 18.0476C10.5281 18.0456 10.5765 18.0535 10.6218 18.0707C10.6671 18.0879 10.7085 18.1141 10.7434 18.1478C10.7784 18.1814 10.8061 18.2218 10.825 18.2665C10.8439 18.3111 10.8535 18.3591 10.8534 18.4076C10.8603 18.4558 10.8567 18.505 10.8429 18.5517C10.8291 18.5984 10.8054 18.6416 10.7734 18.6784C10.7414 18.7151 10.7019 18.7445 10.6575 18.7646C10.6131 18.7847 10.5649 18.795 10.5162 18.7948C10.0308 18.8126 9.54327 18.8105 9.05473 18.7948C9.00599 18.796 8.95757 18.7867 8.9127 18.7677C8.86783 18.7486 8.82754 18.7202 8.79453 18.6844C8.76152 18.6485 8.73656 18.606 8.7213 18.5597C8.70605 18.5134 8.70085 18.4644 8.70607 18.416C8.70389 18.3675 8.71175 18.319 8.72917 18.2737C8.74659 18.2283 8.77318 18.1871 8.80728 18.1525C8.84138 18.1179 8.88226 18.0908 8.92736 18.0727C8.97245 18.0546 9.02079 18.0461 9.06934 18.0476C9.31466 18.0382 9.55788 18.0486 9.80111 18.0476Z" fill="#FA8B02" stroke="#FA8B02" stroke-width="0.2"/>
<path d="M9.79994 19.946C9.55672 19.946 9.31349 19.9554 9.06922 19.946C9.02075 19.9475 8.9725 19.9389 8.92751 19.9209C8.88252 19.9028 8.84177 19.8756 8.80783 19.8409C8.77389 19.8063 8.7475 19.7651 8.73032 19.7197C8.71314 19.6744 8.70555 19.626 8.70803 19.5776C8.7028 19.5292 8.70799 19.4802 8.72325 19.434C8.73852 19.3877 8.7635 19.3453 8.79653 19.3095C8.82955 19.2737 8.86986 19.2454 8.91473 19.2265C8.9596 19.2076 9.00801 19.1985 9.05669 19.1998C9.52575 19.1873 9.9948 19.1873 10.4639 19.1998C10.7071 19.205 10.8595 19.3438 10.8511 19.5953C10.8428 19.8197 10.6946 19.9397 10.4764 19.9512C10.2582 19.9627 10.0265 19.947 9.79994 19.946Z" fill="#FA8B02" stroke="#FA8B02" stroke-width="0.2"/>
<path d="M9.76126 21.0887C9.53682 21.0887 9.31134 21.0887 9.08586 21.0887C9.03769 21.092 8.98936 21.0853 8.94391 21.0691C8.89845 21.0528 8.85686 21.0273 8.82175 20.9941C8.78665 20.961 8.75878 20.921 8.73992 20.8765C8.72106 20.8321 8.7116 20.7842 8.71215 20.736C8.70451 20.6881 8.70747 20.639 8.72083 20.5924C8.73419 20.5457 8.75762 20.5026 8.78947 20.466C8.82132 20.4293 8.86081 20.4002 8.90517 20.3805C8.94952 20.3608 8.99766 20.351 9.04619 20.3519C9.53056 20.3384 10.017 20.3394 10.5014 20.3519C10.5498 20.3497 10.5982 20.358 10.6432 20.3762C10.6881 20.3943 10.7287 20.422 10.762 20.4573C10.7953 20.4926 10.8205 20.5346 10.8361 20.5805C10.8517 20.6265 10.8571 20.6752 10.8521 20.7234C10.8543 20.7716 10.8465 20.8198 10.8291 20.8648C10.8117 20.9098 10.7851 20.9506 10.751 20.9848C10.717 21.019 10.6761 21.0457 10.6312 21.0632C10.5862 21.0807 10.5381 21.0887 10.4899 21.0866C10.2477 21.0992 10.0045 21.0866 9.75917 21.0866L9.76126 21.0887Z" fill="#FA8B02" stroke="#FA8B02" stroke-width="0.2"/>
</g>
<defs>
<clipPath id="clip0_201_13369">
<rect width="24" height="24" fill="white"/>
</clipPath>
</defs>
</svg>
