<svg width="51" height="50" viewBox="0 0 51 50" fill="none" xmlns="http://www.w3.org/2000/svg">
<path fill-rule="evenodd" clip-rule="evenodd" d="M3.9248 25C3.9248 12.9199 13.7197 3.125 25.7998 3.125C37.8799 3.125 47.6748 12.9199 47.6748 25C47.6748 37.0801 37.8799 46.875 25.7998 46.875C13.7197 46.875 3.9248 37.0801 3.9248 25ZM25.7998 14C22.8118 14 22.4378 14.012 21.2648 14.066H21.2638C20.0938 14.12 19.2938 14.306 18.5938 14.577C17.8603 14.8534 17.1958 15.2865 16.6468 15.846C16.0869 16.3953 15.6535 17.0601 15.3768 17.794C15.1058 18.494 14.9188 19.294 14.8658 20.466C14.8128 21.638 14.7998 22.012 14.7998 25C14.7998 27.987 14.8118 28.361 14.8658 29.536C14.9198 30.706 15.1058 31.506 15.3768 32.206C15.6531 32.9399 16.0862 33.6047 16.6458 34.154C17.1956 34.7133 17.8607 35.146 18.5948 35.422C19.2948 35.694 20.0948 35.881 21.2648 35.934C22.4378 35.987 22.8118 36 25.7998 36C28.7878 36 29.1618 35.988 30.3358 35.934C31.5058 35.88 32.3058 35.694 33.0058 35.422C33.7388 35.146 34.4038 34.714 34.9538 34.154C35.5131 33.6042 35.9458 32.9391 36.2218 32.205C36.4938 31.505 36.6808 30.705 36.7338 29.535C36.7868 28.362 36.7998 27.988 36.7998 25C36.7998 22.013 36.7878 21.639 36.7338 20.464C36.6798 19.294 36.4938 18.494 36.2218 17.794C35.9458 17.06 35.5138 16.396 34.9538 15.847C34.4038 15.287 33.7388 14.854 33.0058 14.577C32.3058 14.306 31.5058 14.119 30.3338 14.066C29.1618 14.013 28.7878 14 25.7998 14ZM25.7998 15.982C28.7368 15.982 29.0848 15.993 30.2448 16.046C31.3178 16.095 31.8998 16.274 32.2878 16.425C32.7655 16.6012 33.1977 16.8821 33.5528 17.247C33.9378 17.632 34.1748 17.999 34.3748 18.512C34.5258 18.9 34.7048 19.482 34.7538 20.555C34.8068 21.715 34.8178 22.063 34.8178 25C34.8178 27.937 34.8068 28.285 34.7538 29.445C34.7048 30.518 34.5258 31.1 34.3748 31.488C34.1988 31.965 33.9178 32.398 33.5528 32.753C33.1678 33.138 32.8008 33.375 32.2878 33.575C31.8998 33.726 31.3178 33.905 30.2448 33.954C29.0848 34.007 28.7378 34.018 25.7998 34.018C22.8618 34.018 22.5148 34.007 21.3548 33.954C20.2818 33.905 19.6998 33.726 19.3118 33.575C18.8348 33.399 18.4018 33.118 18.0468 32.753C17.6818 32.398 17.4008 31.965 17.2248 31.488C17.0738 31.1 16.8948 30.518 16.8458 29.445C16.7928 28.285 16.7818 27.937 16.7818 25C16.7818 22.063 16.7928 21.715 16.8458 20.555C16.8948 19.482 17.0738 18.9 17.2248 18.512C17.401 18.0343 17.6818 17.6021 18.0468 17.247C18.4318 16.862 18.7988 16.625 19.3118 16.425C19.6998 16.274 20.2818 16.095 21.3548 16.046C22.5148 15.993 22.8628 15.982 25.7998 15.982ZM26.8667 28.5157C26.0532 28.7617 25.1795 28.7176 24.3948 28.391C23.8936 28.1832 23.4448 27.8668 23.0805 27.4647C22.7163 27.0626 22.4457 26.5847 22.2883 26.0655C22.131 25.5463 22.0906 24.9986 22.1703 24.462C22.25 23.9253 22.4477 23.413 22.7491 22.9619C23.0505 22.5107 23.4483 22.1321 23.9136 21.8531C24.379 21.5742 24.9004 21.4019 25.4403 21.3486C25.9802 21.2954 26.5253 21.3625 27.0361 21.5451C27.547 21.7278 28.011 22.0215 28.3948 22.405C28.9968 23.005 29.3718 23.7953 29.4559 24.6411C29.5399 25.4869 29.3276 26.3356 28.8554 27.0422C28.3832 27.7489 27.6803 28.2697 26.8667 28.5157ZM23.6361 19.7764C22.9501 20.0605 22.3268 20.477 21.8018 21.002C20.7415 22.0623 20.1458 23.5005 20.1458 25C20.1458 26.4995 20.7415 27.9377 21.8018 28.998C22.8621 30.0583 24.3003 30.654 25.7998 30.654C27.2993 30.654 28.7375 30.0583 29.7978 28.998C30.3228 28.473 30.7393 27.8497 31.0234 27.1637C31.3076 26.4777 31.4538 25.7425 31.4538 25C31.4538 24.2575 31.3076 23.5223 31.0234 22.8363C30.7393 22.1503 30.3228 21.527 29.7978 21.002C29.2728 20.477 28.6495 20.0605 27.9635 19.7764C27.2775 19.4922 26.5423 19.346 25.7998 19.346C25.0573 19.346 24.3221 19.4922 23.6361 19.7764ZM33.0141 19.754C32.9421 19.9177 32.8379 20.0653 32.7078 20.188C32.4548 20.4267 32.1187 20.5574 31.7709 20.5523C31.4231 20.5472 31.0909 20.4068 30.845 20.1608C30.599 19.9149 30.4586 19.5827 30.4535 19.2349C30.4484 18.8871 30.5791 18.551 30.8178 18.298C30.9405 18.1679 31.0881 18.0637 31.2518 17.9917C31.4155 17.9197 31.592 17.8812 31.7709 17.8786C31.9497 17.876 32.1273 17.9093 32.293 17.9765C32.4587 18.0438 32.6093 18.1436 32.7358 18.27C32.8622 18.3965 32.962 18.5471 33.0293 18.7128C33.0965 18.8785 33.1298 19.0561 33.1272 19.2349C33.1246 19.4138 33.0862 19.5903 33.0141 19.754Z" fill="#FA8B02"/>
</svg>
