<svg width="24" height="24" viewBox="0 0 24 24" fill="none" xmlns="http://www.w3.org/2000/svg">
<g clip-path="url(#clip0_201_13378)">
<path d="M23.9975 14.1652C23.9975 16.6505 23.9975 19.1361 23.9975 21.6219C23.9975 23.1459 23.1493 23.9967 21.6302 23.9975C17.9784 23.9975 14.3263 23.9975 10.6739 23.9975C9.27403 23.9975 8.47995 23.2917 8.3108 21.9052C8.23331 21.2728 8.14415 20.6412 8.08582 20.0062C8.05916 19.6938 7.86001 19.7496 7.6742 19.7496C5.93883 19.7496 4.2029 19.7496 2.46641 19.7496C0.843246 19.7479 0 18.9147 0 17.294V2.42225C0 0.838246 0.833246 0 2.40558 0H9.07156C10.5522 0 11.3821 0.779085 11.508 2.2606C11.5546 2.81304 11.6521 3.36048 11.7013 3.91293C11.7271 4.19706 11.8479 4.25706 12.1179 4.25622C15.2559 4.24539 18.3939 4.24872 21.5336 4.24956C23.1576 4.24956 23.9975 5.0903 23.9975 6.71013C23.9975 9.19599 23.9975 11.681 23.9975 14.1652ZM10.7589 22.5593C10.8972 22.5718 10.9505 22.581 11.0039 22.581C14.5996 22.581 18.195 22.581 21.7902 22.581C22.3602 22.581 22.5801 22.331 22.581 21.7094C22.581 16.6544 22.581 11.6016 22.581 6.55098C22.581 5.91605 22.3368 5.66608 21.7019 5.66608C18.5639 5.66608 15.4267 5.66608 12.2862 5.66024C12.0021 5.66024 11.9121 5.70357 11.9529 6.02604C12.2029 7.87835 12.4304 9.73482 12.6612 11.5896C12.9503 13.9135 13.222 16.2391 13.5319 18.5597C13.5969 19.0447 13.5011 19.4071 13.1753 19.7688C12.3737 20.6645 11.598 21.5894 10.7589 22.5593ZM1.41652 9.87314C1.41652 12.414 1.41652 14.9551 1.41652 17.4965C1.41652 18.0406 1.66649 18.3298 2.17561 18.3298C5.38361 18.3364 8.5916 18.3298 11.7996 18.3373C12.0229 18.3373 12.0854 18.2731 12.0537 18.0498C11.9638 17.404 11.8979 16.7558 11.8154 16.11C11.5446 13.9935 11.2647 11.8779 10.9997 9.76148C10.6856 7.24425 10.3839 4.72617 10.0748 2.20894C10.0031 1.62566 9.76398 1.42152 9.16571 1.42069C6.88817 1.42069 4.61063 1.42069 2.33309 1.42069C1.6215 1.42069 1.41652 1.62566 1.41652 2.33726C1.41652 4.84699 1.41652 7.35895 1.41652 9.87314ZM11.3247 19.7479C10.7097 19.7479 10.2031 19.7479 9.69732 19.7479C9.53067 19.7479 9.47151 19.8071 9.49151 19.9679C9.55734 20.4912 9.61983 21.0145 9.69482 21.6344L11.3247 19.7479Z" fill="#FA8B02"/>
<path d="M15.7597 10.5823C15.8564 10.5823 15.9538 10.5823 16.0513 10.5823C16.3146 10.5823 16.6279 10.6656 16.8279 10.5473C17.0279 10.429 16.8829 10.089 16.9179 9.84903C16.9746 9.46657 17.2995 9.1616 17.6445 9.17577C17.9895 9.18993 18.2794 9.4824 18.3278 9.84903C18.3586 10.0798 18.2236 10.3931 18.3903 10.5248C18.5977 10.6914 18.9227 10.5723 19.1968 10.5798C19.5718 10.5906 19.9468 10.5798 20.3217 10.5848C20.7892 10.594 21.1058 10.8531 21.1466 11.2447C21.1833 11.6005 20.9108 11.923 20.465 11.9896C20.3978 11.9927 20.3336 12.0183 20.2827 12.0623C20.2317 12.1062 20.1971 12.1661 20.1842 12.2321C19.8767 13.1843 19.3965 14.0718 18.7677 14.8502C18.6119 15.0443 18.6602 15.1526 18.8319 15.2868C19.2368 15.6026 19.6318 15.9309 20.0309 16.2534C20.455 16.5958 20.5484 17.0316 20.2692 17.3666C19.9901 17.7015 19.5751 17.6999 19.1627 17.3666C18.7077 17.0025 18.2561 16.6342 17.8136 16.255C17.6687 16.13 17.5753 16.13 17.4304 16.255C16.9879 16.635 16.5363 17.005 16.0813 17.3666C15.6647 17.6999 15.2481 17.6899 14.9748 17.3624C14.7015 17.0349 14.7898 16.5925 15.2139 16.25C15.613 15.9276 16.008 15.5993 16.413 15.2835C16.5854 15.1493 16.6321 15.0402 16.4763 14.8468C15.8467 14.0693 15.3677 13.1812 15.0639 12.2279C15.0089 12.0546 14.9156 12.008 14.739 11.9838C14.5646 11.9655 14.4029 11.8841 14.2844 11.7549C14.1659 11.6256 14.0988 11.4575 14.0957 11.2822C14.104 10.9123 14.419 10.6065 14.8415 10.584C15.1464 10.5681 15.4522 10.584 15.758 10.584L15.7597 10.5823ZM16.4813 11.9988C16.7212 12.6524 17.051 13.2694 17.4612 13.8319C17.5878 14.0103 17.6678 13.9986 17.7887 13.8319C18.1416 13.3378 18.4402 12.807 18.6794 12.2488C18.7744 12.0238 18.6944 11.9988 18.4944 11.9988C17.8445 12.0038 17.1937 11.9988 16.4813 11.9988Z" fill="#FA8B02"/>
<path d="M6.40766 4.98365C7.65753 4.98365 7.6667 5.00032 7.90751 6.22602C8.31496 8.27498 8.73409 10.3214 9.13988 12.3696C9.2032 12.687 9.2232 13.0136 8.92073 13.2445C8.69492 13.4169 8.45078 13.4653 8.18164 13.3344C7.91251 13.2036 7.81168 12.9737 7.75919 12.7053C7.64253 12.1079 7.52088 11.5113 7.41422 10.9122C7.37173 10.6697 7.27424 10.5622 7.00593 10.5789C6.57635 10.6043 6.14565 10.6043 5.71607 10.5789C5.45859 10.5639 5.3761 10.6806 5.33527 10.8964C5.22445 11.4796 5.10363 12.0629 4.99364 12.6462C4.89532 13.1695 4.57702 13.4678 4.17873 13.4053C3.72544 13.3361 3.48963 12.9345 3.59546 12.387C3.93625 10.6914 4.28372 8.9974 4.62701 7.30425C4.73367 6.77513 4.82533 6.24352 4.93948 5.71608C5.06613 5.1328 5.25861 4.98949 5.85605 4.98532C6.04687 4.98282 6.22768 4.98365 6.40766 4.98365ZM6.35267 9.16572C6.42183 9.16572 6.49099 9.16572 6.56015 9.16572C7.07343 9.16572 7.06009 9.16572 6.95177 8.64244C6.81512 7.99501 6.7018 7.34174 6.57098 6.69348C6.54598 6.57349 6.55431 6.38101 6.35767 6.39767C6.20185 6.41017 6.20268 6.57682 6.17935 6.69014C6.0577 7.29841 5.94521 7.90835 5.83189 8.52328C5.7119 9.16572 5.71357 9.16572 6.35267 9.16572Z" fill="#FA8B02"/>
</g>
<defs>
<clipPath id="clip0_201_13378">
<rect width="24" height="24" fill="white"/>
</clipPath>
</defs>
</svg>
