<svg width="24" height="24" viewBox="0 0 24 24" fill="none" xmlns="http://www.w3.org/2000/svg">
<path d="M12.3811 14.4466L12.3813 14.4465L20.2504 9.81557V17.4C20.2504 17.8377 20.0766 18.2573 19.7671 18.5668C19.4577 18.8762 19.038 19.05 18.6004 19.05H5.40039C4.96278 19.05 4.5431 18.8762 4.23366 18.5668C3.92423 18.2573 3.75039 17.8377 3.75039 17.4V9.8179L11.6195 14.4465L11.6259 14.4503L11.6325 14.4533L11.7309 14.4989L11.7307 14.4994L11.7421 14.5036C11.8462 14.542 11.9575 14.5567 12.068 14.5469C12.1785 14.537 12.2855 14.5028 12.3811 14.4466ZM20.8278 5.57266C20.237 4.98192 19.4358 4.65005 18.6004 4.65005H5.40039C4.56496 4.65005 3.76374 4.98192 3.173 5.57266C2.58226 6.1634 2.25039 6.96462 2.25039 7.80005V17.4C2.25039 18.2355 2.58226 19.0367 3.173 19.6274C3.76374 20.2182 4.56496 20.55 5.40039 20.55H18.6004C19.4358 20.55 20.237 20.2182 20.8278 19.6274C21.4185 19.0367 21.7504 18.2355 21.7504 17.4V7.80005C21.7504 6.96462 21.4185 6.1634 20.8278 5.57266ZM5.40039 6.15005H18.6004C19.038 6.15005 19.4577 6.32389 19.7671 6.63332C20.0766 6.94276 20.2504 7.36244 20.2504 7.80005V8.07428L12.0004 12.93L3.75039 8.07666V7.80005C3.75039 7.36244 3.92423 6.94276 4.23366 6.63332C4.5431 6.32389 4.96278 6.15005 5.40039 6.15005Z" fill="#FA8B02" stroke="#FA8B02" stroke-width="0.3"/>
</svg>
