<svg width="25" height="24" viewBox="0 0 25 24" fill="none" xmlns="http://www.w3.org/2000/svg">
<path d="M12.5998 23C11.0563 21.6835 9.62571 20.2402 8.32284 18.6852C6.36767 16.35 4.0459 12.8722 4.0459 9.55818C4.04505 7.86568 4.54631 6.21097 5.48624 4.80347C6.42618 3.39596 7.76253 2.29893 9.32618 1.6512C10.8898 1.00348 12.6105 0.834177 14.2704 1.16473C15.9303 1.49527 17.4548 2.31081 18.6511 3.50813C19.4475 4.30103 20.0788 5.24401 20.5083 6.28249C20.9379 7.32098 21.1573 8.43435 21.1537 9.55818C21.1537 12.8722 18.8319 16.35 16.8767 18.6852C15.5739 20.2402 14.1432 21.6835 12.5998 23ZM12.5998 5.89222C11.6275 5.89222 10.6951 6.27846 10.0076 6.96596C9.32007 7.65346 8.93384 8.58591 8.93384 9.55818C8.93384 10.5304 9.32007 11.4629 10.0076 12.1504C10.6951 12.8379 11.6275 13.2241 12.5998 13.2241C13.5721 13.2241 14.5045 12.8379 15.192 12.1504C15.8795 11.4629 16.2657 10.5304 16.2657 9.55818C16.2657 8.58591 15.8795 7.65346 15.192 6.96596C14.5045 6.27846 13.5721 5.89222 12.5998 5.89222Z" fill="#FA8B02"/>
</svg>
