<svg width="24" height="25" viewBox="0 0 24 25" fill="none" xmlns="http://www.w3.org/2000/svg">
<g opacity="0.8" clip-path="url(#clip0_201_23882)">
<path d="M4.66732 4.50008H15.334V11.0334H16.6673V4.50008C16.6673 4.14646 16.5268 3.80732 16.2768 3.55727C16.0267 3.30722 15.6876 3.16675 15.334 3.16675H4.66732C4.3137 3.16675 3.97456 3.30722 3.72451 3.55727C3.47446 3.80732 3.33398 4.14646 3.33398 4.50008V20.5001C3.33398 20.8537 3.47446 21.1928 3.72451 21.4429C3.97456 21.6929 4.3137 21.8334 4.66732 21.8334H15.334C15.6876 21.8334 16.0267 21.6929 16.2768 21.4429C16.5268 21.1928 16.6673 20.8537 16.6673 20.5001H4.66732V4.50008Z" fill="#333333"/>
<path d="M18.7739 12.0199C18.6464 11.9107 18.4823 11.8536 18.3145 11.8601C18.1468 11.8666 17.9876 11.9362 17.8689 12.0549C17.7501 12.1736 17.6806 12.3328 17.6741 12.5006C17.6676 12.6683 17.7247 12.8324 17.8339 12.9599L20.0872 15.1666H10.4206C10.2438 15.1666 10.0742 15.2368 9.94917 15.3619C9.82414 15.4869 9.75391 15.6564 9.75391 15.8333C9.75391 16.0101 9.82414 16.1796 9.94917 16.3047C10.0742 16.4297 10.2438 16.4999 10.4206 16.4999H20.0872L17.8339 18.8066C17.7641 18.8664 17.7074 18.9399 17.6674 19.0226C17.6274 19.1053 17.6049 19.1954 17.6014 19.2872C17.5978 19.379 17.6133 19.4706 17.6468 19.5561C17.6803 19.6417 17.7312 19.7194 17.7961 19.7844C17.8611 19.8493 17.9388 19.9002 18.0244 19.9337C18.1099 19.9672 18.2015 19.9827 18.2933 19.9791C18.3851 19.9756 18.4752 19.9531 18.5579 19.9131C18.6406 19.8731 18.7141 19.8164 18.7739 19.7466L22.6672 15.8799L18.7739 12.0199Z" fill="#333333"/>
</g>
<defs>
<clipPath id="clip0_201_23882">
<rect width="24" height="24" fill="white" transform="translate(0 0.5)"/>
</clipPath>
</defs>
</svg>
