<svg width="25" height="24" viewBox="0 0 25 24" fill="none" xmlns="http://www.w3.org/2000/svg">
<path d="M4.76628 2.83301C3.79382 2.83301 2.86118 3.21932 2.17355 3.90695C1.48592 4.59458 1.09961 5.52721 1.09961 6.49967V6.86818L12.0996 12.7917L23.0996 6.87001V6.49967C23.0996 5.52721 22.7133 4.59458 22.0257 3.90695C21.338 3.21932 20.4054 2.83301 19.4329 2.83301H4.76628ZM23.0996 8.95084L12.5341 14.6397C12.4006 14.7116 12.2513 14.7492 12.0996 14.7492C11.9479 14.7492 11.7987 14.7116 11.6651 14.6397L1.09961 8.95084V17.4997C1.09961 18.4721 1.48592 19.4048 2.17355 20.0924C2.86118 20.78 3.79382 21.1663 4.76628 21.1663H19.4329C20.4054 21.1663 21.338 20.78 22.0257 20.0924C22.7133 19.4048 23.0996 18.4721 23.0996 17.4997V8.95084Z" fill="#FA8B02"/>
</svg>
