<svg width="24" height="25" viewBox="0 0 24 25" fill="none" xmlns="http://www.w3.org/2000/svg">
<g opacity="0.8" clip-path="url(#clip0_201_1908)">
<mask id="path-1-outside-1_201_1908" maskUnits="userSpaceOnUse" x="-1" y="2.73511" width="26" height="19" fill="black">
<rect fill="white" x="-1" y="2.73511" width="26" height="19"/>
<path d="M12.0058 21.2618C8.25794 21.2618 4.50975 21.2618 0.761204 21.2618C0.0126166 21.2618 0 21.2481 0 20.4964V6.20381C0 5.48781 0.0178736 5.46784 0.735971 5.46784C5.20226 5.46784 9.6689 5.46994 14.1359 5.47415C14.4955 5.47415 14.7394 5.39003 14.977 5.0967C15.3301 4.67071 15.7728 4.32782 16.2735 4.09247C16.7743 3.85713 17.3208 3.73511 17.8741 3.73511C18.4274 3.73511 18.9739 3.85713 19.4747 4.09247C19.9754 4.32782 20.4181 4.67071 20.7712 5.0967C20.9962 5.36901 21.2149 5.48992 21.5639 5.47625C22.1948 5.45312 22.8256 5.47625 23.4564 5.46784C23.8223 5.46153 24 5.58875 24 5.98512C23.993 10.9077 23.993 15.8296 24 20.7508C24 21.2491 23.7109 21.266 23.3481 21.2649C20.7898 21.2607 18.2314 21.2607 15.673 21.2649L12.0058 21.2618ZM14.896 10.5229C14.9129 10.4241 14.9244 10.403 14.9181 10.3904C14.8487 10.2495 14.7762 10.1108 14.7078 9.96987C14.1822 8.90587 13.9014 7.79561 14.2095 6.61805C14.3251 6.17647 14.1822 6.12811 13.7994 6.13021C11.3841 6.14283 8.96833 6.14283 6.55224 6.13021C6.14325 6.13021 6.01498 6.23535 6.01814 6.6559C6.03706 9.29909 6.02655 11.9433 6.03075 14.5865C6.03075 14.7158 5.97188 14.8683 6.11697 14.9766C6.34091 14.8998 6.486 14.7179 6.65317 14.5697C8.05467 13.327 9.46248 12.0863 10.8482 10.831C10.9595 10.7238 11.0915 10.6405 11.2361 10.5863C11.3808 10.532 11.535 10.508 11.6893 10.5155C12.7586 10.5355 13.8257 10.5229 14.896 10.5229ZM0.647654 10.8383C0.647654 12.2556 0.656065 13.6771 0.640294 15.0901C0.640294 15.4245 0.721251 15.5506 1.07662 15.5454C2.37088 15.5265 3.66618 15.5286 4.96149 15.5454C5.28953 15.5454 5.37469 15.4402 5.37364 15.1248C5.36452 12.2728 5.36452 9.42035 5.37364 6.56759C5.37364 6.25217 5.29478 6.13442 4.9657 6.13862C3.67039 6.15334 2.37543 6.15334 1.08083 6.13862C0.735971 6.13862 0.636089 6.24902 0.640294 6.59072C0.657117 7.99852 0.647654 9.41264 0.647654 10.8341V10.8383ZM10.9681 11.6205L6.15587 15.8902C6.02129 16.0101 6.02655 16.1678 6.02655 16.3255C6.02655 17.604 6.03601 18.8814 6.02024 20.1589C6.02024 20.5069 6.13379 20.6067 6.47549 20.6025C7.82337 20.5857 9.17125 20.5826 10.5191 20.6025C10.9071 20.6089 10.9817 20.4606 10.9754 20.1136C10.9554 19.1863 10.9681 18.259 10.9681 17.3306V11.6205ZM23.3555 14.2227C23.3555 13.348 23.3471 12.4732 23.3608 11.5943C23.3608 11.3062 23.2766 11.1853 22.9749 11.1905C22.1874 11.2042 21.3978 11.2021 20.6135 11.1905C20.5097 11.1872 20.4069 11.2116 20.3156 11.2611C20.2244 11.3106 20.1479 11.3835 20.0941 11.4723C19.6137 12.1186 19.0683 12.714 18.4666 13.2491C18.3215 13.3795 18.2048 13.5067 18.2069 13.7317C18.2174 14.7831 18.2174 15.8328 18.2069 16.8806C18.2069 17.1582 18.312 17.2402 18.5738 17.2392C20.0457 17.2293 21.5152 17.2293 22.9823 17.2392C23.2903 17.2392 23.366 17.1267 23.3608 16.8407C23.3471 15.9712 23.3555 15.0964 23.3555 14.2227ZM17.9009 4.40594C17.4351 4.40306 16.9744 4.5038 16.5523 4.70084C16.1302 4.89789 15.7571 5.18632 15.4602 5.54526C15.1632 5.9042 14.9498 6.32467 14.8353 6.77624C14.7208 7.2278 14.7082 7.69917 14.7983 8.15623C15.1694 10.0435 16.3491 11.4103 17.6633 12.7045C17.8914 12.9285 18.026 12.7729 18.1837 12.6215C19.0181 11.8439 19.7334 10.9476 20.3065 9.96146C20.6783 9.32407 20.9145 8.61681 21.0004 7.88392C21.0493 7.44718 21.0056 7.00505 20.8723 6.58629C20.7389 6.16754 20.5189 5.78156 20.2265 5.45347C19.9342 5.12538 19.576 4.86254 19.1753 4.68206C18.7746 4.50157 18.3404 4.40749 17.9009 4.40594ZM13.831 11.2C13.0729 11.2 12.5693 11.2084 12.0584 11.2C11.786 11.2 11.6378 11.2631 11.6378 11.5774C11.6494 12.5563 11.6441 13.5351 11.6378 14.515C11.6378 14.7316 11.703 14.8672 11.9227 14.9503C13.6891 15.6141 15.4529 16.2852 17.2144 16.9637C17.5413 17.0899 17.5624 16.9385 17.5582 16.684C17.5497 16.1773 17.5066 15.6642 17.5655 15.1637C17.6938 14.0713 17.3258 13.2902 16.5551 12.4532C15.6898 11.5049 14.8918 10.8688 13.831 11.2ZM14.5764 20.5973C15.4344 20.5973 16.2912 20.5847 17.1481 20.5973C17.473 20.6046 17.5687 20.4921 17.5687 20.1767C17.5487 19.4944 17.5571 18.8099 17.5687 18.1297C17.5687 17.911 17.515 17.7733 17.2943 17.6902C15.5419 17.0306 13.7931 16.3648 12.0478 15.6926C11.7482 15.5769 11.642 15.6368 11.6441 15.9691C11.6546 17.3685 11.6588 18.7679 11.6441 20.1673C11.6441 20.5353 11.8018 20.6004 12.1193 20.5952C12.9321 20.5857 13.7542 20.5962 14.5764 20.5962V20.5973ZM3.01853 16.1815C2.35511 16.1815 1.69063 16.1951 1.0272 16.1752C0.726508 16.1667 0.638192 16.2687 0.641346 16.5642C0.655014 17.7869 0.652911 19.0107 0.641346 20.2335C0.641346 20.5027 0.726508 20.6025 1.00197 20.6004C2.33022 20.5906 3.65847 20.5906 4.98673 20.6004C5.28953 20.6004 5.37364 20.4953 5.37048 20.202C5.35927 18.9796 5.35927 17.7564 5.37048 16.5326C5.37048 16.2551 5.28006 16.1699 5.00881 16.1752C4.34748 16.1909 3.67985 16.1804 3.01853 16.1804V16.1815ZM20.727 20.5973C21.4798 20.5973 22.2326 20.591 22.9844 20.5973C23.243 20.5973 23.3671 20.53 23.3608 20.244C23.345 19.5795 23.3471 18.914 23.3608 18.2464C23.3608 17.9741 23.2693 17.8805 22.997 17.8816C21.525 17.8914 20.0552 17.8914 18.5875 17.8816C18.3299 17.8816 18.2016 17.9488 18.2079 18.2348C18.2219 18.8993 18.2219 19.5652 18.2079 20.2325C18.2079 20.5069 18.3131 20.6004 18.577 20.5962C19.2929 20.5878 20.01 20.5952 20.727 20.5952V20.5973ZM23.3555 8.33497V7.599C23.3555 6.02192 23.3555 6.02192 21.7784 6.13652C21.7427 6.13652 21.708 6.13652 21.6733 6.13652C21.5187 6.13652 21.4462 6.19645 21.4988 6.36572C21.9193 7.73252 21.5671 8.99419 20.9194 10.2012C20.7649 10.4903 20.9016 10.5229 21.1444 10.5166C21.7574 10.5166 22.3704 10.5008 22.9833 10.5166C23.2987 10.5271 23.3608 10.3841 23.3545 10.1076C23.346 9.52409 23.3566 8.929 23.3566 8.33286L23.3555 8.33497Z"/>
</mask>
<path d="M12.0058 21.2618C8.25794 21.2618 4.50975 21.2618 0.761204 21.2618C0.0126166 21.2618 0 21.2481 0 20.4964V6.20381C0 5.48781 0.0178736 5.46784 0.735971 5.46784C5.20226 5.46784 9.6689 5.46994 14.1359 5.47415C14.4955 5.47415 14.7394 5.39003 14.977 5.0967C15.3301 4.67071 15.7728 4.32782 16.2735 4.09247C16.7743 3.85713 17.3208 3.73511 17.8741 3.73511C18.4274 3.73511 18.9739 3.85713 19.4747 4.09247C19.9754 4.32782 20.4181 4.67071 20.7712 5.0967C20.9962 5.36901 21.2149 5.48992 21.5639 5.47625C22.1948 5.45312 22.8256 5.47625 23.4564 5.46784C23.8223 5.46153 24 5.58875 24 5.98512C23.993 10.9077 23.993 15.8296 24 20.7508C24 21.2491 23.7109 21.266 23.3481 21.2649C20.7898 21.2607 18.2314 21.2607 15.673 21.2649L12.0058 21.2618ZM14.896 10.5229C14.9129 10.4241 14.9244 10.403 14.9181 10.3904C14.8487 10.2495 14.7762 10.1108 14.7078 9.96987C14.1822 8.90587 13.9014 7.79561 14.2095 6.61805C14.3251 6.17647 14.1822 6.12811 13.7994 6.13021C11.3841 6.14283 8.96833 6.14283 6.55224 6.13021C6.14325 6.13021 6.01498 6.23535 6.01814 6.6559C6.03706 9.29909 6.02655 11.9433 6.03075 14.5865C6.03075 14.7158 5.97188 14.8683 6.11697 14.9766C6.34091 14.8998 6.486 14.7179 6.65317 14.5697C8.05467 13.327 9.46248 12.0863 10.8482 10.831C10.9595 10.7238 11.0915 10.6405 11.2361 10.5863C11.3808 10.532 11.535 10.508 11.6893 10.5155C12.7586 10.5355 13.8257 10.5229 14.896 10.5229ZM0.647654 10.8383C0.647654 12.2556 0.656065 13.6771 0.640294 15.0901C0.640294 15.4245 0.721251 15.5506 1.07662 15.5454C2.37088 15.5265 3.66618 15.5286 4.96149 15.5454C5.28953 15.5454 5.37469 15.4402 5.37364 15.1248C5.36452 12.2728 5.36452 9.42035 5.37364 6.56759C5.37364 6.25217 5.29478 6.13442 4.9657 6.13862C3.67039 6.15334 2.37543 6.15334 1.08083 6.13862C0.735971 6.13862 0.636089 6.24902 0.640294 6.59072C0.657117 7.99852 0.647654 9.41264 0.647654 10.8341V10.8383ZM10.9681 11.6205L6.15587 15.8902C6.02129 16.0101 6.02655 16.1678 6.02655 16.3255C6.02655 17.604 6.03601 18.8814 6.02024 20.1589C6.02024 20.5069 6.13379 20.6067 6.47549 20.6025C7.82337 20.5857 9.17125 20.5826 10.5191 20.6025C10.9071 20.6089 10.9817 20.4606 10.9754 20.1136C10.9554 19.1863 10.9681 18.259 10.9681 17.3306V11.6205ZM23.3555 14.2227C23.3555 13.348 23.3471 12.4732 23.3608 11.5943C23.3608 11.3062 23.2766 11.1853 22.9749 11.1905C22.1874 11.2042 21.3978 11.2021 20.6135 11.1905C20.5097 11.1872 20.4069 11.2116 20.3156 11.2611C20.2244 11.3106 20.1479 11.3835 20.0941 11.4723C19.6137 12.1186 19.0683 12.714 18.4666 13.2491C18.3215 13.3795 18.2048 13.5067 18.2069 13.7317C18.2174 14.7831 18.2174 15.8328 18.2069 16.8806C18.2069 17.1582 18.312 17.2402 18.5738 17.2392C20.0457 17.2293 21.5152 17.2293 22.9823 17.2392C23.2903 17.2392 23.366 17.1267 23.3608 16.8407C23.3471 15.9712 23.3555 15.0964 23.3555 14.2227ZM17.9009 4.40594C17.4351 4.40306 16.9744 4.5038 16.5523 4.70084C16.1302 4.89789 15.7571 5.18632 15.4602 5.54526C15.1632 5.9042 14.9498 6.32467 14.8353 6.77624C14.7208 7.2278 14.7082 7.69917 14.7983 8.15623C15.1694 10.0435 16.3491 11.4103 17.6633 12.7045C17.8914 12.9285 18.026 12.7729 18.1837 12.6215C19.0181 11.8439 19.7334 10.9476 20.3065 9.96146C20.6783 9.32407 20.9145 8.61681 21.0004 7.88392C21.0493 7.44718 21.0056 7.00505 20.8723 6.58629C20.7389 6.16754 20.5189 5.78156 20.2265 5.45347C19.9342 5.12538 19.576 4.86254 19.1753 4.68206C18.7746 4.50157 18.3404 4.40749 17.9009 4.40594ZM13.831 11.2C13.0729 11.2 12.5693 11.2084 12.0584 11.2C11.786 11.2 11.6378 11.2631 11.6378 11.5774C11.6494 12.5563 11.6441 13.5351 11.6378 14.515C11.6378 14.7316 11.703 14.8672 11.9227 14.9503C13.6891 15.6141 15.4529 16.2852 17.2144 16.9637C17.5413 17.0899 17.5624 16.9385 17.5582 16.684C17.5497 16.1773 17.5066 15.6642 17.5655 15.1637C17.6938 14.0713 17.3258 13.2902 16.5551 12.4532C15.6898 11.5049 14.8918 10.8688 13.831 11.2ZM14.5764 20.5973C15.4344 20.5973 16.2912 20.5847 17.1481 20.5973C17.473 20.6046 17.5687 20.4921 17.5687 20.1767C17.5487 19.4944 17.5571 18.8099 17.5687 18.1297C17.5687 17.911 17.515 17.7733 17.2943 17.6902C15.5419 17.0306 13.7931 16.3648 12.0478 15.6926C11.7482 15.5769 11.642 15.6368 11.6441 15.9691C11.6546 17.3685 11.6588 18.7679 11.6441 20.1673C11.6441 20.5353 11.8018 20.6004 12.1193 20.5952C12.9321 20.5857 13.7542 20.5962 14.5764 20.5962V20.5973ZM3.01853 16.1815C2.35511 16.1815 1.69063 16.1951 1.0272 16.1752C0.726508 16.1667 0.638192 16.2687 0.641346 16.5642C0.655014 17.7869 0.652911 19.0107 0.641346 20.2335C0.641346 20.5027 0.726508 20.6025 1.00197 20.6004C2.33022 20.5906 3.65847 20.5906 4.98673 20.6004C5.28953 20.6004 5.37364 20.4953 5.37048 20.202C5.35927 18.9796 5.35927 17.7564 5.37048 16.5326C5.37048 16.2551 5.28006 16.1699 5.00881 16.1752C4.34748 16.1909 3.67985 16.1804 3.01853 16.1804V16.1815ZM20.727 20.5973C21.4798 20.5973 22.2326 20.591 22.9844 20.5973C23.243 20.5973 23.3671 20.53 23.3608 20.244C23.345 19.5795 23.3471 18.914 23.3608 18.2464C23.3608 17.9741 23.2693 17.8805 22.997 17.8816C21.525 17.8914 20.0552 17.8914 18.5875 17.8816C18.3299 17.8816 18.2016 17.9488 18.2079 18.2348C18.2219 18.8993 18.2219 19.5652 18.2079 20.2325C18.2079 20.5069 18.3131 20.6004 18.577 20.5962C19.2929 20.5878 20.01 20.5952 20.727 20.5952V20.5973ZM23.3555 8.33497V7.599C23.3555 6.02192 23.3555 6.02192 21.7784 6.13652C21.7427 6.13652 21.708 6.13652 21.6733 6.13652C21.5187 6.13652 21.4462 6.19645 21.4988 6.36572C21.9193 7.73252 21.5671 8.99419 20.9194 10.2012C20.7649 10.4903 20.9016 10.5229 21.1444 10.5166C21.7574 10.5166 22.3704 10.5008 22.9833 10.5166C23.2987 10.5271 23.3608 10.3841 23.3545 10.1076C23.346 9.52409 23.3566 8.929 23.3566 8.33286L23.3555 8.33497Z" fill="#FA8B02"/>
<path d="M12.0058 21.2618C8.25794 21.2618 4.50975 21.2618 0.761204 21.2618C0.0126166 21.2618 0 21.2481 0 20.4964V6.20381C0 5.48781 0.0178736 5.46784 0.735971 5.46784C5.20226 5.46784 9.6689 5.46994 14.1359 5.47415C14.4955 5.47415 14.7394 5.39003 14.977 5.0967C15.3301 4.67071 15.7728 4.32782 16.2735 4.09247C16.7743 3.85713 17.3208 3.73511 17.8741 3.73511C18.4274 3.73511 18.9739 3.85713 19.4747 4.09247C19.9754 4.32782 20.4181 4.67071 20.7712 5.0967C20.9962 5.36901 21.2149 5.48992 21.5639 5.47625C22.1948 5.45312 22.8256 5.47625 23.4564 5.46784C23.8223 5.46153 24 5.58875 24 5.98512C23.993 10.9077 23.993 15.8296 24 20.7508C24 21.2491 23.7109 21.266 23.3481 21.2649C20.7898 21.2607 18.2314 21.2607 15.673 21.2649L12.0058 21.2618ZM14.896 10.5229C14.9129 10.4241 14.9244 10.403 14.9181 10.3904C14.8487 10.2495 14.7762 10.1108 14.7078 9.96987C14.1822 8.90587 13.9014 7.79561 14.2095 6.61805C14.3251 6.17647 14.1822 6.12811 13.7994 6.13021C11.3841 6.14283 8.96833 6.14283 6.55224 6.13021C6.14325 6.13021 6.01498 6.23535 6.01814 6.6559C6.03706 9.29909 6.02655 11.9433 6.03075 14.5865C6.03075 14.7158 5.97188 14.8683 6.11697 14.9766C6.34091 14.8998 6.486 14.7179 6.65317 14.5697C8.05467 13.327 9.46248 12.0863 10.8482 10.831C10.9595 10.7238 11.0915 10.6405 11.2361 10.5863C11.3808 10.532 11.535 10.508 11.6893 10.5155C12.7586 10.5355 13.8257 10.5229 14.896 10.5229ZM0.647654 10.8383C0.647654 12.2556 0.656065 13.6771 0.640294 15.0901C0.640294 15.4245 0.721251 15.5506 1.07662 15.5454C2.37088 15.5265 3.66618 15.5286 4.96149 15.5454C5.28953 15.5454 5.37469 15.4402 5.37364 15.1248C5.36452 12.2728 5.36452 9.42035 5.37364 6.56759C5.37364 6.25217 5.29478 6.13442 4.9657 6.13862C3.67039 6.15334 2.37543 6.15334 1.08083 6.13862C0.735971 6.13862 0.636089 6.24902 0.640294 6.59072C0.657117 7.99852 0.647654 9.41264 0.647654 10.8341V10.8383ZM10.9681 11.6205L6.15587 15.8902C6.02129 16.0101 6.02655 16.1678 6.02655 16.3255C6.02655 17.604 6.03601 18.8814 6.02024 20.1589C6.02024 20.5069 6.13379 20.6067 6.47549 20.6025C7.82337 20.5857 9.17125 20.5826 10.5191 20.6025C10.9071 20.6089 10.9817 20.4606 10.9754 20.1136C10.9554 19.1863 10.9681 18.259 10.9681 17.3306V11.6205ZM23.3555 14.2227C23.3555 13.348 23.3471 12.4732 23.3608 11.5943C23.3608 11.3062 23.2766 11.1853 22.9749 11.1905C22.1874 11.2042 21.3978 11.2021 20.6135 11.1905C20.5097 11.1872 20.4069 11.2116 20.3156 11.2611C20.2244 11.3106 20.1479 11.3835 20.0941 11.4723C19.6137 12.1186 19.0683 12.714 18.4666 13.2491C18.3215 13.3795 18.2048 13.5067 18.2069 13.7317C18.2174 14.7831 18.2174 15.8328 18.2069 16.8806C18.2069 17.1582 18.312 17.2402 18.5738 17.2392C20.0457 17.2293 21.5152 17.2293 22.9823 17.2392C23.2903 17.2392 23.366 17.1267 23.3608 16.8407C23.3471 15.9712 23.3555 15.0964 23.3555 14.2227ZM17.9009 4.40594C17.4351 4.40306 16.9744 4.5038 16.5523 4.70084C16.1302 4.89789 15.7571 5.18632 15.4602 5.54526C15.1632 5.9042 14.9498 6.32467 14.8353 6.77624C14.7208 7.2278 14.7082 7.69917 14.7983 8.15623C15.1694 10.0435 16.3491 11.4103 17.6633 12.7045C17.8914 12.9285 18.026 12.7729 18.1837 12.6215C19.0181 11.8439 19.7334 10.9476 20.3065 9.96146C20.6783 9.32407 20.9145 8.61681 21.0004 7.88392C21.0493 7.44718 21.0056 7.00505 20.8723 6.58629C20.7389 6.16754 20.5189 5.78156 20.2265 5.45347C19.9342 5.12538 19.576 4.86254 19.1753 4.68206C18.7746 4.50157 18.3404 4.40749 17.9009 4.40594ZM13.831 11.2C13.0729 11.2 12.5693 11.2084 12.0584 11.2C11.786 11.2 11.6378 11.2631 11.6378 11.5774C11.6494 12.5563 11.6441 13.5351 11.6378 14.515C11.6378 14.7316 11.703 14.8672 11.9227 14.9503C13.6891 15.6141 15.4529 16.2852 17.2144 16.9637C17.5413 17.0899 17.5624 16.9385 17.5582 16.684C17.5497 16.1773 17.5066 15.6642 17.5655 15.1637C17.6938 14.0713 17.3258 13.2902 16.5551 12.4532C15.6898 11.5049 14.8918 10.8688 13.831 11.2ZM14.5764 20.5973C15.4344 20.5973 16.2912 20.5847 17.1481 20.5973C17.473 20.6046 17.5687 20.4921 17.5687 20.1767C17.5487 19.4944 17.5571 18.8099 17.5687 18.1297C17.5687 17.911 17.515 17.7733 17.2943 17.6902C15.5419 17.0306 13.7931 16.3648 12.0478 15.6926C11.7482 15.5769 11.642 15.6368 11.6441 15.9691C11.6546 17.3685 11.6588 18.7679 11.6441 20.1673C11.6441 20.5353 11.8018 20.6004 12.1193 20.5952C12.9321 20.5857 13.7542 20.5962 14.5764 20.5962V20.5973ZM3.01853 16.1815C2.35511 16.1815 1.69063 16.1951 1.0272 16.1752C0.726508 16.1667 0.638192 16.2687 0.641346 16.5642C0.655014 17.7869 0.652911 19.0107 0.641346 20.2335C0.641346 20.5027 0.726508 20.6025 1.00197 20.6004C2.33022 20.5906 3.65847 20.5906 4.98673 20.6004C5.28953 20.6004 5.37364 20.4953 5.37048 20.202C5.35927 18.9796 5.35927 17.7564 5.37048 16.5326C5.37048 16.2551 5.28006 16.1699 5.00881 16.1752C4.34748 16.1909 3.67985 16.1804 3.01853 16.1804V16.1815ZM20.727 20.5973C21.4798 20.5973 22.2326 20.591 22.9844 20.5973C23.243 20.5973 23.3671 20.53 23.3608 20.244C23.345 19.5795 23.3471 18.914 23.3608 18.2464C23.3608 17.9741 23.2693 17.8805 22.997 17.8816C21.525 17.8914 20.0552 17.8914 18.5875 17.8816C18.3299 17.8816 18.2016 17.9488 18.2079 18.2348C18.2219 18.8993 18.2219 19.5652 18.2079 20.2325C18.2079 20.5069 18.3131 20.6004 18.577 20.5962C19.2929 20.5878 20.01 20.5952 20.727 20.5952V20.5973ZM23.3555 8.33497V7.599C23.3555 6.02192 23.3555 6.02192 21.7784 6.13652C21.7427 6.13652 21.708 6.13652 21.6733 6.13652C21.5187 6.13652 21.4462 6.19645 21.4988 6.36572C21.9193 7.73252 21.5671 8.99419 20.9194 10.2012C20.7649 10.4903 20.9016 10.5229 21.1444 10.5166C21.7574 10.5166 22.3704 10.5008 22.9833 10.5166C23.2987 10.5271 23.3608 10.3841 23.3545 10.1076C23.346 9.52409 23.3566 8.929 23.3566 8.33286L23.3555 8.33497Z" stroke="#FA8B02" stroke-width="0.4" mask="url(#path-1-outside-1_201_1908)"/>
<path d="M17.8842 5.54121C17.6219 5.53985 17.3619 5.59031 17.1191 5.68969C16.8761 5.78917 16.6552 5.93571 16.469 6.12087C16.2828 6.30604 16.135 6.52618 16.0342 6.76865C15.9336 7.01061 15.8817 7.27004 15.8815 7.53208C15.8731 7.79508 15.9174 8.05711 16.0118 8.30276C16.1063 8.54892 16.2492 8.77364 16.432 8.96368C16.6148 9.15371 16.8339 9.30521 17.0762 9.40922C17.3181 9.51307 17.5783 9.5675 17.8416 9.5693C18.1091 9.57758 18.3756 9.53246 18.6255 9.43657C18.8758 9.34054 19.1044 9.19551 19.298 9.00999C19.4915 8.82447 19.6461 8.60219 19.7526 8.35617C19.8591 8.11015 19.9155 7.84534 19.9183 7.57727C19.9212 7.30919 19.8705 7.04324 19.7693 6.79499C19.6681 6.54675 19.5183 6.3212 19.3288 6.13158C19.1393 5.94196 18.9138 5.79207 18.6656 5.69069C18.4177 5.58942 18.1521 5.5386 17.8842 5.54121ZM17.8842 5.54121C17.884 5.54121 17.8837 5.54121 17.8835 5.54122L17.8845 5.64121L17.885 5.54121C17.8848 5.54121 17.8845 5.54121 17.8842 5.54121ZM17.0696 8.38536C16.8529 8.16869 16.7312 7.87482 16.7312 7.5684C16.7312 7.26198 16.8529 6.96811 17.0696 6.75144C17.2863 6.53477 17.5802 6.41305 17.8866 6.41305C18.193 6.41305 18.4869 6.53477 18.7035 6.75144C18.9202 6.96811 19.0419 7.26198 19.0419 7.5684C19.0419 7.87482 18.9202 8.16869 18.7035 8.38536C18.4869 8.60203 18.193 8.72376 17.8866 8.72376C17.5802 8.72376 17.2863 8.60203 17.0696 8.38536Z" fill="#FA8B02" stroke="#FA8B02" stroke-width="0.2"/>
</g>
<defs>
<clipPath id="clip0_201_1908">
<rect width="24" height="24" fill="white" transform="translate(0 0.5)"/>
</clipPath>
</defs>
</svg>
