<svg width="25" height="24" viewBox="0 0 25 24" fill="none" xmlns="http://www.w3.org/2000/svg">
<g clip-path="url(#clip0_201_1670)">
<path d="M8.42817 7.73351C9.12437 5.29281 10.5301 4.07246 12.56 4.09247C14.5246 4.11247 15.9277 5.3635 16.5705 7.73884C16.6559 7.49477 16.7119 7.32539 16.7732 7.15734C17.252 5.86631 18.179 5.09675 19.542 4.98472C20.7957 4.88336 21.8093 5.43418 22.4415 6.5225C23.1257 7.6935 23.0484 8.87517 22.2401 9.96081C21.96 10.3356 21.9827 10.437 22.3988 10.6477C23.7966 11.3519 24.4821 12.5269 24.4968 14.0887C24.5154 16.0039 24.5141 16.0052 22.6656 16.6134C22.1827 16.7845 21.6821 16.9004 21.1732 16.9588C20.8677 16.9868 20.625 16.8868 20.577 16.568C20.529 16.2493 20.7317 16.0679 21.0304 16.0185C21.7556 15.91 22.4627 15.7036 23.1324 15.405C23.3098 15.3237 23.5325 15.2717 23.5325 15.0116C23.5325 14.2807 23.6259 13.5365 23.2924 12.847C22.8803 11.9947 22.2321 11.4079 21.2705 11.2932C20.2753 11.1885 19.2721 11.1858 18.2763 11.2852C18.0118 11.3169 17.7544 11.3927 17.5148 11.5093C16.7346 11.8627 16.7252 11.9814 17.3134 12.6002C18.1173 13.417 18.5896 14.5029 18.6391 15.6478C18.6631 16.1813 18.5831 16.7228 18.6604 17.2482C18.7938 18.1192 18.3804 18.5019 17.6255 18.8194C14.0138 20.3371 10.4581 20.2718 6.91841 18.5966C6.49562 18.3966 6.31423 18.1445 6.34758 17.6737C6.38492 17.1402 6.36225 16.6067 6.34758 16.0732C6.32357 14.6061 6.82638 13.3685 7.91603 12.3988C8.2788 12.0761 8.16143 11.932 7.85468 11.716C6.84505 11.0038 3.58679 11.0198 2.58917 11.752C1.68891 12.4175 1.16743 13.9833 1.47151 15.0556C1.54087 15.2957 1.73826 15.3437 1.90764 15.421C2.5365 15.7034 3.2011 15.8981 3.88287 15.9999C4.19763 16.0466 4.46704 16.1826 4.42303 16.5454C4.37368 16.9455 4.06026 16.9962 3.71749 16.9455C2.69586 16.7948 1.74493 16.4307 0.821995 15.9825C0.737409 15.9512 0.663762 15.8959 0.610012 15.8234C0.556263 15.751 0.524727 15.6645 0.519241 15.5744C0.531245 14.5368 0.367198 13.4858 0.821995 12.4869C1.19136 11.6432 1.86045 10.9665 2.69987 10.5877C2.96661 10.4636 3.09998 10.3969 2.85724 10.0835C1.96365 8.95519 1.84629 7.72417 2.5905 6.48248C3.23602 5.40618 4.25364 4.86335 5.50734 4.99139C6.98909 5.1421 7.91869 6.02102 8.31881 7.45476C8.33615 7.51745 8.36949 7.57613 8.42817 7.73351ZM12.504 12.1281C11.9705 12.1281 11.437 12.1094 10.9035 12.1281C9.96236 12.1733 9.07244 12.5702 8.41 13.2403C7.74755 13.9104 7.36087 14.8048 7.32652 15.7465C7.31185 16.1906 7.35587 16.6387 7.30785 17.0802C7.25184 17.5937 7.48124 17.8284 7.9307 18.0138C10.8155 19.1901 13.715 19.2541 16.6385 18.1818C17.6935 17.7937 17.6895 17.7817 17.6882 16.6867C17.6882 16.376 17.6882 16.0652 17.6802 15.7531C17.6465 14.8111 17.2604 13.9161 16.5981 13.2452C15.9359 12.5744 15.046 12.1766 14.1045 12.1308C13.571 12.1081 13.0375 12.1281 12.504 12.1281ZM15.5542 8.08027C15.5494 7.27096 15.2234 6.49668 14.6477 5.92778C14.0721 5.35889 13.294 5.04196 12.4847 5.04674C11.6753 5.05151 10.9011 5.3776 10.3322 5.95325C9.76328 6.5289 9.44636 7.30697 9.45113 8.11629C9.4618 9.76076 10.8862 11.1745 12.5213 11.1612C14.1565 11.1478 15.5716 9.72475 15.5542 8.08027ZM5.2766 10.2516C5.84942 10.2438 6.39579 10.0092 6.79584 9.59915C7.19589 9.1891 7.41696 8.63711 7.41055 8.06427C7.39054 6.89327 6.37692 5.89832 5.21659 5.91966C4.05625 5.941 3.0493 6.97462 3.0693 8.12429C3.0867 8.69684 3.32734 9.23989 3.73979 9.63739C4.15224 10.0349 4.7038 10.2553 5.2766 10.2516ZM19.7541 10.2516C20.3266 10.2479 20.875 10.0208 21.2826 9.61871C21.6901 9.21664 21.9246 8.67134 21.936 8.09895C21.9216 7.52662 21.6886 6.98155 21.2847 6.57574C20.8809 6.16993 20.337 5.9342 19.7648 5.91699C19.1913 5.92763 18.6444 6.16053 18.2393 6.56659C17.8343 6.97265 17.6027 7.52014 17.5935 8.09361C17.5949 8.66609 17.823 9.21469 18.2279 9.61937C18.6329 10.024 19.1816 10.2518 19.7541 10.2529V10.2516ZM9.96995 11.2038C9.12479 10.4679 8.58493 9.44291 8.45618 8.32968C8.30947 8.76847 8.25346 9.03388 8.13609 9.26328C7.9427 9.64872 7.46923 10.0902 7.55726 10.3703C7.65462 10.6877 8.30014 10.7957 8.60022 11.0998C9.01901 11.5279 9.40312 11.5893 9.96995 11.2038ZM14.974 11.2772C15.4529 11.3372 15.7423 11.712 16.101 11.3519C16.4425 11.0025 16.8507 10.7254 17.3014 10.537C17.5001 10.4556 17.6201 10.3609 17.4227 10.1595C16.968 9.69674 16.7852 9.09257 16.5345 8.33101C16.3878 9.58337 15.8476 10.4556 14.9727 11.2772H14.974Z" fill="white" stroke="white" stroke-width="0.3"/>
</g>
<defs>
<clipPath id="clip0_201_1670">
<rect width="24" height="24" fill="white" transform="translate(0.5)"/>
</clipPath>
</defs>
</svg>
