<svg width="25" height="24" viewBox="0 0 25 24" fill="none" xmlns="http://www.w3.org/2000/svg">
<g clip-path="url(#clip0_201_3513)">
<path d="M10.2468 13.7598C11.6384 15.1716 13.3223 16.2616 15.1801 16.9532L17.6934 14.9532C17.7679 14.9018 17.8563 14.8744 17.9468 14.8744C18.0372 14.8744 18.1256 14.9018 18.2001 14.9532L22.8668 17.9598C23.0439 18.0663 23.1939 18.2126 23.3048 18.387C23.4158 18.5615 23.4846 18.7593 23.506 18.9649C23.5273 19.1705 23.5005 19.3783 23.4278 19.5718C23.355 19.7653 23.2383 19.9392 23.0868 20.0798L20.9001 22.2398C20.5869 22.5492 20.2021 22.7763 19.7798 22.9008C19.3575 23.0253 18.911 23.0433 18.4801 22.9532C14.1816 22.0654 10.2195 19.9862 7.04676 16.9532C3.94442 13.89 1.79761 9.99239 0.866761 5.73316C0.774805 5.30892 0.793997 4.86812 0.922478 4.45348C1.05096 4.03883 1.28437 3.66441 1.60009 3.36649L3.86676 1.17983C4.00703 1.03568 4.17808 0.925143 4.36713 0.856478C4.55617 0.787813 4.75829 0.762805 4.95837 0.783325C5.15844 0.803846 5.35128 0.869364 5.52245 0.974973C5.69362 1.08058 5.83868 1.22355 5.94676 1.39316L9.05343 5.99983C9.10701 6.07216 9.13594 6.1598 9.13594 6.24983C9.13594 6.33985 9.10701 6.42749 9.05343 6.49983L7.00676 8.95983C7.71715 10.7805 8.82392 12.4201 10.2468 13.7598Z" fill="#FA8B02"/>
</g>
<defs>
<clipPath id="clip0_201_3513">
<rect width="24" height="24" fill="white" transform="translate(0.0996094)"/>
</clipPath>
</defs>
</svg>
