<svg width="24" height="25" viewBox="0 0 24 25" fill="none" xmlns="http://www.w3.org/2000/svg">
<g opacity="0.4">
<path d="M11.9066 14.705C12.6028 14.705 13.2705 14.4284 13.7628 13.9361C14.2551 13.4438 14.5316 12.7762 14.5316 12.08C14.5316 12.0031 14.5281 11.9269 14.5216 11.8517L11.6783 14.6949C11.7536 14.7014 11.8295 14.705 11.9066 14.705ZM20.5954 3.96028L19.5941 2.95996C19.559 2.92483 19.5113 2.90509 19.4616 2.90509C19.4119 2.90509 19.3642 2.92483 19.3291 2.95996L16.7669 5.52285C15.3534 4.80051 13.7646 4.43934 12.0004 4.43934C7.49569 4.43934 4.13475 6.78543 1.91757 11.4776C1.82845 11.6663 1.78223 11.8724 1.78223 12.0811C1.78223 12.2898 1.82845 12.4959 1.91757 12.6847C2.8035 14.5507 3.8703 16.0464 5.11796 17.1718L2.6385 19.6503C2.60337 19.6854 2.58363 19.7331 2.58363 19.7828C2.58363 19.8325 2.60337 19.8802 2.6385 19.9154L3.63905 20.9159C3.67421 20.951 3.72188 20.9708 3.77159 20.9708C3.8213 20.9708 3.86897 20.951 3.90413 20.9159L20.5954 4.22559C20.6128 4.20818 20.6266 4.1875 20.6361 4.16473C20.6455 4.14197 20.6504 4.11757 20.6504 4.09293C20.6504 4.06829 20.6455 4.04389 20.6361 4.02113C20.6266 3.99837 20.6128 3.97769 20.5954 3.96028ZM7.78163 12.08C7.78156 11.3675 7.96605 10.6671 8.3171 10.0471C8.66816 9.42713 9.17381 8.90863 9.78482 8.54214C10.3958 8.17565 11.0913 7.97367 11.8036 7.95588C12.5159 7.93808 13.2206 8.10507 13.8491 8.44059L12.7096 9.58012C12.25 9.43297 11.7588 9.41525 11.2898 9.5289C10.8209 9.64255 10.3923 9.88318 10.0511 10.2244C9.70985 10.5656 9.46922 10.9942 9.35556 11.4632C9.24191 11.9322 9.25963 12.4234 9.40679 12.8829L8.26725 14.0225C7.94747 13.425 7.78063 12.7576 7.78163 12.08Z" fill="#333333"/>
<path d="M22.083 11.4752C21.258 9.73774 20.2761 8.32095 19.1372 7.22485L15.7589 10.6034C16.0437 11.3478 16.1068 12.1587 15.9406 12.9382C15.7745 13.7177 15.3862 14.4325 14.8226 14.996C14.259 15.5596 13.5443 15.9479 12.7648 16.1141C11.9853 16.2802 11.1743 16.2171 10.4299 15.9324L7.56445 18.7978C8.89383 19.413 10.3724 19.7206 12.0002 19.7206C16.5049 19.7206 19.8659 17.3745 22.083 12.6823C22.1722 12.4936 22.2184 12.2875 22.2184 12.0788C22.2184 11.8701 22.1722 11.664 22.083 11.4752Z" fill="#333333"/>
</g>
</svg>
