<svg width="45" height="44" viewBox="0 0 45 44" fill="none" xmlns="http://www.w3.org/2000/svg">
<path d="M22.7998 0.125C10.7197 0.125 0.924805 9.91992 0.924805 22C0.924805 34.0801 10.7197 43.875 22.7998 43.875C34.8799 43.875 44.6748 34.0801 44.6748 22C44.6748 9.91992 34.8799 0.125 22.7998 0.125ZM33.3125 16.6143C33.3271 16.8438 33.3271 17.083 33.3271 17.3174C33.3271 24.4854 27.8682 32.7422 17.8926 32.7422C14.8164 32.7422 11.9648 31.8486 9.5625 30.3105C10.002 30.3594 10.4219 30.3789 10.8711 30.3789C13.4102 30.3789 15.7441 29.5195 17.6045 28.0645C15.2217 28.0156 13.2197 26.4531 12.5361 24.3047C13.3711 24.4268 14.123 24.4268 14.9824 24.207C13.7555 23.9578 12.6527 23.2914 11.8614 22.3212C11.0701 21.351 10.6391 20.1368 10.6416 18.8848V18.8164C11.3594 19.2217 12.2041 19.4707 13.0879 19.5049C12.3449 19.0097 11.7356 18.3389 11.314 17.5519C10.8924 16.7649 10.6715 15.886 10.6709 14.9932C10.6709 13.9824 10.9346 13.0596 11.4082 12.2588C12.77 13.9352 14.4694 15.3064 16.3958 16.283C18.3223 17.2597 20.4327 17.8201 22.5898 17.9277C21.8232 14.2412 24.5771 11.2578 27.8877 11.2578C29.4502 11.2578 30.8564 11.9121 31.8477 12.9668C33.0732 12.7373 34.2451 12.2783 35.29 11.6631C34.8848 12.918 34.0352 13.9775 32.9072 14.6465C34.001 14.5293 35.0557 14.2266 36.0322 13.8018C35.2949 14.8857 34.3721 15.8477 33.3125 16.6143Z" fill="#FA8B02"/>
</svg>
