<svg width="24" height="25" viewBox="0 0 24 25" fill="none" xmlns="http://www.w3.org/2000/svg">
<g clip-path="url(#clip0_201_2040)">
<path d="M7.46671 15.7108L7.4667 15.7108C6.50035 14.4577 5.54268 13.1933 4.913 11.712L4.91293 11.7118C4.24715 10.1294 4.12297 8.37138 4.55969 6.71111C4.99641 5.05085 5.96955 3.58144 7.32776 2.53145L7.32798 2.53127C8.67205 1.50443 10.3168 0.948729 12.0082 0.950002C13.6997 0.951275 15.3436 1.50945 16.6861 2.53832L16.6864 2.53849C18.0428 3.59077 19.0128 5.0624 19.4451 6.72383C19.8774 8.38526 19.7476 10.143 19.0761 11.723L19.076 11.723C18.4594 13.1722 17.5268 14.4135 16.5865 15.6447L16.5328 15.715C16.0659 16.3264 15.5975 16.9397 15.1067 17.5336C15.043 17.6108 14.9968 17.673 14.9689 17.7241C14.9405 17.7764 14.9364 17.8078 14.9416 17.8273C14.9463 17.8447 14.9625 17.8669 15.0144 17.8903C15.066 17.9137 15.144 17.934 15.2549 17.9523C15.255 17.9523 15.2551 17.9523 15.2552 17.9523L7.46671 15.7108ZM7.46671 15.7108C7.82635 16.177 8.18857 16.6412 8.55832 17.115C8.74555 17.355 8.93471 17.5974 9.12644 17.8438C8.97164 17.8799 8.81967 17.9142 8.67023 17.948C8.23144 18.0471 7.81444 18.1413 7.41152 18.2605M7.46671 15.7108L19.1997 19.6752M19.1997 19.6752L19.2005 19.6761L19.2005 19.6761C19.5242 20.0427 19.6872 20.4524 19.6841 20.8633C19.681 21.2743 19.5118 21.6812 19.1809 22.0423C18.5663 22.7137 17.7626 23.0749 16.9328 23.3388L16.9327 23.3388C14.8821 23.9889 12.7741 24.1532 10.6417 23.9928L10.6416 23.9928C9.15733 23.8807 7.68714 23.6603 6.30581 23.0391M19.1997 19.6752C18.9009 19.3529 18.5484 19.0849 18.1578 18.8833L19.1997 19.6752ZM6.30581 23.0391C6.30558 23.039 6.30535 23.0389 6.30512 23.0388L6.32563 22.9932M6.30581 23.0391C6.30603 23.0392 6.30625 23.0393 6.30646 23.0394L6.32563 22.9932M6.30581 23.0391C5.82395 22.8391 5.3798 22.5582 4.99249 22.2086L4.99135 22.2075C4.54901 21.7824 4.32187 21.3125 4.32343 20.8394C4.32499 20.3662 4.55535 19.8997 5.00807 19.4815C5.69327 18.8479 6.53575 18.5053 7.41152 18.2605M6.32563 22.9932C5.84878 22.7953 5.40925 22.5174 5.026 22.1715L19.163 19.7092C19.7968 20.427 19.7918 21.3017 19.144 22.0085C18.5382 22.6703 17.7444 23.0282 16.9176 23.2912C14.8742 23.939 12.7728 24.1029 10.6454 23.943C9.16283 23.831 7.69924 23.6111 6.32563 22.9932ZM7.41152 18.2605C7.41139 18.2605 7.41126 18.2606 7.41113 18.2606L7.42532 18.3086L7.41186 18.2604C7.41175 18.2604 7.41163 18.2605 7.41152 18.2605ZM5.86776 21.7196C6.30917 22.0196 6.79216 22.2534 7.30135 22.4134L5.89611 21.6784M5.86776 21.7196L5.89635 21.6786C5.89627 21.6785 5.89619 21.6785 5.89611 21.6784M5.86776 21.7196C5.08198 21.1718 5.07398 20.5689 5.84776 20.0131L5.86776 21.7196ZM5.89611 21.6784C6.33341 21.9756 6.81191 22.2072 7.31634 22.3657L7.31669 22.3658C8.83073 22.8536 10.3938 23.0162 11.9786 23.0452C12.9091 23.0484 13.8382 22.9734 14.7561 22.8209L14.7573 22.8207L14.7573 22.8208C15.4307 22.726 16.0934 22.5661 16.7359 22.3433C17.3162 22.1326 17.8795 21.8974 18.3334 21.4799C18.5582 21.2731 18.6667 21.0605 18.6673 20.854C18.6678 20.6478 18.5609 20.4351 18.3274 20.2277C18.1153 20.0456 17.8837 19.8876 17.6369 19.7563L17.6363 19.756C16.6649 19.2207 15.5932 19.0198 14.5068 18.8327L14.5068 18.8327C14.3585 18.807 14.247 18.8199 14.1533 18.8649C14.0588 18.9102 13.9766 18.9909 13.8926 19.1119L13.8924 19.1122C13.5635 19.5779 13.2224 20.0349 12.882 20.4911C12.7644 20.6486 12.6469 20.806 12.5301 20.9636C12.4363 21.0903 12.3475 21.188 12.26 21.254C12.1721 21.3203 12.0829 21.3564 11.99 21.355C11.8972 21.3535 11.8082 21.3146 11.7204 21.2459C11.633 21.1775 11.544 21.0775 11.4499 20.9484C11.3106 20.7586 11.172 20.5677 11.0333 20.3769C10.9173 20.2173 10.8013 20.0576 10.685 19.8986L10.685 19.8986C10.4652 19.5979 10.3025 19.3753 10.1583 19.214C10.0145 19.0531 9.8928 18.9575 9.75695 18.9069C9.62101 18.8562 9.46494 18.8484 9.248 18.8749C9.03044 18.9015 8.75745 18.9617 8.38884 19.0432C7.4913 19.2426 6.62747 19.5138 5.87696 20.0537L5.87694 20.0537C5.49503 20.328 5.31972 20.6044 5.32292 20.8687C5.32613 21.1332 5.50827 21.4079 5.89611 21.6784ZM18.6701 8.81124L18.6701 8.81243C18.7048 10.2746 18.1068 11.691 17.2338 13.0176L17.2338 13.0176C16.5662 14.0335 15.8292 14.9978 15.0787 15.954C14.9124 16.1659 14.7454 16.3774 14.5783 16.589C13.9919 17.3317 13.4048 18.0752 12.8445 18.8388C12.7762 18.9318 12.7072 19.0246 12.6381 19.1175C12.4783 19.3324 12.3181 19.548 12.165 19.7675L12.1649 19.7676C12.1328 19.8137 12.1039 19.8505 12.0767 19.8769C12.0492 19.9034 12.0271 19.9157 12.009 19.9193C11.9791 19.9252 11.9291 19.9108 11.8472 19.7926L11.8471 19.7925C11.0941 18.7149 10.2803 17.6832 9.4676 16.6527C9.38311 16.5456 9.29863 16.4384 9.21423 16.3313C8.3176 15.193 7.42979 14.0503 6.6313 12.8406C5.59131 11.2627 5.11051 9.5434 5.38637 7.65288C5.6359 5.98248 6.50735 4.46803 7.82615 3.41292C9.14494 2.35781 10.8137 1.83994 12.4981 1.96305C15.9902 2.23293 18.6701 5.13754 18.6701 8.81124Z" fill="#FA8B02" stroke="#FA8B02" stroke-width="0.1"/>
<path d="M14.2455 10.891C14.8444 10.2946 15.1819 9.4846 15.1836 8.63933C15.1845 8.22079 15.1029 7.80618 14.9435 7.41917C14.7842 7.03216 14.5501 6.68033 14.2548 6.38376C13.9595 6.0872 13.6086 5.85171 13.2223 5.69074C12.8359 5.52977 12.4216 5.44648 12.0031 5.44561C11.5846 5.44475 11.17 5.52632 10.7829 5.68569C10.3959 5.84506 10.0441 6.07909 9.74753 6.37443C9.1486 6.97089 8.81113 7.78085 8.80938 8.62612C8.80763 9.4714 9.14174 10.2828 9.7382 10.8817C10.3347 11.4806 11.1446 11.8181 11.9899 11.8198C12.8352 11.8216 13.6465 11.4875 14.2455 10.891ZM13.5286 7.07273C13.9425 7.47854 14.1782 8.03213 14.1839 8.61172C14.1896 9.19132 13.9648 9.74944 13.559 10.1633C13.1532 10.5772 12.5996 10.8129 12.02 10.8186C11.4404 10.8243 10.8823 10.5995 10.4684 10.1937C10.0545 9.78792 9.81883 9.23432 9.81312 8.65473C9.80742 8.07513 10.0322 7.51701 10.438 7.10314C10.8438 6.68927 11.3974 6.45356 11.977 6.44785C12.5566 6.44215 13.1147 6.66693 13.5286 7.07273Z" fill="#FA8B02" stroke="#FA8B02" stroke-width="0.1"/>
</g>
<defs>
<clipPath id="clip0_201_2040">
<rect width="24" height="24" fill="white" transform="translate(0 0.5)"/>
</clipPath>
</defs>
</svg>
