<svg width="20" height="20" viewBox="0 0 20 20" fill="none" xmlns="http://www.w3.org/2000/svg">
<path d="M18.1829 14.1667H1.51628C1.29526 14.1667 1.0833 14.2545 0.927023 14.4107C0.770743 14.567 0.682945 14.779 0.682945 15C0.682945 15.221 0.770743 15.433 0.927023 15.5892C1.0833 15.7455 1.29526 15.8333 1.51628 15.8333H18.1829C18.404 15.8333 18.6159 15.7455 18.7722 15.5892C18.9285 15.433 19.0163 15.221 19.0163 15C19.0163 14.779 18.9285 14.567 18.7722 14.4107C18.6159 14.2545 18.404 14.1667 18.1829 14.1667ZM18.1829 17.5H1.51628C1.29526 17.5 1.0833 17.5878 0.927023 17.7441C0.770743 17.9004 0.682945 18.1123 0.682945 18.3333C0.682945 18.5543 0.770743 18.7663 0.927023 18.9226C1.0833 19.0789 1.29526 19.1667 1.51628 19.1667H18.1829C18.404 19.1667 18.6159 19.0789 18.7722 18.9226C18.9285 18.7663 19.0163 18.5543 19.0163 18.3333C19.0163 18.1123 18.9285 17.9004 18.7722 17.7441C18.6159 17.5878 18.404 17.5 18.1829 17.5ZM4.84961 5.83333C4.68479 5.83333 4.52368 5.8822 4.38664 5.97377C4.2496 6.06534 4.14278 6.19549 4.07971 6.34776C4.01664 6.50003 4.00014 6.66759 4.03229 6.82924C4.06444 6.99089 4.14381 7.13937 4.26036 7.25592C4.3769 7.37246 4.52539 7.45183 4.68704 7.48398C4.84869 7.51614 5.01624 7.49963 5.16851 7.43656C5.32079 7.37349 5.45093 7.26668 5.5425 7.12964C5.63407 6.9926 5.68294 6.83148 5.68294 6.66666C5.68294 6.44565 5.59515 6.23369 5.43887 6.07741C5.28259 5.92113 5.07063 5.83333 4.84961 5.83333ZM16.5163 0.833328H3.18295C2.5199 0.833328 1.88402 1.09672 1.41518 1.56556C0.946337 2.0344 0.682945 2.67029 0.682945 3.33333V9.99999C0.682945 10.663 0.946337 11.2989 1.41518 11.7678C1.88402 12.2366 2.5199 12.5 3.18295 12.5H16.5163C17.1793 12.5 17.8152 12.2366 18.284 11.7678C18.7529 11.2989 19.0163 10.663 19.0163 9.99999V3.33333C19.0163 2.67029 18.7529 2.0344 18.284 1.56556C17.8152 1.09672 17.1793 0.833328 16.5163 0.833328ZM17.3496 9.99999C17.3496 10.221 17.2618 10.433 17.1055 10.5892C16.9493 10.7455 16.7373 10.8333 16.5163 10.8333H3.18295C2.96193 10.8333 2.74997 10.7455 2.59369 10.5892C2.43741 10.433 2.34961 10.221 2.34961 9.99999V3.33333C2.34961 3.11231 2.43741 2.90035 2.59369 2.74407C2.74997 2.58779 2.96193 2.49999 3.18295 2.49999H16.5163C16.7373 2.49999 16.9493 2.58779 17.1055 2.74407C17.2618 2.90035 17.3496 3.11231 17.3496 3.33333V9.99999ZM9.84961 4.16666C9.35516 4.16666 8.87181 4.31328 8.46069 4.58799C8.04956 4.86269 7.72913 5.25314 7.53991 5.70995C7.35069 6.16677 7.30118 6.66943 7.39765 7.15439C7.49411 7.63934 7.73221 8.0848 8.08184 8.43443C8.43148 8.78406 8.87693 9.02216 9.36189 9.11862C9.84684 9.21509 10.3495 9.16558 10.8063 8.97636C11.2631 8.78714 11.6536 8.46671 11.9283 8.05559C12.203 7.64446 12.3496 7.16111 12.3496 6.66666C12.3496 6.00362 12.0862 5.36774 11.6174 4.89889C11.1485 4.43005 10.5127 4.16666 9.84961 4.16666ZM9.84961 7.49999C9.68479 7.49999 9.52368 7.45112 9.38664 7.35955C9.24959 7.26798 9.14278 7.13784 9.07971 6.98556C9.01664 6.83329 9.00014 6.66574 9.03229 6.50409C9.06444 6.34243 9.14381 6.19395 9.26036 6.07741C9.3769 5.96086 9.52538 5.88149 9.68704 5.84934C9.84869 5.81719 10.0162 5.83369 10.1685 5.89676C10.3208 5.95983 10.4509 6.06665 10.5425 6.20369C10.6341 6.34073 10.6829 6.50184 10.6829 6.66666C10.6829 6.88767 10.5951 7.09964 10.4389 7.25592C10.2826 7.4122 10.0706 7.49999 9.84961 7.49999ZM14.8496 5.83333C14.6848 5.83333 14.5237 5.8822 14.3866 5.97377C14.2496 6.06534 14.1428 6.19549 14.0797 6.34776C14.0166 6.50003 14.0001 6.66759 14.0323 6.82924C14.0644 6.99089 14.1438 7.13937 14.2604 7.25592C14.3769 7.37246 14.5254 7.45183 14.687 7.48398C14.8487 7.51614 15.0162 7.49963 15.1685 7.43656C15.3208 7.37349 15.4509 7.26668 15.5425 7.12964C15.6341 6.9926 15.6829 6.83148 15.6829 6.66666C15.6829 6.44565 15.5951 6.23369 15.4389 6.07741C15.2826 5.92113 15.0706 5.83333 14.8496 5.83333Z" fill="white"/>
</svg>
