<svg width="44" height="44" viewBox="0 0 44 44" fill="none" xmlns="http://www.w3.org/2000/svg">
<path d="M22.0027 36.9204C13.76 36.9207 7.07998 30.2407 7.08029 21.998C7.08059 13.7552 13.7611 7.07472 22.0038 7.07441C30.2466 7.0741 36.9266 13.7541 36.9263 21.9969C36.9261 26.1159 35.2553 29.8485 32.556 32.5478C29.8566 35.2472 26.1241 36.918 22.005 36.9181M16.0946 2.66101L13.8393 6.92744C12.2837 9.87298 9.87425 12.2824 6.92871 13.8381L2.66228 16.0934C1.57612 16.6687 0.894934 17.7963 0.894888 19.0251L0.894667 24.9759C0.894621 26.2047 1.57342 27.3345 2.66185 27.9075L6.9281 30.1625C9.87353 31.7179 12.2827 34.1272 13.8382 37.0726L16.0932 41.3388C16.6684 42.425 17.796 43.1061 19.0248 43.106L24.9756 43.1058C26.2044 43.1058 27.3343 42.4269 27.9073 41.3384L30.1626 37.072C31.7183 34.1264 34.1277 31.717 37.0733 30.1613L41.3397 27.9061C42.4258 27.3307 43.107 26.2031 43.1071 24.9743L43.1073 19.0235C43.1073 17.7947 42.4262 16.6672 41.3401 16.0919L37.0739 13.8369C34.1284 12.2815 31.7192 9.87225 30.1637 6.92683L27.9088 2.66057C27.3335 1.57445 26.206 0.893348 24.9772 0.893395L19.0264 0.893613C18.1335 0.893646 17.2936 1.25036 16.6792 1.86479C16.449 2.09491 16.2511 2.36186 16.0923 2.65871" fill="#0A0B5C"/>
</svg>
