<svg width="28" height="21" viewBox="0 0 28 21" fill="none" xmlns="http://www.w3.org/2000/svg">
<path d="M0.849609 20.46V14.94H2.34961C3.86961 14.94 4.9496 14.62 5.5896 13.98C6.2696 13.34 6.6096 12.44 6.6096 11.28V9.84H1.7496V0H12.4896V11.7C12.4896 15.02 11.6896 17.32 10.0896 18.6C8.48962 19.84 6.3896 20.46 3.7896 20.46H0.849609ZM16.0896 20.46V14.94H17.5896C19.1096 14.94 20.1896 14.62 20.8296 13.98C21.5096 13.34 21.8496 12.44 21.8496 11.28V9.84H16.9896V0H27.7296V11.7C27.7296 15.02 26.9296 17.32 25.3296 18.6C23.7296 19.84 21.6296 20.46 19.0296 20.46H16.0896Z" fill="#C5D8F6"/>
</svg>
