<svg width="18" height="16" viewBox="0 0 18 16" fill="none" xmlns="http://www.w3.org/2000/svg">
<path d="M17.3333 6.05833C17.2807 5.90591 17.185 5.77202 17.0578 5.67292C16.9306 5.57381 16.7773 5.51375 16.6167 5.5L11.875 4.80833L9.75 0.499999C9.68176 0.359106 9.57522 0.240284 9.44257 0.157143C9.30993 0.074003 9.15655 0.0299072 9 0.0299072C8.84345 0.0299072 8.69007 0.074003 8.55743 0.157143C8.42478 0.240284 8.31824 0.359106 8.25 0.499999L6.125 4.8L1.38333 5.5C1.2291 5.52192 1.0841 5.58663 0.964791 5.6868C0.845479 5.78696 0.756632 5.91856 0.708332 6.06667C0.66412 6.21139 0.660152 6.36543 0.696855 6.51224C0.733559 6.65906 0.809547 6.7931 0.916666 6.9L4.35833 10.2333L3.525 14.9667C3.49525 15.1229 3.51083 15.2844 3.56989 15.432C3.62896 15.5797 3.72904 15.7074 3.85833 15.8C3.98435 15.8901 4.13298 15.9433 4.28754 15.9536C4.4421 15.9639 4.59647 15.9309 4.73333 15.8583L9 13.6333L13.25 15.8667C13.367 15.9326 13.499 15.9671 13.6333 15.9667C13.8099 15.9673 13.982 15.9119 14.125 15.8083C14.2543 15.7157 14.3544 15.588 14.4134 15.4404C14.4725 15.2927 14.4881 15.1312 14.4583 14.975L13.625 10.2417L17.0667 6.90833C17.187 6.8064 17.2759 6.67242 17.3231 6.52196C17.3703 6.37149 17.3739 6.21073 17.3333 6.05833ZM12.2083 9.39167C12.1106 9.48619 12.0375 9.6032 11.9954 9.73248C11.9532 9.86175 11.9434 9.99937 11.9667 10.1333L12.5667 13.625L9.43333 11.9583C9.31276 11.8941 9.17826 11.8606 9.04167 11.8606C8.90507 11.8606 8.77057 11.8941 8.65 11.9583L5.51667 13.625L6.11667 10.1333C6.13995 9.99937 6.13009 9.86175 6.08797 9.73248C6.04585 9.6032 5.97273 9.48619 5.875 9.39167L3.375 6.89167L6.88333 6.38333C7.01833 6.36455 7.14666 6.31295 7.25708 6.23304C7.3675 6.15313 7.45663 6.04736 7.51667 5.925L9 2.75L10.5667 5.93333C10.6267 6.0557 10.7158 6.16147 10.8263 6.24138C10.9367 6.32128 11.065 6.37289 11.2 6.39167L14.7083 6.9L12.2083 9.39167Z" fill="#FF9901"/>
</svg>
