<svg width="80" height="78" viewBox="0 0 80 78" fill="none" xmlns="http://www.w3.org/2000/svg">
<path d="M66.1729 39.8023C73.8094 39.8023 80 33.6116 80 25.9751C80 18.3386 73.8094 12.1479 66.1729 12.1479C58.5363 12.1479 52.3457 18.3386 52.3457 25.9751C52.3457 33.6116 58.5363 39.8023 66.1729 39.8023Z" fill="#FFBC57"/>
<path d="M34.2717 23.7037C40.8172 23.7037 46.1235 18.3974 46.1235 11.8519C46.1235 5.30625 40.8172 0 34.2717 0C27.7261 0 22.4198 5.30625 22.4198 11.8519C22.4198 18.3974 27.7261 23.7037 34.2717 23.7037Z" fill="#FFBC57"/>
<path d="M19.7531 77.5311C30.6624 77.5311 39.5062 68.6873 39.5062 57.778C39.5062 46.8687 30.6624 38.0249 19.7531 38.0249C8.84376 38.0249 0 46.8687 0 57.778C0 68.6873 8.84376 77.5311 19.7531 77.5311Z" fill="#FFBC57"/>
<path d="M69.037 40.6292L63.9012 38.4564H50.074C47.9012 38.4564 46.1234 36.6786 46.1234 34.5057V19.6909H39.2098V59.1971H66.6666C67.4568 59.1971 68.2469 58.9008 68.7407 58.3082L69.9259 57.123C70.5185 56.5304 70.8148 55.8391 70.8148 55.0489V43.2959C70.8148 42.1107 70.1234 41.0243 69.037 40.6292Z" fill="white"/>
<path d="M63.1111 40.6292L57.9753 38.4564H50.074C47.9012 38.4564 46.1234 36.6786 46.1234 34.5057V19.6909H39.2098V59.1971H60.7407C61.5308 59.1971 62.3209 58.9008 62.8148 58.3082L64 57.123C64.5926 56.5304 64.8888 55.8391 64.8888 55.0489V43.2959C64.8888 42.1107 64.1975 41.0243 63.1111 40.6292Z" fill="white"/>
<path d="M60.9382 46.3574L63.9012 52.2833H70.8148V46.3574H60.9382Z" fill="white"/>
<path d="M60.9382 46.3574L62.9135 50.308H66.8642C67.4567 50.308 67.8518 49.913 67.8518 49.3204V46.3574H60.9382Z" fill="white"/>
<path d="M70.8148 52.9753H63.9012C63.6049 52.9753 63.4074 52.7777 63.2099 52.5802L60.2469 46.6543C60.1482 46.4568 60.1482 46.1605 60.2469 45.9629C60.3457 45.7654 60.642 45.5679 60.8395 45.5679H70.7161C71.1111 45.5679 71.5062 45.8642 71.5062 46.358V52.2839C71.605 52.679 71.3087 52.9753 70.8148 52.9753ZM64.3951 51.4938H70.1235V47.0494H62.2222L64.3951 51.4938Z" fill="#2B2929"/>
<path d="M50.074 38.4564H63.9012L56.2963 22.9502C55.3086 20.9749 53.2345 19.6909 50.9629 19.6909H46.1234V34.5057C46.1234 36.6786 47.9012 38.4564 50.074 38.4564Z" fill="white"/>
<path d="M56.2963 22.9502C55.3086 20.9749 53.2345 19.6909 50.9629 19.6909H46.1234C48.2963 19.6909 50.3703 20.9749 51.358 22.9502L58.9629 38.4564H63.9012L56.2963 22.9502Z" fill="white"/>
<path d="M63.9013 39.1478H50.0741C47.5062 39.1478 45.3334 37.0737 45.3334 34.5058V19.691C45.3334 19.2959 45.6297 18.9009 46.1235 18.9009H50.963C53.5309 18.9009 55.8025 20.2836 56.9877 22.654L64.5926 38.1601C64.6914 38.3577 64.6914 38.654 64.5926 38.8515C64.3951 39.049 64.1976 39.1478 63.9013 39.1478ZM46.9136 20.3824V34.5058C46.9136 36.2836 48.3951 37.6663 50.1729 37.6663H62.8149L55.7037 23.2466C54.8149 21.4688 53.0371 20.3824 51.0618 20.3824H46.9136Z" fill="#2B2929"/>
<path d="M9.58029 11.7896C8.49387 11.7896 7.60498 12.6784 7.60498 13.7649V57.2216C7.60498 58.3081 8.49387 59.197 9.58029 59.197H39.2099V13.7649C39.2099 12.6784 38.321 11.7896 37.2346 11.7896H9.58029Z" fill="white"/>
<path d="M9.58029 11.7896C8.49387 11.7896 7.60498 12.6784 7.60498 13.7649V54.2587H31.3087C32.3951 54.2587 33.284 53.3698 33.284 52.2834V11.7896H9.58029Z" fill="white"/>
<path d="M39.2099 59.8889H9.58025C8.09877 59.8889 6.81482 58.7037 6.81482 57.1235V13.6667C6.91358 12.1852 8.09877 11 9.58025 11H37.2346C38.7161 11 40 12.1852 40 13.7654V59.1975C40 59.5926 39.7037 59.8889 39.2099 59.8889ZM9.58025 12.4815C8.88889 12.4815 8.2963 13.0741 8.2963 13.7654V57.2222C8.2963 57.9136 8.88889 58.5062 9.58025 58.5062H38.5185V13.7654C38.5185 13.0741 37.9259 12.4815 37.2346 12.4815H9.58025Z" fill="#2B2929"/>
<path d="M66.6667 59.8887H39.2099C38.8149 59.8887 38.4198 59.5924 38.4198 59.0985V19.5924C38.4198 19.1973 38.7161 18.8022 39.2099 18.8022H46.1235C46.5186 18.8022 46.9136 19.0985 46.9136 19.5924V34.4072C46.9136 36.185 48.3951 37.5677 50.1729 37.5677H64C64.0988 37.5677 64.1976 37.5677 64.2963 37.6664L69.4321 39.8393C70.8149 40.4319 71.7037 41.7158 71.7037 43.1973V54.8516C71.7037 55.8393 71.3087 56.7282 70.6173 57.5183L69.4321 58.7035C68.5433 59.4936 67.6544 59.8887 66.6667 59.8887ZM40 58.4072H66.6667C67.2593 58.4072 67.8519 58.2097 68.247 57.7158L69.4321 56.5306C69.8272 56.1356 70.1235 55.543 70.1235 54.9504V43.2961C70.1235 42.4072 69.6297 41.6171 68.7408 41.222L63.8025 39.0492H50.0741C47.5062 39.0492 45.3334 36.9751 45.3334 34.4072V20.3825H39.9013V58.4072H40Z" fill="#2B2929"/>
<path d="M23.4074 65.1228C26.6802 65.1228 29.3333 62.4697 29.3333 59.1969C29.3333 55.9241 26.6802 53.271 23.4074 53.271C20.1346 53.271 17.4814 55.9241 17.4814 59.1969C17.4814 62.4697 20.1346 65.1228 23.4074 65.1228Z" fill="white"/>
<path d="M26.5679 54.0615C27.1605 54.9504 27.4568 56.0368 27.4568 57.1233C27.4568 60.3825 24.7901 63.0492 21.5308 63.0492C20.4444 63.0492 19.358 62.7529 18.4691 62.1603C19.5555 63.8393 21.3333 65.0245 23.5062 65.0245C26.7654 65.0245 29.4321 62.3578 29.4321 59.0986C29.3333 57.0245 28.2469 55.1479 26.5679 54.0615Z" fill="white"/>
<path d="M23.4075 65.8144C19.7531 65.8144 16.6914 62.8515 16.6914 59.0984C16.6914 55.4441 19.6544 52.3823 23.4075 52.3823C27.1605 52.3823 30.1235 55.3453 30.1235 59.0984C30.1235 62.8515 27.1605 65.8144 23.4075 65.8144ZM23.4075 53.9626C20.5433 53.9626 18.1729 56.3329 18.1729 59.1971C18.1729 62.0613 20.5433 64.4317 23.4075 64.4317C26.2717 64.4317 28.642 62.0613 28.642 59.1971C28.642 56.3329 26.2717 53.9626 23.4075 53.9626Z" fill="#2B2929"/>
<path d="M23.4074 61.1723C24.4984 61.1723 25.3827 60.2879 25.3827 59.197C25.3827 58.1061 24.4984 57.2217 23.4074 57.2217C22.3165 57.2217 21.4321 58.1061 21.4321 59.197C21.4321 60.2879 22.3165 61.1723 23.4074 61.1723Z" fill="white"/>
<path d="M23.4074 61.8639C21.9259 61.8639 20.642 60.6787 20.642 59.0984C20.642 57.617 21.8272 56.333 23.4074 56.333C24.9876 56.333 26.1728 57.5182 26.1728 59.0984C26.1728 60.6787 24.9876 61.8639 23.4074 61.8639ZM23.4074 57.9133C22.716 57.9133 22.1234 58.5058 22.1234 59.1972C22.1234 59.8886 22.716 60.4812 23.4074 60.4812C24.0988 60.4812 24.6914 59.8886 24.6914 59.1972C24.6914 58.5058 24.0988 57.9133 23.4074 57.9133Z" fill="#2B2929"/>
<path d="M55.0124 65.1228C58.2851 65.1228 60.9383 62.4697 60.9383 59.1969C60.9383 55.9241 58.2851 53.271 55.0124 53.271C51.7396 53.271 49.0864 55.9241 49.0864 59.1969C49.0864 62.4697 51.7396 65.1228 55.0124 65.1228Z" fill="white"/>
<path d="M58.1729 54.0615C58.7655 54.9504 59.0617 56.0368 59.0617 57.1233C59.0617 60.3825 56.3951 63.0492 53.1358 63.0492C52.0494 63.0492 50.963 62.7529 50.0741 62.1603C51.1605 63.8393 52.9383 65.0245 55.1111 65.0245C58.3704 65.0245 61.0371 62.3578 61.0371 59.0986C60.9383 57.0245 59.8519 55.1479 58.1729 54.0615Z" fill="white"/>
<path d="M55.0123 65.8144C51.358 65.8144 48.2963 62.8515 48.2963 59.0984C48.2963 55.4441 51.2592 52.3823 55.0123 52.3823C58.6666 52.3823 61.7284 55.3453 61.7284 59.0984C61.7284 62.8515 58.7654 65.8144 55.0123 65.8144ZM55.0123 53.9626C52.1481 53.9626 49.7777 56.3329 49.7777 59.1971C49.7777 62.0613 52.1481 64.4317 55.0123 64.4317C57.8765 64.4317 60.2469 62.0613 60.2469 59.1971C60.2469 56.3329 57.8765 53.9626 55.0123 53.9626Z" fill="#2B2929"/>
<path d="M55.0123 61.1723C56.1032 61.1723 56.9876 60.2879 56.9876 59.197C56.9876 58.1061 56.1032 57.2217 55.0123 57.2217C53.9214 57.2217 53.037 58.1061 53.037 59.197C53.037 60.2879 53.9214 61.1723 55.0123 61.1723Z" fill="white"/>
<path d="M55.0124 61.8639C53.5309 61.8639 52.2469 60.6787 52.2469 59.0984C52.2469 57.617 53.4321 56.333 55.0124 56.333C56.4939 56.333 57.7778 57.5182 57.7778 59.0984C57.7778 60.6787 56.5926 61.8639 55.0124 61.8639ZM55.0124 57.9133C54.321 57.9133 53.7284 58.5058 53.7284 59.1972C53.7284 59.8886 54.321 60.4812 55.0124 60.4812C55.7037 60.4812 56.2963 59.8886 56.2963 59.1972C56.2963 58.5058 55.7037 57.9133 55.0124 57.9133Z" fill="#2B2929"/>
<path d="M51.0617 43.0983H47.111C46.716 43.0983 46.3209 42.802 46.3209 42.3082C46.3209 41.9131 46.6172 41.5181 47.111 41.5181H51.0617C51.4567 41.5181 51.8518 41.8144 51.8518 42.3082C51.8518 42.802 51.5555 43.0983 51.0617 43.0983Z" fill="#2B2929"/>
<path d="M34.2716 37.1725H12.5432C12.1481 37.1725 11.7531 36.8762 11.7531 36.3824C11.7531 35.9873 12.0493 35.5923 12.5432 35.5923H34.2716C34.6666 35.5923 35.0617 35.8886 35.0617 36.3824C35.0617 36.8762 34.7654 37.1725 34.2716 37.1725Z" fill="#FFBC57"/>
<path d="M34.2716 43.0983H12.5432C12.1481 43.0983 11.7531 42.802 11.7531 42.3082C11.7531 41.9131 12.0493 41.5181 12.5432 41.5181H34.2716C34.6666 41.5181 35.0617 41.8144 35.0617 42.3082C35.0617 42.802 34.7654 43.0983 34.2716 43.0983Z" fill="#FFBC57"/>
<path d="M34.2716 49.0246H12.5432C12.1481 49.0246 11.7531 48.7283 11.7531 48.2345C11.7531 47.8394 12.0493 47.4443 12.5432 47.4443H34.2716C34.6666 47.4443 35.0617 47.7406 35.0617 48.2345C35.0617 48.7283 34.7654 49.0246 34.2716 49.0246Z" fill="#FFBC57"/>
<path d="M34.2716 31.2468H12.5432C12.1481 31.2468 11.7531 30.9505 11.7531 30.4566C11.7531 30.0616 12.0493 29.6665 12.5432 29.6665H34.2716C34.6666 29.6665 35.0617 29.9628 35.0617 30.4566C35.0617 30.9505 34.7654 31.2468 34.2716 31.2468Z" fill="#FFBC57"/>
<path d="M34.2716 25.3205H12.5432C12.1481 25.3205 11.7531 25.0242 11.7531 24.5304C11.7531 24.1353 12.0493 23.7402 12.5432 23.7402H34.2716C34.6666 23.7402 35.0617 24.0365 35.0617 24.5304C35.0617 25.0242 34.7654 25.3205 34.2716 25.3205Z" fill="#2B2929"/>
<path d="M34.2716 19.3947H12.5432C12.1481 19.3947 11.7531 19.0984 11.7531 18.6046C11.7531 18.2095 12.0493 17.8145 12.5432 17.8145H34.2716C34.6666 17.8145 35.0617 18.1107 35.0617 18.6046C35.0617 19.0984 34.7654 19.3947 34.2716 19.3947Z" fill="#2B2929"/>
</svg>
