<svg width="30" height="30" viewBox="0 0 30 30" fill="none" xmlns="http://www.w3.org/2000/svg">
<path fill-rule="evenodd" clip-rule="evenodd" d="M15.3013 2.64082C14.9895 1.77514 13.7597 1.79209 13.4718 2.66605L11.2015 9.55808C11.0708 9.95497 10.7002 10.2231 10.2824 10.2231H2.77922C1.87901 10.2231 1.46648 11.3449 2.15211 11.9284L8.52845 17.3549C8.82413 17.6065 8.94086 18.0106 8.82494 18.3812L6.49947 25.8158C6.22278 26.7004 7.22743 27.4307 7.98312 26.8943L14.1039 22.5496C14.4511 22.3032 14.9185 22.3125 15.2554 22.5728L21.2455 27.1997C21.99 27.7747 23.034 27.0568 22.764 26.1556L20.4178 18.3238C20.3052 17.9478 20.4307 17.541 20.7356 17.2939L27.3373 11.9432C28.0457 11.3691 27.6399 10.2231 26.7281 10.2231H18.7127C18.3048 10.2231 17.9407 9.96726 17.8024 9.5833L15.3013 2.64082Z" fill="#111111"/>
<mask id="mask0_1_101" style="mask-type:alpha" maskUnits="userSpaceOnUse" x="1" y="2" width="27" height="26">
<path fill-rule="evenodd" clip-rule="evenodd" d="M15.3013 2.64082C14.9895 1.77514 13.7597 1.79209 13.4718 2.66605L11.2015 9.55808C11.0708 9.95497 10.7002 10.2231 10.2824 10.2231H2.77922C1.87901 10.2231 1.46648 11.3449 2.15211 11.9284L8.52845 17.3549C8.82413 17.6065 8.94086 18.0106 8.82494 18.3812L6.49947 25.8158C6.22278 26.7004 7.22743 27.4307 7.98312 26.8943L14.1039 22.5496C14.4511 22.3032 14.9185 22.3125 15.2554 22.5728L21.2455 27.1997C21.99 27.7747 23.034 27.0568 22.764 26.1556L20.4178 18.3238C20.3052 17.9478 20.4307 17.541 20.7356 17.2939L27.3373 11.9432C28.0457 11.3691 27.6399 10.2231 26.7281 10.2231H18.7127C18.3048 10.2231 17.9407 9.96726 17.8024 9.5833L15.3013 2.64082Z" fill="white"/>
</mask>
<g mask="url(#mask0_1_101)">
<path d="M37.2851 1.45068H20.1683C19.6338 1.45068 19.2006 1.88407 19.2006 2.41868V28.0707C19.2006 28.6053 19.6338 29.0387 20.1683 29.0387H37.2851C37.8196 29.0387 38.2529 28.6053 38.2529 28.0707V2.41868C38.2529 1.88407 37.8196 1.45068 37.2851 1.45068Z" fill="#D5D8E3"/>
</g>
</svg>
