<svg width="14" height="18" viewBox="0 0 14 18" fill="none" xmlns="http://www.w3.org/2000/svg">
<path d="M7.00004 0.869873C5.23254 0.87181 3.538 1.55768 2.28819 2.77701C1.03838 3.99634 0.335359 5.64955 0.333374 7.37394C0.333374 10.0203 2.30254 12.2178 4.38837 14.5439C5.04837 15.2804 5.73171 16.0422 6.34004 16.813C6.41789 16.9115 6.51787 16.9913 6.6323 17.0462C6.74672 17.1011 6.87253 17.1296 7.00004 17.1296C7.12755 17.1296 7.25336 17.1011 7.36778 17.0462C7.48221 16.9913 7.58219 16.9115 7.66004 16.813C8.26837 16.0422 8.95171 15.2804 9.61171 14.5439C11.6975 12.2178 13.6667 10.0203 13.6667 7.37394C13.6647 5.64955 12.9617 3.99634 11.7119 2.77701C10.4621 1.55768 8.76754 0.87181 7.00004 0.869873ZM7.00004 9.81296C6.50559 9.81296 6.02224 9.66992 5.61112 9.40191C5.19999 9.13391 4.87956 8.75299 4.69034 8.30731C4.50112 7.86164 4.45161 7.37123 4.54808 6.89811C4.64454 6.42498 4.88264 5.99039 5.23227 5.64929C5.5819 5.30818 6.02736 5.07589 6.51232 4.98178C6.99727 4.88767 7.49993 4.93597 7.95675 5.12057C8.41356 5.30518 8.80401 5.61779 9.07872 6.01889C9.35342 6.41998 9.50004 6.89154 9.50004 7.37394C9.50004 8.02081 9.23665 8.64118 8.76781 9.09859C8.29897 9.556 7.66308 9.81296 7.00004 9.81296Z" fill="#9700FF"/>
</svg>
