<svg width="18" height="18" viewBox="0 0 18 18" fill="none" xmlns="http://www.w3.org/2000/svg">
<path d="M15.2 9.83331C15.0166 9.83331 14.825 9.77497 14.6416 9.73331C14.2704 9.65149 13.9055 9.54287 13.55 9.40831C13.1634 9.26766 12.7384 9.27497 12.3569 9.42881C11.9754 9.58265 11.6642 9.87217 11.4833 10.2416L11.3 10.6166C10.4883 10.1651 9.74245 9.60433 9.0833 8.94997C8.42894 8.29082 7.86815 7.54497 7.41663 6.7333L7.76663 6.49997C8.1361 6.31907 8.42561 6.00791 8.57946 5.62638C8.7333 5.24485 8.7406 4.8199 8.59996 4.4333C8.46765 4.07699 8.35908 3.7123 8.27496 3.34164C8.2333 3.1583 8.19996 2.96664 8.17496 2.77497C8.07377 2.18799 7.76632 1.65642 7.30798 1.276C6.84964 0.895585 6.27054 0.691312 5.67496 0.699971H3.17496C2.81582 0.696599 2.46017 0.770649 2.13222 0.91708C1.80427 1.06351 1.51172 1.27888 1.27449 1.54854C1.03725 1.81819 0.860907 2.1358 0.757452 2.47973C0.653997 2.82367 0.625861 3.18585 0.674962 3.54164C1.11891 7.03279 2.71332 10.2765 5.20634 12.7605C7.69936 15.2445 10.9489 16.8271 14.4416 17.2583H14.7583C15.3728 17.2592 15.9661 17.0337 16.425 16.625C16.6886 16.3892 16.8992 16.1001 17.0429 15.7769C17.1865 15.4537 17.2599 15.1037 17.2583 14.75V12.25C17.2481 11.6711 17.0373 11.1138 16.6619 10.673C16.2865 10.2323 15.7698 9.93549 15.2 9.83331ZM15.6166 14.8333C15.6165 14.9516 15.5911 15.0686 15.5423 15.1763C15.4934 15.2841 15.4222 15.3802 15.3333 15.4583C15.2402 15.5387 15.1313 15.5988 15.0136 15.6346C14.896 15.6705 14.7721 15.6814 14.65 15.6666C11.529 15.2665 8.63016 13.8387 6.41056 11.6085C4.19096 9.37838 2.77697 6.47275 2.39163 3.34997C2.37837 3.2279 2.38999 3.10441 2.4258 2.98696C2.4616 2.86951 2.52085 2.76054 2.59996 2.66664C2.67805 2.57775 2.77418 2.50651 2.88194 2.45765C2.98971 2.4088 3.10664 2.38345 3.22496 2.3833H5.72496C5.91875 2.37899 6.10798 2.44237 6.26008 2.56253C6.41218 2.68269 6.51764 2.85211 6.55829 3.04164C6.59163 3.26942 6.6333 3.49442 6.6833 3.71664C6.77956 4.15593 6.90768 4.58762 7.06663 5.00831L5.89996 5.54997C5.80021 5.59574 5.71048 5.66076 5.63593 5.7413C5.56137 5.82184 5.50346 5.91632 5.46552 6.0193C5.42758 6.12228 5.41035 6.23175 5.41483 6.34141C5.41932 6.45107 5.44541 6.55876 5.49163 6.6583C6.69096 9.22727 8.756 11.2923 11.325 12.4916C11.5278 12.575 11.7554 12.575 11.9583 12.4916C12.0622 12.4545 12.1577 12.397 12.2393 12.3226C12.3208 12.2482 12.3868 12.1584 12.4333 12.0583L12.95 10.8916C13.3808 11.0457 13.8204 11.1737 14.2666 11.275C14.4889 11.325 14.7139 11.3666 14.9416 11.4C15.1312 11.4406 15.3006 11.5461 15.4207 11.6982C15.5409 11.8503 15.6043 12.0395 15.6 12.2333L15.6166 14.8333Z" fill="#9700FF"/>
</svg>
