<svg width="80" height="80" viewBox="0 0 80 80" fill="none" xmlns="http://www.w3.org/2000/svg">
<g clip-path="url(#clip0_68_538)">
<circle cx="40" cy="40" r="40" fill="white"/>
<path d="M17.0153 35.1198V55.5059C17.0153 56.0618 16.6428 56.4325 16.0842 56.4325H12.3597C11.801 56.4325 11.4286 56.0618 11.4286 55.5059V35.1198C11.4286 34.5638 11.801 34.1931 12.3597 34.1931H16.0842C16.6428 34.1931 17.0153 34.6564 17.0153 35.1198ZM67.6403 34.1931H63.9159C63.3572 34.1931 62.9847 34.5638 62.9847 35.1198V55.5059C62.9847 56.0618 63.3572 56.4325 63.9159 56.4325H67.6403C68.199 56.4325 68.5714 56.0618 68.5714 55.5059V35.1198C68.5714 34.6564 68.199 34.1931 67.6403 34.1931Z" fill="#FFBC57"/>
<path d="M61.1226 40.6795V46.2394C61.1226 46.7954 60.7501 47.166 60.1915 47.166H19.8087C19.25 47.166 18.8776 46.7954 18.8776 46.2394V40.6795C18.8776 40.1236 19.25 39.7529 19.8087 39.7529H60.1915C60.7501 39.7529 61.1226 40.1236 61.1226 40.6795ZM19.8087 37.8996H30.7866C31.3453 37.8996 31.7177 37.529 31.7177 36.973V24.9266C31.7177 24.3707 31.3453 24 30.7866 24H19.8087C19.25 24 18.8776 24.3707 18.8776 24.9266V36.973C18.8776 37.529 19.25 37.8996 19.8087 37.8996ZM34.5111 37.8996H45.489C46.0477 37.8996 46.4202 37.529 46.4202 36.973V24.9266C46.4202 24.3707 46.0477 24 45.489 24H34.5111C33.9524 24 33.58 24.3707 33.58 24.9266V36.973C33.58 37.529 33.9524 37.8996 34.5111 37.8996ZM60.1915 24H49.2135C48.6548 24 48.2824 24.3707 48.2824 24.9266V36.973C48.2824 37.529 48.6548 37.8996 49.2135 37.8996H60.1915C60.7501 37.8996 61.1226 37.529 61.1226 36.973V24.9266C61.1226 24.3707 60.7501 24 60.1915 24ZM60.1915 49.0193H19.8087C19.25 49.0193 18.8776 49.39 18.8776 49.9459V55.5058C18.8776 56.0618 19.25 56.4324 19.8087 56.4324H25.1999C25.7586 56.4324 26.131 56.0618 26.131 55.5058V54.5791H53.8691V55.5058C53.8691 56.0618 54.2415 56.4324 54.8002 56.4324H60.1915C60.7501 56.4324 61.1226 56.0618 61.1226 55.5058V49.9459C61.1226 49.39 60.7501 49.0193 60.1915 49.0193Z" fill="#FFBC57"/>
</g>
<defs>
<clipPath id="clip0_68_538">
<rect width="80" height="80" fill="white"/>
</clipPath>
</defs>
</svg>
