<svg width="22" height="22" viewBox="0 0 22 22" fill="none" xmlns="http://www.w3.org/2000/svg">
<path d="M21.0312 18.8438C21.6172 19.4688 21.6172 20.4453 21.0312 21.0703C20.4062 21.6562 19.4297 21.6562 18.8047 21.0703L14.1562 16.3828C12.5547 17.4375 10.6016 17.9844 8.49219 17.7109C4.89844 17.2031 2.00781 14.2734 1.53906 10.7188C0.875 5.40625 5.36719 0.914062 10.6797 1.57812C14.2344 2.04688 17.1641 4.9375 17.6719 8.53125C17.9453 10.6406 17.3984 12.5938 16.3438 14.1562L21.0312 18.8438ZM4.58594 9.625C4.58594 12.3984 6.8125 14.625 9.58594 14.625C12.3203 14.625 14.5859 12.3984 14.5859 9.625C14.5859 6.89062 12.3203 4.625 9.58594 4.625C6.8125 4.625 4.58594 6.89062 4.58594 9.625Z" fill="white"/>
</svg>
