<svg width="40" height="40" viewBox="0 0 40 40" fill="none" xmlns="http://www.w3.org/2000/svg">
<circle cx="20" cy="20" r="20" fill="#FFBC57"/>
<path d="M24.6253 15.5529L18.9573 21.2406L16.7405 19.0087C16.5148 18.7828 16.2088 18.6558 15.8897 18.6558C15.5705 18.6558 15.2645 18.7828 15.0389 19.0087C14.8132 19.2347 14.6864 19.5411 14.6864 19.8607C14.6864 20.0189 14.7176 20.1756 14.778 20.3218C14.8385 20.468 14.9271 20.6008 15.0389 20.7127L18.1065 23.7845C18.2179 23.897 18.3505 23.9863 18.4965 24.0472C18.6425 24.1081 18.7991 24.1395 18.9573 24.1395C19.1155 24.1395 19.2722 24.1081 19.4182 24.0472C19.5642 23.9863 19.6967 23.897 19.8081 23.7845L26.3269 17.2568C26.4387 17.1449 26.5273 17.0121 26.5878 16.8659C26.6482 16.7197 26.6794 16.5631 26.6794 16.4049C26.6794 16.2466 26.6482 16.09 26.5878 15.9438C26.5273 15.7976 26.4387 15.6648 26.3269 15.5529C26.2152 15.441 26.0826 15.3523 25.9366 15.2917C25.7906 15.2312 25.6342 15.2 25.4761 15.2C25.3181 15.2 25.1617 15.2312 25.0157 15.2917C24.8697 15.3523 24.7371 15.441 24.6253 15.5529ZM20.6829 7.33325C19.1093 7.33325 17.551 7.64363 16.0972 8.24666C14.6433 8.84969 13.3223 9.73356 12.2096 10.8478C9.96229 13.0982 8.69979 16.1503 8.69979 19.3327C8.68932 22.1036 9.64741 24.7907 11.408 26.9284L9.01135 29.3283C8.84508 29.497 8.73244 29.7113 8.68766 29.9441C8.64287 30.1769 8.66794 30.4177 8.75971 30.6362C8.85924 30.8521 9.02058 31.0336 9.22327 31.1575C9.42596 31.2814 9.66084 31.3422 9.8981 31.3322H20.6829C23.861 31.3322 26.909 30.068 29.1562 27.8176C31.4035 25.5673 32.666 22.5152 32.666 19.3327C32.666 16.1503 31.4035 13.0982 29.1562 10.8478C26.909 8.59748 23.861 7.33325 20.6829 7.33325ZM20.6829 28.9323H12.786L13.9005 27.8163C14.1236 27.5915 14.2489 27.2874 14.2489 26.9704C14.2489 26.6534 14.1236 26.3492 13.9005 26.1244C12.3314 24.5549 11.3543 22.4892 11.1356 20.2792C10.9169 18.0692 11.4702 15.8517 12.7012 14.0044C13.9322 12.1571 15.7648 10.7943 17.8867 10.1483C20.0085 9.50226 22.2885 9.61292 24.338 10.4614C26.3876 11.3099 28.0799 12.8437 29.1267 14.8016C30.1736 16.7594 30.5101 19.0202 30.079 21.1986C29.6479 23.3771 28.4759 25.3385 26.7626 26.7487C25.0493 28.1589 22.9007 28.9305 20.6829 28.9323Z" fill="white"/>
</svg>
