<svg width="40" height="40" viewBox="0 0 40 40" fill="none" xmlns="http://www.w3.org/2000/svg">
<g clip-path="url(#clip0_159_4667)">
<circle cx="20" cy="20" r="20" fill="#FFBC57"/>
<path d="M27 14.6666H26V13.6666C26 12.871 25.6839 12.1079 25.1213 11.5453C24.5587 10.9827 23.7956 10.6666 23 10.6666H13C12.2044 10.6666 11.4413 10.9827 10.8787 11.5453C10.3161 12.1079 10 12.871 10 13.6666V25.6666C10 26.4623 10.3161 27.2253 10.8787 27.7879C11.4413 28.3506 12.2044 28.6666 13 28.6666H27C27.7956 28.6666 28.5587 28.3506 29.1213 27.7879C29.6839 27.2253 30 26.4623 30 25.6666V17.6666C30 16.871 29.6839 16.1079 29.1213 15.5453C28.5587 14.9827 27.7956 14.6666 27 14.6666ZM13 12.6666H23C23.2652 12.6666 23.5196 12.772 23.7071 12.9595C23.8946 13.1471 24 13.4014 24 13.6666V14.6666H13C12.7348 14.6666 12.4804 14.5613 12.2929 14.3737C12.1054 14.1862 12 13.9318 12 13.6666C12 13.4014 12.1054 13.1471 12.2929 12.9595C12.4804 12.772 12.7348 12.6666 13 12.6666ZM28 22.6666H27C26.7348 22.6666 26.4804 22.5613 26.2929 22.3737C26.1054 22.1862 26 21.9318 26 21.6666C26 21.4014 26.1054 21.1471 26.2929 20.9595C26.4804 20.772 26.7348 20.6666 27 20.6666H28V22.6666ZM28 18.6666H27C26.2044 18.6666 25.4413 18.9827 24.8787 19.5453C24.3161 20.1079 24 20.871 24 21.6666C24 22.4623 24.3161 23.2253 24.8787 23.7879C25.4413 24.3506 26.2044 24.6666 27 24.6666H28V25.6666C28 25.9318 27.8946 26.1862 27.7071 26.3737C27.5196 26.5613 27.2652 26.6666 27 26.6666H13C12.7348 26.6666 12.4804 26.5613 12.2929 26.3737C12.1054 26.1862 12 25.9318 12 25.6666V16.4966C12.3213 16.6096 12.6594 16.6671 13 16.6666H27C27.2652 16.6666 27.5196 16.772 27.7071 16.9595C27.8946 17.1471 28 17.4014 28 17.6666V18.6666Z" fill="white"/>
</g>
<defs>
<clipPath id="clip0_159_4667">
<rect width="40" height="40" fill="white"/>
</clipPath>
</defs>
</svg>
