<svg width="40" height="40" viewBox="0 0 40 40" fill="none" xmlns="http://www.w3.org/2000/svg">
<path d="M36.6667 8.33329H3.33335C2.89133 8.33329 2.4674 8.50889 2.15484 8.82145C1.84228 9.13401 1.66669 9.55793 1.66669 9.99996V16.6666C1.66959 17.6982 1.99148 18.7036 2.58825 19.5451C3.18502 20.3865 4.02744 21.0228 5.00002 21.3666V36.6666C5.00002 37.1087 5.17562 37.5326 5.48818 37.8451C5.80074 38.1577 6.22466 38.3333 6.66669 38.3333H33.3334C33.7754 38.3333 34.1993 38.1577 34.5119 37.8451C34.8244 37.5326 35 37.1087 35 36.6666V21.3666C35.9726 21.0228 36.815 20.3865 37.4118 19.5451C38.0086 18.7036 38.3305 17.6982 38.3334 16.6666V9.99996C38.3334 9.55793 38.1578 9.13401 37.8452 8.82145C37.5326 8.50889 37.1087 8.33329 36.6667 8.33329ZM25 11.6666H28.3334V16.6666C28.3334 17.1087 28.1578 17.5326 27.8452 17.8451C27.5326 18.1577 27.1087 18.3333 26.6667 18.3333C26.2247 18.3333 25.8007 18.1577 25.4882 17.8451C25.1756 17.5326 25 17.1087 25 16.6666V11.6666ZM18.3334 11.6666H21.6667V16.6666C21.6667 17.1087 21.4911 17.5326 21.1785 17.8451C20.866 18.1577 20.442 18.3333 20 18.3333C19.558 18.3333 19.1341 18.1577 18.8215 17.8451C18.5089 17.5326 18.3334 17.1087 18.3334 16.6666V11.6666ZM11.6667 11.6666H15V16.6666C15 17.1087 14.8244 17.5326 14.5119 17.8451C14.1993 18.1577 13.7754 18.3333 13.3334 18.3333C12.8913 18.3333 12.4674 18.1577 12.1548 17.8451C11.8423 17.5326 11.6667 17.1087 11.6667 16.6666V11.6666ZM6.66669 18.3333C6.22466 18.3333 5.80074 18.1577 5.48818 17.8451C5.17562 17.5326 5.00002 17.1087 5.00002 16.6666V11.6666H8.33335V16.6666C8.33335 17.1087 8.15776 17.5326 7.8452 17.8451C7.53264 18.1577 7.10871 18.3333 6.66669 18.3333ZM23.3334 35H16.6667V31.6666C16.6667 30.7826 17.0179 29.9347 17.643 29.3096C18.2681 28.6845 19.116 28.3333 20 28.3333C20.8841 28.3333 21.7319 28.6845 22.357 29.3096C22.9822 29.9347 23.3334 30.7826 23.3334 31.6666V35ZM31.6667 35H26.6667V31.6666C26.6667 29.8985 25.9643 28.2028 24.7141 26.9526C23.4638 25.7023 21.7681 25 20 25C18.2319 25 16.5362 25.7023 15.286 26.9526C14.0357 28.2028 13.3334 29.8985 13.3334 31.6666V35H8.33335V21.3666C8.94597 21.1392 9.51109 20.8002 10 20.3666C10.9167 21.1866 12.1035 21.6398 13.3334 21.6398C14.5632 21.6398 15.75 21.1866 16.6667 20.3666C17.5834 21.1866 18.7701 21.6398 20 21.6398C21.2299 21.6398 22.4167 21.1866 23.3334 20.3666C24.2501 21.1866 25.4368 21.6398 26.6667 21.6398C27.8966 21.6398 29.0833 21.1866 30 20.3666C30.489 20.8002 31.0541 21.1392 31.6667 21.3666V35ZM35 16.6666C35 17.1087 34.8244 17.5326 34.5119 17.8451C34.1993 18.1577 33.7754 18.3333 33.3334 18.3333C32.8913 18.3333 32.4674 18.1577 32.1548 17.8451C31.8423 17.5326 31.6667 17.1087 31.6667 16.6666V11.6666H35V16.6666ZM7.16669 4.99996H33.3334C33.7754 4.99996 34.1993 4.82436 34.5119 4.5118C34.8244 4.19924 35 3.77532 35 3.33329C35 2.89127 34.8244 2.46734 34.5119 2.15478C34.1993 1.84222 33.7754 1.66663 33.3334 1.66663H7.16669C6.72466 1.66663 6.30074 1.84222 5.98818 2.15478C5.67562 2.46734 5.50002 2.89127 5.50002 3.33329C5.50002 3.77532 5.67562 4.19924 5.98818 4.5118C6.30074 4.82436 6.72466 4.99996 7.16669 4.99996V4.99996Z" fill="#535353"/>
</svg>
