<svg width="17" height="17" viewBox="0 0 17 17" fill="none" xmlns="http://www.w3.org/2000/svg">
<path d="M8.5 0.970825C6.97338 0.970825 5.48104 1.42352 4.2117 2.27167C2.94235 3.11982 1.95302 4.32532 1.36881 5.73574C0.784594 7.14615 0.631737 8.69814 0.929567 10.1954C1.2274 11.6927 1.96254 13.0681 3.04202 14.1476C4.12151 15.227 5.49686 15.9622 6.99415 16.26C8.49144 16.5578 10.0434 16.405 11.4538 15.8208C12.8643 15.2366 14.0698 14.2472 14.9179 12.9779C15.7661 11.7085 16.2188 10.2162 16.2188 8.68958C16.2166 6.6431 15.4027 4.68106 13.9556 3.23398C12.5085 1.7869 10.5465 0.972986 8.5 0.970825ZM11.8888 7.3284L7.73258 11.4847C7.67744 11.5399 7.61195 11.5837 7.53987 11.6135C7.46779 11.6434 7.39053 11.6588 7.3125 11.6588C7.23448 11.6588 7.15721 11.6434 7.08513 11.6135C7.01305 11.5837 6.94757 11.5399 6.89243 11.4847L5.11118 9.7034C4.99976 9.59199 4.93717 9.44089 4.93717 9.28333C4.93717 9.12577 4.99976 8.97466 5.11118 8.86325C5.22259 8.75184 5.37369 8.68925 5.53125 8.68925C5.68881 8.68925 5.83992 8.75184 5.95133 8.86325L7.3125 10.2252L11.0487 6.48825C11.1038 6.43308 11.1693 6.38932 11.2414 6.35947C11.3135 6.32961 11.3907 6.31425 11.4688 6.31425C11.5468 6.31425 11.624 6.32961 11.6961 6.35947C11.7682 6.38932 11.8337 6.43308 11.8888 6.48825C11.944 6.54341 11.9878 6.6089 12.0176 6.68098C12.0475 6.75306 12.0628 6.83031 12.0628 6.90833C12.0628 6.98634 12.0475 7.06359 12.0176 7.13567C11.9878 7.20775 11.944 7.27324 11.8888 7.3284Z" fill="#01AB31"/>
</svg>
