<svg width="22" height="22" viewBox="0 0 22 22" fill="none" xmlns="http://www.w3.org/2000/svg">
<g filter="url(#filter0_dddd_20_298)">
<path d="M11.0008 1.44721C12.8095 1.44721 13.0237 1.45398 13.7382 1.48656C14.1678 1.49182 14.5933 1.5707 14.9962 1.71979C15.2884 1.83248 15.5538 2.00511 15.7753 2.22656C15.9967 2.44802 16.1694 2.71339 16.282 3.00559C16.4311 3.40853 16.51 3.83406 16.5153 4.26366C16.5475 4.97817 16.5546 5.19237 16.5546 7.00108C16.5546 8.80979 16.5479 9.02398 16.5153 9.7385C16.51 10.1681 16.4311 10.5936 16.282 10.9966C16.1694 11.2888 15.9967 11.5541 15.7753 11.7756C15.5538 11.997 15.2884 12.1697 14.9962 12.2824C14.5933 12.4315 14.1678 12.5103 13.7382 12.5156C13.024 12.5479 12.8098 12.5549 11.0008 12.5549C9.19172 12.5549 8.97753 12.5482 8.26334 12.5156C7.83373 12.5103 7.40821 12.4315 7.00527 12.2824C6.71307 12.1697 6.44769 11.997 6.22624 11.7756C6.00479 11.5541 5.83216 11.2888 5.71947 10.9966C5.57038 10.5936 5.4915 10.1681 5.48624 9.7385C5.45398 9.02398 5.44689 8.80979 5.44689 7.00108C5.44689 5.19237 5.45366 4.97817 5.48624 4.26366C5.4915 3.83406 5.57038 3.40853 5.71947 3.00559C5.83216 2.71339 6.00479 2.44802 6.22624 2.22656C6.44769 2.00511 6.71307 1.83248 7.00527 1.71979C7.40821 1.5707 7.83373 1.49182 8.26334 1.48656C8.97785 1.4543 9.19205 1.44721 11.0008 1.44721ZM11.0008 0.226562C9.16205 0.226562 8.93043 0.234304 8.20785 0.267208C7.64561 0.278391 7.08934 0.384847 6.56269 0.582046C6.11092 0.752261 5.70172 1.019 5.36366 1.36366C5.01869 1.70184 4.75172 2.11127 4.5814 2.56334C4.3842 3.08998 4.27775 3.64625 4.26656 4.2085C4.2343 4.93043 4.22656 5.16205 4.22656 7.00076C4.22656 8.83946 4.2343 9.07108 4.26721 9.79366C4.27839 10.3559 4.38485 10.9122 4.58205 11.4388C4.75218 11.8908 5.01892 12.3002 5.36366 12.6385C5.70191 12.9832 6.11133 13.25 6.56334 13.4201C7.08998 13.6173 7.64626 13.7238 8.2085 13.7349C8.93108 13.7672 9.16172 13.7756 11.0014 13.7756C12.8411 13.7756 13.0717 13.7679 13.7943 13.7349C14.3565 13.7238 14.9128 13.6173 15.4395 13.4201C15.8893 13.2457 16.2978 12.9794 16.6389 12.6381C16.98 12.2968 17.246 11.8882 17.4201 11.4382C17.6173 10.9115 17.7238 10.3553 17.735 9.79301C17.7672 9.07108 17.775 8.83946 17.775 7.00076C17.775 5.16205 17.7672 4.93043 17.7343 4.20785C17.7231 3.64561 17.6167 3.08934 17.4195 2.56269C17.2493 2.11068 16.9826 1.70126 16.6379 1.36301C16.2996 1.01828 15.8902 0.751533 15.4382 0.581401C14.9115 0.384201 14.3553 0.277746 13.793 0.266563C13.0711 0.234304 12.8395 0.226562 11.0008 0.226562Z" fill="black"/>
<path d="M11.0021 3.52344C10.3141 3.52344 9.64155 3.72746 9.06948 4.10971C8.49741 4.49195 8.05154 5.03525 7.78824 5.6709C7.52494 6.30655 7.45605 7.00601 7.59028 7.68081C7.72451 8.35561 8.05582 8.97546 8.54233 9.46197C9.02884 9.94847 9.64868 10.2798 10.3235 10.414C10.9983 10.5482 11.6977 10.4794 12.3334 10.2161C12.969 9.95276 13.5123 9.50689 13.8946 8.93481C14.2768 8.36274 14.4809 7.69017 14.4809 7.00215C14.4809 6.07954 14.1144 5.19471 13.462 4.54233C12.8096 3.88994 11.9248 3.52344 11.0021 3.52344ZM11.0021 9.26021C10.5555 9.26021 10.119 9.12778 9.74764 8.87966C9.3763 8.63154 9.08688 8.27888 8.91597 7.86627C8.74506 7.45366 8.70034 6.99964 8.78747 6.56162C8.8746 6.1236 9.08966 5.72125 9.40546 5.40545C9.72125 5.08966 10.1236 4.8746 10.5616 4.78747C10.9996 4.70034 11.4537 4.74506 11.8663 4.91597C12.2789 5.08687 12.6315 5.3763 12.8797 5.74763C13.1278 6.11897 13.2602 6.55554 13.2602 7.00215C13.2602 7.60102 13.0223 8.17537 12.5988 8.59884C12.1754 9.02231 11.601 9.26021 11.0021 9.26021Z" fill="black"/>
<path d="M14.6176 4.19807C15.0665 4.19807 15.4305 3.83412 15.4305 3.38517C15.4305 2.93621 15.0665 2.57227 14.6176 2.57227C14.1686 2.57227 13.8047 2.93621 13.8047 3.38517C13.8047 3.83412 14.1686 4.19807 14.6176 4.19807Z" fill="black"/>
</g>
<defs>
<filter id="filter0_dddd_20_298" x="0.226562" y="0.226562" width="21.5484" height="21.5488" filterUnits="userSpaceOnUse" color-interpolation-filters="sRGB">
<feFlood flood-opacity="0" result="BackgroundImageFix"/>
<feColorMatrix in="SourceAlpha" type="matrix" values="0 0 0 0 0 0 0 0 0 0 0 0 0 0 0 0 0 0 127 0" result="hardAlpha"/>
<feOffset dy="4"/>
<feGaussianBlur stdDeviation="2"/>
<feComposite in2="hardAlpha" operator="out"/>
<feColorMatrix type="matrix" values="0 0 0 0 0 0 0 0 0 0 0 0 0 0 0 0 0 0 0.25 0"/>
<feBlend mode="normal" in2="BackgroundImageFix" result="effect1_dropShadow_20_298"/>
<feColorMatrix in="SourceAlpha" type="matrix" values="0 0 0 0 0 0 0 0 0 0 0 0 0 0 0 0 0 0 127 0" result="hardAlpha"/>
<feOffset dy="4"/>
<feGaussianBlur stdDeviation="2"/>
<feComposite in2="hardAlpha" operator="out"/>
<feColorMatrix type="matrix" values="0 0 0 0 0 0 0 0 0 0 0 0 0 0 0 0 0 0 0.25 0"/>
<feBlend mode="normal" in2="effect1_dropShadow_20_298" result="effect2_dropShadow_20_298"/>
<feColorMatrix in="SourceAlpha" type="matrix" values="0 0 0 0 0 0 0 0 0 0 0 0 0 0 0 0 0 0 127 0" result="hardAlpha"/>
<feOffset dy="4"/>
<feGaussianBlur stdDeviation="2"/>
<feComposite in2="hardAlpha" operator="out"/>
<feColorMatrix type="matrix" values="0 0 0 0 0 0 0 0 0 0 0 0 0 0 0 0 0 0 0.25 0"/>
<feBlend mode="normal" in2="effect2_dropShadow_20_298" result="effect3_dropShadow_20_298"/>
<feColorMatrix in="SourceAlpha" type="matrix" values="0 0 0 0 0 0 0 0 0 0 0 0 0 0 0 0 0 0 127 0" result="hardAlpha"/>
<feOffset dy="4"/>
<feGaussianBlur stdDeviation="2"/>
<feComposite in2="hardAlpha" operator="out"/>
<feColorMatrix type="matrix" values="0 0 0 0 0 0 0 0 0 0 0 0 0 0 0 0 0 0 0.25 0"/>
<feBlend mode="normal" in2="effect3_dropShadow_20_298" result="effect4_dropShadow_20_298"/>
<feBlend mode="normal" in="SourceGraphic" in2="effect4_dropShadow_20_298" result="shape"/>
</filter>
</defs>
</svg>
