<svg width="40" height="28" viewBox="0 0 40 28" fill="none" xmlns="http://www.w3.org/2000/svg">
<g opacity="0.1" clip-path="url(#clip0_201_2078)">
<path d="M39.9965 9.99306C39.8575 18.5258 35.1781 25.1322 27.4483 27.6904C27.263 27.7474 27.0962 27.8045 26.9183 27.8543C25.836 28.1637 24.9687 27.9077 24.4591 27.1323C23.9494 26.3569 24.0328 25.4471 24.7667 24.6036C26.1499 23.0318 27.3222 21.2885 28.2545 19.4172C28.7734 18.3675 28.779 18.3693 27.6985 18.0378C23.7956 16.837 21.1807 13.1056 21.2956 8.90091C21.405 4.88959 24.3368 1.28899 28.3027 0.288921C30.2621 -0.216649 32.3347 -0.0656319 34.199 0.718556C36.0633 1.50274 37.6152 2.87629 38.614 4.62622C39.5703 6.25169 40.0492 8.11089 39.9965 9.99306Z" fill="#FA8B02"/>
<path d="M18.7069 10.0316C18.5808 18.6418 13.7198 25.3715 5.87883 27.7897C5.31174 27.9739 4.75392 28.1047 4.16089 27.8929C2.81174 27.4103 2.4448 25.8227 3.45852 24.6495C4.91076 22.979 6.14432 21.1324 7.12975 19.1538C7.43554 18.5368 7.37623 18.2974 6.65162 18.0874C4.6761 17.5191 2.94844 16.3108 1.74329 14.6546C0.538138 12.9984 -0.0753343 10.9894 0.000398229 8.94686C0.148656 4.7882 3.19165 1.13419 7.25207 0.237257C9.25443 -0.228495 11.3561 -0.0143282 13.2217 0.845587C15.0872 1.7055 16.6093 3.16161 17.5449 4.98158C18.3862 6.58758 18.7346 8.10334 18.7069 10.0316Z" fill="#FA8B02"/>
</g>
<defs>
<clipPath id="clip0_201_2078">
<rect width="40" height="28" fill="white"/>
</clipPath>
</defs>
</svg>
