<svg width="61" height="60" viewBox="0 0 61 60" fill="none" xmlns="http://www.w3.org/2000/svg">
<g clip-path="url(#clip0_201_7012)">
<path d="M40.8299 58.0564C41.6673 56.8381 42.4369 55.7999 43.1151 54.7042C43.3429 54.2826 43.6897 53.9374 44.1123 53.7115C44.5349 53.4856 45.0146 53.389 45.4917 53.4338C46.4464 53.4729 47.4064 53.3608 48.3612 53.4155C49.5273 53.4808 49.4595 53.0425 48.9769 52.2468C48.4369 51.3573 47.9751 50.4208 47.4769 49.5025C47.169 48.939 47.1038 48.3834 47.756 48.0547C48.3586 47.7495 48.7395 48.1616 49.0082 48.6521C49.736 49.9877 50.4899 51.3103 51.1604 52.6747C51.7604 53.8929 51.1264 54.9338 49.736 55.0486C48.6556 55.174 47.5669 55.2124 46.4804 55.1634C45.2725 55.0668 44.5421 55.5625 43.9786 56.5616C43.5534 57.3155 43.029 58.0173 42.5308 58.7268C41.3177 60.4512 40.0891 60.399 39.0821 58.5573C37.1856 55.0877 35.2864 51.6181 33.4421 48.1225C32.9856 47.2538 32.5917 46.706 31.5064 47.246C31.1875 47.3966 30.8387 47.4734 30.486 47.4707C30.1332 47.468 29.7857 47.3858 29.469 47.2303C28.4464 46.7295 28.0656 47.2068 27.6221 48.0521C25.796 51.5138 23.9177 54.9416 22.0525 58.3773C20.9256 60.4642 19.509 60.6312 18.4499 58.5468C17.0412 55.7764 15.0273 54.8242 12.0169 55.0355C9.63774 55.2025 9.09253 54.0573 10.2456 51.9338C11.9847 48.7251 13.7238 45.5164 15.463 42.3077C16.2586 40.8364 16.0317 39.7851 14.6151 38.799C13.8842 38.3284 13.1185 37.9142 12.3247 37.5599C10.2743 36.5608 9.12383 34.9721 9.41861 32.6634C9.72122 30.2738 9.12644 28.2468 7.68905 26.3321C6.40035 24.6181 6.41601 22.7164 7.70992 21.0051C8.40986 20.1197 8.92231 19.101 9.21606 18.0112C9.50981 16.9214 9.57873 15.7833 9.41861 14.666C9.14209 12.4225 10.2012 10.7712 12.2621 9.88684C14.276 9.02337 15.7499 7.72945 16.5899 5.65032C17.5421 3.3025 19.4125 2.27467 21.9064 2.62163C22.8721 2.77076 23.8582 2.71645 24.8016 2.46218C25.745 2.20792 26.6248 1.7593 27.3847 1.1451C29.4325 -0.420113 31.5847 -0.420113 33.6273 1.1451C34.4083 1.76733 35.3105 2.21979 36.2762 2.47358C37.242 2.72737 38.25 2.7769 39.236 2.61902C41.6177 2.30597 43.436 3.28423 44.3595 5.53815C45.2204 7.64076 46.6786 9.01293 48.7499 9.88945C50.8212 10.766 51.8804 12.4251 51.596 14.666C51.4376 15.7826 51.5071 16.9198 51.8003 18.0089C52.0935 19.098 52.6044 20.1163 53.3021 21.0025C54.6299 22.7712 54.5804 24.6912 53.2604 26.4442C51.8777 28.2703 51.296 30.2321 51.596 32.5329C51.9143 34.9486 50.7351 36.5921 48.5777 37.6277C47.3777 38.2042 46.0969 38.6712 45.356 39.9468C44.9673 40.6173 44.8604 41.1651 45.2934 41.8564C45.8464 42.7381 46.303 43.6825 46.7934 44.6008C47.0934 45.1616 47.1534 45.7329 46.4934 46.046C45.896 46.3303 45.523 45.9208 45.249 45.4251C45.1656 45.2738 45.0873 45.1173 44.9882 44.966C44.6412 44.366 44.4273 43.5103 43.9056 43.2364C43.3056 42.9234 42.9899 43.9225 42.4447 44.2173C41.1404 44.9268 39.7525 44.8225 38.3673 44.739C37.1334 44.666 35.9334 44.6764 34.856 45.4147C34.4673 45.6755 34.1569 45.8842 34.4621 46.4373C36.5699 50.2408 38.6438 54.0521 40.8299 58.0564ZM22.663 4.42423C20.0543 3.76684 18.5856 4.96945 17.7064 7.2938C16.9864 9.20597 15.4969 10.3773 13.6551 11.1129C11.7456 11.8773 10.8638 13.1816 11.1847 15.2868C11.3678 16.3581 11.3146 17.4564 11.0289 18.5049C10.7433 19.5535 10.2319 20.527 9.53079 21.3573C8.28122 22.886 8.27079 24.4564 9.51774 25.9825C10.2239 26.8139 10.7397 27.7897 11.029 28.8415C11.3183 29.8933 11.3741 30.9956 11.1925 32.0712C10.8821 34.1581 11.6882 35.4808 13.6447 36.2451C14.6322 36.5974 15.5293 37.1643 16.2713 37.905C17.0134 38.6457 17.5819 39.5417 17.936 40.5286C18.6638 42.4877 20.023 43.3121 22.1099 42.9964C23.1629 42.8106 24.2437 42.8575 25.2766 43.1337C26.3095 43.41 27.2694 43.9089 28.0891 44.5955C29.696 45.8999 31.3291 45.9208 32.9438 44.6086C33.7615 43.92 34.72 43.4186 35.752 43.1396C36.784 42.8607 37.8645 42.8109 38.9177 42.9938C40.9786 43.3095 42.3586 42.5164 43.0917 40.5495C43.4444 39.5619 44.0115 38.6648 44.7521 37.9224C45.4927 37.1799 46.3885 36.6107 47.3751 36.2555C49.3186 35.5068 50.1586 34.1895 49.8456 32.1025C49.6621 31.0268 49.7161 29.9241 50.0036 28.8714C50.2911 27.8188 50.8052 26.8417 51.5099 26.0086C52.7517 24.4903 52.7725 22.9199 51.5099 21.386C50.8026 20.5547 50.2861 19.5785 49.9968 18.5261C49.7074 17.4737 49.6523 16.3707 49.8351 15.2947C50.1534 13.2077 49.3134 11.8642 47.3856 11.1208C46.3821 10.7506 45.472 10.1649 44.7193 9.40503C43.9666 8.64513 43.3896 7.72946 43.029 6.7225C42.3299 4.89641 41.0412 4.07989 39.0638 4.37467C36.7551 4.69554 34.6473 4.19206 32.8212 2.7051C31.2247 1.40076 29.6908 1.51815 28.0943 2.75989C26.4977 4.00163 24.7343 4.73467 22.663 4.42423ZM20.1977 58.0486C22.3708 54.0703 24.4212 50.2981 26.4977 46.5416C26.8082 45.9755 26.6125 45.7225 26.143 45.4042C24.8386 44.5225 23.4064 44.7051 21.969 44.7781C20.3699 44.8564 18.8099 44.7781 17.6804 43.4242C17.2134 42.8634 16.9969 43.1634 16.7569 43.5964C15.1186 46.6103 13.4821 49.6208 11.8473 52.6277C11.5395 53.1938 11.6777 53.4103 12.3117 53.4103C13.3969 53.4103 14.4847 53.4834 15.5673 53.4442C16.6499 53.4051 17.3647 53.8408 17.9151 54.7486C18.5882 55.7921 19.3369 56.8016 20.1977 58.0486Z" fill="#FA8B02"/>
<path d="M30.6743 5.50162C35.4483 5.5688 40.0048 7.50915 43.3615 10.9044C46.7182 14.2997 48.6064 18.878 48.6191 23.6524C48.6317 28.4269 46.7678 33.0151 43.4292 36.4281C40.0905 39.8412 35.5444 41.8056 30.7709 41.8981C17.4665 42.1303 8.33608 28.0042 14.023 15.9938C14.1717 15.6781 14.3283 15.3677 14.503 15.0677C14.8474 14.4729 15.1683 13.6538 16.0474 14.1625C16.8456 14.6242 16.3448 15.2894 16.0474 15.8634C13.7517 20.366 13.4074 24.9938 15.2439 29.7234C17.8526 36.4799 24.8961 40.7764 32.1404 40.0486C39.3848 39.3208 45.4448 33.7094 46.6735 26.5903C47.9074 19.4294 44.55 12.5999 38.0648 9.11206C32.1013 5.89032 24.4239 6.94945 19.2822 11.6947C19.0672 11.9099 18.838 12.1103 18.5961 12.2947C18.4284 12.4177 18.2212 12.4745 18.0142 12.4544C17.8072 12.4342 17.6149 12.3384 17.4741 12.1853C17.3333 12.0323 17.2539 11.8327 17.251 11.6247C17.2482 11.4167 17.3221 11.215 17.4587 11.0581C17.9641 10.5205 18.5054 10.0176 19.0787 9.55293C22.47 6.80336 26.3439 5.4938 30.6743 5.50162Z" fill="#FA8B02"/>
<path d="M21.8803 33.4069C22.1568 31.7243 22.4203 29.919 22.7595 28.1243C22.8364 27.8338 22.8281 27.5273 22.7356 27.2415C22.6431 26.9556 22.4703 26.7024 22.2377 26.5121C21.056 25.4217 19.929 24.2738 18.7655 23.1651C18.0142 22.4503 17.6021 21.6416 17.9621 20.5982C18.309 19.6043 19.1099 19.2625 20.0803 19.1347C21.5855 18.9364 23.0829 18.6495 24.5934 18.4903C25.4647 18.399 26.0073 18.0651 26.3725 17.2408C27.0221 15.7721 27.7786 14.353 28.4855 12.9077C28.9029 12.0573 29.5629 11.5121 30.5177 11.5121C31.4725 11.5121 32.1325 12.0573 32.5499 12.9103C33.2568 14.353 34.016 15.7799 34.6629 17.2434C35.0281 18.073 35.5786 18.3912 36.4447 18.4877C38.0386 18.6651 39.6221 18.9547 41.2134 19.1817C42.1055 19.3069 42.7786 19.7321 43.0708 20.6008C43.3916 21.5217 43.1255 22.3147 42.4473 22.9773C41.2368 24.1643 40.0368 25.3617 38.7951 26.5173C38.5626 26.7076 38.3897 26.9608 38.2972 27.2467C38.2047 27.5326 38.1964 27.839 38.2734 28.1295C38.576 29.6634 38.7951 31.2156 39.056 32.7547C39.2412 33.7982 39.2177 34.7712 38.2734 35.4521C37.3708 36.0886 36.4682 35.8695 35.5734 35.3869C34.1568 34.6251 32.7195 33.9051 31.3134 33.1251C31.0793 32.9767 30.8079 32.8978 30.5308 32.8978C30.2536 32.8978 29.9822 32.9767 29.7481 33.1251C28.2273 33.9599 26.7012 34.7973 25.1308 35.5434C23.396 36.3599 21.8334 35.3451 21.8803 33.4069ZM23.7064 33.1277C23.5368 34.1399 23.9673 34.1712 24.7186 33.7721C26.1742 32.9895 27.656 32.2643 29.0986 31.4608C29.525 31.1973 30.0164 31.0577 30.5177 31.0577C31.019 31.0577 31.5104 31.1973 31.9368 31.4608C33.2647 32.199 34.6186 32.8903 35.9725 33.5843C36.3455 33.7747 36.7551 34.2156 37.1516 33.939C37.6029 33.6208 37.3003 33.0443 37.2325 32.5982C37.0055 31.0956 36.7525 29.5956 36.4499 28.1034C36.3369 27.6376 36.3553 27.1495 36.5031 26.6936C36.651 26.2376 36.9224 25.8316 37.2873 25.5208C38.5238 24.3625 39.7212 23.173 40.9395 21.9703C41.1534 21.7617 41.4612 21.5425 41.3334 21.2086C41.2055 20.8747 40.8612 20.8799 40.5508 20.8356C38.9203 20.593 37.2925 20.293 35.6542 20.113C34.4855 19.9851 33.7629 19.4295 33.2829 18.373C32.5995 16.8703 31.8299 15.4095 31.0916 13.9382C30.9612 13.6773 30.8803 13.3251 30.4995 13.3303C30.1186 13.3356 30.0455 13.6851 29.9151 13.9486C29.1325 15.5138 28.3629 17.0608 27.609 18.626C27.4365 19.0264 27.1595 19.373 26.807 19.6295C26.4545 19.8861 26.0396 20.0431 25.6055 20.0843C23.9334 20.3138 22.2612 20.5747 20.5864 20.8356C20.2447 20.8851 19.8195 20.8356 19.6916 21.2295C19.5638 21.6234 19.9525 21.8425 20.1847 22.0799C21.2673 23.1495 22.3238 24.2477 23.4586 25.2573C24.4342 26.1234 24.8099 27.0834 24.5308 28.3877C24.1916 29.9477 23.9751 31.5443 23.7064 33.1277Z" fill="#FA8B02"/>
</g>
<defs>
<clipPath id="clip0_201_7012">
<rect width="60" height="60" fill="white" transform="translate(0.50293)"/>
</clipPath>
</defs>
</svg>
