<svg width="21" height="20" viewBox="0 0 21 20" fill="none" xmlns="http://www.w3.org/2000/svg">
<path d="M20.21 2.72006L17.78 0.29006C17.5927 0.103809 17.3392 -0.000732422 17.075 -0.000732422C16.8108 -0.000732422 16.5574 0.103809 16.37 0.29006L10.79 5.87006C10.6973 5.9635 10.624 6.07432 10.5742 6.19615C10.5245 6.31799 10.4993 6.44845 10.5 6.58006V9.00006C10.5 9.26528 10.6054 9.51963 10.7929 9.70717C10.9804 9.8947 11.2348 10.0001 11.5 10.0001H13.92C14.0516 10.0008 14.1821 9.9756 14.3039 9.92583C14.4258 9.87607 14.5366 9.80274 14.63 9.71006L20.21 4.13006C20.3963 3.9427 20.5008 3.68925 20.5008 3.42506C20.5008 3.16087 20.3963 2.90742 20.21 2.72006ZM13.5 8.00006H12.5V7.00006L17.08 2.42006L18.08 3.42006L13.5 8.00006ZM17.5 10.0001C17.2348 10.0001 16.9804 10.1054 16.7929 10.293C16.6054 10.4805 16.5 10.7348 16.5 11.0001C16.5 12.8566 15.7625 14.6371 14.4498 15.9498C13.137 17.2626 11.3565 18.0001 9.50002 18.0001H3.91002L4.55002 17.3701C4.64375 17.2771 4.71814 17.1665 4.76891 17.0446C4.81968 16.9228 4.84582 16.7921 4.84582 16.6601C4.84582 16.528 4.81968 16.3973 4.76891 16.2755C4.71814 16.1536 4.64375 16.043 4.55002 15.9501C3.57095 14.9711 2.90418 13.7238 2.63404 12.3658C2.3639 11.0079 2.50253 9.60035 3.03238 8.32121C3.56224 7.04206 4.45952 5.94878 5.61076 5.17961C6.762 4.41045 8.11547 3.99996 9.50002 4.00006C9.76523 4.00006 10.0196 3.8947 10.2071 3.70717C10.3947 3.51963 10.5 3.26528 10.5 3.00006C10.5 2.73484 10.3947 2.48049 10.2071 2.29295C10.0196 2.10542 9.76523 2.00006 9.50002 2.00006C7.80748 2.00562 6.15082 2.48834 4.7202 3.3928C3.28959 4.29726 2.14301 5.58679 1.41209 7.11338C0.681164 8.63996 0.395526 10.3417 0.587962 12.0233C0.780398 13.7048 1.44311 15.2981 2.50002 16.6201L0.790017 18.2901C0.65126 18.4307 0.557264 18.6093 0.519889 18.8032C0.482515 18.9972 0.503438 19.1979 0.580017 19.3801C0.655037 19.5627 0.782435 19.719 0.946156 19.8293C1.10988 19.9397 1.30259 19.9991 1.50002 20.0001H9.50002C10.6819 20.0001 11.8522 19.7673 12.9442 19.315C14.0361 18.8627 15.0282 18.1997 15.864 17.364C16.6997 16.5283 17.3626 15.5361 17.8149 14.4442C18.2672 13.3523 18.5 12.182 18.5 11.0001C18.5 10.7348 18.3947 10.4805 18.2071 10.293C18.0196 10.1054 17.7652 10.0001 17.5 10.0001Z" fill="white"/>
</svg>
