<svg width="29" height="25" viewBox="0 0 29 25" fill="none" xmlns="http://www.w3.org/2000/svg">
<path d="M26.1021 2.49432C24.5949 0.997728 22.5854 0.124716 20.4503 0.124716C18.3152 0.124716 16.3057 0.997728 14.7985 2.49432L14.4217 2.86847L13.9194 2.3696C12.4122 0.873012 10.4027 0 8.26759 0C6.13247 0 4.12295 0.873012 2.61581 2.3696C1.10867 3.8662 0.229492 5.86165 0.229492 7.98182C0.229492 10.102 1.10867 12.0975 2.61581 13.594L13.5426 24.4443C13.7938 24.6938 14.045 24.8185 14.4217 24.8185C14.7985 24.8185 15.0497 24.6938 15.3009 24.4443L26.2277 13.594C27.7348 12.0975 28.614 10.102 28.614 7.98182C28.614 5.86165 27.7348 3.99091 26.1021 2.49432Z" fill="#00B5FF"/>
<mask id="mask0_10_9" style="mask-type:alpha" maskUnits="userSpaceOnUse" x="0" y="0" width="29" height="25">
<path d="M26.1021 2.49432C24.5949 0.997728 22.5854 0.124716 20.4503 0.124716C18.3152 0.124716 16.3057 0.997728 14.7985 2.49432L14.4217 2.86847L13.9194 2.3696C12.4122 0.873012 10.4027 0 8.26759 0C6.13247 0 4.12295 0.873012 2.61581 2.3696C1.10867 3.8662 0.229492 5.86165 0.229492 7.98182C0.229492 10.102 1.10867 12.0975 2.61581 13.594L13.5426 24.4443C13.7938 24.6938 14.045 24.8185 14.4217 24.8185C14.7985 24.8185 15.0497 24.6938 15.3009 24.4443L26.2277 13.594C27.7348 12.0975 28.614 10.102 28.614 7.98182C28.614 5.86165 27.7348 3.99091 26.1021 2.49432Z" fill="#00B5FF"/>
</mask>
<g mask="url(#mask0_10_9)">
<rect x="-0.706543" y="10.3227" width="30.0675" height="15.0844" fill="#FFBC00"/>
</g>
</svg>
