<svg width="8" height="12" viewBox="0 0 8 12" fill="none" xmlns="http://www.w3.org/2000/svg">
<path d="M4.7 6.49999C4.3 6.09999 3.7 6.09999 3.3 6.49999L0.3 9.49999C-0.1 9.89999 -0.1 10.5 0.3 10.9C0.7 11.3 1.3 11.3 1.7 10.9L4 8.59999L6.3 10.9C6.5 11.1 6.7 11.2 7 11.2C7.3 11.2 7.5 11.1 7.7 10.9C8.1 10.5 8.1 9.89999 7.7 9.49999L4.7 6.49999ZM1.7 5.49999L4 3.19999L6.3 5.49999C6.5 5.69999 6.7 5.79999 7 5.79999C7.3 5.79999 7.5 5.69999 7.7 5.49999C8.1 5.09999 8.1 4.49999 7.7 4.09999L4.7 1.09999C4.3 0.699988 3.7 0.699988 3.3 1.09999L0.3 4.09999C-0.1 4.49999 -0.1 5.09999 0.3 5.49999C0.7 5.79999 1.3 5.79999 1.7 5.49999Z" fill="#FFBC57"/>
</svg>
