<svg width="20" height="12" viewBox="0 0 20 12" fill="none" xmlns="http://www.w3.org/2000/svg">
<path d="M13.29 0.290059C13.1963 0.383023 13.1219 0.493622 13.0711 0.615482C13.0203 0.737341 12.9942 0.868047 12.9942 1.00006C12.9942 1.13207 13.0203 1.26278 13.0711 1.38464C13.1219 1.50649 13.1963 1.61709 13.29 1.71006L16.59 5.00006L1 5.00006C0.734783 5.00006 0.480429 5.10542 0.292893 5.29295C0.105357 5.48049 -2.7404e-07 5.73484 -2.62447e-07 6.00006C-2.50854e-07 6.26528 0.105357 6.51963 0.292893 6.70717C0.48043 6.8947 0.734783 7.00006 1 7.00006L16.59 7.00006L13.29 10.2901C13.1017 10.4784 12.9959 10.7338 12.9959 11.0001C12.9959 11.2664 13.1017 11.5218 13.29 11.7101C13.4783 11.8984 13.7337 12.0041 14 12.0041C14.2663 12.0041 14.5217 11.8984 14.71 11.7101L19.71 6.71006C19.801 6.61495 19.8724 6.50281 19.92 6.38006C19.9729 6.26036 20.0002 6.13093 20.0002 6.00006C20.0002 5.86919 19.9729 5.73976 19.92 5.62006C19.8724 5.49731 19.801 5.38516 19.71 5.29006L14.71 0.290059C14.617 0.196331 14.5064 0.121935 14.3846 0.0711664C14.2627 0.0203975 14.132 -0.00573983 14 -0.00573982C13.868 -0.00573982 13.7373 0.0203975 13.6154 0.0711664C13.4936 0.121935 13.383 0.196331 13.29 0.290059Z" fill="#FFBC57"/>
</svg>
