<svg width="27" height="26" viewBox="0 0 27 26" fill="none" xmlns="http://www.w3.org/2000/svg">
<path d="M22.8437 14.3414C22.5559 14.3414 22.2549 14.2498 21.9671 14.1844C21.3841 14.0559 20.8112 13.8854 20.2529 13.6741C19.6459 13.4532 18.9787 13.4647 18.3796 13.7063C17.7805 13.9478 17.2919 14.4024 17.0079 14.9826L16.72 15.5714C15.4456 14.8624 14.2745 13.9819 13.2395 12.9544C12.212 11.9194 11.3315 10.7483 10.6225 9.47384L11.1721 9.10746C11.7522 8.82341 12.2068 8.33484 12.4483 7.73577C12.6899 7.13669 12.7014 6.46945 12.4805 5.86242C12.2728 5.30294 12.1023 4.73032 11.9702 4.14831C11.9048 3.86044 11.8525 3.55949 11.8132 3.25854C11.6543 2.33687 11.1716 1.50222 10.4519 0.904891C9.73222 0.307564 8.82293 -0.0131815 7.88776 0.000415186H3.96231C3.39839 -0.00487965 2.83996 0.111392 2.32502 0.341315C1.81007 0.571238 1.35072 0.909414 0.97822 1.33282C0.605721 1.75623 0.328824 2.25493 0.166381 2.79496C0.00393683 3.335 -0.0402404 3.9037 0.0368563 4.46235C0.733936 9.94409 3.23745 15.0374 7.15194 18.9376C11.0664 22.8379 16.1688 25.3229 21.653 26H22.1502C23.1151 26.0014 24.0468 25.6474 24.7672 25.0055C25.1812 24.6353 25.5118 24.1814 25.7374 23.6739C25.963 23.1664 26.0783 22.6168 26.0757 22.0615V18.136C26.0597 17.2271 25.7287 16.352 25.1393 15.6599C24.5498 14.9679 23.7385 14.5019 22.8437 14.3414ZM23.498 22.1923C23.4977 22.3781 23.4579 22.5617 23.3812 22.7309C23.3045 22.9001 23.1927 23.0511 23.0531 23.1737C22.9073 23.3006 22.7364 23.3953 22.5515 23.4517C22.3666 23.5081 22.1719 23.5248 21.9801 23.5008C17.0797 22.8725 12.528 20.6306 9.04278 17.1289C5.55761 13.6271 3.33739 9.06473 2.73233 4.16139C2.71151 3.96973 2.72976 3.77582 2.78598 3.59141C2.84221 3.40699 2.93524 3.23589 3.05945 3.08844C3.18207 2.94886 3.33301 2.837 3.50222 2.76029C3.67143 2.68358 3.85503 2.64379 4.04082 2.64355H7.96627C8.27055 2.63678 8.56768 2.7363 8.8065 2.92497C9.04533 3.11364 9.21091 3.37967 9.27475 3.67726C9.32709 4.03491 9.39252 4.3882 9.47103 4.73713C9.62218 5.42689 9.82335 6.10473 10.0729 6.76528L8.24105 7.61579C8.08442 7.68766 7.94353 7.78975 7.82647 7.91621C7.7094 8.04268 7.61848 8.19102 7.5589 8.35272C7.49933 8.51443 7.47228 8.6863 7.47931 8.85849C7.48635 9.03067 7.52733 9.19977 7.59989 9.35608C9.48307 13.3898 12.7255 16.6323 16.7593 18.5155C17.0778 18.6463 17.4352 18.6463 17.7537 18.5155C17.9169 18.4571 18.0669 18.3669 18.1949 18.2501C18.3229 18.1333 18.4265 17.9922 18.4996 17.8351L19.3108 16.0032C19.9873 16.2451 20.6777 16.4461 21.3782 16.6051C21.7272 16.6836 22.0805 16.749 22.4381 16.8014C22.7357 16.8652 23.0017 17.0308 23.1904 17.2696C23.3791 17.5084 23.4786 17.8056 23.4718 18.1098L23.498 22.1923Z" fill="#B1B1B1"/>
</svg>
