<svg width="11" height="11" viewBox="0 0 11 11" fill="none" xmlns="http://www.w3.org/2000/svg">
<path d="M10 4.66667H6V0.666667C6 0.489856 5.92976 0.320287 5.80474 0.195262C5.67971 0.070238 5.51014 0 5.33333 0C5.15652 0 4.98695 0.070238 4.86193 0.195262C4.7369 0.320287 4.66667 0.489856 4.66667 0.666667V4.66667H0.666667C0.489856 4.66667 0.320287 4.7369 0.195262 4.86193C0.070238 4.98695 0 5.15652 0 5.33333C0 5.51014 0.070238 5.67971 0.195262 5.80474C0.320287 5.92976 0.489856 6 0.666667 6H4.66667V10C4.66667 10.1768 4.7369 10.3464 4.86193 10.4714C4.98695 10.5964 5.15652 10.6667 5.33333 10.6667C5.51014 10.6667 5.67971 10.5964 5.80474 10.4714C5.92976 10.3464 6 10.1768 6 10V6H10C10.1768 6 10.3464 5.92976 10.4714 5.80474C10.5964 5.67971 10.6667 5.51014 10.6667 5.33333C10.6667 5.15652 10.5964 4.98695 10.4714 4.86193C10.3464 4.7369 10.1768 4.66667 10 4.66667Z" fill="#535353"/>
</svg>
