<svg width="34" height="34" viewBox="0 0 34 34" fill="none" xmlns="http://www.w3.org/2000/svg">
<path d="M15.8168 22.4835C15.7452 22.5627 15.6784 22.6462 15.6168 22.7335C15.5538 22.8264 15.5033 22.9273 15.4668 23.0335C15.4188 23.128 15.3851 23.2291 15.3668 23.3335C15.3587 23.4445 15.3587 23.5559 15.3668 23.6668C15.3612 23.8855 15.4069 24.1024 15.5002 24.3002C15.575 24.507 15.6944 24.6948 15.85 24.8504C16.0055 25.0059 16.1933 25.1253 16.4002 25.2002C16.5997 25.2883 16.8154 25.3339 17.0335 25.3339C17.2516 25.3339 17.4673 25.2883 17.6668 25.2002C17.8737 25.1253 18.0615 25.0059 18.217 24.8504C18.3726 24.6948 18.492 24.507 18.5668 24.3002C18.6408 24.0975 18.6748 23.8824 18.6668 23.6668C18.6681 23.4475 18.6261 23.23 18.5431 23.027C18.4602 22.8239 18.338 22.6392 18.1835 22.4835C18.0286 22.3273 17.8442 22.2033 17.6411 22.1187C17.438 22.0341 17.2202 21.9905 17.0002 21.9905C16.7802 21.9905 16.5623 22.0341 16.3592 22.1187C16.1561 22.2033 15.9718 22.3273 15.8168 22.4835ZM17.0002 0.333496C13.7038 0.333496 10.4815 1.31098 7.74067 3.14234C4.99985 4.97369 2.86364 7.57667 1.60218 10.6221C0.340717 13.6675 0.0106619 17.0187 0.653749 20.2517C1.29684 23.4847 2.88418 26.4544 5.21506 28.7853C7.54593 31.1162 10.5156 32.7035 13.7487 33.3466C16.9817 33.9897 20.3328 33.6596 23.3782 32.3982C26.4237 31.1367 29.0266 29.0005 30.858 26.2597C32.6894 23.5188 33.6668 20.2965 33.6668 17.0002C33.6668 14.8115 33.2357 12.6442 32.3982 10.6221C31.5606 8.60001 30.3329 6.76269 28.7853 5.21505C27.2376 3.66741 25.4003 2.43975 23.3782 1.60217C21.3561 0.764592 19.1889 0.333496 17.0002 0.333496ZM17.0002 30.3335C14.3631 30.3335 11.7852 29.5515 9.59257 28.0864C7.39991 26.6213 5.69095 24.539 4.68178 22.1026C3.67261 19.6663 3.40856 16.9854 3.92303 14.399C4.4375 11.8125 5.70738 9.43677 7.57208 7.57207C9.43678 5.70737 11.8126 4.4375 14.399 3.92303C16.9854 3.40856 19.6663 3.6726 22.1026 4.68177C24.539 5.69094 26.6213 7.3999 28.0864 9.59256C29.5515 11.7852 30.3335 14.3631 30.3335 17.0002C30.3335 20.5364 28.9287 23.9278 26.4283 26.4283C23.9278 28.9287 20.5364 30.3335 17.0002 30.3335ZM17.0002 8.66683C16.1219 8.66627 15.2591 8.89703 14.4984 9.3359C13.7376 9.77477 13.1059 10.4063 12.6668 11.1668C12.5462 11.3565 12.4653 11.5687 12.4288 11.7905C12.3923 12.0123 12.4011 12.2391 12.4546 12.4575C12.508 12.6758 12.6051 12.8811 12.74 13.0609C12.8748 13.2407 13.0447 13.3914 13.2393 13.5039C13.4339 13.6164 13.6493 13.6884 13.8724 13.7155C14.0955 13.7426 14.3219 13.7243 14.5377 13.6616C14.7536 13.599 14.9546 13.4933 15.1286 13.351C15.3026 13.2087 15.446 13.0327 15.5502 12.8335C15.697 12.5792 15.9085 12.3681 16.1631 12.2218C16.4177 12.0755 16.7065 11.999 17.0002 12.0002C17.4422 12.0002 17.8661 12.1758 18.1787 12.4883C18.4912 12.8009 18.6668 13.2248 18.6668 13.6668C18.6668 14.1089 18.4912 14.5328 18.1787 14.8453C17.8661 15.1579 17.4422 15.3335 17.0002 15.3335C16.5581 15.3335 16.1342 15.5091 15.8217 15.8217C15.5091 16.1342 15.3335 16.5581 15.3335 17.0002V18.6668C15.3335 19.1089 15.5091 19.5328 15.8217 19.8453C16.1342 20.1579 16.5581 20.3335 17.0002 20.3335C17.4422 20.3335 17.8661 20.1579 18.1787 19.8453C18.4912 19.5328 18.6668 19.1089 18.6668 18.6668V18.3668C19.7691 17.9669 20.6958 17.1922 21.2848 16.1783C21.8738 15.1643 22.0877 13.9756 21.8892 12.82C21.6906 11.6643 21.0922 10.6152 20.1985 9.85602C19.3048 9.09685 18.1727 8.67593 17.0002 8.66683Z" fill="#FFBC57"/>
</svg>
