<svg width="21" height="20" viewBox="0 0 21 20" fill="none" xmlns="http://www.w3.org/2000/svg">
<path d="M19.6101 17.1901C20.2368 16.35 20.6669 15.3799 20.8686 14.3515C21.0703 13.323 21.0385 12.2624 20.7755 11.2478C20.5125 10.2333 20.025 9.29077 19.3491 8.4898C18.6732 7.68883 17.826 7.04986 16.8701 6.62005C16.6619 5.42215 16.1834 4.28747 15.4709 3.30222C14.7585 2.31698 13.8308 1.50708 12.7585 0.934084C11.6861 0.361085 10.4972 0.0400563 9.28217 -0.00460931C8.06713 -0.0492749 6.8579 0.183597 5.74635 0.676314C4.6348 1.16903 3.65018 1.90863 2.86731 2.83891C2.08443 3.76918 1.5239 4.86567 1.22831 6.04505C0.93271 7.22443 0.909825 8.45567 1.16139 9.64522C1.41295 10.8348 1.93235 11.9513 2.68011 12.9101L1.29011 14.2901C1.15136 14.4307 1.05736 14.6093 1.01998 14.8032C0.982611 14.9972 1.00353 15.1979 1.08011 15.3801C1.15513 15.5627 1.28253 15.719 1.44625 15.8293C1.60997 15.9397 1.80269 15.9991 2.00011 16.0001H7.69011C8.25676 17.1947 9.15015 18.2043 10.2669 18.9122C11.3836 19.6201 12.6779 19.9973 14.0001 20.0001H20.0001C20.1975 19.9991 20.3903 19.9397 20.554 19.8293C20.7177 19.719 20.8451 19.5627 20.9201 19.3801C20.9967 19.1979 21.0176 18.9972 20.9802 18.8032C20.9429 18.6093 20.8489 18.4307 20.7101 18.2901L19.6101 17.1901ZM7.00011 13.0001C7.00149 13.3349 7.02823 13.6692 7.08011 14.0001H4.41011L4.76011 13.6601C4.85384 13.5671 4.92824 13.4565 4.979 13.3346C5.02977 13.2128 5.05591 13.0821 5.05591 12.9501C5.05591 12.818 5.02977 12.6873 4.979 12.5655C4.92824 12.4436 4.85384 12.333 4.76011 12.2401C4.19967 11.6858 3.75536 11.0253 3.45317 10.2973C3.15097 9.56926 2.99695 8.78829 3.00011 8.00005C3.00011 6.40875 3.63225 4.88263 4.75747 3.75741C5.88269 2.63219 7.40881 2.00005 9.00011 2.00005C10.2418 1.99259 11.4546 2.37444 12.468 3.09192C13.4815 3.8094 14.2446 4.82643 14.6501 6.00005C14.4301 6.00005 14.2201 6.00005 14.0001 6.00005C12.1436 6.00005 10.3631 6.73755 9.05037 8.05031C7.73761 9.36306 7.00011 11.1435 7.00011 13.0001ZM17.5401 18.0001L17.5901 18.0501H14.0001C12.8435 18.048 11.7233 17.645 10.8304 16.9097C9.93758 16.1743 9.32728 15.1522 9.10351 14.0174C8.87973 12.8826 9.05632 11.7053 9.60319 10.6861C10.1501 9.66685 11.0334 8.86876 12.1027 8.42775C13.172 7.98675 14.3611 7.93011 15.4674 8.26748C16.5738 8.60486 17.529 9.31538 18.1703 10.278C18.8115 11.2406 19.0992 12.3958 18.9843 13.5468C18.8694 14.6977 18.359 15.7732 17.5401 16.5901C17.3517 16.7747 17.2439 17.0263 17.2401 17.2901C17.2407 17.4224 17.2675 17.5532 17.319 17.6751C17.3705 17.797 17.4456 17.9074 17.5401 18.0001Z" fill="#FFBC57"/>
</svg>
