<svg width="22" height="16" viewBox="0 0 22 16" fill="none" xmlns="http://www.w3.org/2000/svg">
<path d="M21.5597 10.5067C21.4962 10.6704 21.4011 10.8199 21.2797 10.9467L17.2797 14.9467C17.1554 15.0711 17.0078 15.1697 16.8453 15.237C16.6829 15.3042 16.5088 15.3389 16.333 15.3389C15.9779 15.3389 15.6374 15.1978 15.3863 14.9467C15.262 14.8224 15.1634 14.6748 15.0961 14.5124C15.0288 14.35 14.9942 14.1759 14.9942 14.0001C14.9942 13.645 15.1353 13.3045 15.3863 13.0534L17.1197 11.3334H4.33301C3.27214 11.3334 2.25473 10.912 1.50458 10.1618C0.754435 9.41169 0.333008 8.39428 0.333008 7.33341V2.00008C0.333008 1.64646 0.473484 1.30732 0.723532 1.05727C0.973581 0.80722 1.31272 0.666745 1.66634 0.666745C2.01996 0.666745 2.3591 0.80722 2.60915 1.05727C2.8592 1.30732 2.99967 1.64646 2.99967 2.00008V7.33341C2.99967 7.68703 3.14015 8.02617 3.3902 8.27622C3.64025 8.52627 3.97939 8.66674 4.33301 8.66674H17.1197L15.3863 6.94674C15.2614 6.82279 15.1622 6.67533 15.0945 6.51285C15.0268 6.35037 14.9919 6.17609 14.9919 6.00008C14.9919 5.82406 15.0268 5.64979 15.0945 5.48731C15.1622 5.32483 15.2614 5.17736 15.3863 5.05341C15.5103 4.92844 15.6578 4.82925 15.8202 4.76156C15.9827 4.69386 16.157 4.65901 16.333 4.65901C16.509 4.65901 16.6833 4.69386 16.8458 4.76156C17.0083 4.82925 17.1557 4.92844 17.2797 5.05341L21.2797 9.05341C21.4011 9.18022 21.4962 9.32974 21.5597 9.49341C21.693 9.81803 21.693 10.1821 21.5597 10.5067Z" fill="#FFBC57"/>
</svg>
