<svg width="40" height="40" viewBox="0 0 40 40" fill="none" xmlns="http://www.w3.org/2000/svg">
<g clip-path="url(#clip0_68_385)">
<path d="M20 0C8.95422 0 0 8.95422 0 20C0 31.0458 8.95422 40 20 40C31.0458 40 40 31.0458 40 20C40 8.95422 31.0458 0 20 0Z" fill="#40B3E0"/>
<path d="M29.7317 11.5045L26.1595 29.515C26.1595 29.515 25.66 30.7641 24.2861 30.1645L16.0426 23.8445L13.0451 22.3958L7.99921 20.697C7.99921 20.697 7.22483 20.4223 7.14983 19.8228C7.07499 19.2233 8.02421 18.8986 8.02421 18.8986L28.083 11.0298C28.083 11.0298 29.7317 10.3055 29.7317 11.5045Z" fill="white"/>
<path d="M15.4091 29.3132C15.4091 29.3132 15.1684 29.2907 14.8686 28.3413C14.5689 27.3921 13.0452 22.3962 13.0452 22.3962L25.1603 14.7024C25.1603 14.7024 25.8599 14.2777 25.8349 14.7024C25.8349 14.7024 25.9597 14.7773 25.585 15.127C25.2103 15.4768 16.0677 23.6951 16.0677 23.6951" fill="#D2E5F1"/>
<path d="M19.2033 26.268L15.9427 29.2409C15.9427 29.2409 15.6878 29.4343 15.4089 29.313L16.0333 23.791" fill="#B5CFE4"/>
</g>
<defs>
<clipPath id="clip0_68_385">
<rect width="40" height="40" fill="white"/>
</clipPath>
</defs>
</svg>
