<svg width="40" height="40" viewBox="0 0 40 40" fill="none" xmlns="http://www.w3.org/2000/svg">
<g clip-path="url(#clip0_68_391)">
<path d="M20 40C31.0457 40 40 31.0457 40 20C40 8.9543 31.0457 0 20 0C8.9543 0 0 8.9543 0 20C0 31.0457 8.9543 40 20 40Z" fill="#6F3FAA"/>
<path d="M30.5803 14.0566L30.5737 14.0302C30.0393 11.8698 27.6301 9.55166 25.4176 9.06939L25.3927 9.06424C21.8141 8.38158 18.1856 8.38158 14.6078 9.06424L14.5821 9.06939C12.3703 9.55166 9.96105 11.8699 9.42597 14.0302L9.42003 14.0566C8.7594 17.0735 8.7594 20.1332 9.42003 23.1502L9.42597 23.1766C9.93831 25.2447 12.1681 27.4564 14.298 28.0646V30.4762C14.298 31.3491 15.3617 31.7778 15.9665 31.1478L18.4099 28.6081C18.9399 28.6377 19.4701 28.6542 20.0002 28.6542C21.8015 28.6542 23.6037 28.4838 25.3926 28.1426L25.4175 28.1374C27.63 27.6552 30.0392 25.3369 30.5736 23.1767L30.5802 23.1503C31.2408 20.1332 31.2408 17.0737 30.5803 14.0566ZM28.6466 22.7128C28.2898 24.1222 26.4606 25.8744 25.0071 26.1981C23.1044 26.56 21.1865 26.7146 19.2706 26.6616C19.2325 26.6605 19.1958 26.6753 19.1693 26.7027C18.8974 26.9817 17.3853 28.5341 17.3853 28.5341L15.4878 30.4816C15.3491 30.6263 15.1053 30.5278 15.1053 30.3281V26.3331C15.1053 26.2671 15.0582 26.2111 14.9934 26.1983C14.993 26.1981 14.9927 26.1981 14.9923 26.1981C13.5389 25.8743 11.7103 24.1221 11.3528 22.7127C10.7582 19.9856 10.7582 17.2211 11.3528 14.4941C11.7103 13.0846 13.5389 11.3324 14.9923 11.0087C18.3154 10.3767 21.6848 10.3767 25.0072 11.0087C26.4614 11.3324 28.2899 13.0846 28.6467 14.4941C29.2419 17.2212 29.2419 19.9857 28.6466 22.7128Z" fill="white"/>
<path d="M23.1618 24.557C22.9383 24.4891 22.7254 24.4435 22.5275 24.3616C20.4782 23.5113 18.5923 22.4145 17.0985 20.7331C16.249 19.777 15.584 18.6976 15.022 17.5552C14.7554 17.0135 14.5308 16.4506 14.3018 15.8913C14.0931 15.3813 14.4006 14.8544 14.7243 14.47C15.0282 14.1093 15.4192 13.8334 15.8426 13.6299C16.1731 13.4711 16.499 13.5627 16.7404 13.8427C17.2622 14.4484 17.7415 15.0849 18.1295 15.787C18.3682 16.2188 18.3027 16.7466 17.8701 17.0404C17.765 17.1118 17.6692 17.1957 17.5713 17.2763C17.4854 17.347 17.4046 17.4184 17.3457 17.5141C17.2381 17.6892 17.2329 17.8959 17.3022 18.0863C17.8355 19.552 18.7345 20.6918 20.2099 21.3058C20.446 21.404 20.683 21.5183 20.955 21.4866C21.4105 21.4334 21.558 20.9338 21.8772 20.6727C22.1892 20.4177 22.5879 20.4143 22.924 20.627C23.2601 20.8398 23.5859 21.0681 23.9098 21.2989C24.2278 21.5255 24.5443 21.747 24.8375 22.0053C25.1195 22.2537 25.2166 22.5795 25.0578 22.9164C24.7672 23.5337 24.3441 24.047 23.734 24.3749C23.5618 24.4672 23.356 24.4971 23.1618 24.557C23.356 24.4971 22.9383 24.4891 23.1618 24.557Z" fill="white"/>
<path d="M20.0055 12.9239C22.6859 12.9991 24.8875 14.7779 25.3593 17.4279C25.4397 17.8795 25.4683 18.341 25.5041 18.7994C25.5192 18.9921 25.41 19.1752 25.202 19.1778C24.9872 19.1804 24.8905 19.0006 24.8765 18.808C24.8489 18.4266 24.8297 18.0434 24.7772 17.6652C24.4997 15.6684 22.9075 14.0165 20.92 13.662C20.6209 13.6087 20.315 13.5947 20.0119 13.5629C19.8204 13.5428 19.5697 13.5313 19.5272 13.2931C19.4917 13.0935 19.6601 12.9346 19.8502 12.9244C19.9017 12.9213 19.9536 12.9238 20.0055 12.9239C22.6861 12.9991 19.9536 12.9238 20.0055 12.9239Z" fill="white"/>
<path d="M24.0793 18.2044C24.0748 18.2379 24.0726 18.3166 24.0529 18.3906C23.9818 18.6597 23.5736 18.6934 23.4798 18.4219C23.4519 18.3413 23.4478 18.2496 23.4476 18.1629C23.4467 17.5953 23.3233 17.0281 23.037 16.5341C22.7427 16.0263 22.293 15.5997 21.7658 15.3413C21.4468 15.1853 21.1021 15.0881 20.7526 15.0304C20.5998 15.0051 20.4454 14.9899 20.2919 14.9685C20.1059 14.9426 20.0065 14.8241 20.0154 14.6408C20.0236 14.4691 20.1492 14.3454 20.3364 14.3561C20.9515 14.391 21.5457 14.5241 22.0926 14.8136C23.2047 15.4026 23.84 16.3321 24.0254 17.5735C24.0338 17.6298 24.0472 17.6854 24.0515 17.7418C24.062 17.881 24.0686 18.0205 24.0793 18.2044C24.0748 18.2378 24.0686 18.0205 24.0793 18.2044Z" fill="white"/>
<path d="M22.4121 18.1394C22.1879 18.1435 22.0679 18.0193 22.0447 17.8138C22.0286 17.6705 22.0158 17.5252 21.9816 17.3857C21.9143 17.1109 21.7683 16.8564 21.5372 16.688C21.4281 16.6086 21.3044 16.5507 21.175 16.5132C21.0105 16.4656 20.8396 16.4787 20.6756 16.4386C20.4974 16.3949 20.3988 16.2505 20.4268 16.0834C20.4523 15.9312 20.6003 15.8125 20.7666 15.8246C21.8058 15.8996 22.5486 16.4368 22.6546 17.6603C22.6622 17.7466 22.6709 17.8378 22.6518 17.9205C22.6188 18.0617 22.5141 18.1325 22.4121 18.1394C22.5141 18.1325 22.1878 18.1434 22.4121 18.1394Z" fill="white"/>
<path d="M23.1617 24.5567C22.9383 24.4888 23.3559 24.4969 23.1617 24.5567V24.5567Z" fill="white"/>
<path d="M20.0125 12.9241C20.0102 12.9241 20.008 12.9239 20.0057 12.9239C20.0036 12.9237 20.0064 12.9239 20.0125 12.9241Z" fill="white"/>
<path d="M20.0061 12.9238C20.0084 12.9238 20.0106 12.9241 20.0128 12.9241C20.1616 12.9294 22.5809 12.996 20.0061 12.9238Z" fill="white"/>
<path d="M24.0791 18.2047C24.0685 18.0208 24.0747 18.2381 24.0791 18.2047V18.2047Z" fill="white"/>
<path d="M22.412 18.1396C22.4155 18.1394 22.4188 18.1376 22.4222 18.1372C22.4128 18.1372 22.3982 18.1374 22.3833 18.138C22.393 18.1382 22.4018 18.1397 22.412 18.1396Z" fill="white"/>
<path d="M22.412 18.1398C22.402 18.14 22.3931 18.1385 22.3834 18.1382C22.3348 18.1395 22.2848 18.1421 22.412 18.1398Z" fill="white"/>
<path d="M22.4221 18.1372C22.4186 18.1376 22.4152 18.1394 22.4119 18.1396C22.4381 18.1378 22.4358 18.1372 22.4221 18.1372Z" fill="white"/>
</g>
<defs>
<clipPath id="clip0_68_391">
<rect width="40" height="40" fill="white"/>
</clipPath>
</defs>
</svg>
