<svg width="40" height="40" viewBox="0 0 40 40" fill="none" xmlns="http://www.w3.org/2000/svg">
<g clip-path="url(#clip0_68_380)">
<path d="M20 40C31.0457 40 40 31.0457 40 20C40 8.9543 31.0457 0 20 0C8.9543 0 0 8.9543 0 20C0 31.0457 8.9543 40 20 40Z" fill="#75B73B"/>
<path d="M19.4404 8.47234C13.3444 8.76234 8.53382 13.8392 8.55218 19.9419C8.5578 21.8007 9.00655 23.5552 9.79827 25.1056L8.58288 31.0052C8.51718 31.3244 8.80499 31.6038 9.12202 31.5287L14.9029 30.1591C16.3881 30.8991 18.0563 31.3262 19.8218 31.3532C26.0525 31.4484 31.2476 26.5012 31.4421 20.2728C31.6501 13.5964 26.1399 8.1532 19.4404 8.47234ZM26.3383 26.2449C24.6454 27.9378 22.3943 28.8702 20 28.8702C18.5981 28.8702 17.2558 28.5556 16.0105 27.9354L15.2056 27.5343L11.6611 28.3739L12.4071 24.7523L12.0106 23.9755C11.3641 22.7095 11.0362 21.3405 11.0362 19.9065C11.0362 17.5121 11.9687 15.2612 13.6616 13.5682C15.3394 11.8902 17.6271 10.9429 20.0001 10.9429C22.3942 10.9429 24.6453 11.8753 26.3382 13.5682C28.0311 15.2611 28.9635 17.5122 28.9635 19.9062C28.9637 22.2794 28.0162 24.567 26.3383 26.2449Z" fill="white"/>
<path d="M25.5558 22.3892L23.3383 21.7525C23.047 21.669 22.7329 21.7518 22.5205 21.9682L21.9781 22.5205C21.7495 22.7536 21.4027 22.8284 21.1 22.706C20.051 22.2815 17.8444 20.3194 17.2812 19.3383C17.1184 19.0552 17.1453 18.7015 17.345 18.4429L17.8183 17.8304C18.0038 17.5906 18.0428 17.2682 17.9202 16.9908L16.9873 14.8808C16.7639 14.3755 16.1181 14.2283 15.6962 14.5852C15.0774 15.1087 14.3431 15.904 14.2539 16.7852C14.0965 18.3389 14.7629 20.2972 17.2822 22.6489C20.1929 25.3659 22.5239 25.7246 24.0418 25.357C24.9027 25.1486 25.5906 24.3129 26.0245 23.6284C26.3207 23.1615 26.0866 22.5418 25.5558 22.3892Z" fill="white"/>
</g>
<defs>
<clipPath id="clip0_68_380">
<rect width="40" height="40" fill="white"/>
</clipPath>
</defs>
</svg>
