<svg width="12" height="20" viewBox="0 0 12 20" fill="none" xmlns="http://www.w3.org/2000/svg">
<path d="M0.970665 8.89704L9.44004 0.44262C9.57915 0.302369 9.74465 0.191049 9.92699 0.115081C10.1093 0.0391125 10.3049 0 10.5025 0C10.7 0 10.8956 0.0391125 11.0779 0.115081C11.2603 0.191049 11.4258 0.302369 11.5649 0.44262C11.8436 0.722981 12 1.10224 12 1.49755C12 1.89287 11.8436 2.27212 11.5649 2.55248L4.15791 10.0343L11.5649 17.4412C11.8436 17.7216 12 18.1008 12 18.4962C12 18.8915 11.8436 19.2707 11.5649 19.5511C11.4263 19.6925 11.261 19.805 11.0787 19.882C10.8963 19.9591 10.7004 19.9992 10.5025 20C10.3045 19.9992 10.1086 19.9591 9.92626 19.882C9.74389 19.805 9.57863 19.6925 9.44004 19.5511L0.970665 11.0967C0.818778 10.9566 0.69756 10.7865 0.614651 10.5972C0.531742 10.4079 0.488939 10.2035 0.488939 9.99686C0.488939 9.79021 0.531742 9.5858 0.614651 9.39651C0.69756 9.20722 0.818778 9.03716 0.970665 8.89704Z" fill="#FFBC57"/>
</svg>
