<svg width="24" height="12" viewBox="0 0 24 12" fill="none" xmlns="http://www.w3.org/2000/svg">
<path d="M6.7158 0.289939C6.62284 0.196211 6.51223 0.121816 6.39038 0.0710478C6.26852 0.0202791 6.13781 -0.00585938 6.0058 -0.00585938C5.87379 -0.00585938 5.74308 0.0202791 5.62122 0.0710478C5.49936 0.121816 5.38876 0.196211 5.2958 0.289939L0.295798 5.28994C0.20207 5.3829 0.127676 5.4935 0.0769069 5.61536C0.0261382 5.73722 0 5.86793 0 5.99994C0 6.13195 0.0261382 6.26266 0.0769069 6.38452C0.127676 6.50637 0.20207 6.61698 0.295798 6.70994L5.2958 11.7099C5.38876 11.8037 5.49936 11.8781 5.62122 11.9288C5.74308 11.9796 5.87379 12.0057 6.0058 12.0057C6.13781 12.0057 6.26852 11.9796 6.39038 11.9288C6.51223 11.8781 6.62284 11.8037 6.7158 11.7099C6.80953 11.617 6.88392 11.5064 6.93469 11.3845C6.98546 11.2627 7.0116 11.132 7.0116 10.9999C7.0116 10.8679 6.98546 10.7372 6.93469 10.6154C6.88392 10.4935 6.80953 10.3829 6.7158 10.2899L2.4158 5.99994L6.7158 1.70994C6.80953 1.61698 6.88392 1.50638 6.93469 1.38452C6.98546 1.26266 7.0116 1.13195 7.0116 0.999939C7.0116 0.867927 6.98546 0.737221 6.93469 0.615362C6.88392 0.493503 6.80953 0.382902 6.7158 0.289939ZM23.7158 5.28994L18.7158 0.289939C18.6226 0.1967 18.5119 0.12274 18.39 0.0722795C18.2682 0.0218191 18.1377 -0.00415277 18.0058 -0.00415277C17.7395 -0.00415277 17.4841 0.101635 17.2958 0.289939C17.2026 0.383177 17.1286 0.493868 17.0781 0.61569C17.0277 0.737512 17.0017 0.86808 17.0017 0.999939C17.0017 1.26624 17.1075 1.52164 17.2958 1.70994L21.5958 5.99994L17.2958 10.2899C17.2021 10.3829 17.1277 10.4935 17.0769 10.6154C17.0261 10.7372 17 10.8679 17 10.9999C17 11.132 17.0261 11.2627 17.0769 11.3845C17.1277 11.5064 17.2021 11.617 17.2958 11.7099C17.3888 11.8037 17.4994 11.8781 17.6212 11.9288C17.7431 11.9796 17.8738 12.0057 18.0058 12.0057C18.1378 12.0057 18.2685 11.9796 18.3904 11.9288C18.5122 11.8781 18.6228 11.8037 18.7158 11.7099L23.7158 6.70994C23.8095 6.61698 23.8839 6.50637 23.9347 6.38452C23.9855 6.26266 24.0116 6.13195 24.0116 5.99994C24.0116 5.86793 23.9855 5.73722 23.9347 5.61536C23.8839 5.4935 23.8095 5.3829 23.7158 5.28994Z" fill="#535353"/>
</svg>
