<svg width="17" height="20" viewBox="0 0 17 20" fill="none" xmlns="http://www.w3.org/2000/svg">
<path d="M11.9959 15.9982C12.2611 15.9982 12.5155 15.8928 12.703 15.7053C12.8906 15.5178 12.9959 15.2634 12.9959 14.9982L12.9959 3.40819L15.2859 5.70819C15.4742 5.89649 15.7296 6.00228 15.9959 6.00228C16.2622 6.00228 16.5176 5.89649 16.7059 5.70819C16.8942 5.51988 17 5.26449 17 4.99819C17 4.73188 16.8942 4.47649 16.7059 4.28819L12.7059 0.288186C12.5653 0.149429 12.3867 0.0554323 12.1927 0.0180581C11.9987 -0.019316 11.798 0.00160667 11.6159 0.0781861C11.4333 0.153206 11.277 0.280604 11.1666 0.444324C11.0563 0.608045 10.9969 0.800761 10.9959 0.998186L10.9959 14.9982C10.9959 15.2634 11.1013 15.5178 11.2888 15.7053C11.4763 15.8928 11.7307 15.9982 11.9959 15.9982ZM5.37591 19.9182C5.55853 19.8432 5.71485 19.7158 5.82519 19.552C5.93552 19.3883 5.99492 19.1956 5.99591 18.9982L5.99591 4.99819C5.99591 4.73297 5.89055 4.47862 5.70301 4.29108C5.51548 4.10354 5.26113 3.99819 4.99591 3.99819C4.73069 3.99819 4.47634 4.10354 4.2888 4.29108C4.10126 4.47862 3.99591 4.73297 3.99591 4.99819L3.99591 16.5882L1.70591 14.2882C1.61294 14.1945 1.50234 14.1201 1.38048 14.0693C1.25863 14.0185 1.12792 13.9924 0.995908 13.9924C0.863897 13.9924 0.73319 14.0185 0.611331 14.0693C0.489473 14.1201 0.378871 14.1945 0.285909 14.2882C0.19218 14.3811 0.117784 14.4917 0.067016 14.6136C0.0162481 14.7355 -0.00989025 14.8662 -0.00989026 14.9982C-0.00989026 15.1302 0.016248 15.2609 0.0670159 15.3828C0.117784 15.5046 0.19218 15.6152 0.285909 15.7082L4.28591 19.7082C4.42653 19.8469 4.6051 19.9409 4.79909 19.9783C4.99308 20.0157 5.1938 19.9948 5.37591 19.9182Z" fill="#2B2929"/>
</svg>
