<svg width="34" height="32" viewBox="0 0 34 32" fill="none" xmlns="http://www.w3.org/2000/svg">
<path d="M33.6665 12.1167C33.5612 11.8118 33.3698 11.544 33.1154 11.3458C32.8609 11.1476 32.5545 11.0275 32.2331 11L22.7498 9.61666L18.4998 0.999998C18.3633 0.718213 18.1502 0.480568 17.8849 0.314287C17.6197 0.148006 17.3129 0.0598145 16.9998 0.0598145C16.6867 0.0598145 16.3799 0.148006 16.1147 0.314287C15.8494 0.480568 15.6363 0.718213 15.4998 0.999998L11.2498 9.6L1.76647 11C1.458 11.0438 1.16801 11.1733 0.929383 11.3736C0.69076 11.5739 0.513066 11.8371 0.416466 12.1333C0.328041 12.4228 0.320106 12.7309 0.393513 13.0245C0.466919 13.3181 0.618896 13.5862 0.833133 13.8L7.71647 20.4667L6.0498 29.9333C5.98251 30.2474 6.00739 30.5742 6.12144 30.8744C6.23549 31.1746 6.43386 31.4355 6.69268 31.6257C6.9515 31.8158 7.25975 31.9271 7.58035 31.9462C7.90094 31.9653 8.22023 31.8914 8.4998 31.7333L16.9998 27.2833L25.4998 31.7333C25.7337 31.8653 25.9979 31.9342 26.2665 31.9333C26.6195 31.9346 26.9638 31.8237 27.2498 31.6167C27.5084 31.4314 27.7085 31.1761 27.8267 30.8807C27.9448 30.5854 27.976 30.2625 27.9165 29.95L26.2498 20.4833L33.1331 13.8167C33.3738 13.6128 33.5516 13.3448 33.646 13.0439C33.7404 12.743 33.7475 12.4215 33.6665 12.1167ZM23.4165 18.7833C23.2236 18.9707 23.0788 19.2019 22.9947 19.4573C22.9105 19.7127 22.8894 19.9847 22.9331 20.25L24.1331 27.25L17.8665 23.9167C17.6229 23.7962 17.3549 23.7335 17.0831 23.7335C16.8114 23.7335 16.5434 23.7962 16.2998 23.9167L10.0331 27.25L11.2331 20.25C11.2769 19.9847 11.2557 19.7127 11.1716 19.4573C11.0874 19.2019 10.9427 18.9707 10.7498 18.7833L5.7498 13.7833L12.7665 12.7667C13.0365 12.7291 13.2931 12.6259 13.514 12.4661C13.7348 12.3063 13.9131 12.0947 14.0331 11.85L16.9998 5.5L20.1331 11.8667C20.2532 12.1114 20.4315 12.3229 20.6523 12.4828C20.8731 12.6426 21.1298 12.7458 21.3998 12.7833L28.4165 13.8L23.4165 18.7833Z" fill="#B1B1B1"/>
</svg>
