<svg width="18" height="18" viewBox="0 0 18 18" fill="none" xmlns="http://www.w3.org/2000/svg">
<path d="M12.3129 9.63381C13.1882 8.94512 13.8271 8.00071 14.1408 6.93198C14.4544 5.86324 14.4271 4.72334 14.0627 3.67084C13.6983 2.61834 13.0149 1.70559 12.1076 1.05958C11.2003 0.413562 10.1142 0.0664063 9.00036 0.0664062C7.88657 0.0664062 6.80047 0.413562 5.89316 1.05958C4.98585 1.70559 4.30246 2.61834 3.93805 3.67084C3.57365 4.72334 3.54636 5.86324 3.85997 6.93198C4.17359 8.00071 4.81251 8.94512 5.68786 9.63381C4.18793 10.2347 2.87919 11.2314 1.90116 12.5177C0.923129 13.8039 0.312473 15.3314 0.134292 16.9374C0.121394 17.0546 0.131717 17.1733 0.164672 17.2865C0.197626 17.3998 0.252566 17.5055 0.326356 17.5975C0.47538 17.7834 0.692134 17.9024 0.928935 17.9285C1.16574 17.9545 1.40318 17.8854 1.58905 17.7364C1.77491 17.5874 1.89396 17.3706 1.92001 17.1338C2.11606 15.3885 2.9483 13.7765 4.2577 12.6059C5.56711 11.4354 7.26188 10.7883 9.01822 10.7883C10.7746 10.7883 12.4693 11.4354 13.7787 12.6059C15.0881 13.7765 15.9204 15.3885 16.1164 17.1338C16.1407 17.3532 16.2454 17.5558 16.4103 17.7026C16.5752 17.8493 16.7886 17.9298 17.0093 17.9285H17.1075C17.3416 17.9015 17.5555 17.7832 17.7027 17.5992C17.8498 17.4152 17.9183 17.1806 17.8932 16.9463C17.7142 15.3358 17.1003 13.8043 16.1172 12.5161C15.1341 11.2279 13.819 10.2316 12.3129 9.63381ZM9.00036 8.99989C8.294 8.99989 7.6035 8.79042 7.01619 8.39799C6.42887 8.00556 5.97111 7.44778 5.70079 6.79518C5.43048 6.14259 5.35975 5.4245 5.49756 4.73171C5.63536 4.03892 5.97551 3.40255 6.47498 2.90307C6.97446 2.4036 7.61082 2.06346 8.30361 1.92565C8.9964 1.78785 9.7145 1.85857 10.3671 2.12889C11.0197 2.3992 11.5775 2.85696 11.9699 3.44428C12.3623 4.0316 12.5718 4.7221 12.5718 5.42846C12.5718 6.37566 12.1955 7.28407 11.5257 7.95384C10.856 8.62361 9.94757 8.99989 9.00036 8.99989Z" fill="#535353"/>
</svg>
