<?xml version="1.0" standalone="no"?>
<!DOCTYPE svg PUBLIC "-//W3C//DTD SVG 20010904//EN"
 "http://www.w3.org/TR/2001/REC-SVG-20010904/DTD/svg10.dtd">
<svg version="1.0" xmlns="http://www.w3.org/2000/svg"
 width="35.000000pt" height="41.000000pt" viewBox="0 0 35.000000 41.000000"
 preserveAspectRatio="xMidYMid meet">

<g transform="translate(0.000000,41.000000) scale(0.100000,-0.100000)"
fill="#000000" stroke="none">
<path d="M119 371 c-16 -16 -29 -39 -29 -50 0 -18 -6 -21 -40 -21 l-40 0 0
-129 c0 -104 3 -133 16 -145 23 -23 275 -23 298 0 13 12 16 41 16 145 l0 129
-40 0 c-34 0 -40 3 -40 21 0 30 -53 79 -85 79 -16 0 -38 -12 -56 -29z m99 -13
c7 -7 12 -22 12 -35 0 -21 -4 -23 -55 -23 -51 0 -55 2 -55 23 0 31 18 47 55
47 17 0 36 -5 43 -12z m100 -195 l-3 -118 -140 0 -140 0 -3 118 -3 117 146 0
146 0 -3 -117z"/>
</g>
</svg>
