<svg width="40" height="39" viewBox="0 0 40 39" fill="none" xmlns="http://www.w3.org/2000/svg">
<g id="Vector">
<path d="M1.57232 7.16812L27.7652 10.7516C27.8796 10.7658 27.9847 10.822 28.06 10.9094C28.1353 10.9968 28.1756 11.1091 28.173 11.2246V37.5056C28.173 37.631 28.1232 37.7513 28.0347 37.84C27.9462 37.9287 27.8261 37.9786 27.7009 37.9786H27.6008L1.40783 34.3951C1.29344 34.3809 1.18839 34.3247 1.11306 34.2373C1.03773 34.1499 0.997477 34.0376 1.00012 33.9221V7.6268C1.00012 7.50135 1.04985 7.38104 1.13838 7.29233C1.22691 7.20363 1.34698 7.15379 1.47218 7.15379H1.57232V7.16812ZM27.236 11.6331L1.93712 8.16432V33.4993L27.236 36.9752V11.6331Z" fill="#7D806A"/>
<path d="M38.0364 5.50534L28.1729 11.5255V36.6813L38.0364 30.6969V5.50534ZM27.7008 11.2388L27.4577 10.8375L38.1866 4.30847C38.2698 4.2479 38.3699 4.21528 38.4727 4.2153C38.5343 4.21529 38.5954 4.22757 38.6523 4.25143C38.7092 4.27529 38.7607 4.31025 38.804 4.35427C38.8473 4.39829 38.8814 4.45049 38.9043 4.50784C38.9273 4.56519 38.9386 4.62654 38.9376 4.68831V30.9693C38.9389 31.0507 38.9192 31.1312 38.8803 31.2027C38.8415 31.2743 38.7848 31.3346 38.7159 31.3778L38.4727 30.9764L38.7087 31.3778L27.9798 37.9068C27.8966 37.9674 27.7965 38 27.6937 38C27.5698 37.9981 27.4515 37.9474 27.3645 37.8589C27.2775 37.7704 27.2288 37.6512 27.2288 37.527V11.2317C27.2268 11.1501 27.2462 11.0694 27.2851 10.9977C27.324 10.926 27.3811 10.8658 27.4505 10.8232L27.7008 11.2388Z" fill="#7D806A"/>
<path d="M3.16025 7.383L27.6008 10.7371L37.1352 4.95343L15.427 1.92183L3.16025 7.383ZM27.6366 11.6831L1.44365 8.09969C1.34661 8.08481 1.25677 8.03953 1.18699 7.97035C1.11721 7.90117 1.07107 7.81163 1.05519 7.71457C1.03931 7.61751 1.05451 7.51789 1.09859 7.43001C1.14267 7.34212 1.21337 7.27048 1.30058 7.22533L15.1481 1.06181C15.2367 1.01037 15.3399 0.99018 15.4413 1.00447L38.5586 4.22957C38.6342 4.2361 38.7072 4.26024 38.7717 4.30006C38.8363 4.33988 38.8907 4.39428 38.9306 4.45891C38.963 4.51148 38.9847 4.56999 38.9943 4.63102C39.0039 4.69206 39.0013 4.75441 38.9867 4.81444C38.972 4.87447 38.9456 4.93098 38.909 4.98068C38.8723 5.03038 38.8262 5.07228 38.7732 5.10393L38.53 4.70259L38.7661 5.10393L28.0371 11.633C27.9874 11.67 27.9307 11.6967 27.8705 11.7114C27.8103 11.7262 27.7478 11.7288 27.6866 11.719L27.6366 11.6831Z" fill="#7D806A"/>
<path d="M7.15147 7.94203L15.191 9.04573C15.2516 9.05368 15.3101 9.07352 15.363 9.10413C15.416 9.13474 15.4624 9.1755 15.4996 9.2241C15.5368 9.27269 15.5641 9.32816 15.5799 9.38733C15.5957 9.4465 15.5996 9.5082 15.5916 9.56891L15.0766 21.9963H14.6117H15.0838C15.0764 22.1211 15.0206 22.2382 14.9285 22.3225C14.8363 22.4068 14.715 22.4518 14.5902 22.4478C14.486 22.4427 14.386 22.4051 14.3041 22.3403L10.4345 19.4735L6.61502 21.8816C6.53998 21.9311 6.45226 21.9577 6.36243 21.9583C6.2726 21.9589 6.18454 21.9334 6.10887 21.8848C6.03321 21.8363 5.97319 21.7669 5.93608 21.6849C5.89898 21.6029 5.88636 21.5119 5.89976 21.4229L6.61502 8.37204C6.62241 8.24782 6.67836 8.13152 6.77075 8.04835C6.86313 7.96517 6.9845 7.92182 7.10856 7.9277L7.15147 7.94203ZM14.6403 9.92009L7.48767 8.93823L6.87967 20.6059L10.1699 18.5347C10.2524 18.4757 10.3511 18.444 10.4524 18.444C10.5537 18.444 10.6525 18.4757 10.7349 18.5347L14.1825 21.0789L14.6403 9.92009Z" fill="#7D806A"/>
<path d="M8.51043 8.27894L15.0336 9.09596L25.4693 3.36245L18.803 2.45226L8.51043 8.31477V8.27894ZM15.0694 10.0492L7.02267 9.03863C6.94833 9.03143 6.87686 9.00612 6.81452 8.96489C6.75218 8.92367 6.70087 8.86778 6.66504 8.80212C6.63434 8.74899 6.61444 8.6903 6.60646 8.62943C6.59847 8.56856 6.60255 8.50671 6.6185 8.44743C6.63446 8.38815 6.66195 8.33262 6.6994 8.28402C6.73684 8.23543 6.7835 8.19473 6.8367 8.16427L18.4669 1.54206C18.5631 1.47596 18.6803 1.44788 18.7959 1.46323L26.9785 2.58126C27.0586 2.58447 27.1363 2.60867 27.2041 2.65142C27.2719 2.69418 27.3273 2.75401 27.3648 2.82494C27.3949 2.87893 27.414 2.93839 27.4209 2.99986C27.4279 3.06132 27.4225 3.12356 27.4052 3.18293C27.3879 3.24231 27.359 3.29763 27.3201 3.34568C27.2812 3.39373 27.2332 3.43354 27.1788 3.46279L15.3984 9.97749C15.3056 10.032 15.1977 10.0546 15.0909 10.042L15.0694 10.0492Z" fill="#7D806A"/>
<path d="M27.7652 10.7516L1.57232 7.16812V7.15379H1.47218C1.34698 7.15379 1.22691 7.20363 1.13838 7.29233C1.04985 7.38104 1.00012 7.50135 1.00012 7.6268V33.9221C0.997477 34.0376 1.03773 34.1499 1.11306 34.2373C1.18839 34.3247 1.29344 34.3809 1.40783 34.3951M27.7652 10.7516L27.7009 11.2174M27.7652 10.7516C27.8796 10.7658 27.9847 10.822 28.06 10.9094C28.1353 10.9968 28.1756 11.1091 28.173 11.2246V37.5056C28.173 37.631 28.1232 37.7513 28.0347 37.84C27.9462 37.9287 27.8261 37.9786 27.7009 37.9786H27.6008L1.40783 34.3951M1.40783 34.3951L1.47218 33.9293M1.30058 7.22533C1.21337 7.27048 1.14267 7.34212 1.09859 7.43001C1.05451 7.51789 1.03931 7.61751 1.05519 7.71457C1.07107 7.81163 1.11721 7.90117 1.18699 7.97035C1.25677 8.03953 1.34661 8.08481 1.44365 8.09969L27.6366 11.6831L27.6866 11.719C27.7478 11.7288 27.8103 11.7262 27.8705 11.7114C27.9307 11.6967 27.9874 11.67 28.0371 11.633L38.7661 5.10393L38.53 4.70259L38.7732 5.10393C38.8262 5.07228 38.8723 5.03038 38.909 4.98068C38.9456 4.93098 38.9721 4.87447 38.9867 4.81444C39.0013 4.75441 39.0039 4.69206 38.9943 4.63102C38.9847 4.56999 38.963 4.51148 38.9306 4.45891C38.8907 4.39428 38.8363 4.33988 38.7717 4.30006C38.7072 4.26024 38.6342 4.2361 38.5586 4.22957L15.4413 1.00447C15.3399 0.99018 15.2367 1.01037 15.1481 1.06181L1.30058 7.22533ZM1.30058 7.22533L1.49372 7.65534M15.191 9.04573L7.15147 7.94203L7.10856 7.9277C6.9845 7.92182 6.86313 7.96517 6.77075 8.04835C6.67836 8.13152 6.62241 8.24782 6.61502 8.37204M15.191 9.04573L15.1267 9.51158M15.191 9.04573C15.2516 9.05368 15.3101 9.07352 15.363 9.10413C15.416 9.13474 15.4624 9.1755 15.4996 9.2241C15.5368 9.27269 15.5641 9.32816 15.5799 9.38733C15.5957 9.4465 15.5996 9.5082 15.5916 9.56891L15.0766 21.9963H14.6117H15.0838C15.0764 22.1211 15.0206 22.2382 14.9285 22.3225C14.8363 22.4068 14.715 22.4518 14.5902 22.4478C14.486 22.4427 14.386 22.4051 14.3041 22.3403L10.4345 19.4735L6.61502 21.8816M6.61502 21.8816L6.3647 21.4803M6.61502 21.8816C6.53998 21.9311 6.45226 21.9577 6.36243 21.9583C6.2726 21.9589 6.18454 21.9334 6.10887 21.8848C6.03321 21.8363 5.97319 21.7669 5.93608 21.6849C5.89898 21.6029 5.88636 21.5119 5.89976 21.4229L6.61502 8.37204M6.61502 8.37204H7.08712M6.8367 8.16427C6.7835 8.19473 6.73684 8.23543 6.6994 8.28402C6.66195 8.33262 6.63446 8.38815 6.6185 8.44743C6.60255 8.50671 6.59847 8.56856 6.60646 8.62943C6.61444 8.6903 6.63434 8.74899 6.66504 8.80212C6.70087 8.86778 6.75218 8.92367 6.81452 8.96489C6.87686 9.00612 6.94833 9.03143 7.02267 9.03863L15.0694 10.0492L15.0909 10.042C15.1977 10.0546 15.3056 10.032 15.3984 9.97749L27.1788 3.46279M6.8367 8.16427L7.07275 8.57278M6.8367 8.16427L18.4669 1.54206C18.5631 1.47596 18.6803 1.44788 18.7959 1.46323L26.9785 2.58126C27.0586 2.58447 27.1363 2.60867 27.2041 2.65142C27.2719 2.69418 27.3273 2.75401 27.3648 2.82494C27.3949 2.87893 27.414 2.93839 27.4209 2.99986C27.4279 3.06132 27.4225 3.12356 27.4052 3.18293C27.3879 3.24231 27.359 3.29763 27.3201 3.34568C27.2812 3.39373 27.2332 3.43354 27.1788 3.46279M27.1788 3.46279L26.957 3.04711M27.236 11.6331L1.93712 8.16432V33.4993L27.236 36.9752V11.6331ZM38.0364 5.50534L28.1729 11.5255V36.6813L38.0364 30.6969V5.50534ZM27.7008 11.2388L27.4577 10.8375L38.1866 4.30847C38.2698 4.2479 38.3699 4.21528 38.4727 4.2153C38.5343 4.21529 38.5954 4.22757 38.6523 4.25143C38.7092 4.27529 38.7607 4.31025 38.804 4.35427C38.8473 4.39829 38.8814 4.45049 38.9043 4.50784C38.9273 4.56519 38.9386 4.62654 38.9376 4.68831V30.9693C38.9389 31.0507 38.9192 31.1312 38.8803 31.2027C38.8415 31.2743 38.7848 31.3346 38.7159 31.3778L38.4727 30.9764L38.7087 31.3778L27.9798 37.9068C27.8966 37.9674 27.7965 38 27.6937 38C27.5698 37.9981 27.4515 37.9474 27.3645 37.8589C27.2775 37.7704 27.2288 37.6512 27.2288 37.527V11.2317C27.2268 11.1501 27.2462 11.0694 27.2851 10.9977C27.324 10.926 27.3811 10.8658 27.4505 10.8232L27.7008 11.2388ZM3.16025 7.383L27.6008 10.7371L37.1352 4.95343L15.427 1.92183L3.16025 7.383ZM14.6403 9.92009L7.48767 8.93823L6.87967 20.6059L10.1699 18.5347C10.2524 18.4757 10.3511 18.444 10.4524 18.444C10.5537 18.444 10.6525 18.4757 10.7349 18.5347L14.1825 21.0789L14.6403 9.92009ZM8.51043 8.27894L15.0336 9.09596L25.4693 3.36245L18.803 2.45226L8.51043 8.31477V8.27894Z" stroke="#7D806A" stroke-width="1.5"/>
</g>
</svg>
