<svg width="43" height="41" viewBox="0 0 43 41" fill="none" xmlns="http://www.w3.org/2000/svg">
<path id="Vector 111 (Stroke)" fill-rule="evenodd" clip-rule="evenodd" d="M21.9758 3.53688C21.6704 3.4201 21.3296 3.4201 21.0242 3.53688L5.73112 9.38385L21.5 15.4127L37.2689 9.38385L21.9758 3.53688ZM39.4375 11.1927L22.7812 17.5608V36.9665L39.4375 30.5984V11.1927ZM20.2188 36.9665V17.5608L3.5625 11.1927V30.5984L20.2188 36.9665ZM20.0725 1.26277C20.9889 0.912409 22.0111 0.912409 22.9275 1.26277L41.1946 8.24679C41.681 8.43277 42 8.88308 42 9.38385V30.5984C42 31.5999 41.3621 32.5005 40.3892 32.8725L21.9758 39.9124C21.6704 40.0292 21.3296 40.0292 21.0242 39.9124L2.61081 32.8725C1.63794 32.5005 1 31.5999 1 30.5984V9.38385C1 8.88308 1.31897 8.43277 1.80541 8.24679L20.0725 1.26277Z" fill="#7D806A" stroke="#7D806A"/>
</svg>
