<svg width="37" height="37" viewBox="0 0 37 37" fill="none" xmlns="http://www.w3.org/2000/svg">
<g id="gift">
<path id="Vector (Stroke)" fill-rule="evenodd" clip-rule="evenodd" d="M7.5625 6.46875C7.5625 3.44844 10.0109 1 13.0312 1C16.0516 1 18.5 3.44844 18.5 6.46875C18.5 3.44844 20.9484 1 23.9688 1C26.9891 1 29.4375 3.44844 29.4375 6.46875L29.4375 6.48093C29.4376 6.63375 29.4378 7.07177 29.3548 7.5625H33.8125C35.0206 7.5625 36 8.54188 36 9.75V14.125C36 15.3331 35.0206 16.3125 33.8125 16.3125V32.7188C33.8125 34.5309 32.3434 36 30.5312 36H6.46875C4.65657 36 3.1875 34.5309 3.1875 32.7188L3.1875 16.3125C1.97938 16.3125 1 15.3331 1 14.125V9.75C1 8.54188 1.97938 7.5625 3.1875 7.5625H7.64524C7.56221 7.07177 7.56242 6.63375 7.5625 6.48093C7.5625 6.47664 7.5625 6.47258 7.5625 6.46875ZM9.89873 7.5625H16.3125V6.46875C16.3125 4.65657 14.8434 3.1875 13.0312 3.1875C11.2191 3.1875 9.75 4.65657 9.75 6.46875C9.75 6.65414 9.75426 7.06705 9.84818 7.41143C9.86489 7.47269 9.88221 7.52283 9.89873 7.5625ZM20.6875 7.5625H27.1013C27.1178 7.52283 27.1351 7.47269 27.1518 7.41143C27.2457 7.06705 27.25 6.65414 27.25 6.46875C27.25 4.65657 25.7809 3.1875 23.9688 3.1875C22.1566 3.1875 20.6875 4.65657 20.6875 6.46875V7.5625ZM3.1875 9.75V14.125H16.3125V9.75H3.1875ZM20.6875 9.75V14.125H33.8125V9.75H20.6875ZM31.625 16.3125H20.6875V33.8125H30.5312C31.1353 33.8125 31.625 33.3228 31.625 32.7188V16.3125ZM16.3125 33.8125V16.3125H5.375V32.7188C5.375 33.3228 5.86469 33.8125 6.46875 33.8125H16.3125Z" fill="#7D806A" stroke="#7D806A"/>
</g>
</svg>
