<svg width="34" height="45" viewBox="0 0 34 45" fill="none" xmlns="http://www.w3.org/2000/svg">
<g id="Vector">
<path d="M15.933 38.987C12.4849 41.9509 8.10734 43.6109 3.57738 43.6723C3.41791 43.6677 3.26293 43.6211 3.12806 43.5374C2.99319 43.4536 2.8832 43.3357 2.80923 43.1954C-0.427079 37.0952 1.68982 26.4728 8.04502 16.753C14.4002 7.03323 23.3098 0.795147 30.2266 1.2399C30.3873 1.25281 30.5421 1.30428 30.6778 1.38992C30.8136 1.47556 30.9262 1.59284 31.0062 1.73178C34.216 7.82849 32.1142 18.4394 25.759 28.1592C23.1164 32.2911 19.7938 35.9524 15.933 38.987ZM4.25383 41.8365C10.3762 41.895 18.4663 35.9268 24.1886 27.1605C29.9108 18.3942 32.0824 8.62659 29.5729 3.10561C23.4506 3.04704 15.3605 9.01529 9.63822 17.7816C3.91592 26.5479 1.74432 36.3155 4.25383 41.8365Z" fill="#7D806A"/>
<path d="M15.9707 38.9112C12.6956 41.6868 8.63379 43.3659 4.36733 43.7081C4.21246 43.7066 4.06071 43.6671 3.92546 43.5932C3.79021 43.5192 3.6756 43.413 3.59172 43.284C3.50255 43.1617 3.44593 43.0186 3.42712 42.868C3.40832 42.7174 3.42791 42.5641 3.4841 42.4223C12.1485 20.0466 29.3207 1.74067 29.5431 1.50059C29.6482 1.39571 29.7755 1.31563 29.9155 1.26632C30.0554 1.21701 30.2044 1.19975 30.3513 1.21581C30.5024 1.23452 30.6467 1.28807 30.7728 1.37225C30.8989 1.45642 31.0034 1.56888 31.0779 1.70076C34.2878 7.79748 32.1859 18.4085 25.8307 28.1282C23.1785 32.2504 19.8438 35.8973 15.9707 38.9112ZM5.79546 41.7012C11.7232 40.8464 18.9296 35.2203 24.1886 27.1605C29.7113 18.7584 31.8614 9.52617 29.9148 3.93061C26.2424 7.99938 13.2589 23.3533 5.79546 41.7012Z" fill="#7D806A"/>
<path d="M25.8931 27.2079C25.7319 27.3361 25.5317 27.4051 25.3266 27.4032C20.6931 27.8076 16.1055 28.6602 11.6287 29.9489C11.3839 30.0103 11.1257 29.974 10.9093 29.8477C10.6929 29.7214 10.5355 29.5152 10.4709 29.2731C10.4378 29.1542 10.4291 29.0297 10.4453 28.9069C10.4615 28.7841 10.5022 28.6655 10.5651 28.5582C10.628 28.451 10.7117 28.3572 10.8113 28.2825C10.9109 28.2077 11.0244 28.1536 11.1449 28.1232C15.7777 26.7915 20.5268 25.9191 25.3227 25.5189C25.5209 25.5166 25.7143 25.5765 25.8755 25.6902C26.0366 25.8038 26.1572 25.9655 26.2203 26.1524C26.2834 26.3392 26.2857 26.5417 26.227 26.7312C26.1683 26.9206 26.0514 27.0874 25.8931 27.2079Z" fill="#7D806A"/>
<path d="M30.3654 15.2647C30.1731 15.4028 29.94 15.4721 29.7045 15.461C26.0927 15.4614 22.5163 16.2436 19.2221 17.7535C19.0039 17.882 18.7442 17.9194 18.5003 17.8573C18.2564 17.7952 18.0481 17.6387 17.9214 17.4223C17.7946 17.206 17.7598 16.9474 17.8245 16.7035C17.8892 16.4596 18.0481 16.2504 18.2663 16.1219C21.9099 14.4194 25.8816 13.549 29.8895 13.5746C30.0131 13.5902 30.1321 13.63 30.2396 13.6919C30.3472 13.7538 30.4413 13.8364 30.5163 13.935C30.5913 14.0336 30.6459 14.1462 30.6769 14.2664C30.7078 14.3866 30.7146 14.5119 30.6967 14.6351C30.6684 14.8781 30.5503 15.1026 30.3654 15.2647Z" fill="#7D806A"/>
<path d="M24.1886 27.1605C18.4663 35.9268 10.3762 41.895 4.25383 41.8365C1.74432 36.3155 3.91592 26.5479 9.63822 17.7816C15.3605 9.01529 23.4506 3.04704 29.5729 3.10561C32.0824 8.62659 29.9108 18.3942 24.1886 27.1605ZM24.1886 27.1605C18.9296 35.2203 11.7232 40.8464 5.79546 41.7012C13.2589 23.3533 26.2424 7.99938 29.9148 3.93061C31.8614 9.52617 29.7113 18.7584 24.1886 27.1605ZM15.933 38.987C12.4849 41.9509 8.10734 43.6109 3.57739 43.6723C3.41792 43.6677 3.26293 43.6211 3.12806 43.5374C2.99319 43.4536 2.8832 43.3357 2.80923 43.1954C-0.427079 37.0952 1.68981 26.4728 8.04502 16.753C14.4002 7.03323 23.3098 0.795148 30.2266 1.2399C30.3873 1.25281 30.5421 1.30428 30.6778 1.38992C30.8136 1.47556 30.9262 1.59283 31.0062 1.73178C34.216 7.82849 32.1142 18.4394 25.759 28.1592C23.1164 32.2911 19.7938 35.9524 15.933 38.987ZM15.9707 38.9112C12.6956 41.6868 8.63379 43.3659 4.36733 43.7081C4.21246 43.7066 4.06071 43.6671 3.92546 43.5932C3.79021 43.5192 3.6756 43.413 3.59172 43.284C3.50255 43.1617 3.44593 43.0186 3.42712 42.868C3.40832 42.7174 3.42791 42.5641 3.4841 42.4223C12.1485 20.0466 29.3207 1.74067 29.5431 1.50059C29.6482 1.39571 29.7755 1.31563 29.9155 1.26632C30.0554 1.21701 30.2044 1.19975 30.3513 1.21581C30.5024 1.23452 30.6467 1.28807 30.7728 1.37225C30.8989 1.45642 31.0034 1.56888 31.0779 1.70076C34.2878 7.79748 32.1859 18.4085 25.8307 28.1282C23.1785 32.2504 19.8438 35.8973 15.9707 38.9112ZM25.8931 27.2079C25.7319 27.3361 25.5317 27.4051 25.3266 27.4032C20.6931 27.8076 16.1055 28.6602 11.6287 29.9489C11.3839 30.0103 11.1257 29.974 10.9093 29.8477C10.6929 29.7214 10.5355 29.5152 10.4709 29.2731C10.4378 29.1542 10.4291 29.0297 10.4453 28.9069C10.4615 28.7841 10.5022 28.6655 10.5651 28.5582C10.628 28.451 10.7117 28.3572 10.8113 28.2825C10.9109 28.2077 11.0244 28.1536 11.1449 28.1232C15.7777 26.7915 20.5268 25.9191 25.3227 25.5189C25.5209 25.5166 25.7143 25.5765 25.8754 25.6902C26.0366 25.8038 26.1572 25.9655 26.2203 26.1524C26.2834 26.3392 26.2857 26.5417 26.227 26.7312C26.1683 26.9206 26.0514 27.0874 25.8931 27.2079ZM30.3654 15.2647C30.1731 15.4028 29.94 15.4721 29.7045 15.461C26.0927 15.4614 22.5163 16.2436 19.2221 17.7535C19.0039 17.882 18.7442 17.9194 18.5003 17.8573C18.2564 17.7952 18.0481 17.6387 17.9214 17.4223C17.7946 17.206 17.7598 16.9474 17.8245 16.7035C17.8892 16.4596 18.0481 16.2504 18.2663 16.1219C21.9099 14.4194 25.8816 13.549 29.8895 13.5746C30.0131 13.5902 30.1321 13.63 30.2396 13.6919C30.3472 13.7538 30.4412 13.8364 30.5163 13.935C30.5913 14.0336 30.6459 14.1462 30.6769 14.2664C30.7078 14.3866 30.7146 14.5119 30.6967 14.6351C30.6684 14.8781 30.5503 15.1026 30.3654 15.2647Z" stroke="#7D806A"/>
</g>
</svg>
