<svg width="44" height="42" viewBox="0 0 44 42" fill="none" xmlns="http://www.w3.org/2000/svg">
<path fill-rule="evenodd" clip-rule="evenodd" d="M8.52352 38.9832C8.31929 40.1473 9.46791 41.0585 10.4823 40.5371L22.004 34.6153L33.5257 40.5371C34.5401 41.0585 35.6888 40.1473 35.4845 38.9832L33.3065 26.5683L42.5526 17.7571C43.4167 16.9337 42.9694 15.4281 41.8118 15.2636L28.9533 13.437L23.22 2.0798C22.7036 1.05673 21.3045 1.05673 20.788 2.0798L15.0547 13.437L2.19623 15.2636C1.03863 15.4281 0.591332 16.9337 1.45543 17.7571L10.7016 26.5683L8.52352 38.9832ZM21.3981 31.7169L11.723 36.6896L13.5454 26.3017C13.6313 25.812 13.4698 25.3106 13.1182 24.9756L5.48776 17.7041L16.1251 16.1929C16.5648 16.1305 16.9488 15.8496 17.1562 15.4387L22.004 5.83557L26.8519 15.4387C27.0593 15.8496 27.4433 16.1305 27.883 16.1929L38.5203 17.7041L30.8898 24.9756C30.5383 25.3106 30.3767 25.812 30.4626 26.3017L32.2851 36.6896L22.61 31.7169C22.2278 31.5204 21.7803 31.5204 21.3981 31.7169Z" fill="#7D806A" stroke="#7D806A"/>
</svg>
