<svg width="168" height="42" viewBox="0 0 168 42" fill="none" xmlns="http://www.w3.org/2000/svg">
<path d="M16.5238 32.5282H12.8906V30.6588H22.0362V32.5282H18.403V41.7507H16.3985V32.5282H16.5238ZM31.0564 41.7507H24.4165V30.6588H30.8059V32.5282H26.2957V35.27H30.3047V37.1395H26.2957V40.0059H30.9311V41.7507H31.0564ZM40.7031 30.6588H42.9581L39.1997 36.0178L43.0834 41.6261H40.8284L37.9469 37.5134L35.0654 41.6261H32.8104L36.6941 36.0178L32.9356 30.6588H35.1907L37.9469 34.6469L40.7031 30.6588ZM54.484 41.7507H52.4795V37.0148H47.4683V41.7507H45.4638V30.6588H47.4683V35.1454H52.6048V30.6588H54.484V41.7507ZM57.3655 36.2671C57.3655 34.6469 57.8666 33.276 58.9942 32.1543C60.1217 31.0326 61.4998 30.5341 63.1284 30.5341C64.7571 30.5341 66.1352 31.0326 67.2627 32.1543C68.3903 33.276 68.8914 34.6469 68.8914 36.2671C68.8914 37.8872 68.3903 39.2582 67.2627 40.3798C66.1352 41.5015 64.7571 42 63.1284 42C61.4998 42 60.1217 41.5015 58.9942 40.3798C57.8666 39.2582 57.3655 37.8872 57.3655 36.2671ZM59.37 36.2671C59.37 37.3887 59.7458 38.2611 60.3723 39.0089C60.9987 39.7567 62.0009 40.1306 63.0032 40.1306C64.1307 40.1306 65.0077 39.7567 65.7594 39.0089C66.3858 38.2611 66.7616 37.3887 66.7616 36.2671C66.7616 35.1454 66.3858 34.1484 65.6341 33.5252C64.8824 32.7774 64.0054 32.4036 63.0032 32.4036C61.8756 32.4036 60.9987 32.7774 60.3723 33.5252C59.7458 34.1484 59.37 35.1454 59.37 36.2671ZM79.9161 41.7507H78.0369V32.5282H74.7796L74.5291 34.6469C74.4038 35.8932 74.2785 37.0148 74.0279 37.8872C73.7774 38.7596 73.6521 39.5074 73.4015 40.0059C73.1509 40.5045 72.9004 41.003 72.5245 41.2522C72.1487 41.5015 71.8981 41.7507 71.5223 41.7507C71.1464 41.8754 70.7706 41.8754 70.2695 41.7507V39.8813C70.52 39.8813 70.6453 39.8813 70.8959 39.8813C71.0212 39.8813 71.2717 39.632 71.397 39.3828C71.6476 39.1335 71.7729 38.7596 71.8981 38.2611C72.274 37.1395 72.5245 35.3947 72.7751 32.9021L72.9004 30.6588H79.9161V41.7507ZM82.7976 36.2671C82.7976 34.6469 83.2987 33.276 84.4263 32.1543C85.5538 31.0326 86.9319 30.5341 88.5606 30.5341C90.1892 30.5341 91.5673 31.0326 92.6948 32.1543C93.8224 33.276 94.3235 34.6469 94.3235 36.2671C94.3235 37.8872 93.8224 39.2582 92.6948 40.3798C91.5673 41.5015 90.1892 42 88.5606 42C86.9319 42 85.5538 41.5015 84.4263 40.3798C83.2987 39.2582 82.7976 37.8872 82.7976 36.2671ZM84.9274 36.2671C84.9274 37.3887 85.3032 38.2611 85.9296 39.0089C86.5561 39.7567 87.5583 40.1306 88.5606 40.1306C89.6881 40.1306 90.5651 39.7567 91.3167 39.0089C91.9432 38.2611 92.319 37.3887 92.319 36.2671C92.319 35.1454 91.9431 34.1484 91.1915 33.5252C90.4398 32.7774 89.5628 32.4036 88.5606 32.4036C87.433 32.4036 86.5561 32.7774 85.9296 33.5252C85.178 34.1484 84.9274 35.1454 84.9274 36.2671ZM99.2095 41.7507H97.205V30.6588H103.469V32.5282H99.2095V41.7507ZM108.104 41.7507H106.1V30.6588H108.104V41.7507ZM110.986 28.7893C110.986 28.5401 111.111 28.2908 111.236 28.0415C111.487 27.9169 111.738 27.7923 111.988 27.7923C112.239 27.7923 112.489 27.9169 112.74 28.0415C112.99 28.1662 112.99 28.4154 112.99 28.7893C112.99 29.1632 112.865 29.4125 112.74 29.5371C112.615 29.6617 112.364 29.7863 111.988 29.7863C111.738 29.7863 111.487 29.6617 111.236 29.5371C111.111 29.2878 110.986 29.0386 110.986 28.7893ZM114.243 41.7507H112.239V30.6588H114.243V41.7507ZM113.617 28.7893C113.617 28.5401 113.742 28.2908 113.867 28.0415C114.118 27.9169 114.369 27.7923 114.619 27.7923C114.87 27.7923 115.12 27.9169 115.371 28.0415C115.621 28.2908 115.621 28.4154 115.621 28.7893C115.621 29.1632 115.496 29.4125 115.371 29.5371C115.245 29.7863 114.995 29.7863 114.619 29.7863C114.243 29.7863 113.993 29.6617 113.867 29.5371C113.742 29.2878 113.617 29.0386 113.617 28.7893ZM129.903 39.2582L130.655 40.7537C130.279 41.1276 129.778 41.3769 129.152 41.6261C128.525 41.8754 127.774 42 127.147 42C125.393 42 124.015 41.5015 123.013 40.3798C122.011 39.3828 121.384 38.0119 121.384 36.2671C121.384 34.6469 121.885 33.276 122.888 32.1543C123.89 31.0326 125.268 30.5341 127.022 30.5341C128.4 30.5341 129.528 30.908 130.405 31.6558L129.528 33.1513C128.776 32.6528 127.899 32.4036 127.022 32.4036C126.02 32.4036 125.143 32.7774 124.391 33.4006C123.765 34.1484 123.389 35.0208 123.389 36.2671C123.389 37.3887 123.765 38.3858 124.391 39.1335C125.143 39.8813 126.02 40.2552 127.147 40.2552C128.275 40.1306 129.152 39.8813 129.903 39.2582ZM142.181 41.7507H140.302V37.0148H135.165V41.7507H133.161V30.6588H135.165V35.1454H140.302V30.6588H142.181V41.7507ZM153.08 30.6588H155.085L151.327 39.1335C150.951 40.0059 150.45 40.6291 150.074 41.1276C149.573 41.5015 149.071 41.7507 148.32 41.7507C147.568 41.7507 147.192 41.6261 146.816 41.2522L147.443 39.632C147.693 39.7567 147.944 39.8813 148.32 39.8813C148.821 39.8813 149.197 39.632 149.447 39.1335L149.573 38.7596L144.687 30.6588H146.942L150.575 36.8902L153.08 30.6588Z" fill="#535353"/>
<path d="M10.6439 11.7151L21.4181 24.8012H14.5276L5.88319 13.9585V24.8012H0.496094V0.249263H5.88319V10.2196L14.1518 0.249263H20.7917L10.6439 11.7151ZM120.516 5.35906H128.032V24.8012H133.42V5.35906H140.936V0.249263H120.39V5.35906H120.516ZM36.953 14.9555L44.5951 24.8012H38.0805L31.6911 16.0772H29.6866V24.8012H24.2995V0.249263H24.926C26.0535 0.249263 27.3063 0.249263 28.6844 0.249263C30.0625 0.249263 31.19 0.249263 32.067 0.249263C39.5839 0.249263 41.2125 4.48665 41.2125 8.1009C41.2125 9.97033 40.7114 11.5905 39.7092 12.8368C38.8322 13.7092 37.9552 14.457 36.953 14.9555ZM30.3131 5.35906C30.0625 5.35906 29.9372 5.35906 29.6866 5.35906V10.9674H31.6911C32.8187 10.9674 33.8209 10.7181 34.5726 10.095C35.199 9.59645 35.5749 8.84867 35.5749 7.97627C35.5749 6.72998 35.199 5.23443 31.8164 5.23443C31.6911 5.23443 31.5659 5.23443 31.3153 5.23443C31.0647 5.35906 30.6889 5.35906 30.3131 5.35906ZM111.871 0.249263L122.27 24.8012H116.507L114.126 18.819H104.981L102.6 24.8012H97.088L107.361 0.249263H111.871ZM109.491 7.72701L106.985 13.7092H111.996L109.491 7.72701ZM167.496 12.5875C167.496 16.2018 166.243 19.3175 163.863 21.6855C161.483 24.0534 158.351 25.2997 154.717 25.2997C151.084 25.2997 147.952 24.178 145.572 21.8101C143.192 19.4421 141.939 16.451 141.939 12.7122C141.939 9.22256 143.192 6.10683 145.572 3.73888C147.952 1.37092 151.084 0.124634 154.717 0.124634C158.351 0.124634 161.483 1.2463 163.863 3.61425C166.243 5.73294 167.496 8.84867 167.496 12.5875ZM159.979 17.9466C161.357 16.451 161.984 14.7062 161.984 12.4629C161.984 10.2196 161.357 8.47478 159.854 6.97923C158.476 5.60831 156.722 4.86054 154.717 4.86054C152.588 4.86054 150.959 5.60831 149.581 6.97923C148.203 8.35015 147.576 10.2196 147.576 12.4629C147.576 14.7062 148.203 16.451 149.581 17.822C150.959 19.3175 152.588 19.9407 154.717 19.9407C156.972 20.0653 158.601 19.4421 159.979 17.9466ZM94.0812 0.249263L87.8172 16.451L81.3025 0.249263H75.5396L85.6874 24.8012H89.6964L99.5936 0.249263H94.0812Z" fill="#535353"/>
<path d="M71.1031 2.49432C69.5959 0.997728 67.5864 0.124716 65.4513 0.124716C63.3162 0.124716 61.3066 0.997728 59.7995 2.49432L59.4227 2.86847L58.9203 2.3696C57.4132 0.873012 55.4037 0 53.2686 0C51.1334 0 49.1239 0.873012 47.6168 2.3696C46.1096 3.8662 45.2305 5.86165 45.2305 7.98182C45.2305 10.102 46.1096 12.0975 47.6168 13.594L58.5436 24.4443C58.7947 24.6938 59.0459 24.8185 59.4227 24.8185C59.7995 24.8185 60.0507 24.6938 60.3019 24.4443L71.2287 13.594C72.7358 12.0975 73.615 10.102 73.615 7.98182C73.615 5.86165 72.7358 3.99091 71.1031 2.49432Z" fill="#00B5FF"/>
<mask id="mask0_32_8103" style="mask-type:alpha" maskUnits="userSpaceOnUse" x="45" y="0" width="29" height="25">
<path d="M71.1031 2.49432C69.5959 0.997728 67.5864 0.124716 65.4513 0.124716C63.3162 0.124716 61.3066 0.997728 59.7995 2.49432L59.4227 2.86847L58.9203 2.3696C57.4132 0.873012 55.4037 0 53.2686 0C51.1334 0 49.1239 0.873012 47.6168 2.3696C46.1096 3.8662 45.2305 5.86165 45.2305 7.98182C45.2305 10.102 46.1096 12.0975 47.6168 13.594L58.5436 24.4443C58.7947 24.6938 59.0459 24.8185 59.4227 24.8185C59.7995 24.8185 60.0507 24.6938 60.3019 24.4443L71.2287 13.594C72.7358 12.0975 73.615 10.102 73.615 7.98182C73.615 5.86165 72.7358 3.99091 71.1031 2.49432Z" fill="#00B5FF"/>
</mask>
<g mask="url(#mask0_32_8103)">
<rect x="44.293" y="10.3227" width="30.0675" height="15.0844" fill="#FFBC00"/>
</g>
</svg>
