<?xml version="1.0" encoding="UTF-8"?>
<svg id="_Шар_1" data-name="Шар_1" xmlns="http://www.w3.org/2000/svg" version="1.1" viewBox="0 0 91.11 70.01">
  <!-- Generator: Adobe Illustrator 29.2.1, SVG Export Plug-In . SVG Version: 2.1.0 Build 116)  -->
  <defs>
    <style>
      .st0 {
        fill: #ff8446;
      }
    </style>
  </defs>
  <g>
    <path d="M23.5,5.82c-1.89-.06-3.47-.18-4.74-.37,0,2.41-.14,5.09-.43,8.05-.1.86-.14,1.56-.14,2.12,0,.42.01.8.04,1.16h.83c.65-3.07,1.45-5.16,2.41-6.27.96-1.11,2.6-1.66,4.92-1.66h9.16v28.35c0,4.07-.36,6.97-1.08,8.72-.74,1.77-2.11,2.95-4.09,3.53v.75c3.09-.33,5.41-.5,6.97-.5h1.08V5.95h-11.85l-3.05-.12Z"/>
    <path d="M59.87,26.33c3.88-1.8,5.82-4.9,5.82-9.3s-2.06-7.53-6.18-9.55c1.8,3.15,2.69,6.3,2.69,9.42,0,3.43-.78,6.57-2.33,9.42Z"/>
    <path d="M78.42,45.26c-.62.47-1.23.71-1.83.71-2.94,0-6.75-2.74-11.42-8.22-3.06-3.57-5.35-5.95-6.86-7.14-1.41-1.11-3.16-1.83-5.24-2.16,4.19-1.6,6.28-5.27,6.28-11,0-3.38-.8-6.21-2.41-8.51-1.6-2.32-4.05-3.49-7.33-3.49-1.17,0-2.69.1-4.56.29-1.63.14-3.16.21-4.6.21v43.75h1.04c1.87,0,4.24.17,7.11.5v-.75c-3.45-.58-5.17-4.18-5.17-10.79v-9.84c1.41.53,2.86,1.44,4.35,2.74,1.39,1.27,3.52,3.68,6.39,7.22,1.96,2.44,3.65,4.42,5.05,5.96,1.4,1.54,2.56,2.68,3.47,3.42,1.7,1.36,3.71,2.03,6.03,2.03.79,0,1.59-.17,2.41-.5v-.37c-1.75,0-3.58-.86-5.49-2.57-1.89-1.72-4.41-4.46-7.54-8.22-4.45-5.4-7.99-8.56-10.59-9.51,4.21,0,8.55,2.66,13,7.97,3.71,4.37,6.5,7.31,8.37,8.8,1.99,1.58,3.89,2.37,5.71,2.37,1.7,0,3.03-.72,3.99-2.16l-.14-.75ZM43.44,26.37v-9.01c0-4.21.22-6.86.65-7.97.96-.8,2.3-1.2,4.02-1.2,5.34,0,8.01,3.03,8.01,9.09,0,6.48-2.69,9.71-8.08,9.71-1.65,0-3.18-.21-4.6-.62Z"/>
    <text/>
    <text/>
    <g>
      <path d="M5.62,56.62h3.72v.58h-2.61v1.31h2.09v.58h-2.09v1.91h-1.11v-4.39Z"/>
      <path d="M13.02,59.02c.68-.23,1.02-.61,1.02-1.15,0-.41-.17-.72-.52-.93s-.88-.32-1.61-.32h-.91v.56h.86c.73,0,1.09.23,1.09.69,0,.22-.09.4-.27.54s-.46.21-.84.21h-.85v.56h1.04l1.04,1.83h1.2l-1.27-1.98Z"/>
      <path d="M19.7,58.81c0,.75-.2,1.32-.61,1.7s-1,.58-1.78.58-1.38-.19-1.79-.57c-.42-.38-.62-.95-.62-1.7s.21-1.31.62-1.7c.41-.38,1.01-.58,1.79-.58s1.37.19,1.78.57.62.95.62,1.7ZM18.53,58.81c0-.52-.09-.93-.28-1.23s-.51-.45-.97-.45-.78.15-.97.45c-.18.3-.27.71-.27,1.23s.09.92.27,1.22c.18.3.51.46.99.46.45,0,.77-.15.95-.44.19-.29.28-.71.28-1.24Z"/>
      <path d="M20.72,56.62h1.31l2.2,3.16v-3.16h.93v4.39h-1.03l-2.47-3.51v3.51h-.93v-4.39Z"/>
      <path d="M26.02,56.62h4.09v.62h-1.5v3.77h-1.11v-3.77h-1.49v-.62Z"/>
      <rect x="31.29" y="56.62" width="2.71" height=".58"/>
      <rect x="31.29" y="60.41" width="2.76" height=".59"/>
      <rect x="31.29" y="58.45" width="2.12" height=".59"/>
      <path d="M34.75,56.62h1.31l2.2,3.16v-3.16h.93v4.39h-1.03l-2.47-3.51v3.51h-.93v-4.39Z"/>
      <path d="M44.67,57.63c-.22-.33-.55-.59-.99-.76s-1.02-.25-1.75-.25h-1.51v.58h1.57c1.23,0,1.84.54,1.84,1.61,0,.49-.15.88-.44,1.17s-.76.44-1.41.44h-.46v-.38h-1.11v.96h1.59c.77,0,1.36-.1,1.77-.31.41-.21.72-.48.92-.81s.3-.72.3-1.15-.11-.78-.34-1.11Z"/>
      <path d="M57.52,56.62h1.16l1.27,3.5,1.28-3.5h.98l-1.77,4.4h-1.2s-1.73-4.4-1.73-4.4Z"/>
      <path d="M67.44,56.62h1.11v3.77h2.37v.61h-3.48v-4.39Z"/>
      <path d="M76.1,58.81c0,.75-.2,1.32-.61,1.7s-1,.58-1.78.58-1.38-.19-1.79-.57c-.42-.38-.62-.95-.62-1.7s.21-1.31.62-1.7c.41-.38,1.01-.58,1.79-.58s1.37.19,1.78.57.62.95.62,1.7ZM74.94,58.81c0-.52-.09-.93-.28-1.23s-.51-.45-.97-.45-.78.15-.97.45c-.18.3-.27.71-.27,1.23s.09.92.27,1.22c.18.3.51.46.99.46.45,0,.77-.15.95-.44.19-.29.28-.71.28-1.24Z"/>
      <path d="M77.16,56.62h1.66c.53,0,.96.03,1.29.1.33.07.61.21.83.43.23.22.34.49.34.81,0,.29-.09.54-.27.75s-.43.36-.74.45-.78.14-1.42.14h-.57v1.71h-1.11v-4.39ZM78.26,57.18v1.53h.55c.49,0,.83-.06,1.02-.18s.28-.32.28-.59c0-.2-.06-.36-.19-.49s-.26-.2-.41-.23c-.15-.03-.38-.04-.7-.04h-.55Z"/>
      <path d="M87.96,59.02c.68-.23,1.02-.61,1.02-1.15,0-.41-.17-.72-.52-.93s-.88-.32-1.61-.32h-.91v.56h.86c.73,0,1.09.23,1.09.69,0,.22-.09.4-.27.54s-.46.21-.84.21h-.85v.56h1.04l1.04,1.83h1.2l-1.27-1.98Z"/>
      <path d="M52.45,57.63c-.22-.33-.55-.59-.99-.76s-1.02-.25-1.75-.25h-1.51v.58h1.57c1.23,0,1.84.54,1.84,1.61,0,.49-.15.88-.44,1.17s-.76.44-1.41.44h-.46v-.38h-1.11v.96h1.59c.77,0,1.36-.1,1.77-.31.41-.21.72-.48.92-.81s.3-.72.3-1.15-.11-.78-.34-1.11Z"/>
      <rect x="53.73" y="56.62" width="2.71" height=".58"/>
      <rect x="53.73" y="60.42" width="2.76" height=".59"/>
      <rect x="53.73" y="58.46" width="2.12" height=".59"/>
      <rect x="63.33" y="56.56" width="2.71" height=".58"/>
      <rect x="63.33" y="60.35" width="2.76" height=".59"/>
      <rect x="63.33" y="58.39" width="2.12" height=".59"/>
      <rect x="82.05" y="56.62" width="2.71" height=".58"/>
      <rect x="82.05" y="60.41" width="2.76" height=".59"/>
      <rect x="82.05" y="58.61" width="2.12" height=".59"/>
    </g>
  </g>
  <rect class="st0" x="23.91" y="65.58" width="41.12" height=".92"/>
</svg>