<svg width="24" height="25" viewBox="0 0 24 25" fill="none" xmlns="http://www.w3.org/2000/svg">
<g opacity="0.8" clip-path="url(#clip0_201_1962)">
<path d="M12.0093 0.5C12.3568 0.5 12.7043 0.5 13.0528 0.5C13.5297 0.509376 13.8104 0.769823 13.8396 1.22925C13.8688 1.68868 13.9011 2.1356 13.5777 2.56586C13.299 2.9357 13.4733 3.35241 13.779 3.69203C14.4197 4.39941 15.0396 5.12761 15.6928 5.82353C15.9528 6.09268 16.1562 6.4111 16.291 6.76001C16.4258 7.10892 16.4892 7.48124 16.4775 7.85501C16.465 9.98963 16.4712 12.1263 16.4775 14.2578C16.4786 14.7445 16.3814 15.2264 16.1916 15.6747C15.5133 17.2915 15.5018 18.9167 16.1916 20.5304C16.5683 21.4159 16.5307 22.3327 16.4274 23.2391C16.392 23.5736 16.2325 23.8828 15.9803 24.1058C15.7281 24.3289 15.4015 24.4497 15.0646 24.4444C14.1557 24.4569 13.2239 24.6121 12.3714 24.085C12.0771 23.9037 11.7286 23.9944 11.4229 24.16C10.5234 24.6486 9.55609 24.5017 8.62009 24.3819C7.95644 24.3027 7.54635 23.7318 7.52026 23.0474C7.48374 22.0764 7.52026 21.1336 7.90635 20.1918C8.46879 18.8115 8.43435 17.3655 7.89487 15.9726C7.62784 15.2954 7.49495 14.573 7.50357 13.8453C7.52583 11.8506 7.52583 9.85524 7.50357 7.85918C7.49084 7.48643 7.55339 7.11493 7.68748 6.76681C7.82158 6.4187 8.02448 6.10109 8.28409 5.8329C8.93522 5.13387 9.56131 4.41295 10.1947 3.69828C10.5996 3.2399 10.6006 2.92215 10.299 2.40334C10.0184 1.92516 10.059 1.39906 10.2406 0.900046C10.345 0.618764 10.6142 0.504167 10.9178 0.503125L12.0093 0.5ZM8.33835 21.1013C8.53348 21.1149 8.66809 21.1295 8.8027 21.1336C9.06148 21.142 9.32444 21.1711 9.31192 21.5076C9.30253 21.8035 9.05626 21.8837 8.82253 21.841C8.21835 21.7306 8.16513 22.0681 8.21105 22.5234C8.22983 22.7119 8.21105 22.9057 8.23505 23.0943C8.27053 23.3974 8.45 23.6704 8.73174 23.6964C9.51853 23.7673 10.3293 23.9339 11.0817 23.5433C11.5919 23.2787 12.1387 23.1464 12.627 23.4328C13.3992 23.885 14.211 23.7454 15.0156 23.7454C15.483 23.7454 15.7356 23.4422 15.7679 22.9776C15.7825 22.7536 15.7502 22.5244 15.7773 22.3015C15.8243 21.9285 15.673 21.8379 15.313 21.842C13.8521 21.8618 12.3912 21.8504 10.9304 21.8504C10.7912 21.8546 10.6518 21.8515 10.513 21.841C10.298 21.8181 10.1457 21.6993 10.1509 21.4753C10.1509 21.2774 10.3011 21.169 10.4942 21.1472C10.633 21.136 10.7723 21.1322 10.9116 21.1357C12.337 21.1357 13.7624 21.1274 15.1898 21.1357C15.5352 21.1357 15.6542 21.0919 15.5029 20.7096C14.786 18.8969 14.8194 17.0863 15.5832 15.2923C15.645 15.1491 15.6969 15.0019 15.7387 14.8516C15.8326 14.4995 15.7627 14.3308 15.3213 14.3308C13.1999 14.3537 11.0796 14.3412 8.95609 14.3412C8.12131 14.3412 8.05766 14.437 8.36235 15.2184C8.38113 15.2663 8.40513 15.3132 8.42705 15.36C8.86426 16.3289 9.01244 17.3499 8.98113 18.4052C8.94541 19.3372 8.72703 20.2532 8.33835 21.1013ZM15.6427 11.1762L15.7617 11.1137C15.7617 10.5157 15.7617 9.91671 15.7617 9.31872C15.7617 9.08224 15.5947 9.09786 15.4392 9.08432C15.2065 9.06453 15.0218 8.97077 15.0385 8.70719C15.0521 8.47487 15.2305 8.39466 15.4403 8.38111C15.5957 8.36965 15.7648 8.38111 15.7617 8.14775C15.7554 7.71645 15.8076 7.28203 15.5884 6.87573C15.4653 6.64654 15.3484 6.54236 15.0667 6.65904C14.7382 6.80389 14.3779 6.86167 14.0205 6.82682C13.6632 6.79196 13.3209 6.66564 13.0267 6.46006C12.3203 5.98709 11.6493 5.98501 10.947 6.46006C10.3836 6.8424 9.75226 6.91011 9.09905 6.73717C8.51992 6.58507 8.34983 6.67883 8.24757 7.27161C8.21209 7.47997 8.234 7.68833 8.20583 7.89668C8.15053 8.29777 8.33 8.39362 8.70879 8.38945C10.274 8.37174 11.8392 8.38111 13.4044 8.38216C13.5604 8.3785 13.7165 8.38371 13.8719 8.39778C14.065 8.41966 14.1996 8.5228 14.2027 8.73115C14.2054 8.77499 14.1991 8.81891 14.1843 8.86025C14.1694 8.9016 14.1463 8.9395 14.1164 8.97165C14.0864 9.00381 14.0502 9.02954 14.01 9.0473C13.9698 9.06505 13.9263 9.07446 13.8824 9.07494C13.727 9.08992 13.5709 9.09548 13.4149 9.09161C11.8684 9.09161 10.322 9.11141 8.77661 9.08119C8.29974 9.06765 8.18392 9.21871 8.19853 9.66772C8.23087 10.6553 8.20583 11.6471 8.21209 12.6337C8.21209 12.7775 8.15261 12.9462 8.32374 13.0994C8.88618 12.6118 9.44653 12.1274 10.0027 11.6409C10.3053 11.3742 10.6987 11.1304 11.0399 11.3346C11.666 11.7065 11.9373 11.3044 12.2796 10.9512C12.5206 10.7022 12.7606 10.4511 13.0163 10.2157C13.5797 9.69481 14.1641 9.69481 14.7234 10.2157C15.0458 10.522 15.3401 10.8554 15.6427 11.1762ZM14.8611 5.97459C14.2977 5.3391 13.7811 4.75882 13.2667 4.17542C13.0716 3.95456 12.8222 3.72329 12.8316 3.42742C12.8545 2.65337 12.3756 2.65337 11.8309 2.70546C11.7441 2.7138 11.6568 2.7138 11.57 2.70546C11.3373 2.68567 11.21 2.77005 11.2142 3.018C11.2225 3.52118 10.9617 3.90143 10.6403 4.25668C10.1352 4.81612 9.63957 5.38389 9.11783 5.9725C9.66774 6.21941 10.1321 6.15586 10.5599 5.86833C11.5168 5.21825 12.4601 5.22033 13.417 5.86833C13.8458 6.16315 14.3091 6.22357 14.8611 5.97459ZM14.5105 13.6265C14.9008 13.6265 15.1784 13.6265 15.4559 13.6265C15.5603 13.6265 15.6646 13.6421 15.7397 13.5421C15.8441 13.3952 15.7491 12.2347 15.6083 12.093C15.146 11.6242 14.6775 11.1616 14.211 10.698C14.0326 10.5199 13.8229 10.4293 13.6163 10.6241C13.1634 11.0533 12.7283 11.5002 12.2858 11.9388C12.1815 12.043 12.1533 12.1545 12.2723 12.2514C12.987 12.8295 13.3815 13.9536 14.5105 13.6265ZM8.84861 13.5796H12.5352C12.0187 13.0504 11.5502 12.5545 11.0608 12.0805C10.9074 11.9315 10.6977 11.9763 10.539 12.1138C10.0017 12.5764 9.47053 13.0431 8.84861 13.5838V13.5796ZM12.001 1.98975C12.2775 1.98975 12.554 1.97725 12.8305 1.98975C13.1436 2.00642 13.1436 1.81994 13.1488 1.59179C13.154 1.36364 13.1164 1.19279 12.819 1.20112C12.3036 1.21779 11.7818 1.21883 11.2601 1.20216C10.9585 1.19279 10.8302 1.27821 10.827 1.60742C10.827 1.95433 10.9877 2.00955 11.2716 1.99392C11.5157 1.97934 11.7589 1.9908 12.001 1.98975Z" fill="#FA8B02" stroke="#FA8B02" stroke-width="0.2"/>
</g>
<defs>
<clipPath id="clip0_201_1962">
<rect width="24" height="24" fill="white" transform="translate(0 0.5)"/>
</clipPath>
</defs>
</svg>
