<svg width="24" height="24" viewBox="0 0 24 24" fill="none" xmlns="http://www.w3.org/2000/svg">
<g opacity="0.8" clip-path="url(#clip0_201_13397)">
<path d="M11.9705 0.570282C14.3276 0.570282 16.6847 0.570282 19.0418 0.570282C19.9847 0.570282 20.8474 0.745886 21.3494 1.67812C21.5374 2.0007 21.6408 2.36557 21.65 2.73881C21.65 3.17134 21.65 3.60269 21.65 4.03522C21.65 4.85078 21.65 4.85078 22.4573 4.92503C23.6205 5.0311 24.3771 6.45714 23.8043 7.47777C23.7607 7.56608 23.6904 7.63849 23.6035 7.68482C23.5165 7.73115 23.4172 7.74908 23.3196 7.73607C23.2219 7.72307 23.1308 7.67979 23.059 7.61232C22.9872 7.54485 22.9383 7.45658 22.9193 7.35991C22.8845 7.1469 22.8726 6.93078 22.8839 6.71524C22.9098 6.17665 22.6482 5.97865 22.132 5.99397C21.7784 6.0034 21.6264 6.14247 21.65 6.49132C21.6606 6.64807 21.65 6.80599 21.65 6.96274C21.65 10.9093 21.65 14.8559 21.65 18.8025C21.65 19.869 21.4237 20.1825 20.3795 20.4654C20.0636 20.5502 19.9693 20.7117 19.9752 21.0028C19.9752 21.3564 19.987 21.7099 19.967 22.0635C19.959 22.3807 19.8384 22.6847 19.6268 22.9212C19.4152 23.1576 19.1264 23.311 18.812 23.354C18.2878 23.4398 17.7539 23.4497 17.2269 23.3835C16.3642 23.2762 15.954 22.8142 15.9305 21.928C15.921 21.5944 15.921 21.2597 15.9305 20.9262C15.9305 20.6304 15.7949 20.496 15.5026 20.496C13.1455 20.496 10.7884 20.496 8.43134 20.496C8.10606 20.496 7.96934 20.6434 7.97759 20.9675C7.98584 21.2916 7.98584 21.6357 7.97759 21.9692C7.94459 22.819 7.53564 23.2786 6.7024 23.3835C6.17566 23.4523 5.64172 23.4443 5.11725 23.3599C4.80265 23.3213 4.5118 23.1728 4.29614 22.9405C4.08047 22.7083 3.95386 22.4072 3.9387 22.0906C3.92921 21.9729 3.92921 21.8547 3.9387 21.737C3.99409 21.0429 4.00706 20.4654 3.05125 20.3016C2.40069 20.1837 2.25455 19.5332 2.25691 18.8873C2.26752 14.9403 2.25691 10.991 2.25691 7.0476C2.25691 6.89085 2.2463 6.73292 2.25691 6.57617C2.28637 6.19904 2.17677 5.97865 1.73953 5.99515C1.33646 6.00929 1.03829 6.09768 1.0324 6.57382C1.03462 6.82851 1.02202 7.08311 0.994682 7.33634C0.983459 7.4479 0.930686 7.55117 0.846845 7.62562C0.763004 7.70007 0.654228 7.74027 0.542119 7.73823C0.482558 7.74523 0.422196 7.74014 0.364652 7.72325C0.307107 7.70636 0.253564 7.67803 0.207232 7.63995C0.1609 7.60188 0.122734 7.55484 0.09502 7.50165C0.0673062 7.44847 0.0506158 7.39024 0.0459493 7.33045C-0.0990124 6.19079 0.0105928 4.94153 1.72067 4.93092C2.14023 4.93092 2.26634 4.74235 2.2522 4.35343C2.23452 3.82308 2.23805 3.29273 2.2522 2.76356C2.28402 1.58501 3.03004 0.772993 4.19798 0.631567C4.51091 0.594708 4.82573 0.576213 5.14082 0.576175C7.41621 0.572246 9.69278 0.570282 11.9705 0.570282ZM11.954 4.84488C9.26339 4.84488 6.57158 4.84488 3.88095 4.84488C3.50382 4.84488 3.23864 4.87671 3.24454 5.36698C3.26339 7.05702 3.25632 8.74589 3.24454 10.4347C3.24454 10.7659 3.38007 10.938 3.69946 11.0111C6.1367 11.5673 8.58572 12.0022 11.0913 12.0753C14.1367 12.1625 17.1184 11.73 20.0731 11.0393C20.4973 10.9403 20.6623 10.7589 20.6553 10.324C20.6376 8.73292 20.6246 7.14188 20.6612 5.55084C20.6741 4.96156 20.4537 4.83074 19.9081 4.83546C17.2575 4.85903 14.6058 4.84606 11.954 4.84606V4.84488ZM11.954 19.42C14.6435 19.42 17.3341 19.42 20.0236 19.42C20.5244 19.42 20.6541 19.1843 20.6612 18.7282C20.6682 18.2721 20.4914 18.0941 20.0377 18.1118C19.4879 18.138 18.9371 18.1341 18.3877 18.1C17.9175 18.0672 17.4782 17.8542 17.1612 17.5053C16.8443 17.1565 16.6743 16.6988 16.6866 16.2276C16.6989 15.7564 16.8926 15.3082 17.2273 14.9764C17.562 14.6446 18.0119 14.4547 18.4832 14.4465C19.0524 14.43 19.6217 14.4347 20.1909 14.4465C20.5138 14.4465 20.6553 14.3063 20.6505 13.9845C20.6435 13.5131 20.6258 13.0417 20.6576 12.5703C20.6918 12.0659 20.5574 11.9127 20.0294 12.0659C17.5427 12.7907 14.9817 13.0346 12.4066 13.0665C9.49203 13.103 6.60223 12.8484 3.78431 12.0458C3.41543 11.9409 3.22686 11.9857 3.24807 12.4265C3.27164 12.9368 3.26339 13.4483 3.24807 13.9586C3.23982 14.3122 3.39421 14.4548 3.74188 14.4477C4.27223 14.4359 4.80258 14.4383 5.33293 14.4477C6.35827 14.4689 7.19739 15.2727 7.21861 16.2485C7.24336 17.2008 6.40187 18.0694 5.3895 18.113C4.86033 18.1366 4.3288 18.133 3.79963 18.113C3.39893 18.1024 3.23629 18.2627 3.23982 18.6693C3.23982 19.2998 3.33057 19.4129 3.99409 19.4141C6.6474 19.4228 9.29953 19.4271 11.9505 19.4271L11.954 19.42ZM11.9623 3.85019H14.2604C16.1827 3.85019 18.1061 3.85019 20.0283 3.85019C20.2699 3.85019 20.5468 3.91501 20.6423 3.55437C20.9263 2.45596 20.3158 1.62037 19.1809 1.61919C14.3536 1.61448 9.5266 1.61448 4.70005 1.61919C3.67471 1.61919 3.27636 2.02226 3.25161 3.03345C3.23157 3.81837 3.25161 3.8443 4.07659 3.8443L11.9623 3.85019ZM4.51148 17.07C4.78608 17.07 5.0595 17.07 5.33646 17.07C5.82674 17.07 6.10723 16.826 6.14848 16.3334C6.1862 15.8679 5.89156 15.5084 5.38714 15.4707C4.95933 15.4353 4.5268 15.4542 4.09073 15.4542C3.24453 15.4542 3.24454 15.4542 3.24807 16.2874C3.24807 17.0547 3.26575 17.07 4.04006 17.0747L4.51148 17.07ZM19.2987 17.0641C20.7472 17.0712 20.7472 17.0712 20.6458 15.902C20.6458 15.8632 20.6458 15.8243 20.6399 15.7842C20.6432 15.7398 20.6368 15.6953 20.6211 15.6536C20.6054 15.612 20.5808 15.5743 20.5491 15.5431C20.5173 15.5119 20.4792 15.488 20.4373 15.4731C20.3954 15.4581 20.3507 15.4525 20.3064 15.4566C19.6806 15.4566 19.0501 15.4247 18.4302 15.4837C17.9965 15.5237 17.7313 15.8302 17.7525 16.2969C17.7761 16.7836 18.0365 17.0523 18.535 17.0617C18.7896 17.07 19.0442 17.0629 19.2987 17.0629V17.0641ZM6.96758 21.3976C6.96758 20.4949 6.96758 20.4949 6.12491 20.4925C4.9994 20.4925 4.9994 20.4925 4.99586 21.2998C4.99586 22.3511 5.00883 22.3699 5.95874 22.3711C6.93458 22.3735 6.96522 22.3428 6.96758 21.3976ZM17.9022 20.4878C16.931 20.4878 16.931 20.4878 16.931 21.3234C16.931 22.344 16.9523 22.3676 17.9281 22.3664C18.8815 22.3664 18.9039 22.3428 18.9028 21.3646C18.9028 20.4878 18.9028 20.4878 17.9022 20.4878Z" fill="#FA8B02" stroke="#FA8B02" stroke-width="0.5"/>
<path d="M11.9194 18.0388C11.1333 18.0388 10.3484 18.0529 9.5623 18.0388C8.68782 18.0187 8.18104 17.5061 8.14804 16.641C8.13979 16.4253 8.14215 16.2085 8.14804 15.9928C8.1669 15.0971 8.65482 14.5114 9.53755 14.489C11.1459 14.4473 12.7566 14.4473 14.3696 14.489C15.2523 14.5114 15.7414 15.0959 15.7591 15.9928C15.7591 16.2285 15.7685 16.4642 15.7591 16.6999C15.7155 17.4966 15.2099 17.9963 14.4038 18.0411C14.3649 18.0411 14.3248 18.0411 14.2859 18.0411L11.9194 18.0388ZM12.009 15.5449C11.2653 15.5449 10.5216 15.5579 9.77798 15.5449C9.27356 15.5332 9.1392 15.7936 9.14627 16.2415C9.15334 16.6669 9.17338 17.0393 9.74498 17.037C11.2134 17.0307 12.6815 17.0307 14.1492 17.037C14.7185 17.037 14.7456 16.6728 14.7515 16.245C14.7515 15.7995 14.6336 15.532 14.1233 15.5449C13.4197 15.5579 12.7137 15.5449 12.009 15.5449Z" fill="#FA8B02" stroke="#FA8B02" stroke-width="0.5"/>
</g>
<defs>
<clipPath id="clip0_201_13397">
<rect width="24" height="24" fill="white"/>
</clipPath>
</defs>
</svg>
