<svg width="13" height="13" viewBox="0 0 13 13" fill="none" xmlns="http://www.w3.org/2000/svg">
<path d="M7.93966 6.07996L12.7997 1.21996C12.9089 1.09243 12.9659 0.928377 12.9595 0.760593C12.953 0.592809 12.8834 0.43365 12.7647 0.31492C12.646 0.196191 12.4868 0.126635 12.319 0.120155C12.1512 0.113674 11.9872 0.170745 11.8597 0.279963L6.99966 5.13996L2.13966 0.273296C2.01212 0.164078 1.84807 0.107008 1.68029 0.113489C1.5125 0.119969 1.35334 0.189524 1.23461 0.308254C1.11589 0.426983 1.04633 0.586143 1.03985 0.753927C1.03337 0.921711 1.09044 1.08576 1.19966 1.2133L6.05966 6.07996L1.19299 10.94C1.1232 10.9997 1.06652 11.0733 1.02651 11.156C0.986491 11.2387 0.964004 11.3288 0.960458 11.4206C0.956911 11.5124 0.972382 11.604 1.0059 11.6895C1.03941 11.7751 1.09025 11.8528 1.15522 11.9177C1.22019 11.9827 1.29789 12.0335 1.38344 12.0671C1.46899 12.1006 1.56055 12.116 1.65236 12.1125C1.74417 12.1089 1.83426 12.0865 1.91697 12.0464C1.99968 12.0064 2.07323 11.9498 2.13299 11.88L6.99966 7.01996L11.8597 11.88C11.9872 11.9892 12.1512 12.0463 12.319 12.0398C12.4868 12.0333 12.646 11.9637 12.7647 11.845C12.8834 11.7263 12.953 11.5671 12.9595 11.3993C12.9659 11.2315 12.9089 11.0675 12.7997 10.94L7.93966 6.07996Z" fill="#333333"/>
</svg>
