<svg width="24" height="25" viewBox="0 0 24 25" fill="none" xmlns="http://www.w3.org/2000/svg">
<g clip-path="url(#clip0_201_28942)">
<path d="M5.26623 9.84496C5.73412 8.4294 6.63709 7.19777 7.84635 6.32575C9.0556 5.45374 10.5094 4.98589 12.0002 4.98896C13.6902 4.98896 15.2182 5.58896 16.4182 6.57096L19.9102 3.07996C17.7822 1.22496 15.0552 0.0799561 12.0002 0.0799561C7.27023 0.0799561 3.19823 2.77796 1.24023 6.72996L5.26623 9.84496Z" fill="#EA4335"/>
<path d="M16.0403 18.093C14.9503 18.796 13.5663 19.171 12.0003 19.171C10.5154 19.1741 9.06711 18.71 7.86054 17.8444C6.65398 16.9788 5.75025 15.7556 5.2773 14.348L1.2373 17.415C2.22855 19.4213 3.76257 21.1094 5.66513 22.2876C7.56768 23.4657 9.76251 24.0867 12.0003 24.08C14.9333 24.08 17.7353 23.037 19.8343 21.08L16.0413 18.093H16.0403Z" fill="#34A853"/>
<path d="M19.834 21.0799C22.029 19.0319 23.454 15.9839 23.454 12.0799C23.454 11.3699 23.345 10.6069 23.182 9.89795H12V14.5349H18.436C18.119 16.0939 17.266 17.301 16.041 18.0929L19.834 21.0799Z" fill="#4A90E2"/>
<path d="M5.27712 14.348C5.03247 13.6169 4.90819 12.8509 4.90912 12.08C4.90912 11.298 5.03412 10.547 5.26612 9.84498L1.24012 6.72998C0.416494 8.39267 -0.00807994 10.2245 0.000116455 12.08C0.000116455 14 0.445116 15.81 1.23712 17.415L5.27712 14.348Z" fill="#FBBC05"/>
</g>
<defs>
<clipPath id="clip0_201_28942">
<rect width="24" height="24" fill="white" transform="translate(0 0.0799561)"/>
</clipPath>
</defs>
</svg>
