<svg width="24" height="25" viewBox="0 0 24 25" fill="none" xmlns="http://www.w3.org/2000/svg">
<path d="M7 17.5C8.15196 17.4985 9.26816 17.0998 10.1604 16.3711C11.0526 15.6424 11.6663 14.6284 11.898 13.5H14V15.5H16V13.5H18V16.5H20V13.5H21V11.5H11.898C11.6663 10.3716 11.0526 9.35755 10.1604 8.6289C9.26816 7.90025 8.15196 7.50154 7 7.5C4.243 7.5 2 9.743 2 12.5C2 15.257 4.243 17.5 7 17.5ZM7 9.5C8.654 9.5 10 10.846 10 12.5C10 14.154 8.654 15.5 7 15.5C5.346 15.5 4 14.154 4 12.5C4 10.846 5.346 9.5 7 9.5Z" fill="#FA8B02"/>
</svg>
