<svg width="24" height="25" viewBox="0 0 24 25" fill="none" xmlns="http://www.w3.org/2000/svg">
<g opacity="0.8" clip-path="url(#clip0_201_1944)">
<path d="M11.9807 13.113C11.8293 14.1273 11.7029 14.9849 11.5713 15.8404C11.542 16.0295 11.6371 16.0755 11.799 16.1047C12.0821 16.1548 12.1928 16.3502 12.0716 16.6009C11.9828 16.7827 12.0246 16.9247 12.0612 17.0971C12.1813 17.6518 11.8784 18.2524 11.33 18.3621C10.8985 18.4488 10.8609 18.6609 10.8192 19.0233C10.6155 20.7845 8.99945 21.9754 7.32182 21.6348C5.54599 21.2724 4.50139 19.5665 5.00593 17.8419C5.12976 17.4042 5.36018 17.004 5.67657 16.6771C5.85624 16.4912 6.05889 16.3157 6.29811 16.5487C6.50703 16.7576 6.36914 16.9571 6.20618 17.1378C5.9668 17.3931 5.78978 17.7003 5.68901 18.0354C5.58825 18.3705 5.56647 18.7244 5.62538 19.0693C5.80401 20.2873 6.94889 21.1219 8.20869 20.9548C9.37446 20.7981 10.2478 19.6605 10.1328 18.4843C10.1005 18.1563 9.97511 18.1605 9.73381 18.2702C9.22613 18.501 8.71427 18.7204 8.20242 18.9387C7.73026 19.1414 7.56103 19.0432 7.50776 18.548C7.37196 17.2506 7.209 15.9543 7.12543 14.6527C7.08992 14.0991 6.70759 13.887 6.38063 13.5945C6.22498 13.4535 6.09441 13.6363 5.96279 13.699C5.73193 13.8034 5.51674 13.8379 5.38512 13.5726C5.2535 13.3073 5.42482 13.1652 5.62538 13.0764C6.02964 12.8978 6.14768 12.7442 5.8343 12.3044C5.2932 11.5461 5.56793 10.537 6.3775 10.0429C7.12021 9.59056 7.87755 9.15914 8.63488 8.73085C8.74324 8.68273 8.83614 8.60551 8.90326 8.50778C8.97039 8.41005 9.00911 8.29562 9.01512 8.17721C9.03913 7.8964 9.17154 7.63598 9.38428 7.45113C9.59702 7.26627 9.87337 7.17151 10.1548 7.18693C10.4185 7.19888 10.6691 7.30527 10.8609 7.4867C11.0527 7.66812 11.1728 7.91247 11.1994 8.17512C11.2185 8.31397 11.2095 8.45524 11.1728 8.59053C11.1362 8.72581 11.0727 8.85234 10.9861 8.96257C10.8996 9.07281 10.7917 9.16451 10.669 9.23219C10.5463 9.29988 10.4112 9.34218 10.2718 9.35657C9.97302 9.40044 9.8811 9.49863 9.93019 9.78277C9.98347 10.0878 10.0159 10.397 10.0639 10.7511C10.5152 10.5255 10.8254 10.1714 11.1942 9.89872C11.4031 9.74516 11.612 9.58534 11.8209 9.85484C12.01 10.0951 11.8314 10.2654 11.6559 10.4283C10.9247 11.1052 10.9247 11.1073 11.6444 11.8239L11.6809 11.8615C11.9546 12.1289 12.1855 12.5165 12.5166 12.6335C12.9073 12.7735 13.0849 12.2428 13.3951 12.0537C14.4962 11.3831 15.9273 11.4395 16.9165 12.2428C17.4005 12.6353 17.7496 13.1695 17.9148 13.7704C18.08 14.3712 18.053 15.0088 17.8376 15.5935C17.6222 16.1783 17.2292 16.681 16.7137 17.0312C16.1982 17.3814 15.5861 17.5615 14.9631 17.5463C14.3401 17.5353 13.7366 17.3272 13.2393 16.9518C12.7419 16.5764 12.3763 16.0532 12.1949 15.4571C12.1333 15.2554 12.0267 15.0235 12.2429 14.8815C12.6326 14.6266 12.7402 14.918 12.853 15.2283C13.2813 16.4087 14.2956 17.0041 15.4729 16.7879C16.4464 16.6082 17.1547 15.8415 17.2915 14.8209C17.3457 14.3504 17.2518 13.8746 17.0229 13.46C16.7941 13.0453 16.4416 12.7123 16.0146 12.5074C15.5876 12.3024 15.1073 12.2357 14.6406 12.3166C14.1739 12.3974 13.744 12.6217 13.4108 12.9584C13.1277 13.2373 13.1925 13.4002 13.4808 13.6039C13.906 13.9037 14.3959 14.0218 14.8816 14.1513C15.1428 14.2223 15.4394 14.2923 15.3433 14.6464C15.2472 15.0006 14.9506 14.8815 14.6925 14.8386C13.6062 14.6558 12.7757 14.0531 11.9807 13.113ZM6.40466 10.843C7.35211 11.1648 7.44926 11.1564 8.10736 10.772C8.30166 10.6592 8.48342 10.5119 8.69025 10.4356C9.27732 10.2205 9.35879 9.83813 9.09555 9.27509L6.40466 10.843ZM10.8265 15.2492L10.9424 15.221C11.0699 14.4145 11.1976 13.6081 11.3258 12.8017C11.3435 12.6847 11.3979 12.552 11.2673 12.4684C11.1367 12.3849 11.0427 12.505 10.9435 12.5593C10.699 12.693 10.4629 12.8403 10.2122 12.9772C10.0566 13.0607 9.95735 13.1589 10.0357 13.349L10.8265 15.2492ZM10.3606 16.275C10.3825 16.1705 10.4055 16.136 10.395 16.111C10.1705 15.5448 9.94273 14.9818 9.71605 14.4166C9.46221 13.7899 8.81873 13.6342 8.29434 14.074C8.16586 14.1785 8.15959 14.2505 8.27554 14.3571C8.96289 14.987 9.64815 15.619 10.3606 16.275ZM8.02901 16.7973C8.04886 17.0208 8.06035 17.1754 8.07811 17.33C8.1763 18.1741 8.18257 18.1824 8.94931 17.8262C9.20524 17.7071 9.66382 17.6821 9.66173 17.4188C9.66173 17.0553 9.24389 16.8641 8.93051 16.6876C8.79172 16.6189 8.64741 16.5619 8.49909 16.5173C8.17004 16.4045 7.93918 16.416 8.02901 16.7994V16.7973ZM9.1154 12.9719C8.4197 12.0819 7.45344 11.7414 6.34511 11.6453C6.50912 12.2637 7.50358 12.7578 9.1154 12.974V12.9719ZM8.37164 11.4437C8.75188 11.6787 9.12063 11.8135 9.35044 12.0704C9.65128 12.4089 9.89677 12.4193 10.2081 12.1551C10.3407 12.0422 10.6426 12.0506 10.5778 11.7999C10.5225 11.5847 10.3104 11.5262 10.0681 11.5659C9.80693 11.6087 9.54578 11.498 9.47788 11.2452C9.36402 10.7919 9.15614 10.9726 8.92946 11.1084L8.37164 11.4437ZM10.0879 7.89203C9.85185 7.93486 9.71187 8.06962 9.72441 8.30988C9.72409 8.35808 9.73382 8.40581 9.75299 8.45004C9.77215 8.49427 9.80032 8.53402 9.83571 8.56675C9.87109 8.59948 9.91291 8.62448 9.9585 8.64014C10.0041 8.6558 10.0524 8.6618 10.1005 8.65773C10.3418 8.65773 10.5005 8.51566 10.4943 8.27123C10.488 8.02679 10.3303 7.90979 10.0879 7.89308V7.89203ZM11.3717 17.3572C11.3717 17.1044 11.2391 16.9613 10.9978 16.9519C10.9504 16.946 10.9022 16.9502 10.8565 16.964C10.8108 16.9779 10.7685 17.0012 10.7323 17.0323C10.6961 17.0635 10.6668 17.1019 10.6463 17.1451C10.6258 17.1883 10.6146 17.2353 10.6134 17.283C10.5893 17.5233 10.7095 17.6852 10.9539 17.7061C11.1983 17.727 11.3331 17.5912 11.3717 17.3582V17.3572ZM7.92978 15.0068C7.88799 15.7381 7.88799 15.7443 8.74666 15.7516L7.92978 15.0068Z" fill="#FA8B02" stroke="#FA8B02" stroke-width="0.2"/>
<path d="M23.5295 19.7932C22.4296 19.4672 21.3296 19.1403 20.2244 18.83C19.9956 18.7653 19.8703 18.6963 19.8713 18.4226C19.8811 15.7241 19.8811 13.0259 19.8713 10.328C19.8713 9.94673 20.0092 9.97285 20.2662 10.1254C20.7603 10.4189 21.2607 10.6999 21.76 10.983C21.9564 11.0947 22.158 11.2389 22.3867 11.0519C22.5894 10.8817 22.4975 10.6696 22.4379 10.4722C21.5995 7.72625 20.7603 4.98069 19.9204 2.23547C19.8588 2.03282 19.7951 1.81763 19.5277 1.81763C19.2602 1.81763 19.1882 2.02655 19.1265 2.22711C18.6544 3.78357 17.6777 7.05213 17.1606 8.76737C17.1301 8.82617 17.1053 8.88773 17.0864 8.95122C16.9297 9.46726 16.773 9.9812 16.6132 10.4983C16.5537 10.6978 16.4753 10.9161 16.6916 11.0697C16.9078 11.2232 17.0896 11.0968 17.2713 10.9945C17.756 10.7197 18.248 10.4565 18.7191 10.1588C19.0733 9.93733 19.1777 9.99374 19.1756 10.4199C19.1631 13.0301 19.1631 15.6416 19.1756 18.2545C19.1756 18.6253 19.0471 18.736 18.6972 18.7371C17.9743 18.7371 17.2891 18.9397 16.6247 19.2134C14.6462 20.0272 12.6343 20.774 10.6997 21.6818C8.76512 22.5896 6.86289 22.6742 4.90531 21.8145C4.6055 21.6839 4.43941 21.5439 4.36316 21.2107C3.9286 19.3116 3.46793 17.4177 3.01457 15.5228C2.95921 15.2899 2.94667 15.0005 2.62494 14.9828C2.25724 14.9629 2.24575 15.2805 2.18725 15.527C1.8286 17.0166 1.47309 18.5055 1.12071 19.9937C1.06325 20.234 1.03923 20.4941 0.66735 20.3259C0.41769 20.2141 0.117888 20.1483 0.0186511 20.4993C-0.0805862 20.8503 0.236973 20.9234 0.480366 21.0091C2.25619 21.6358 4.02157 22.2626 5.80262 22.8643C7.16872 23.3344 8.66045 23.2823 9.99044 22.7181C12.2607 21.7863 14.5271 20.8461 16.7898 19.8976C18.0647 19.3457 19.4957 19.2715 20.8209 19.6887C21.6566 19.9405 22.4839 20.1985 23.3154 20.4554C23.5713 20.5348 23.8659 20.6393 23.9766 20.2956C24.0874 19.9519 23.7823 19.8684 23.5295 19.7932ZM1.90625 20.75C1.74851 20.6967 1.67957 20.6278 1.72344 20.4481C1.99922 19.3294 2.26664 18.2075 2.65627 17.0824C2.98741 18.4707 3.3196 19.86 3.68208 21.3778C3.0198 21.1428 2.46616 20.9401 1.90938 20.75H1.90625ZM19.0524 9.15492C18.576 9.43696 18.0903 9.70229 17.5158 10.0261C17.592 9.7587 17.6484 9.54351 17.7059 9.34191C17.7236 9.29594 17.7383 9.24789 17.7529 9.19984C18.0663 8.18448 18.9239 5.28571 19.2404 4.27349C19.3146 4.03428 19.3449 3.77208 19.5653 3.50466C20.2276 5.67953 20.87 7.79276 21.55 10.0334C20.9452 9.69394 20.4615 9.42861 19.9831 9.15074C19.8443 9.06239 19.6828 9.01607 19.5182 9.01737C19.3536 9.01866 19.193 9.06752 19.0555 9.15805L19.0524 9.15492Z" fill="#FA8B02" stroke="#FA8B02" stroke-width="0.2"/>
</g>
<defs>
<clipPath id="clip0_201_1944">
<rect width="24" height="24" fill="white" transform="translate(0 0.5)"/>
</clipPath>
</defs>
</svg>
