<svg width="28" height="18" viewBox="0 0 28 18" fill="none" xmlns="http://www.w3.org/2000/svg">
<path fill-rule="evenodd" clip-rule="evenodd" d="M14.0131 15.0369C12.6201 16.2844 10.8131 17.0375 8.83861 17.0375C4.43288 17.0375 0.861328 13.2879 0.861328 8.66254C0.861328 4.03715 4.43288 0.287537 8.83861 0.287537C10.8131 0.287537 12.6201 1.04066 14.0131 2.28821C15.4061 1.04066 17.213 0.287537 19.1875 0.287537C23.5932 0.287537 27.1648 4.03715 27.1648 8.66254C27.1648 13.2879 23.5932 17.0375 19.1875 17.0375C17.213 17.0375 15.4061 16.2844 14.0131 15.0369Z" fill="#ED0006"/>
<path fill-rule="evenodd" clip-rule="evenodd" d="M14.0132 15.0369C15.7284 13.5008 16.8161 11.215 16.8161 8.66254C16.8161 6.11006 15.7284 3.82428 14.0132 2.28815C15.4062 1.04064 17.2131 0.287537 19.1876 0.287537C23.5933 0.287537 27.1649 4.03715 27.1649 8.66254C27.1649 13.2879 23.5933 17.0375 19.1876 17.0375C17.2131 17.0375 15.4062 16.2844 14.0132 15.0369Z" fill="#F9A000"/>
<path fill-rule="evenodd" clip-rule="evenodd" d="M14.0133 15.0368C15.7285 13.5007 16.8161 11.2149 16.8161 8.66251C16.8161 6.11008 15.7285 3.82434 14.0133 2.28821C12.2981 3.82434 11.2104 6.11008 11.2104 8.66251C11.2104 11.2149 12.2981 13.5007 14.0133 15.0368Z" fill="#FD6020"/>
</svg>
