<svg width="26" height="18" viewBox="0 0 26 18" fill="none" xmlns="http://www.w3.org/2000/svg">
<path d="M15.8745 8.63226C15.8745 13.2616 12.383 17.0145 8.07594 17.0145C3.76889 17.0145 0.277344 13.2616 0.277344 8.63226C0.277344 4.0029 3.76889 0.250061 8.07594 0.250061C12.383 0.250061 15.8745 4.0029 15.8745 8.63226Z" fill="#ED0006"/>
<path d="M25.9917 8.63226C25.9917 13.2616 22.5002 17.0145 18.1931 17.0145C13.8861 17.0145 10.3945 13.2616 10.3945 8.63226C10.3945 4.0029 13.8861 0.250061 18.1931 0.250061C22.5002 0.250061 25.9917 4.0029 25.9917 8.63226Z" fill="#2F80ED"/>
<path fill-rule="evenodd" clip-rule="evenodd" d="M13.1345 2.25244C14.8113 3.78989 15.8745 6.07759 15.8745 8.6322C15.8745 11.1868 14.8113 13.4745 13.1345 15.012C11.4578 13.4745 10.3945 11.1868 10.3945 8.6322C10.3945 6.07759 11.4578 3.78989 13.1345 2.25244Z" fill="#6C6BBD"/>
</svg>
