<svg width="29" height="10" viewBox="0 0 29 10" fill="none" xmlns="http://www.w3.org/2000/svg">
<path fill-rule="evenodd" clip-rule="evenodd" d="M7.7 9.82277H5.27678L3.45965 2.24042C3.37341 1.89163 3.19028 1.58329 2.9209 1.43796C2.24863 1.07274 1.50784 0.782085 0.699707 0.635493V0.343573H4.60333C5.14209 0.343573 5.54616 0.782085 5.6135 1.29137L6.55633 6.76076L8.97837 0.343573H11.3342L7.7 9.82277ZM12.6812 9.82277H10.3927L12.2771 0.343573H14.5657L12.6812 9.82277ZM17.5264 2.96964C17.5938 2.4591 17.9979 2.16718 18.4693 2.16718C19.2101 2.09388 20.017 2.24047 20.6905 2.60443L21.0945 0.563512C20.4211 0.271592 19.6803 0.125 19.008 0.125C16.7868 0.125 15.1706 1.43801 15.1706 3.2603C15.1706 4.6466 16.3154 5.37451 17.1236 5.81302C17.9979 6.25027 18.3346 6.54219 18.2672 6.97944C18.2672 7.63531 17.5938 7.92723 16.9215 7.92723C16.1134 7.92723 15.3053 7.70861 14.5656 7.34339L14.1616 9.38557C14.9697 9.74952 15.844 9.89611 16.6521 9.89611C19.1427 9.96814 20.6905 8.6564 20.6905 6.68752C20.6905 4.20809 17.5264 4.06276 17.5264 2.96964ZM28.6996 9.82277L26.8825 0.343573H24.9307C24.5266 0.343573 24.1226 0.635493 23.9879 1.07274L20.623 9.82277H22.9789L23.4491 8.43773H26.3437L26.6131 9.82277H28.6996ZM25.2676 2.89625L25.9398 6.46879H24.0554L25.2676 2.89625Z" fill="#28356A"/>
</svg>
