<svg width="14" height="17" viewBox="0 0 14 17" fill="none" xmlns="http://www.w3.org/2000/svg">
<path fill-rule="evenodd" clip-rule="evenodd" d="M4.26777 16.0605L4.54368 14.2491L3.92906 14.2343H0.994141L3.03381 0.867245C3.04016 0.826768 3.0607 0.789193 3.0907 0.762463C3.12085 0.735733 3.15927 0.721069 3.19947 0.721069H8.14819C9.79122 0.721069 10.925 1.07436 11.5169 1.77179C11.7944 2.09897 11.9711 2.44096 12.0567 2.81717C12.1464 3.21201 12.1479 3.68368 12.0604 4.25906L12.054 4.30092V4.66964L12.3316 4.83216C12.5652 4.96031 12.751 5.10694 12.8934 5.27481C13.1308 5.55463 13.2843 5.91022 13.3492 6.33164C13.4163 6.76513 13.3941 7.28109 13.2843 7.86518C13.1577 8.53695 12.953 9.12211 12.6765 9.60081C12.4223 10.0419 12.0984 10.4079 11.7137 10.6914C11.3465 10.9608 10.9102 11.1654 10.4169 11.2963C9.93885 11.4249 9.39384 11.4898 8.79606 11.4898H8.41095C8.13563 11.4898 7.86815 11.5923 7.65815 11.776C7.44757 11.9636 7.30836 12.2199 7.26565 12.5002L7.23654 12.6633L6.74901 15.8561L6.72699 15.9733C6.72108 16.0104 6.71103 16.0289 6.69625 16.0414C6.6831 16.0528 6.66418 16.0605 6.64571 16.0605H4.26777Z" fill="#28356A"/>
<path fill-rule="evenodd" clip-rule="evenodd" d="M12.5946 4.34344C12.58 4.44105 12.563 4.54079 12.5441 4.64328C11.8915 8.10658 9.65865 9.30302 6.80707 9.30302H5.35513C5.00637 9.30302 4.71243 9.56467 4.6582 9.92025L3.70427 16.1743C3.66895 16.4079 3.84304 16.6182 4.07092 16.6182H6.64614C6.95101 16.6182 7.21007 16.3892 7.2581 16.0784L7.28337 15.9432L7.76824 12.763L7.79942 12.5885C7.84686 12.2766 8.10651 12.0475 8.41138 12.0475H8.7965C11.2915 12.0475 13.2447 11.0006 13.8156 7.97079C14.0539 6.70516 13.9305 5.64833 13.2995 4.90508C13.1086 4.68101 12.8717 4.49497 12.5946 4.34344Z" fill="#2F80ED"/>
<path fill-rule="evenodd" clip-rule="evenodd" d="M11.9115 4.06217C11.8118 4.03208 11.7089 4.00489 11.6034 3.9803C11.4973 3.95632 11.3887 3.93508 11.2768 3.91645C10.8853 3.85108 10.4563 3.82007 9.99687 3.82007H6.11808C6.02247 3.82007 5.93173 3.84237 5.8506 3.88269C5.67164 3.97159 5.53878 4.14663 5.50657 4.36093L4.68136 9.76285L4.65771 9.92033C4.71195 9.56474 5.00589 9.30309 5.35465 9.30309H6.80659C9.65816 9.30309 11.891 8.10605 12.5436 4.64335C12.5631 4.54086 12.5795 4.44112 12.5941 4.34352C12.429 4.25294 12.2502 4.1755 12.0577 4.10952C12.0101 4.09317 11.961 4.07744 11.9115 4.06217Z" fill="#28356A"/>
<path fill-rule="evenodd" clip-rule="evenodd" d="M5.50679 4.36096C5.53901 4.14666 5.67186 3.97162 5.85083 3.88333C5.93255 3.84286 6.0227 3.82056 6.11831 3.82056H9.9971C10.4566 3.82056 10.8856 3.85171 11.277 3.91709C11.3889 3.93557 11.4975 3.95695 11.6036 3.98094C11.7091 4.00537 11.812 4.03272 11.9117 4.06265C11.9613 4.07793 12.0103 4.09381 12.0583 4.10955C12.2509 4.17553 12.4299 4.25358 12.5949 4.34355C12.7891 3.06371 12.5933 2.19231 11.9239 1.40324C11.1857 0.534436 9.85361 0.162659 8.14896 0.162659H3.20009C2.85192 0.162659 2.55488 0.424308 2.50109 0.780505L0.439846 14.285C0.399206 14.5521 0.598562 14.7932 0.859246 14.7932H3.91446L5.50679 4.36096Z" fill="#28356A"/>
</svg>
