<svg width="36" height="18" viewBox="0 0 36 18" fill="none" xmlns="http://www.w3.org/2000/svg">
<path d="M16.6367 18L35.6367 12.25V15C35.6367 16.6569 34.2936 18 32.6367 18H16.6367Z" fill="#FD6020"/>
<path fill-rule="evenodd" clip-rule="evenodd" d="M31.2174 0.38862C32.4471 0.38862 33.1235 0.993049 33.1235 2.13475C33.185 3.00781 32.6316 3.74655 31.8937 3.88087L33.5539 6.36574H32.2627L30.8484 3.94803H30.7255V6.36574H29.6802V0.38862H31.2174ZM30.7255 3.14209H31.0329C31.7093 3.14209 32.0167 2.8063 32.0167 2.20187C32.0167 1.6646 31.7093 1.32881 31.0329 1.32881H30.7255V3.14209ZM26.0525 6.36574H29.0039V5.35836H27.0978V3.74656H28.9424V2.73917H27.0978V1.396H29.0039V0.38862H26.0525V6.36574ZM22.978 4.41814L21.5638 0.38862H20.457L22.732 6.50006H23.2854L25.5605 0.38862H24.4537L22.978 4.41814ZM10.4959 3.41063C10.4959 5.0896 11.7257 6.49993 13.2629 6.49993C13.7548 6.49993 14.1852 6.36562 14.6156 6.16414V4.82097C14.3081 5.22392 13.8777 5.49255 13.3858 5.49255C12.402 5.49255 11.6027 4.68665 11.6027 3.61211V3.47779C11.5412 2.40325 12.3405 1.46303 13.3243 1.39587C13.8162 1.39587 14.3081 1.66451 14.6156 2.06746V0.724286C14.2467 0.455652 13.7548 0.388493 13.3243 0.388493C11.7257 0.254175 10.4959 1.66451 10.4959 3.41063ZM8.58983 2.67196C7.97495 2.40332 7.79049 2.269 7.79049 1.93321C7.85197 1.53026 8.15941 1.19446 8.52834 1.26162C8.83578 1.26162 9.14322 1.4631 9.38917 1.73173L9.94256 0.925829C9.51215 0.522877 8.95876 0.254242 8.40536 0.254242C7.54453 0.187084 6.80668 0.925829 6.74519 1.86605V1.93321C6.74519 2.73911 7.05263 3.20922 8.03644 3.54502C8.28239 3.61218 8.52834 3.74649 8.77429 3.88081C8.95876 4.01513 9.08173 4.21661 9.08173 4.48524C9.08173 4.95535 8.7128 5.3583 8.34388 5.3583H8.28239C7.79049 5.3583 7.36007 5.02251 7.17561 4.5524L6.49924 5.29114C6.86817 6.02989 7.60602 6.43284 8.34388 6.43284C9.32768 6.5 10.127 5.6941 10.1885 4.61956V4.41808C10.127 3.61218 9.81959 3.20922 8.58983 2.67196ZM5.02354 6.36574H6.06883V0.38862H5.02354V6.36574ZM0.166016 0.388636H1.70321H2.01065C3.48636 0.455794 4.65463 1.79897 4.59315 3.41078C4.59315 4.28384 4.22422 5.08974 3.60934 5.69417C3.05595 6.16428 2.37958 6.43292 1.70321 6.36576H0.166016V0.388636ZM1.51879 5.35842C2.01069 5.42558 2.56408 5.2241 2.93301 4.88831C3.30194 4.48535 3.4864 3.94808 3.4864 3.34366C3.4864 2.80639 3.30194 2.26912 2.93301 1.86616C2.56408 1.53037 2.01069 1.32889 1.51879 1.39605H1.21135V5.35842H1.51879Z" fill="#333333"/>
<path fill-rule="evenodd" clip-rule="evenodd" d="M17.7518 0.25C16.2146 0.25 14.9233 1.59317 14.9233 3.3393C14.9233 5.01827 16.1531 6.4286 17.7518 6.49576C19.3505 6.56292 20.5802 5.15258 20.6417 3.40646C20.5802 1.66033 19.3505 0.25 17.7518 0.25V0.25Z" fill="#FD6020"/>
</svg>
