<svg width="24" height="25" viewBox="0 0 24 25" fill="none" xmlns="http://www.w3.org/2000/svg">
<g clip-path="url(#clip0_201_2028)">
<path d="M12.0011 24.4996H2.3018C1.46745 24.4996 1.25887 24.2545 1.20776 23.416C1.10973 21.6795 1.63641 20.2058 2.92443 19.0127C3.4459 18.5309 4.06332 18.2201 4.69742 17.9302C5.78805 17.4324 6.9166 17.0222 8.07235 16.7037C8.42591 16.5994 8.60738 16.4294 8.66787 16.0852C8.7221 15.7723 8.79615 15.473 8.85247 15.1664C9.011 14.2903 8.89836 13.5467 8.05463 13.0044C7.45494 12.6185 7.165 11.9906 7.20672 11.2543C7.22236 10.9915 7.13371 10.8622 6.88132 10.7569C6.06471 10.4179 5.62146 9.79005 5.6298 8.89626C5.63502 8.02854 6.05532 7.40486 6.85838 7.07425C7.11598 6.96996 7.165 6.85941 7.12224 6.58199C7.01795 5.89782 6.7593 5.3774 6.04072 5.16777C5.81127 5.10207 5.60373 4.95918 5.39097 4.83925C4.76521 4.48986 4.41166 3.95275 4.41061 3.23417C4.41061 2.4916 4.7746 1.94197 5.42956 1.59989C6.3682 1.10867 7.38923 0.893826 8.42382 0.75303C11.1459 0.383831 13.8627 0.401561 16.566 0.925114C17.251 1.04858 17.9152 1.26765 18.5392 1.5759C19.2182 1.92007 19.6041 2.47074 19.603 3.23521C19.603 3.97674 19.2286 4.52011 18.5757 4.86636C18.2232 5.05409 17.8707 5.24495 17.5057 5.40452C17.3838 5.44876 17.2764 5.52568 17.1953 5.62684C17.1142 5.72801 17.0625 5.84954 17.0458 5.97813C16.9967 6.26807 16.8372 6.56634 16.8737 6.83751C16.9102 7.10867 17.3148 7.0972 17.5318 7.25468C18.1419 7.70627 18.4318 8.29762 18.3807 9.0527C18.3275 9.83281 17.9291 10.4085 17.221 10.712C16.8914 10.8528 16.7861 11.0145 16.7986 11.3597C16.8257 12.0543 16.4659 12.5684 15.9705 13.0284C15.6576 13.312 15.182 13.482 15.1361 13.9743C15.055 14.8082 15.1667 15.6497 15.4626 16.4335C15.5439 16.6421 15.7692 16.6369 15.9455 16.6932C17.3367 17.1323 18.7353 17.563 20.0129 18.2848C22.444 19.6593 22.9456 21.6221 22.7736 23.7852C22.7339 24.2837 22.3866 24.4975 21.9069 24.4996C20.898 24.4996 19.8898 24.4996 18.8824 24.4996H12.0011ZM7.21506 7.79388C6.62059 8.06608 6.38906 8.46344 6.40783 8.99012C6.42556 9.49803 6.82501 10.0164 7.32561 10.0539C7.97119 10.1029 8.05567 10.4627 8.00456 10.9686C7.96218 11.2625 8.00258 11.5625 8.12122 11.8348C8.23986 12.1071 8.43205 12.3409 8.67621 12.51C9.08473 12.8062 9.46369 13.1412 9.8078 13.5102C10.5379 14.332 11.4243 14.6418 12.508 14.5072C12.8678 14.4634 13.1827 14.3863 13.456 14.1443C14.0557 13.6155 14.6397 13.067 15.2676 12.5736C15.8266 12.1346 16.0821 11.6058 16.0039 10.905C15.9517 10.4304 16.0581 10.1144 16.6442 10.0643C17.173 10.0205 17.5672 9.50325 17.6069 8.97865C17.6423 8.50412 17.3576 8.08068 16.8528 7.86688C16.7579 8.064 16.8226 8.27258 16.8038 8.47387C16.7809 8.71375 16.6682 8.87436 16.42 8.89104C16.1718 8.90773 16.0372 8.74608 16.0153 8.50724C15.9928 8.31719 15.99 8.12531 16.007 7.93467C16.056 7.5248 15.9027 7.44345 15.5043 7.49664C13.262 7.79679 10.9904 7.80871 8.74505 7.5321C8.01499 7.44449 8.01499 7.44345 8.00352 8.21001C8.00458 8.32899 7.99656 8.44788 7.97953 8.56565C7.96528 8.65595 7.91926 8.7382 7.84976 8.79759C7.78026 8.85698 7.69185 8.88961 7.60043 8.88961C7.50901 8.88961 7.42059 8.85698 7.35109 8.79759C7.28159 8.7382 7.23557 8.65595 7.22132 8.56565C7.20498 8.3087 7.20289 8.05105 7.21506 7.79388ZM18.7916 3.22165C18.7916 2.77111 18.5497 2.477 18.1659 2.28301C17.6657 2.03851 17.136 1.85973 16.59 1.75112C14.0348 1.19628 11.4567 1.20045 8.87228 1.49143C7.83769 1.60824 6.80936 1.80431 5.86238 2.2705C5.23662 2.58338 5.00196 3.22896 5.35655 3.73686C5.75495 4.30735 6.44329 4.45023 7.02525 4.73599C7.08365 4.76415 7.21193 4.67342 7.29537 4.61919C7.85888 4.27144 8.48672 4.04087 9.14136 3.94128C10.7433 3.64926 12.3599 3.65656 13.967 3.8057C14.9578 3.89748 15.9277 4.0852 16.7673 4.67446C16.8227 4.71557 16.8894 4.73845 16.9584 4.73994C17.0273 4.74144 17.095 4.72147 17.1521 4.68281C17.5359 4.48256 17.9302 4.29901 18.3077 4.08625C18.4612 4.00175 18.5879 3.87599 18.6736 3.72319C18.7593 3.5704 18.8006 3.39667 18.7927 3.22165H18.7916ZM11.9969 6.89278C13.2112 6.93872 14.4269 6.86044 15.6253 6.65917C15.8047 6.62892 15.9997 6.64039 16.1092 6.42346C16.5399 5.57243 16.3971 5.20949 15.4928 4.91225C15.3783 4.87032 15.2612 4.83549 15.1424 4.80796C13.0766 4.39923 10.9506 4.39923 8.8848 4.80796C8.64628 4.8542 8.41509 4.93243 8.19751 5.04053C7.95555 5.1636 7.57175 5.22305 7.71359 5.64335C7.84917 6.04383 7.71359 6.59137 8.41548 6.6769C9.60964 6.82604 10.7955 6.93346 11.9969 6.89278ZM12.4047 21.4699C12.4047 21.1747 12.4047 20.8796 12.4047 20.5844C12.4047 19.5863 12.8886 19.2568 13.8137 19.6552C15.4146 20.3435 16.4012 21.5512 16.7162 23.2679C16.7892 23.6684 16.9811 23.7372 17.3138 23.6924C17.7539 23.634 17.488 23.3242 17.5036 23.1261C17.496 22.9876 17.4671 22.8511 17.4181 22.7214C17.104 21.4811 16.3738 20.3861 15.3496 19.6193C14.3254 18.8525 13.069 18.4603 11.7905 18.5083C10.5119 18.5563 9.2885 19.0415 8.3246 19.8829C7.3607 20.7243 6.71466 21.8709 6.4944 23.1313C6.40575 23.6465 6.53716 23.7789 7.01586 23.6965C7.32874 23.6423 7.25052 23.3837 7.28911 23.2095C7.68334 21.4209 8.72627 20.1933 10.445 19.5655C11.1156 19.3204 11.5818 19.6625 11.6037 20.3769C11.6183 20.8462 11.6037 21.3155 11.6037 21.7838C11.6037 22.3647 11.7195 22.978 11.0823 23.3545C11.0583 23.3658 11.0369 23.3818 11.0192 23.4016C11.0014 23.4213 10.9878 23.4443 10.9791 23.4694C10.9704 23.4944 10.9667 23.5209 10.9683 23.5474C10.9699 23.5739 10.9767 23.5997 10.9884 23.6235C11.052 23.7278 11.174 23.6924 11.2731 23.6934C11.7247 23.6934 12.1763 23.6997 12.6289 23.6934C12.7603 23.6934 12.9418 23.7591 13.0106 23.6194C13.0962 23.4483 12.9303 23.3065 12.8135 23.2408C12.4193 23.0072 12.3724 22.6557 12.3964 22.2531C12.4193 21.9924 12.4047 21.7306 12.4047 21.4699ZM6.48814 18.1982L6.38384 18.0939C5.78416 18.3525 5.16778 18.5809 4.58687 18.8761C2.77946 19.7928 1.92426 21.2748 2.00039 23.3054C2.01082 23.587 2.07861 23.7101 2.38106 23.7049C3.35203 23.6913 4.32301 23.6965 5.29398 23.7049C5.52029 23.7049 5.63293 23.6517 5.65796 23.392C5.70725 22.8554 5.83297 22.3286 6.03133 21.8276C6.12103 21.6044 6.09391 21.5032 5.83526 21.424C5.01134 21.1716 4.85803 20.7127 5.32735 19.9806C5.71219 19.383 6.10225 18.7916 6.48814 18.1982ZM17.4921 18.1513C17.9093 18.801 18.3129 19.4028 18.6988 20.0108C19.1431 20.7106 18.9773 21.1789 18.1857 21.4209C17.9479 21.4928 17.8728 21.571 17.9688 21.814C18.1714 22.3138 18.298 22.8411 18.3442 23.3784C18.3692 23.6726 18.5153 23.7018 18.7489 23.6997C19.7021 23.6934 20.6564 23.6903 21.6096 23.6997C21.8964 23.6997 21.9914 23.611 22.0049 23.3138C22.1415 20.4687 20.2862 18.8448 17.4921 18.1513ZM9.73166 14.6001C9.65344 15.2363 9.60338 15.8412 9.4094 16.42C9.36872 16.541 9.36351 16.6672 9.51369 16.7245C10.3251 17.0301 11.1355 17.3346 11.95 17.6308C12.0354 17.6454 12.1233 17.633 12.2013 17.5954C12.9314 17.3242 13.6614 17.0478 14.3915 16.7725C14.526 16.7214 14.6679 16.6609 14.6095 16.4805C14.4113 15.8777 14.3654 15.2436 14.2653 14.6115C12.7457 15.6044 11.27 15.6221 9.73166 14.6001ZM13.2119 21.5137C13.2589 21.8266 13.1076 22.2135 13.2912 22.5431C13.9462 23.7028 13.9555 23.6976 15.3176 23.6903C15.4042 23.6903 15.4918 23.683 15.5773 23.6903C15.9163 23.7247 15.9997 23.586 15.9204 23.2616C15.6232 22.0497 14.9463 21.1309 13.8429 20.5417C13.2464 20.2225 13.2171 20.2507 13.2171 20.9432L13.2119 21.5137ZM10.7902 21.5971C10.7902 21.1977 10.784 20.9202 10.7902 20.6439C10.7965 20.3675 10.6912 20.308 10.4471 20.4196C9.14866 20.9964 8.37376 21.9924 8.06818 23.3691C8.02125 23.5839 8.08487 23.6986 8.3237 23.6965C8.80762 23.6965 9.29259 23.6965 9.77755 23.6965C9.88185 23.6965 10.0122 23.7049 10.0508 23.5922C10.2928 22.882 11.1198 22.3793 10.7955 21.5971H10.7902ZM8.51456 18.6769C8.30597 18.5006 8.08904 18.3703 7.93677 18.1888C7.7115 17.9208 7.58739 17.9573 7.41531 18.2409C7.00648 18.9043 6.56114 19.5457 6.1471 20.2069C6.07409 20.3237 5.81023 20.4822 6.05011 20.6188C6.24722 20.7315 6.51734 20.8566 6.72176 20.5218C7.1066 19.8961 7.63432 19.3913 8.21732 18.946C8.29241 18.8897 8.36333 18.8167 8.51456 18.6811V18.6769ZM16.3835 17.9781C16.2792 17.9687 15.5742 18.6592 15.595 18.7249C15.6196 18.7878 15.6616 18.8424 15.716 18.8824C16.3577 19.3586 16.9129 19.9413 17.3576 20.6053C17.5328 20.8723 17.7946 20.7096 17.9646 20.6199C18.1826 20.5072 17.9573 20.3529 17.8916 20.2476C17.4661 19.5738 17.0259 18.9084 16.5879 18.243C16.5222 18.1481 16.4429 18.0584 16.3835 17.9823V17.9781ZM13.7762 17.8603C14.6919 18.4245 14.7555 18.4224 15.3604 17.7685C15.4438 17.6788 15.6451 17.5995 15.5345 17.4483C15.4449 17.3284 15.2592 17.318 15.1007 17.3753C14.6658 17.5359 14.2371 17.6955 13.773 17.8645L13.7762 17.8603ZM10.3251 17.8843C9.77234 17.6851 9.33639 17.5234 8.89836 17.3711C8.74192 17.3169 8.5594 17.3357 8.47388 17.4671C8.40088 17.5808 8.57818 17.6611 8.63658 17.757C8.97241 18.2576 9.38228 18.4151 9.91939 18.0574C10.0495 17.9919 10.184 17.9354 10.322 17.8884L10.3251 17.8843Z" fill="#FA8B02"/>
<path d="M12.0008 12.4933C11.7244 12.4933 11.447 12.5079 11.1727 12.487C11.1245 12.4861 11.077 12.4756 11.0329 12.4562C10.9889 12.4367 10.9491 12.4087 10.9159 12.3738C10.8827 12.3389 10.8568 12.2977 10.8397 12.2527C10.8225 12.2077 10.8145 12.1597 10.816 12.1116C10.8102 12.0634 10.8145 12.0146 10.8285 11.9682C10.8426 11.9218 10.8662 11.8789 10.8978 11.8421C10.9294 11.8053 10.9683 11.7755 11.012 11.7545C11.0557 11.7336 11.1034 11.722 11.1518 11.7205C11.7202 11.6996 12.2907 11.6996 12.8591 11.7205C12.9076 11.7222 12.9552 11.7341 12.9989 11.7554C13.0425 11.7766 13.0812 11.8068 13.1124 11.844C13.1437 11.8811 13.1668 11.9244 13.1803 11.971C13.1938 12.0177 13.1973 12.0666 13.1908 12.1147C13.1922 12.2119 13.1549 12.3057 13.0873 12.3755C13.0197 12.4453 12.9271 12.4854 12.8299 12.487C12.5546 12.511 12.2771 12.4933 12.0008 12.4933Z" fill="#FA8B02"/>
<path d="M10.0656 8.11304C10.3346 8.1412 10.7393 8.00874 10.7706 8.52187C10.7841 8.74193 10.2376 9.28008 10.0186 9.28738C9.79962 9.29468 9.20827 8.72941 9.2041 8.51039C9.2041 8.21733 9.42938 8.11304 10.0656 8.11304Z" fill="#FA8B02"/>
<path d="M14.0184 8.11304C14.3313 8.13077 14.7224 8.02126 14.7943 8.50205C14.8266 8.71064 14.2165 9.29051 13.9954 9.28947C13.7743 9.28842 13.2424 8.75027 13.2299 8.53334C13.2101 8.21107 13.3968 8.11304 14.0184 8.11304Z" fill="#FA8B02"/>
<path d="M12.0124 10.9227C11.8579 10.9251 11.7034 10.9153 11.5504 10.8935C11.4544 10.881 11.3669 10.8319 11.3061 10.7566C11.2453 10.6812 11.2159 10.5853 11.224 10.4888C11.2226 10.4408 11.2308 10.3929 11.2481 10.3481C11.2654 10.3033 11.2914 10.2623 11.3247 10.2277C11.358 10.193 11.3979 10.1653 11.442 10.1462C11.4862 10.1271 11.5336 10.117 11.5817 10.1165C11.8216 10.0988 12.0625 10.104 12.3034 10.105C12.5808 10.105 12.7894 10.2156 12.779 10.5222C12.7706 10.7923 12.5766 10.9029 12.3232 10.9144C12.2189 10.9196 12.1146 10.9144 12.0103 10.9144L12.0124 10.9227Z" fill="#FA8B02"/>
<path d="M12.047 12.8979C12.1847 12.9052 12.3234 12.8979 12.4642 12.9209C12.5515 12.9281 12.6331 12.9676 12.693 13.0315C12.753 13.0955 12.787 13.1795 12.7885 13.2671C12.8062 13.482 12.6978 13.6541 12.4829 13.6843C12.1926 13.7149 11.9002 13.7205 11.609 13.701C11.5564 13.7023 11.5042 13.6924 11.4557 13.672C11.4073 13.6515 11.3638 13.621 11.3281 13.5824C11.2923 13.5438 11.2652 13.4981 11.2486 13.4482C11.2319 13.3984 11.2261 13.3455 11.2314 13.2932C11.2418 13.0533 11.3983 12.924 11.6392 12.9146C11.7769 12.9146 11.9145 12.9146 12.0564 12.9146L12.047 12.8979Z" fill="#FA8B02"/>
</g>
<defs>
<clipPath id="clip0_201_2028">
<rect width="24" height="24" fill="white" transform="translate(0 0.5)"/>
</clipPath>
</defs>
</svg>
