<svg width="280" height="25" viewBox="0 0 280 25" fill="none" xmlns="http://www.w3.org/2000/svg">
<g opacity="0.8" clip-path="url(#clip0_201_1899)">
<path d="M11.9452 24.499H2.19102C0.759553 24.499 0 23.7411 0 22.3173C0 16.3361 0 10.3542 0 4.37162C0 2.98331 0.772073 2.2067 2.15763 2.1973C3.04447 2.19208 3.93131 2.17434 4.81607 2.20565C5.24384 2.22131 5.37321 2.06891 5.32626 1.67016C5.30638 1.46187 5.30638 1.25215 5.32626 1.04386C5.35026 0.722354 5.53493 0.521936 5.85419 0.501059C6.17346 0.480182 6.36439 0.682688 6.4416 0.985402C6.45645 1.07085 6.46239 1.1576 6.45933 1.24427C6.49063 2.19626 6.48959 2.19626 7.46929 2.19626C8.61696 2.19626 9.76464 2.17642 10.9123 2.2067C11.361 2.21818 11.4997 2.06473 11.4507 1.64093C11.4278 1.41604 11.433 1.18916 11.4663 0.965569C11.4757 0.833436 11.5369 0.710362 11.6366 0.623161C11.7362 0.535959 11.8663 0.491697 11.9984 0.500015C12.2968 0.500015 12.4805 0.675381 12.5337 0.969744C12.5477 1.07351 12.5532 1.17823 12.5504 1.2829C12.5671 2.1973 12.5671 2.1973 13.5071 2.1973C14.7059 2.1973 15.9068 2.18582 17.1046 2.20461C17.4468 2.20983 17.573 2.10022 17.5407 1.76202C17.5156 1.51893 17.5184 1.27378 17.549 1.03133C17.5928 0.700433 17.79 0.478095 18.1437 0.502103C18.4567 0.524024 18.6383 0.727573 18.6654 1.04803C18.6654 1.08248 18.6654 1.11797 18.6654 1.15242C18.7249 2.19626 18.7249 2.19626 19.8016 2.19626C20.5142 2.19626 21.2268 2.18582 21.9394 2.19626C23.2081 2.22235 23.9969 3.0188 23.9969 4.27246C23.9969 10.3267 23.9969 16.3779 23.9969 22.4259C23.9969 23.7098 23.1987 24.4969 21.9039 24.4979C18.5847 24.5014 15.2651 24.5018 11.9452 24.499ZM11.9984 9.05951C8.55541 9.05951 5.11238 9.06786 1.66935 9.04908C1.22906 9.04908 1.12264 9.17538 1.12368 9.60336C1.13933 13.8466 1.13203 18.0898 1.13411 22.3382C1.13411 23.118 1.3793 23.3612 2.16598 23.3612H21.8298C22.6144 23.3612 22.8607 23.1169 22.8607 22.3372C22.8607 18.094 22.8555 13.8507 22.8711 9.60753C22.8711 9.17642 22.7616 9.05221 22.3234 9.05429C18.8845 9.071 15.4415 9.05951 11.9984 9.05951ZM11.9984 7.92486C15.4561 7.92486 18.9137 7.92486 22.3713 7.93425C22.7595 7.93425 22.8763 7.82987 22.8669 7.44156C22.8388 6.38206 22.8669 5.32047 22.8555 4.25993C22.8555 3.62006 22.5738 3.34031 21.93 3.33091C21.1997 3.31943 20.4693 3.33091 19.739 3.33091C18.7071 3.33091 18.7071 3.33091 18.6706 4.33613C18.6706 4.38728 18.6706 4.44052 18.6706 4.49166C18.6456 4.81943 18.4546 5.01359 18.1427 5.03446C17.7963 5.05534 17.5928 4.84135 17.5501 4.50419C17.5209 4.29659 17.5184 4.08611 17.5428 3.87789C17.596 3.46035 17.4614 3.30377 17.0096 3.31734C15.8807 3.35075 14.7508 3.32883 13.6219 3.32883C12.59 3.32883 12.59 3.32883 12.5525 4.33718C12.5525 4.40711 12.5525 4.47705 12.542 4.54594C12.4992 4.84761 12.3104 5.02611 12.0203 5.03655C11.9502 5.04407 11.8793 5.03697 11.8121 5.0157C11.7449 4.99443 11.6828 4.95944 11.6297 4.91295C11.5767 4.86645 11.5338 4.80947 11.5039 4.74558C11.474 4.68169 11.4577 4.6123 11.4559 4.54177C11.4266 4.29925 11.4234 4.05427 11.4465 3.81108C11.4914 3.40816 11.3223 3.31317 10.9415 3.31943C9.67387 3.34135 8.40516 3.32778 7.13646 3.32778C6.45724 3.32778 6.45829 3.32778 6.4562 3.9854C6.46379 4.15942 6.4603 4.33375 6.44577 4.50732C6.40508 4.82047 6.21519 5.02924 5.89801 5.03551C5.5631 5.03551 5.34609 4.83926 5.32626 4.4854C5.31057 4.24209 5.31057 3.99802 5.32626 3.75471C5.34817 3.45513 5.26679 3.31526 4.92875 3.32256C3.97305 3.34135 3.01735 3.32256 2.06164 3.33196C1.42103 3.33926 1.14559 3.62423 1.14142 4.27141C1.13411 5.31526 1.16228 6.3591 1.1289 7.40294C1.11429 7.84761 1.25618 7.94678 1.68187 7.94469C5.12072 7.92173 8.56167 7.92903 11.9984 7.92903V7.92486Z" fill="#FA8B02"/>
<path d="M12.063 13.9122C11.9128 14.0782 11.773 14.2567 11.6081 14.407C11.5628 14.455 11.5083 14.4935 11.448 14.5203C11.3877 14.5471 11.3226 14.5617 11.2566 14.5631C11.1906 14.5646 11.125 14.5529 11.0636 14.5288C11.0021 14.5047 10.946 14.4686 10.8986 14.4227C10.6524 14.2139 10.5856 13.9248 10.7943 13.6816C11.316 13.073 11.8376 12.4707 12.4125 11.9133C12.7255 11.6085 13.195 11.8089 13.2973 12.2369C13.319 12.3567 13.3267 12.4786 13.3202 12.6001C13.3202 15.0177 13.3202 17.4349 13.3202 19.8517C13.3253 19.9564 13.3197 20.0613 13.3035 20.1648C13.2378 20.478 13.0479 20.6586 12.7193 20.6408C12.4157 20.6241 12.2456 20.4425 12.207 20.1471C12.195 20.0083 12.1918 19.8688 12.1976 19.7296C12.1976 17.9738 12.1976 16.2174 12.1976 14.4603V13.9592L12.063 13.9122Z" fill="#FA8B02"/>
</g>
<path d="M45.0361 12.5928L48.4551 6.15039H50.0635L45.7832 14.0166V19H44.2891V14.0869L40 6.15039H41.6348L45.0361 12.5928ZM59.916 14.166C59.916 14.957 59.8135 15.6631 59.6084 16.2842C59.4033 16.9053 59.1074 17.4297 58.7207 17.8574C58.334 18.2852 57.8652 18.6133 57.3145 18.8418C56.7695 19.0645 56.1514 19.1758 55.46 19.1758C54.8154 19.1758 54.2236 19.0645 53.6846 18.8418C53.1514 18.6133 52.6885 18.2852 52.2959 17.8574C51.9092 17.4297 51.6074 16.9053 51.3906 16.2842C51.1797 15.6631 51.0742 14.957 51.0742 14.166C51.0742 13.1113 51.2529 12.2148 51.6104 11.4766C51.9678 10.7324 52.4775 10.167 53.1396 9.78027C53.8076 9.3877 54.6016 9.19141 55.5215 9.19141C56.4004 9.19141 57.168 9.3877 57.8242 9.78027C58.4863 10.1729 58.999 10.7412 59.3623 11.4854C59.7314 12.2236 59.916 13.1172 59.916 14.166ZM52.5859 14.166C52.5859 14.9395 52.6885 15.6104 52.8936 16.1787C53.0986 16.7471 53.415 17.1865 53.8428 17.4971C54.2705 17.8076 54.8213 17.9629 55.4951 17.9629C56.1631 17.9629 56.7109 17.8076 57.1387 17.4971C57.5723 17.1865 57.8916 16.7471 58.0967 16.1787C58.3018 15.6104 58.4043 14.9395 58.4043 14.166C58.4043 13.3984 58.3018 12.7363 58.0967 12.1797C57.8916 11.6172 57.5752 11.1836 57.1475 10.8789C56.7197 10.5742 56.166 10.4219 55.4863 10.4219C54.4844 10.4219 53.749 10.7529 53.2803 11.415C52.8174 12.0771 52.5859 12.9941 52.5859 14.166ZM70.3926 9.36719V19H69.1973L68.9863 17.6465H68.9072C68.708 17.9805 68.4502 18.2617 68.1338 18.4902C67.8174 18.7188 67.46 18.8887 67.0615 19C66.6689 19.1172 66.25 19.1758 65.8047 19.1758C65.043 19.1758 64.4043 19.0527 63.8887 18.8066C63.373 18.5605 62.9834 18.1797 62.7197 17.6641C62.4619 17.1484 62.333 16.4863 62.333 15.6777V9.36719H63.8096V15.5723C63.8096 16.375 63.9912 16.9756 64.3545 17.374C64.7178 17.7666 65.2715 17.9629 66.0156 17.9629C66.7305 17.9629 67.2988 17.8281 67.7207 17.5586C68.1484 17.2891 68.4561 16.8936 68.6436 16.3721C68.8311 15.8447 68.9248 15.2002 68.9248 14.4385V9.36719H70.3926ZM77.8545 9.19141C78.0479 9.19141 78.25 9.20312 78.4609 9.22656C78.6719 9.24414 78.8594 9.27051 79.0234 9.30566L78.8389 10.6592C78.6807 10.6182 78.5049 10.5859 78.3115 10.5625C78.1182 10.5391 77.9365 10.5273 77.7666 10.5273C77.3799 10.5273 77.0137 10.6064 76.668 10.7646C76.3281 10.917 76.0293 11.1396 75.7715 11.4326C75.5137 11.7197 75.3115 12.0684 75.165 12.4785C75.0186 12.8828 74.9453 13.334 74.9453 13.832V19H73.4775V9.36719H74.6904L74.8486 11.1426H74.9102C75.1094 10.7852 75.3496 10.46 75.6309 10.167C75.9121 9.86816 76.2373 9.63086 76.6064 9.45508C76.9814 9.2793 77.3975 9.19141 77.8545 9.19141ZM86.9775 5.32422V8.74316C86.9775 9.13574 86.9658 9.5166 86.9424 9.88574C86.9248 10.2549 86.9102 10.542 86.8984 10.7471H86.9775C87.2412 10.3135 87.6221 9.94727 88.1201 9.64844C88.6182 9.34961 89.2539 9.2002 90.0273 9.2002C91.2344 9.2002 92.1953 9.61914 92.9102 10.457C93.6309 11.2891 93.9912 12.5283 93.9912 14.1748C93.9912 15.2588 93.8271 16.1729 93.499 16.917C93.1709 17.6611 92.708 18.2236 92.1104 18.6045C91.5127 18.9854 90.8066 19.1758 89.9922 19.1758C89.2305 19.1758 88.6035 19.0352 88.1113 18.7539C87.625 18.4668 87.25 18.1182 86.9863 17.708H86.8721L86.5732 19H85.5186V5.32422H86.9775ZM89.79 10.4219C89.0928 10.4219 88.5391 10.5596 88.1289 10.835C87.7188 11.1045 87.4229 11.5146 87.2412 12.0654C87.0654 12.6104 86.9775 13.3018 86.9775 14.1396V14.2188C86.9775 15.4316 87.1797 16.3604 87.584 17.0049C87.9883 17.6436 88.7236 17.9629 89.79 17.9629C90.6865 17.9629 91.3574 17.6348 91.8027 16.9785C92.2539 16.3223 92.4795 15.3848 92.4795 14.166C92.4795 12.9238 92.2568 11.9893 91.8115 11.3623C91.3721 10.7354 90.6982 10.4219 89.79 10.4219ZM97.999 9.36719V19H96.54V9.36719H97.999ZM97.2871 5.76367C97.5273 5.76367 97.7324 5.84277 97.9023 6.00098C98.0781 6.15332 98.166 6.39355 98.166 6.72168C98.166 7.04395 98.0781 7.28418 97.9023 7.44238C97.7324 7.60059 97.5273 7.67969 97.2871 7.67969C97.0352 7.67969 96.8242 7.60059 96.6543 7.44238C96.4902 7.28418 96.4082 7.04395 96.4082 6.72168C96.4082 6.39355 96.4902 6.15332 96.6543 6.00098C96.8242 5.84277 97.0352 5.76367 97.2871 5.76367ZM102.543 5.32422V12.4258C102.543 12.6602 102.534 12.9473 102.517 13.2871C102.499 13.6211 102.484 13.917 102.473 14.1748H102.534C102.657 14.0225 102.836 13.7969 103.07 13.498C103.311 13.1992 103.513 12.959 103.677 12.7773L106.876 9.36719H108.59L104.714 13.4805L108.871 19H107.113L103.712 14.4385L102.543 15.5107V19H101.093V5.32422H102.543ZM114.259 9.19141C115.079 9.19141 115.782 9.37305 116.368 9.73633C116.954 10.0996 117.402 10.6094 117.713 11.2656C118.023 11.916 118.179 12.6777 118.179 13.5508V14.4561H111.525C111.543 15.5869 111.824 16.4482 112.369 17.04C112.914 17.6318 113.682 17.9277 114.672 17.9277C115.281 17.9277 115.82 17.8721 116.289 17.7607C116.758 17.6494 117.244 17.4854 117.748 17.2686V18.5518C117.262 18.7686 116.778 18.9268 116.298 19.0264C115.823 19.126 115.261 19.1758 114.61 19.1758C113.685 19.1758 112.876 18.9883 112.185 18.6133C111.499 18.2324 110.966 17.6758 110.585 16.9434C110.204 16.2109 110.014 15.3145 110.014 14.2539C110.014 13.2168 110.187 12.3203 110.532 11.5645C110.884 10.8027 111.376 10.2168 112.009 9.80664C112.647 9.39648 113.397 9.19141 114.259 9.19141ZM114.241 10.3867C113.462 10.3867 112.841 10.6416 112.378 11.1514C111.915 11.6611 111.64 12.373 111.552 13.2871H116.649C116.644 12.7129 116.553 12.209 116.377 11.7754C116.207 11.3359 115.946 10.9961 115.595 10.7559C115.243 10.5098 114.792 10.3867 114.241 10.3867ZM129.622 10.5098H127.223V19H125.764V10.5098H124.059V9.80664L125.764 9.32324V8.68164C125.764 7.87305 125.884 7.2168 126.124 6.71289C126.364 6.20312 126.713 5.82812 127.17 5.58789C127.627 5.34766 128.184 5.22754 128.84 5.22754C129.209 5.22754 129.546 5.25977 129.851 5.32422C130.161 5.38867 130.434 5.46191 130.668 5.54395L130.29 6.69531C130.091 6.63086 129.865 6.57227 129.613 6.51953C129.367 6.46094 129.115 6.43164 128.857 6.43164C128.301 6.43164 127.888 6.61328 127.618 6.97656C127.354 7.33398 127.223 7.89648 127.223 8.66406V9.36719H129.622V10.5098ZM139.703 14.166C139.703 14.957 139.601 15.6631 139.396 16.2842C139.19 16.9053 138.895 17.4297 138.508 17.8574C138.121 18.2852 137.652 18.6133 137.102 18.8418C136.557 19.0645 135.938 19.1758 135.247 19.1758C134.603 19.1758 134.011 19.0645 133.472 18.8418C132.938 18.6133 132.476 18.2852 132.083 17.8574C131.696 17.4297 131.395 16.9053 131.178 16.2842C130.967 15.6631 130.861 14.957 130.861 14.166C130.861 13.1113 131.04 12.2148 131.397 11.4766C131.755 10.7324 132.265 10.167 132.927 9.78027C133.595 9.3877 134.389 9.19141 135.309 9.19141C136.188 9.19141 136.955 9.3877 137.611 9.78027C138.273 10.1729 138.786 10.7412 139.149 11.4854C139.519 12.2236 139.703 13.1172 139.703 14.166ZM132.373 14.166C132.373 14.9395 132.476 15.6104 132.681 16.1787C132.886 16.7471 133.202 17.1865 133.63 17.4971C134.058 17.8076 134.608 17.9629 135.282 17.9629C135.95 17.9629 136.498 17.8076 136.926 17.4971C137.359 17.1865 137.679 16.7471 137.884 16.1787C138.089 15.6104 138.191 14.9395 138.191 14.166C138.191 13.3984 138.089 12.7363 137.884 12.1797C137.679 11.6172 137.362 11.1836 136.935 10.8789C136.507 10.5742 135.953 10.4219 135.273 10.4219C134.271 10.4219 133.536 10.7529 133.067 11.415C132.604 12.0771 132.373 12.9941 132.373 14.166ZM146.603 9.19141C146.796 9.19141 146.998 9.20312 147.209 9.22656C147.42 9.24414 147.607 9.27051 147.771 9.30566L147.587 10.6592C147.429 10.6182 147.253 10.5859 147.06 10.5625C146.866 10.5391 146.685 10.5273 146.515 10.5273C146.128 10.5273 145.762 10.6064 145.416 10.7646C145.076 10.917 144.777 11.1396 144.52 11.4326C144.262 11.7197 144.06 12.0684 143.913 12.4785C143.767 12.8828 143.693 13.334 143.693 13.832V19H142.226V9.36719H143.438L143.597 11.1426H143.658C143.857 10.7852 144.098 10.46 144.379 10.167C144.66 9.86816 144.985 9.63086 145.354 9.45508C145.729 9.2793 146.146 9.19141 146.603 9.19141ZM157.87 9.20898C159.019 9.20898 159.871 9.4668 160.428 9.98242C160.984 10.498 161.263 11.3213 161.263 12.4521V19H160.199L159.918 17.5762H159.848C159.578 17.9277 159.297 18.2236 159.004 18.4639C158.711 18.6982 158.371 18.877 157.984 19C157.604 19.1172 157.135 19.1758 156.578 19.1758C155.992 19.1758 155.471 19.0732 155.014 18.8682C154.562 18.6631 154.205 18.3525 153.941 17.9365C153.684 17.5205 153.555 16.9932 153.555 16.3545C153.555 15.3936 153.936 14.6553 154.697 14.1396C155.459 13.624 156.619 13.3428 158.178 13.2959L159.839 13.2256V12.6367C159.839 11.8047 159.66 11.2217 159.303 10.8877C158.945 10.5537 158.441 10.3867 157.791 10.3867C157.287 10.3867 156.807 10.46 156.35 10.6064C155.893 10.7529 155.459 10.9258 155.049 11.125L154.601 10.0176C155.034 9.79492 155.532 9.60449 156.095 9.44629C156.657 9.28809 157.249 9.20898 157.87 9.20898ZM159.821 14.2539L158.354 14.3154C157.152 14.3623 156.306 14.5586 155.813 14.9043C155.321 15.25 155.075 15.7393 155.075 16.3721C155.075 16.9229 155.242 17.3301 155.576 17.5938C155.91 17.8574 156.353 17.9893 156.903 17.9893C157.759 17.9893 158.459 17.752 159.004 17.2773C159.549 16.8027 159.821 16.0908 159.821 15.1416V14.2539ZM172.372 19.1758C171.153 19.1758 170.187 18.7598 169.472 17.9277C168.763 17.0957 168.408 15.8594 168.408 14.2188C168.408 12.5605 168.771 11.3096 169.498 10.4658C170.225 9.61621 171.191 9.19141 172.398 9.19141C172.908 9.19141 173.354 9.25879 173.734 9.39355C174.115 9.52832 174.443 9.70996 174.719 9.93848C174.994 10.1611 175.226 10.416 175.413 10.7031H175.519C175.495 10.5215 175.472 10.2725 175.448 9.95605C175.425 9.63965 175.413 9.38184 175.413 9.18262V5.32422H176.872V19H175.694L175.475 17.6289H175.413C175.231 17.916 175 18.1768 174.719 18.4111C174.443 18.6455 174.112 18.833 173.726 18.9736C173.345 19.1084 172.894 19.1758 172.372 19.1758ZM172.601 17.9629C173.632 17.9629 174.361 17.6699 174.789 17.084C175.217 16.498 175.431 15.6279 175.431 14.4736V14.21C175.431 12.9854 175.226 12.0449 174.815 11.3887C174.411 10.7324 173.673 10.4043 172.601 10.4043C171.704 10.4043 171.033 10.75 170.588 11.4414C170.143 12.127 169.92 13.0645 169.92 14.2539C169.92 15.4375 170.14 16.3516 170.579 16.9961C171.024 17.6406 171.698 17.9629 172.601 17.9629ZM183.569 9.20898C184.718 9.20898 185.57 9.4668 186.127 9.98242C186.684 10.498 186.962 11.3213 186.962 12.4521V19H185.898L185.617 17.5762H185.547C185.277 17.9277 184.996 18.2236 184.703 18.4639C184.41 18.6982 184.07 18.877 183.684 19C183.303 19.1172 182.834 19.1758 182.277 19.1758C181.691 19.1758 181.17 19.0732 180.713 18.8682C180.262 18.6631 179.904 18.3525 179.641 17.9365C179.383 17.5205 179.254 16.9932 179.254 16.3545C179.254 15.3936 179.635 14.6553 180.396 14.1396C181.158 13.624 182.318 13.3428 183.877 13.2959L185.538 13.2256V12.6367C185.538 11.8047 185.359 11.2217 185.002 10.8877C184.645 10.5537 184.141 10.3867 183.49 10.3867C182.986 10.3867 182.506 10.46 182.049 10.6064C181.592 10.7529 181.158 10.9258 180.748 11.125L180.3 10.0176C180.733 9.79492 181.231 9.60449 181.794 9.44629C182.356 9.28809 182.948 9.20898 183.569 9.20898ZM185.521 14.2539L184.053 14.3154C182.852 14.3623 182.005 14.5586 181.513 14.9043C181.021 15.25 180.774 15.7393 180.774 16.3721C180.774 16.9229 180.941 17.3301 181.275 17.5938C181.609 17.8574 182.052 17.9893 182.603 17.9893C183.458 17.9893 184.158 17.752 184.703 17.2773C185.248 16.8027 185.521 16.0908 185.521 15.1416V14.2539ZM188.447 9.36719H190.012L192.139 14.957C192.262 15.2852 192.376 15.6016 192.481 15.9062C192.587 16.2051 192.681 16.4922 192.763 16.7676C192.845 17.043 192.909 17.3096 192.956 17.5674H193.018C193.1 17.2744 193.217 16.8906 193.369 16.416C193.521 15.9355 193.686 15.4463 193.861 14.9482L195.874 9.36719H197.447L193.255 20.415C193.032 21.0068 192.771 21.5225 192.473 21.9619C192.18 22.4014 191.822 22.7383 191.4 22.9727C190.979 23.2129 190.469 23.333 189.871 23.333C189.596 23.333 189.353 23.3154 189.142 23.2803C188.931 23.251 188.749 23.2158 188.597 23.1748V22.0059C188.726 22.0352 188.881 22.0615 189.062 22.085C189.25 22.1084 189.443 22.1201 189.643 22.1201C190.006 22.1201 190.319 22.0498 190.583 21.9092C190.853 21.7744 191.084 21.5752 191.277 21.3115C191.471 21.0479 191.638 20.7344 191.778 20.3711L192.306 19.0176L188.447 9.36719Z" fill="#333333"/>
<defs>
<clipPath id="clip0_201_1899">
<rect width="24" height="24" fill="white" transform="translate(0 0.5)"/>
</clipPath>
</defs>
</svg>
