<svg width="40" height="40" viewBox="0 0 40 40" fill="none" xmlns="http://www.w3.org/2000/svg">
<g clip-path="url(#clip0_159_4723)">
<circle cx="20" cy="20" r="20" fill="#FFBC57"/>
<path d="M8.66797 20.4242V24.9697C8.66797 25.2108 8.76375 25.442 8.93424 25.6125C9.10472 25.783 9.33595 25.8788 9.57706 25.8788H10.4862C10.4862 26.6021 10.7735 27.2958 11.285 27.8072C11.7964 28.3187 12.4901 28.606 13.2134 28.606C13.9367 28.606 14.6304 28.3187 15.1419 27.8072C15.6534 27.2958 15.9407 26.6021 15.9407 25.8788H21.3952C21.3952 26.6021 21.6826 27.2958 22.194 27.8072C22.7055 28.3187 23.3992 28.606 24.1225 28.606C24.8458 28.606 25.5395 28.3187 26.051 27.8072C26.5625 27.2958 26.8498 26.6021 26.8498 25.8788H27.7589C28 25.8788 28.2312 25.783 28.4017 25.6125C28.5722 25.442 28.668 25.2108 28.668 24.9697V14.0606C28.668 13.3373 28.3806 12.6436 27.8692 12.1321C27.3577 11.6206 26.664 11.3333 25.9407 11.3333H17.7589C17.0356 11.3333 16.3419 11.6206 15.8304 12.1321C15.3189 12.6436 15.0316 13.3373 15.0316 14.0606V15.8788H13.2134C12.79 15.8788 12.3724 15.9773 11.9937 16.1667C11.6151 16.356 11.2856 16.631 11.0316 16.9697L8.84979 19.8788C8.8232 19.9183 8.80181 19.9611 8.78615 20.006L8.73161 20.106C8.69148 20.2074 8.66993 20.3152 8.66797 20.4242ZM23.2134 25.8788C23.2134 25.699 23.2667 25.5232 23.3666 25.3737C23.4665 25.2242 23.6085 25.1077 23.7746 25.0389C23.9407 24.9701 24.1235 24.9521 24.2999 24.9871C24.4762 25.0222 24.6382 25.1088 24.7653 25.2359C24.8925 25.3631 24.9791 25.5251 25.0141 25.7014C25.0492 25.8778 25.0312 26.0605 24.9624 26.2267C24.8936 26.3928 24.7771 26.5348 24.6276 26.6346C24.4781 26.7345 24.3023 26.7879 24.1225 26.7879C23.8814 26.7879 23.6502 26.6921 23.4797 26.5216C23.3092 26.3511 23.2134 26.1199 23.2134 25.8788ZM16.8498 14.0606C16.8498 13.8195 16.9456 13.5882 17.1161 13.4178C17.2865 13.2473 17.5178 13.1515 17.7589 13.1515H25.9407C26.1818 13.1515 26.413 13.2473 26.5835 13.4178C26.754 13.5882 26.8498 13.8195 26.8498 14.0606V24.0606H26.1407C25.8851 23.7794 25.5735 23.5546 25.226 23.4009C24.8784 23.2471 24.5026 23.1677 24.1225 23.1677C23.7425 23.1677 23.3666 23.2471 23.0191 23.4009C22.6715 23.5546 22.36 23.7794 22.1043 24.0606H16.8498V14.0606ZM15.0316 19.5151H11.3952L12.4862 18.0606C12.5708 17.9477 12.6806 17.856 12.8069 17.7929C12.9331 17.7298 13.0723 17.6969 13.2134 17.6969H15.0316V19.5151ZM12.3043 25.8788C12.3043 25.699 12.3576 25.5232 12.4575 25.3737C12.5574 25.2242 12.6994 25.1077 12.8655 25.0389C13.0316 24.9701 13.2144 24.9521 13.3908 24.9871C13.5671 25.0222 13.7291 25.1088 13.8562 25.2359C13.9834 25.3631 14.07 25.5251 14.105 25.7014C14.1401 25.8778 14.1221 26.0605 14.0533 26.2267C13.9845 26.3928 13.868 26.5348 13.7185 26.6346C13.569 26.7345 13.3932 26.7879 13.2134 26.7879C12.9723 26.7879 12.7411 26.6921 12.5706 26.5216C12.4001 26.3511 12.3043 26.1199 12.3043 25.8788ZM10.4862 21.3333H15.0316V23.8606C14.4951 23.3811 13.7908 23.1331 13.0722 23.1705C12.3537 23.208 11.679 23.5279 11.1952 24.0606H10.4862V21.3333Z" fill="white"/>
</g>
<defs>
<clipPath id="clip0_159_4723">
<rect width="40" height="40" fill="white"/>
</clipPath>
</defs>
</svg>
