<svg width="33" height="25" viewBox="0 0 33 25" fill="none" xmlns="http://www.w3.org/2000/svg">
<path d="M6.25111 24.7832V23.1347C6.25111 22.5028 5.86801 22.0906 5.21131 22.0906C4.88291 22.0906 4.52721 22.2005 4.28091 22.5577C4.08941 22.2555 3.81571 22.0906 3.40531 22.0906C3.13161 22.0906 2.85801 22.1731 2.6391 22.4753V22.1456H2.06445V24.7832H2.6391V23.327C2.6391 22.8599 2.88537 22.6401 3.26851 22.6401C3.65161 22.6401 3.84311 22.8874 3.84311 23.327V24.7832H4.41771V23.327C4.41771 22.8599 4.69141 22.6401 5.04711 22.6401C5.43021 22.6401 5.62181 22.8874 5.62181 23.327V24.7832H6.25111ZM14.7613 22.1456H13.8309V21.3488H13.2563V22.1456H12.7364V22.6676H13.2563V23.8765C13.2563 24.4809 13.5026 24.8381 14.1593 24.8381C14.4056 24.8381 14.6792 24.7557 14.8708 24.6458L14.7066 24.1512C14.5424 24.2611 14.3509 24.2886 14.214 24.2886C13.9404 24.2886 13.8309 24.1238 13.8309 23.849V22.6676H14.7613V22.1456ZM19.6321 22.0906C19.3037 22.0906 19.0848 22.2555 18.948 22.4753V22.1456H18.3734V24.7832H18.948V23.2995C18.948 22.8599 19.1395 22.6127 19.4953 22.6127C19.6047 22.6127 19.7415 22.6401 19.851 22.6676L20.0152 22.1181C19.9057 22.0906 19.7415 22.0906 19.6321 22.0906ZM12.2712 22.3654C11.9976 22.1731 11.6145 22.0906 11.204 22.0906C10.5473 22.0906 10.1094 22.4203 10.1094 22.9424C10.1094 23.382 10.4378 23.6292 11.0125 23.7117L11.2861 23.7391C11.5871 23.7941 11.7513 23.8765 11.7513 24.0139C11.7513 24.2062 11.5324 24.3436 11.1493 24.3436C10.7662 24.3436 10.4652 24.2062 10.2736 24.0688L10 24.5084C10.301 24.7282 10.7114 24.8381 11.1219 24.8381C11.8881 24.8381 12.3259 24.4809 12.3259 23.9864C12.3259 23.5193 11.9702 23.2721 11.4229 23.1896L11.1493 23.1622C10.903 23.1347 10.7114 23.0797 10.7114 22.9149C10.7114 22.7226 10.903 22.6127 11.204 22.6127C11.5324 22.6127 11.8607 22.75 12.0249 22.8325L12.2712 22.3654ZM27.5403 22.0906C27.2119 22.0906 26.993 22.2555 26.8562 22.4753V22.1456H26.2815V24.7832H26.8562V23.2995C26.8562 22.8599 27.0477 22.6127 27.4035 22.6127C27.5129 22.6127 27.6497 22.6401 27.7592 22.6676L27.9234 22.1181C27.8139 22.0906 27.6497 22.0906 27.5403 22.0906ZM20.2067 23.4644C20.2067 24.2611 20.754 24.8381 21.6023 24.8381C21.9854 24.8381 22.259 24.7557 22.5327 24.5359L22.259 24.0688C22.0401 24.2337 21.8212 24.3161 21.5749 24.3161C21.1097 24.3161 20.7814 23.9864 20.7814 23.4644C20.7814 22.9698 21.1097 22.6401 21.5749 22.6127C21.8212 22.6127 22.0401 22.6951 22.259 22.8599L22.5327 22.3929C22.259 22.1731 21.9854 22.0906 21.6023 22.0906C20.754 22.0906 20.2067 22.6676 20.2067 23.4644ZM25.5153 23.4644V22.1456H24.9407V22.4753C24.7491 22.228 24.4755 22.0906 24.1198 22.0906C23.381 22.0906 22.8063 22.6676 22.8063 23.4644C22.8063 24.2611 23.381 24.8381 24.1198 24.8381C24.5029 24.8381 24.7765 24.7007 24.9407 24.4535V24.7832H25.5153V23.4644ZM23.4083 23.4644C23.4083 22.9973 23.7093 22.6127 24.2019 22.6127C24.6671 22.6127 24.9954 22.9698 24.9954 23.4644C24.9954 23.9314 24.6671 24.3161 24.2019 24.3161C23.7093 24.2886 23.4083 23.9314 23.4083 23.4644ZM16.54 22.0906C15.7738 22.0906 15.2265 22.6401 15.2265 23.4644C15.2265 24.2886 15.7738 24.8381 16.5673 24.8381C16.9504 24.8381 17.3335 24.7282 17.6345 24.4809L17.3609 24.0688C17.142 24.2337 16.8683 24.3436 16.5947 24.3436C16.239 24.3436 15.8832 24.1787 15.8011 23.7117H17.744V23.4919C17.7713 22.6401 17.2788 22.0906 16.54 22.0906ZM16.54 22.5852C16.8957 22.5852 17.142 22.805 17.1967 23.2171H15.8285C15.8832 22.8599 16.1295 22.5852 16.54 22.5852ZM30.7966 23.4644V21.1016H30.2219V22.4753C30.0304 22.228 29.7568 22.0906 29.401 22.0906C28.6622 22.0906 28.0875 22.6676 28.0875 23.4644C28.0875 24.2611 28.6622 24.8381 29.401 24.8381C29.7841 24.8381 30.0578 24.7007 30.2219 24.4535V24.7832H30.7966V23.4644ZM28.6896 23.4644C28.6896 22.9973 28.9906 22.6127 29.4831 22.6127C29.9483 22.6127 30.2767 22.9698 30.2767 23.4644C30.2767 23.9314 29.9483 24.3161 29.4831 24.3161C28.9906 24.2886 28.6896 23.9314 28.6896 23.4644ZM9.48011 23.4644V22.1456H8.90541V22.4753C8.71391 22.228 8.44021 22.0906 8.08451 22.0906C7.34571 22.0906 6.77101 22.6676 6.77101 23.4644C6.77101 24.2611 7.34571 24.8381 8.08451 24.8381C8.46761 24.8381 8.74121 24.7007 8.90541 24.4535V24.7832H9.48011V23.4644ZM7.34571 23.4644C7.34571 22.9973 7.64671 22.6127 8.13921 22.6127C8.60441 22.6127 8.93281 22.9698 8.93281 23.4644C8.93281 23.9314 8.60441 24.3161 8.13921 24.3161C7.64671 24.2886 7.34571 23.9314 7.34571 23.4644Z" fill="black"/>
<path d="M20.6196 2H12V17.5507H20.6196V2Z" fill="#FF5F00"/>
<path d="M12.6262 9.8909C12.6262 6.7313 14.1038 3.92887 16.375 2.11555C14.7058 0.79676 12.5988 0 10.3002 0C4.8548 0 0.449219 4.42341 0.449219 9.8909C0.449219 15.3583 4.8548 19.7817 10.3002 19.7817C12.5988 19.7817 14.7058 18.985 16.375 17.6662C14.1038 15.8803 12.6262 13.0504 12.6262 9.8909Z" fill="#EB001B"/>
<path d="M32.3281 9.8909C32.3281 15.3583 27.9225 19.7817 22.4771 19.7817C20.1785 19.7817 18.0715 18.985 16.4023 17.6662C18.7008 15.8529 20.1511 13.0504 20.1511 9.8909C20.1511 6.7313 18.6735 3.92887 16.4023 2.11555C18.0715 0.79676 20.1785 0 22.4771 0C27.9225 0 32.3281 4.45089 32.3281 9.8909Z" fill="#F79E1B"/>
</svg>
