<svg width="24" height="24" viewBox="0 0 24 24" fill="none" xmlns="http://www.w3.org/2000/svg">
<path d="M3.99167 21.5606C3.89327 21.5366 3.79447 21.5139 3.69647 21.4877C3.14797 21.3394 2.66867 21.0714 2.27267 20.6685C1.58957 19.9732 1.22197 19.1424 1.19017 18.1717C1.17867 17.807 1.22147 17.4483 1.30847 17.094C1.40967 16.678 1.56777 16.2849 1.77477 15.9096C2.10527 15.3106 2.53527 14.7896 3.04367 14.3288C3.42687 13.9814 3.84447 13.6791 4.29187 13.4168C4.71057 13.171 5.10167 12.8872 5.47547 12.5798C5.94587 12.1922 6.38427 11.7708 6.81877 11.3454C7.20287 10.9692 7.58237 10.5895 7.98287 10.2309C8.28417 9.9603 8.59677 9.7036 8.93447 9.4781C9.35677 9.1964 9.80697 8.9739 10.3098 8.8662C10.6871 8.7852 11.0661 8.7734 11.4479 8.8315C11.8796 8.8963 12.2969 9.0119 12.697 9.1853C13.3093 9.4512 13.8087 9.8542 14.206 10.3837C14.4776 10.7472 14.6918 11.1424 14.8836 11.5503C15.087 11.9829 15.2658 12.4257 15.4533 12.8653C15.6648 13.3603 15.8869 13.8499 16.1487 14.3219C16.4093 14.7923 16.7102 15.2367 17.0509 15.6546C17.463 16.1602 17.8117 16.7038 18.0859 17.2939C18.3192 17.7997 18.4893 18.3241 18.5751 18.8737C18.6419 19.3018 18.6553 19.7302 18.601 20.161C18.519 20.8154 18.2943 21.4157 17.8913 21.9472C17.5182 22.4399 17.0406 22.8046 16.4766 23.0623C16.0621 23.2516 15.6294 23.3751 15.1717 23.4062C15.0096 23.4177 14.847 23.4179 14.6849 23.4054C14.6623 23.4037 14.6402 23.4041 14.6182 23.4036C14.5953 23.4116 14.5738 23.399 14.5514 23.3979C14.5329 23.3972 14.5151 23.3857 14.4958 23.3941C14.3598 23.3705 14.2232 23.3468 14.0872 23.3233C14.0731 23.3088 14.0533 23.3138 14.0364 23.3086C14.0205 23.3058 14.0054 23.3032 13.9898 23.3005C13.9769 23.2983 13.9629 23.2959 13.9503 23.2937C13.6037 23.2222 13.2782 23.0918 12.9547 22.9563C12.4068 22.7258 11.8775 22.4559 11.3346 22.2145C10.8948 22.0195 10.4474 21.8455 9.98437 21.7103C9.66357 21.6164 9.33607 21.5555 9.00667 21.5098C8.74317 21.473 8.47607 21.4677 8.21017 21.4704C7.68477 21.4766 7.16227 21.5251 6.63967 21.5728C6.08677 21.6242 5.53397 21.6747 4.97837 21.6682C4.75247 21.665 4.52717 21.6568 4.30437 21.616C4.25867 21.6075 4.21187 21.6064 4.16577 21.5972C4.10737 21.5838 4.04737 21.584 3.99167 21.5606ZM17.5637 1.42758C18.283 1.64207 18.7783 2.10769 19.103 2.76287C19.3256 3.21215 19.4303 3.6909 19.4593 4.1883C19.4834 4.61656 19.4456 5.04048 19.3559 5.46042C19.1909 6.232 18.8739 6.9371 18.4068 7.5771C18.0833 8.0206 17.6994 8.4046 17.2424 8.7141C16.8354 8.9889 16.395 9.1886 15.9071 9.276C15.5645 9.3373 15.2234 9.3379 14.8842 9.2584C14.2968 9.1217 13.8347 8.8019 13.4842 8.3223C13.1854 7.9131 13.0146 7.4513 12.9275 6.9578C12.8667 6.6126 12.8524 6.2653 12.875 5.91651C12.8902 5.67741 12.9216 5.44085 12.9714 5.20747C13.0883 4.65646 13.2859 4.1345 13.5625 3.6424C13.8563 3.11845 14.2233 2.65205 14.6809 2.25741C15.0659 1.92546 15.4933 1.66249 15.9792 1.49776C16.3363 1.3765 16.7033 1.32163 17.0815 1.34454C17.2888 1.35903 17.3707 1.37481 17.5637 1.42758ZM0.134171 7.1433C0.185371 6.9242 0.264671 6.714 0.361871 6.5106C0.550471 6.1153 0.804971 5.76941 1.15407 5.49591C1.54417 5.19078 1.98807 5.02658 2.48657 5.0157C2.89127 5.00725 3.27127 5.10686 3.62987 5.28781C4.04207 5.49617 4.38717 5.78881 4.67727 6.1422C5.12817 6.6896 5.40947 7.3158 5.55887 8.0025C5.63697 8.362 5.67037 8.7261 5.65907 9.0935C5.65367 9.2719 5.63457 9.4489 5.60667 9.6253C5.55307 9.9601 5.46027 10.2825 5.31847 10.5908C5.12927 11.0021 4.87057 11.3615 4.51017 11.6451C4.09637 11.9703 3.62367 12.1354 3.09387 12.1286C2.70517 12.1236 2.34087 12.0184 1.99807 11.8396C1.53717 11.5983 1.16637 11.2569 0.859671 10.8448C0.560271 10.4439 0.344771 10.0011 0.200171 9.5252C0.0585711 9.0585 -0.0112288 8.5802 0.00147119 8.092C0.00387119 8.0057 0.00857128 7.9198 0.0120713 7.834C0.00987128 7.794 0.0204707 7.7554 0.0179707 7.7157C0.0164707 7.699 0.021671 7.6842 0.023771 7.6676C0.024471 7.6468 0.0376709 7.6268 0.0286709 7.6043C0.0470709 7.5016 0.0654707 7.3991 0.0839707 7.2961C0.108471 7.2713 0.104471 7.2383 0.112071 7.2086C0.117671 7.1865 0.116271 7.1617 0.134171 7.1433ZM5.83547 3.11686C5.94767 2.50537 6.13497 1.96879 6.43777 1.47371C6.66637 1.09931 6.94717 0.769379 7.30337 0.505199C7.68707 0.219869 8.11397 0.0415685 8.59677 0.00649852C9.07957 -0.0291215 9.52777 0.0825989 9.94567 0.319279C10.3137 0.528069 10.617 0.809279 10.8715 1.14196C11.278 1.67247 11.5297 2.2715 11.6696 2.91834C11.7584 3.32965 11.7958 3.74542 11.7844 4.16529C11.7779 4.40338 11.7563 4.6408 11.719 4.87717C11.671 5.17444 11.5992 5.46643 11.4971 5.7504C11.2843 6.3439 10.9719 6.8769 10.5064 7.3154C10.217 7.5872 9.88747 7.7963 9.50637 7.9221C9.08057 8.0624 8.64897 8.077 8.21487 7.9672C7.82227 7.8682 7.47837 7.6764 7.17197 7.417C6.77227 7.0789 6.47387 6.6647 6.24727 6.1988C5.97857 5.64567 5.83087 5.05992 5.78037 4.44921C5.75257 4.11513 5.75657 3.78096 5.79087 3.44733C5.80317 3.32205 5.81697 3.19619 5.83547 3.11686ZM23.3243 11.5318C23.3201 11.5553 23.3158 11.5791 23.3116 11.6029C23.1783 12.1882 22.9186 12.7158 22.565 13.2007C22.2871 13.5805 21.9595 13.9138 21.578 14.1933C21.0883 14.5529 20.5495 14.806 19.9443 14.9091C19.5817 14.9708 19.2201 14.9695 18.8608 14.8868C18.3306 14.7642 17.8973 14.4917 17.5687 14.0634C17.2974 13.7093 17.1489 13.3061 17.0878 12.8706C17.0326 12.4802 17.0518 12.0909 17.1336 11.7053C17.3131 10.8573 17.7255 10.1298 18.3263 9.5026C18.5292 9.2902 18.7525 9.1003 18.9945 8.9332C19.4922 8.5909 20.0332 8.3552 20.6386 8.2733C20.9827 8.2276 21.324 8.2385 21.6604 8.3239C22.1743 8.454 22.5939 8.7272 22.9115 9.1478C23.198 9.5273 23.3441 9.96 23.3956 10.4262C23.4241 10.6837 23.4214 10.9417 23.384 11.1987C23.3798 11.2225 23.3755 11.2465 23.3712 11.2703C23.3528 11.3569 23.3375 11.444 23.3243 11.5318Z" fill="#040404"/>
</svg>
