<svg width="22" height="24" viewBox="0 0 22 24" fill="none" xmlns="http://www.w3.org/2000/svg">
<g filter="url(#filter0_d_1_529)">
<path d="M8.78926 15.9998C6.40798 15.9861 4.43823 11.1251 4.43823 8.64954C4.43823 4.60566 7.47183 3.72035 8.64095 3.72035C9.16783 3.72035 9.73042 3.92725 10.2266 4.11035C10.5736 4.23807 10.9325 4.36991 11.1321 4.36991C11.2516 4.36991 11.5331 4.25775 11.7817 4.15935C12.3118 3.94832 12.9714 3.68604 13.7395 3.68604C13.7409 3.68604 13.7427 3.68604 13.7441 3.68604C14.3176 3.68604 16.0567 3.81191 17.1022 5.38204L17.3471 5.75007L16.9947 6.01604C16.4911 6.39597 15.5724 7.08904 15.5724 8.46188C15.5724 10.0878 16.6129 10.7132 17.1128 11.0139C17.3334 11.1467 17.5618 11.2835 17.5618 11.5829C17.5618 11.7784 16.0018 15.9756 13.7363 15.9756C13.182 15.9756 12.7901 15.809 12.4445 15.662C12.0948 15.5133 11.7931 15.3851 11.2946 15.3851C11.0419 15.3851 10.7224 15.5046 10.3841 15.6314C9.9218 15.8039 9.39855 15.9998 8.80483 15.9998H8.78926Z" fill="white"/>
</g>
<path d="M13.9795 0C14.0385 2.12737 12.5171 3.60325 10.9975 3.51069C10.7471 1.81297 12.5169 0 13.9795 0Z" fill="white"/>
<defs>
<filter id="filter0_d_1_529" x="0.438232" y="3.68604" width="21.1235" height="20.3137" filterUnits="userSpaceOnUse" color-interpolation-filters="sRGB">
<feFlood flood-opacity="0" result="BackgroundImageFix"/>
<feColorMatrix in="SourceAlpha" type="matrix" values="0 0 0 0 0 0 0 0 0 0 0 0 0 0 0 0 0 0 127 0" result="hardAlpha"/>
<feOffset dy="4"/>
<feGaussianBlur stdDeviation="2"/>
<feComposite in2="hardAlpha" operator="out"/>
<feColorMatrix type="matrix" values="0 0 0 0 0 0 0 0 0 0 0 0 0 0 0 0 0 0 0.25 0"/>
<feBlend mode="normal" in2="BackgroundImageFix" result="effect1_dropShadow_1_529"/>
<feBlend mode="normal" in="SourceGraphic" in2="effect1_dropShadow_1_529" result="shape"/>
</filter>
</defs>
</svg>
