<svg aria-hidden="true" xmlns="http://www.w3.org/2000/svg" xmlns:xlink="http://www.w3.org/1999/xlink"><symbol viewBox="0 0 24 25" fill="none" id="arrow" xmlns="http://www.w3.org/2000/svg">
<path fill-rule="evenodd" clip-rule="evenodd" d="M1.5 12.5C1.5 12.3011 1.57902 12.1103 1.71967 11.9697C1.86032 11.829 2.05109 11.75 2.25 11.75H19.9395L15.219 7.031C15.0782 6.89017 14.9991 6.69916 14.9991 6.5C14.9991 6.30084 15.0782 6.10983 15.219 5.969C15.3598 5.82817 15.5508 5.74905 15.75 5.74905C15.9492 5.74905 16.1402 5.82817 16.281 5.969L22.281 11.969C22.3508 12.0387 22.4063 12.1214 22.4441 12.2126C22.4819 12.3037 22.5013 12.4014 22.5013 12.5C22.5013 12.5987 22.4819 12.6963 22.4441 12.7875C22.4063 12.8786 22.3508 12.9613 22.281 13.031L16.281 19.031C16.1402 19.1718 15.9492 19.2509 15.75 19.2509C15.5508 19.2509 15.3598 19.1718 15.219 19.031C15.0782 18.8902 14.9991 18.6992 14.9991 18.5C14.9991 18.3008 15.0782 18.1098 15.219 17.969L19.9395 13.25H2.25C2.05109 13.25 1.86032 13.171 1.71967 13.0303C1.57902 12.8897 1.5 12.6989 1.5 12.5Z" fill="currentColor"/>
</symbol><symbol viewBox="0 0 15 27" fill="none" id="facebook" xmlns="http://www.w3.org/2000/svg">
<path d="M9.76159 27V14.7041H13.9079L14.5242 9.88981H9.76159V6.82333C9.76159 5.43411 10.1485 4.48296 12.1414 4.48296H14.6667V0.190784C13.438 0.0590496 12.203 -0.00455774 10.9672 0.000253789C7.30229 0.000253789 4.78601 2.23861 4.78601 6.34775V9.88081H0.666687V14.6951H4.79501V27H9.76159Z" fill="currentColor"/>
</symbol><symbol viewBox="0 0 29 27" fill="none" id="google" xmlns="http://www.w3.org/2000/svg">
<path d="M2.14767 6.73313C2.14767 9.02506 2.92558 10.6788 4.45801 11.6499C5.71451 12.4476 7.17056 12.5673 7.9282 12.5673C8.11215 12.5673 8.26025 12.5581 8.36314 12.5519C8.36314 12.5519 8.12306 14.0922 9.28291 15.614H9.22991C7.22044 15.614 0.666687 16.0266 0.666687 21.3315C0.666687 26.7254 6.68573 27 7.8939 27C7.989 27 8.04512 26.9969 8.04512 26.9969C8.05759 26.9969 8.14333 27 8.29143 27C9.06622 27 11.0694 26.9049 12.9293 26.0136C15.3425 24.863 16.5662 22.8549 16.5662 20.0536C16.5662 17.3475 14.7018 15.7367 13.3408 14.5585C12.5099 13.839 11.7912 13.2193 11.7912 12.6164C11.7912 12.0027 12.3166 11.541 12.9791 10.9565C14.0532 10.013 15.0666 8.66761 15.0666 6.12409C15.0666 3.88892 14.7719 2.38705 12.9558 1.43438C13.1444 1.33926 13.8147 1.27023 14.1452 1.2242C15.1289 1.09227 16.5678 0.941932 16.5678 0.151875V0H9.39827C9.32656 0.00306818 2.14767 0.263864 2.14767 6.73313ZM13.7212 20.5599C13.8584 22.7168 11.983 24.3077 9.16599 24.5086C6.30535 24.7157 3.95136 23.4486 3.81417 21.2932C3.74714 20.2561 4.21014 19.2436 5.11588 18.4352C6.03409 17.6175 7.29527 17.1112 8.66713 17.0115C8.82926 17.0023 8.98983 16.9931 9.1504 16.9931C11.799 16.9947 13.5918 18.5257 13.7212 20.5599ZM11.8489 5.2558C12.552 7.69193 11.4904 10.2355 9.79736 10.7064C9.60247 10.7599 9.40104 10.7867 9.19873 10.7862C7.64915 10.7862 6.1136 9.2429 5.54303 7.11511C5.22501 5.92466 5.25151 4.87841 5.6163 3.87511C5.9733 2.88563 6.61869 2.22136 7.42934 1.99585C7.62421 1.94216 7.82531 1.91455 8.02953 1.91455C9.90025 1.91455 11.1037 2.67852 11.8489 5.2558ZM23.9899 10.4318V5.82955H20.872V10.4318H16.1952V13.5H20.872V18.1023H23.9899V13.5H28.6667V10.4318H23.9899Z" fill="currentColor"/>
</symbol><symbol viewBox="0 0 28 26" fill="none" id="like" xmlns="http://www.w3.org/2000/svg">
<path d="M20.3 0C17.864 0 15.526 1.134 14 2.926C12.474 1.134 10.136 0 7.7 0C3.388 0 0 3.388 0 7.7C0 12.992 4.76 17.304 11.97 23.856L14 25.69L16.03 23.842C23.24 17.304 28 12.992 28 7.7C28 3.388 24.612 0 20.3 0ZM14.14 21.77L14 21.91L13.86 21.77C7.196 15.736 2.8 11.746 2.8 7.7C2.8 4.9 4.9 2.8 7.7 2.8C9.856 2.8 11.956 4.186 12.698 6.104H15.316C16.044 4.186 18.144 2.8 20.3 2.8C23.1 2.8 25.2 4.9 25.2 7.7C25.2 11.746 20.804 15.736 14.14 21.77Z" fill="currentColor"/>
</symbol><symbol viewBox="0 0 40 40" fill="none" id="twiter" xmlns="http://www.w3.org/2000/svg">
<path d="M33.3883 13.3282C33.41 13.6199 33.41 13.9099 33.41 14.1999C33.41 23.0749 26.655 33.3016 14.31 33.3016C10.5067 33.3016 6.97333 32.1999 4 30.2866C4.54 30.3482 5.06 30.3699 5.62167 30.3699C8.64332 30.3772 11.5794 29.3668 13.9567 27.5016C12.5557 27.4762 11.1976 27.014 10.0721 26.1795C8.9465 25.3449 8.10964 24.1797 7.67833 22.8466C8.09333 22.9082 8.51 22.9499 8.94667 22.9499C9.54833 22.9499 10.1533 22.8666 10.715 22.7216C9.1946 22.4146 7.82746 21.5905 6.84603 20.3894C5.86461 19.1883 5.32949 17.6843 5.33167 16.1332V16.0499C6.22667 16.5482 7.265 16.8599 8.365 16.9016C7.44348 16.2892 6.68787 15.4583 6.16557 14.4829C5.64327 13.5075 5.37052 12.418 5.37167 11.3116C5.37167 10.0649 5.70333 8.92158 6.285 7.92491C7.9719 9.99994 10.0758 11.6975 12.4606 12.9077C14.8453 14.1178 17.4576 14.8136 20.1283 14.9499C20.025 14.4499 19.9617 13.9316 19.9617 13.4116C19.9612 12.5298 20.1346 11.6567 20.4718 10.842C20.809 10.0273 21.3035 9.28703 21.927 8.66356C22.5505 8.04008 23.2907 7.54559 24.1054 7.20837C24.9201 6.87115 25.7933 6.6978 26.675 6.69824C28.6083 6.69824 30.3533 7.50824 31.58 8.81824C33.083 8.5276 34.5242 7.97895 35.84 7.19658C35.339 8.74794 34.2896 10.0634 32.8883 10.8966C34.2213 10.7445 35.5241 10.394 36.7533 9.85658C35.8352 11.1951 34.6975 12.3688 33.3883 13.3282Z" fill="currentColor"/>
</symbol><symbol viewBox="0 0 45 45" fill="none" id="youtube" xmlns="http://www.w3.org/2000/svg">
<path d="M40.7631 12.1306C40.5496 11.3383 40.1322 10.6156 39.5526 10.0347C38.9729 9.45376 38.2513 9.03475 37.4594 8.81939C34.5231 8.01314 22.7763 8.00001 22.7763 8.00001C22.7763 8.00001 11.0313 7.98689 8.09313 8.75751C7.30174 8.98279 6.58154 9.40772 6.00169 9.99152C5.42183 10.5753 5.00179 11.2984 4.78188 12.0913C4.0075 15.0275 4 21.1175 4 21.1175C4 21.1175 3.9925 27.2375 4.76125 30.1438C5.1925 31.7506 6.45813 33.02 8.06688 33.4531C11.0331 34.2594 22.7481 34.2725 22.7481 34.2725C22.7481 34.2725 34.495 34.2856 37.4313 33.5169C38.2234 33.3019 38.9458 32.8839 39.5269 32.3041C40.1079 31.7243 40.5276 31.003 40.7444 30.2113C41.5206 27.2769 41.5263 21.1888 41.5263 21.1888C41.5263 21.1888 41.5638 15.0669 40.7631 12.1306ZM19.0188 26.7594L19.0281 15.5094L28.7913 21.1438L19.0188 26.7594Z" fill="currentColor"/>
</symbol></svg>